/* XPM */
static char *ml_cd_41722085377[] = {
/* columns rows colors chars-per-pixel */
"64 32 214 2 ",
"   c #0E0000",
".  c #150000",
"X  c #1D0000",
"o  c #1C0009",
"O  c #230000",
"+  c #2C0002",
"@  c #24020E",
"#  c #2B020B",
"$  c #340101",
"%  c #390102",
"&  c #34030B",
"*  c #390809",
"=  c #290316",
"-  c #360416",
";  c #380211",
":  c #391618",
">  c #3A1C1C",
",  c #333E0D",
"<  c #2C231F",
"1  c #312D1E",
"2  c #393C1A",
"3  c #3C1826",
"4  c #2D2522",
"5  c #302725",
"6  c #3A2220",
"7  c #332926",
"8  c #362C29",
"9  c #392E2B",
"0  c #3A3525",
"q  c #3A3827",
"w  c #3B312D",
"e  c #3E3431",
"r  c #450B07",
"t  c #4B0E04",
"y  c #4E1406",
"u  c #44140A",
"i  c #4B120C",
"p  c #531203",
"a  c #440B14",
"s  c #481715",
"d  c #411815",
"f  c #561D1B",
"g  c #611000",
"h  c #641413",
"j  c #5F231B",
"k  c #5C291B",
"l  c #752404",
"z  c #652513",
"x  c #692717",
"c  c #632B1D",
"v  c #702714",
"b  c #6E1521",
"n  c #6C1B26",
"m  c #6E1F2E",
"M  c #7A1C29",
"N  c #572A27",
"B  c #413633",
"V  c #443936",
"C  c #483A37",
"Z  c #463C39",
"A  c #493E3B",
"S  c #612B22",
"D  c #79202B",
"F  c #35410E",
"G  c #3A460E",
"H  c #3D4C09",
"J  c #3D5703",
"K  c #394511",
"L  c #3D4A12",
"P  c #435E03",
"I  c #475B08",
"U  c #404E14",
"Y  c #445215",
"T  c #49561A",
"R  c #4B5C19",
"E  c #4B6505",
"W  c #4A6109",
"Q  c #516806",
"!  c #516509",
"~  c #536C09",
"^  c #5B750D",
"/  c #5C740C",
"(  c #4F6019",
")  c #5A6F11",
"_  c #52641C",
"`  c #586A1B",
"'  c #5D7512",
"]  c #637B0D",
"[  c #617512",
"{  c #697E14",
"}  c #697E19",
"|  c #4B4C2B",
" . c #4C5424",
".. c #53592F",
"X. c #4F4B35",
"o. c #4C413E",
"O. c #51433F",
"+. c #59463E",
"@. c #7E4D3D",
"#. c #755934",
"$. c #5B6927",
"%. c #5F7423",
"&. c #343F41",
"*. c #4E4341",
"=. c #4B4C45",
"-. c #524643",
";. c #544945",
":. c #584648",
">. c #564B49",
",. c #594D4A",
"<. c #5B524D",
"1. c #4E4F54",
"2. c #5E5651",
"3. c #734E4A",
"4. c #684F57",
"5. c #605953",
"6. c #69625D",
"7. c #525961",
"8. c #5E6C6C",
"9. c #6D6B66",
"0. c #736C66",
"q. c #74726D",
"w. c #79736D",
"e. c #6D767B",
"r. c #7B7A75",
"t. c #86242A",
"y. c #94282C",
"u. c #8C2637",
"i. c #942838",
"p. c #9B2C3C",
"a. c #A22C3D",
"s. c #96451D",
"d. c #99441E",
"f. c #8F472B",
"g. c #8B492D",
"h. c #964624",
"j. c #964529",
"k. c #864934",
"l. c #894933",
"z. c #824A3C",
"x. c #8B493C",
"c. c #934A37",
"v. c #AE653E",
"b. c #BA6737",
"n. c #B5653B",
"m. c #B7673C",
"M. c #BA683B",
"N. c #90384B",
"B. c #A32E40",
"V. c #A92E41",
"C. c #A83144",
"Z. c #B73747",
"A. c #B3354A",
"S. c #BB3B51",
"D. c #C33A4D",
"F. c #C83B51",
"G. c #874E4F",
"H. c #8E6D50",
"J. c #9A7C56",
"K. c #9B7C5B",
"L. c #AE6749",
"P. c #B56544",
"I. c #BB6640",
"U. c #B56946",
"Y. c #B2674C",
"T. c #B86B48",
"R. c #AD6752",
"E. c #A66B59",
"W. c #96566A",
"Q. c #8D5479",
"!. c #94517A",
"~. c #9A7A69",
"^. c #827D77",
"/. c #A76C63",
"(. c #6B820F",
"). c #728A14",
"_. c #758D17",
"`. c #758E1A",
"'. c #798F1B",
"]. c #A0815F",
"[. c #9D8666",
"{. c #87837D",
"}. c #9A8D75",
"|. c #9D927C",
" X c #A38665",
".X c #A48C6A",
"XX c #A8887A",
"oX c #AD977F",
"OX c #AC987D",
"+X c #B1987A",
"@X c #AC9C84",
"#X c #B49D8C",
"$X c #AC9796",
"%X c #B4A48E",
"&X c #B8A88F",
"*X c #B6A591",
"=X c #B7AC9A",
"-X c #BCB6AA",
";X c #C3AB95",
":X c #C4AE9A",
">X c #C2B19C",
",X c #C9B29C",
"<X c #C9AEA5",
"1X c #C5B5A2",
"2X c #C6B7A7",
"3X c #C9B9A5",
"4X c #CDBCAB",
"5X c #D1BEAD",
"6X c #C4BDB2",
"7X c #CFC6A7",
"8X c #D4C3B3",
"9X c #D9C7B7",
"0X c #E3D9BE",
"qX c #DDD8C5",
/* pixels */
"o.*.*.*.*.-.*.Z V Z =.,.*.;.*.o.-.-.w B C A o.o.B o.V o.A w Z o.o.*.*.*.*.*.*.A e o.=.,.*.;.*.o.-.-.e e o.C o.o.e o.V A C 9 Z *.",
"*.*.*.-.;.-.A *.*.*.V 8 *.8 w V V w w w w e O.B w o.C V Z Z Z *.*.*.*.*.>.-.A *.o.o.V 7 *.9 w V e e w w w e O.e e o.Z Z A Z Z *.",
"*.*.*.*.;.>.>.-.] ( e `.8 o.2X@ @ <X7XB V w V o.C o.O.o.e [ | B *.*.*.*.;.-.>.*.(.( e '.8 o.Z V w e e e e 8 V o.o.o.X.C e ' | B ",
"V o.-.;.-.o.*.A Y R W qX= 3 s y y i & =X=X0X,.B o.o.o.2 T V o.*.C o.*.:.;.*.*.A Y R E ^ e o.o.o.V e o.C o.o.;.V o.o.o.2 T V o.o.",
"o.-.A -.,.C _ F ~ -.9X~.X 3.O i y t i & =XH.5Xw.8 E E F (.e -.o.o.-.o.;.,.Z _ F ~ -.' 7 -.C o.A Z o.e C o.2.r.w.8 E ! , } B -.*.",
"-.-.-.-.>.| q ).A 8X8X[.O E.k.O : p i O [.~.5X4X5 F 7 Y ' e A *.-.-.-.;.-.| e ).C E  .w w C C A o.*.*.o.w 6.w.).5 , 7 Y ^ B A o.",
"A -.;.o.B E ( ! 4X4X[.* m # E.N + i u d o r  X4X3X'.8 P 9 *.A *.A ;.;.o.e E ( E w 7 < w C 9 -.w Q Z o.Z e E e E L '.8 P 9 o.o.-.",
"-.:.>.-.H B <.>X3X Xf m N.G.O . > O + : . @ f  X,X1X^ V Z *.-.>.:.-.;.o.H V 2.w.q.6.o.q w w B B ).J w ~ 9 ;.<.o.H 0 / V V -.*.>.",
"A A 8 { 9 w 5.1X,XK.b u.s S z.O 3.. O O @.@.c ; :X=XX.P 9 B O.-.O.A 8 { w w 5.2.<.;.V 0.B 8 8 K 8 L w } 8 -.;.<. .L X.P e e *.-.",
"B P < 8 w w =X8X#.n u.& R.Y.f.R.$ O $ p I.n.T.x.~.9X}.*.%.4 8 8 9 P < 8 9 w 4 ,.*.C w 2.;.8 < B Z Z *.A A Z ,.~ e Y -.*.%.4 8 8 ",
"9 5 9 B V B :X.XH.=.7.& g.n.l d.h.M.d.h.g h.s.l % [.}.*.*.V V 8 8 5 w B B e B w 8 5 e 4 7 A -.A A -.B Z V B ;.;.*.*.-.*.*.B Z 8 ",
"B 9 9 B V 9 %X@XH.D u.@ % c.n.d.b.b.M.d.j.U.s.I.c.- =XA -.B 8 0 B w w B V 9 V V e Z C 8 w V o.V V V B B {.e V o.*.*.*.o.-.B 8 9 ",
"8 B w B B 9 %X*XK.D u.+ j $ h.l s.h.M.I.j.j.U.m.T.x % A o.B w w 8 V q B B 8 C V o.V B I B V V V e B {.^.q.,.B o.Z o.o.o.o.B w w ",
"B B B B e B *X*X~.t.p.# z x.% z l.g.v j.c W.W.x n.Y.G.w 8 A w w w B B V B B V V Z w 7 ` B V B B V e 9.6.<.V C E Z e (.9 8 A 9 w ",
"B B B V C Z *X*XK.N.@ O R.x.O O O O O X . !.!.@.T.v $ P Q / 8 B B B B C C C w *.o.o.E ~ w B B A o.B -.;.Z Y 5 T ! ^ G J E / w w ",
"B V B C B = & /./.X > 3 $ ; o   O.. X . . !.Q.O l.% $X_ ).9 9 B B B C B B 9 o.*.*.R ' '.9 w V V C B 7 8 4 e o.<.+.Z E ` ).w w w ",
"B V V C e -.- c * 4.4.4.4.% E.O O Y.b.b.L.+ 3.+.XX&X-X/ , P 5 9 e V V o.e Z o.o./ 9 e E w ..o.7 w P 8 7 8 e C o.o.O.o.^ , E 4 w ",
"w w w e e e :X=XK.b b b $ G.v.k.$ m.n.I.s.T.l.$ OX;X-XC A O.V 9 w w 9 w e w 8 e `.Q ` 4 q o.o.o.C o.Y Y ^ V o.o.B +.o.o.o.o.e w ",
"C C C V O.o.>X>XK.i.a.C.z.Y.m.k.$ m.M.g P.L.x M oX;X-Xo.A A C 9 C C o.e -.o.o.o.1 E ).e B A ;.o.A A ;.U w V Z V C o.V C A o.e 9 ",
"B B C C o.o.>X>XK.i.C.+ l n.s.z.% M.b.d.l + C.p.oX:X-XA V A A C V e C V o.o.o.V ).R 8 w V B o.*.Z V B ) 8 ~ V e C C o.o.w o.o.C ",
"e V e V V V >X,XK.p.C.z.h.h.j.3.% P.h.s.g.$ V.i.OX:X2XA A o.A B e V q V V C r.=.' T Y B V V Z V V 8 A $.L T q.q.V C o.Z o.o.C w ",
"9 e e e B w >X3XK.p.A.z.h.U.v Z.t.g.h.s.x.A.V.p.oX:X-XZ A A 8 e 9 e B e w w q _ / $._ w e e e V V 8 A C K 9 ..=.V w o.o.o.A w w ",
"w q e w e 0 >X3XJ.i.A.$ T.j.G.Z.h & l.j.g.k + B.OX,X6XV o.V e w w w e w w w { ^.{.w.<.w 0 e B B V V Z V A Z I V V C V V o.V e w ",
"8 w 9 ` 9 e 3X3X].8.&.# $ $ + - 1.e.$ R.g.E.O @ +X,X6XB A V e *.8 9 7 %.w e B 0.6.2.A V e C o.w V o.e o.A A _.A V V C e o.V e -.",
"o.*.e J `.5 3X3XK.C.A.- k p x * f A.S.& $ p x u OX,X6XA Z 8 >.*.o.-.9 H `.7 0 2.<.=.8 B B B B +.V V o.V e C C W e Z Z A Z 8 >.*.",
"*.Z e 4 H Y 3X3XJ.a.A.S.k c c a 6 F.D.D.; x g t OX,X6XA o.8 Z *.*.Z e 4 L L L e e 4 7 w B B B V e B o.e w w 8 B F e V Z o.8 Z *.",
"e *.e 4 E E 3X8XJ.t.Z.Z.c z $ y.6 F.A.D.y.y.& c $ 9X|.C V V B w V *.e 4 P Q ~ L 7 Y  .9 C w B B e V V V V V V B 8 o.e Z V Z B w ",
"e Z o.o.X.w >XOXK.*X&X@Xc x & *X&X&X&X%X%X%X%Xs p #X}.e V } Q e V Z *.*.X.w (.W V e o.e C 8 B B V V V C e V V B Z e V e V } ! e ",
"=.*.*.>.A Z 9 e <X9X<Xs x v # 9X9X8X8X8X8X8X4X$ v i # Y ~ ' o.B o.*.*.>.*.Z 9 e Z o.o.V o.Z e w.w.e o.8 K V C Z C P F Y Q ' o.e ",
"*.*.-.1.*.Z H V = N N N u u : >.;.G ~ (.2 o 3 d i + @ w F A e 8 *.*.*.1.=.e H q Z o.o.*.*.*.O.;.O.G ~ (.F w e 8 w o.Q w F A w 8 ",
"*.*.*.*.*.*.` _ A Z A A :.>.7 9 8 o.Z 9 Y w w o.o.*.e B 0 w Z A *.*.*.*.*.*.) _ o.V Z Z =.;.7 9 9 o.V w Y w w o.o.o.w e 0 w A A ",
"*.*.Z *.*.*.Z Z A *.*.*.*.>.>.*.;.,.o.w V V Z e V 9 Z Z C w Z *.*.*.*.*.*.*.Z Z *.*.*.*.-.>.,.o.;.;.o.w V V V e V 9 o.Z Z w Z *."
};
