/* XPM */
static char *ml_cd_11722079346[] = {
/* columns rows colors chars-per-pixel */
"64 32 217 2 ",
"   c #020200",
".  c #0C0101",
"X  c #140100",
"o  c #1C0000",
"O  c #18000C",
"+  c #001106",
"@  c #180015",
"#  c #240000",
"$  c #2C0002",
"%  c #24000E",
"&  c #3C0A06",
"*  c #2F1A05",
"=  c #3D1B08",
"-  c #381B18",
";  c #333E0D",
":  c #3B3016",
">  c #371921",
",  c #2D2522",
"<  c #312625",
"1  c #3A2220",
"2  c #332926",
"3  c #362C29",
"4  c #392E2B",
"5  c #3A3525",
"6  c #3B322D",
"7  c #3E3431",
"8  c #460A06",
"9  c #570C02",
"0  c #471509",
"q  c #541405",
"w  c #5D1100",
"e  c #441C16",
"r  c #591414",
"t  c #661900",
"y  c #661417",
"u  c #75181D",
"i  c #582713",
"p  c #512E13",
"a  c #682608",
"s  c #792704",
"d  c #672914",
"f  c #6A311A",
"g  c #5A1720",
"h  c #6D1622",
"j  c #621823",
"k  c #6B1A25",
"l  c #731926",
"z  c #50322C",
"x  c #413633",
"c  c #443936",
"v  c #483A37",
"b  c #463C39",
"n  c #493E3A",
"m  c #662624",
"M  c #78212B",
"N  c #7E2333",
"B  c #35410E",
"V  c #3C4A0C",
"C  c #3C5503",
"Z  c #394511",
"A  c #3D4B12",
"S  c #415705",
"D  c #435E03",
"F  c #404E14",
"G  c #435215",
"H  c #49551B",
"J  c #4C5C1A",
"K  c #4B6505",
"L  c #4C600D",
"P  c #516509",
"I  c #536B09",
"U  c #57700B",
"Y  c #5C740C",
"T  c #586C17",
"R  c #52641C",
"E  c #5D7512",
"W  c #62790D",
"Q  c #687D16",
"!  c #4A4A2B",
"~  c #4F562A",
"^  c #4F4B35",
"/  c #4C413E",
"(  c #50433F",
")  c #55493F",
"_  c #784F32",
"`  c #5A6727",
"'  c #5F7423",
"]  c #707A2C",
"[  c #363E44",
"{  c #4E3F41",
"}  c #3B4249",
"|  c #464547",
" . c #4E4341",
".. c #524643",
"X. c #544945",
"o. c #594549",
"O. c #564B49",
"+. c #594E4A",
"@. c #5A514D",
"#. c #514D51",
"$. c #4A5456",
"%. c #674E56",
"&. c #685559",
"*. c #765B5F",
"=. c #68605B",
"-. c #565C63",
";. c #745D66",
":. c #5D676A",
">. c #5F6670",
",. c #666969",
"<. c #7A6A6A",
"1. c #70726E",
"2. c #79736D",
"3. c #626A72",
"4. c #6A6B73",
"5. c #776B7B",
"6. c #697377",
"7. c #6D797C",
"8. c #797776",
"9. c #851E1F",
"0. c #903E0E",
"q. c #801E2D",
"w. c #862327",
"e. c #932428",
"r. c #852435",
"t. c #8B2535",
"y. c #8D2936",
"u. c #8B2639",
"i. c #8E2A3A",
"p. c #942637",
"a. c #932738",
"s. c #942A3B",
"d. c #9A2C3D",
"f. c #9C313B",
"g. c #A0242C",
"h. c #A52C33",
"j. c #A32C3E",
"k. c #AA2C3F",
"l. c #A4313C",
"z. c #99431D",
"x. c #8B4727",
"c. c #9A4526",
"v. c #8B4437",
"b. c #934833",
"n. c #8B5338",
"m. c #A34B29",
"M. c #B05F30",
"N. c #B56A29",
"B. c #AB6631",
"V. c #B56433",
"C. c #B86739",
"Z. c #BA653C",
"A. c #C2753D",
"S. c #9E2C41",
"D. c #A42E41",
"F. c #AA2E41",
"G. c #B62E42",
"H. c #A43144",
"J. c #AC3144",
"K. c #AE3549",
"L. c #B23244",
"P. c #B43549",
"I. c #BB364B",
"U. c #BA394A",
"Y. c #C23A4E",
"T. c #C53A50",
"R. c #854C44",
"E. c #896D4D",
"W. c #9B7859",
"Q. c #9B7C5B",
"!. c #AB6A46",
"~. c #B76546",
"^. c #AB6E54",
"/. c #B15363",
"(. c #9A7F64",
"). c #C16A42",
"_. c #6A820F",
"`. c #728B14",
"'. c #778E1A",
"]. c #9C825E",
"[. c #A0825E",
"{. c #9D8466",
"}. c #8E887C",
"|. c #9A8D75",
" X c #A38868",
".X c #A58D73",
"XX c #AA947B",
"oX c #AC987D",
"OX c #B1987A",
"+X c #AC9C84",
"@X c #B4A48D",
"#X c #BCA58D",
"$X c #B8A88F",
"%X c #B6A691",
"&X c #B4A991",
"*X c #BBAA95",
"=X c #B9AA97",
"-X c #B7AD9A",
";X c #929DA3",
":X c #B4AEA0",
">X c #BBB5A9",
",X c #C3AB95",
"<X c #C4AE9A",
"1X c #C2B19C",
"2X c #C9B29C",
"3X c #C5B5A2",
"4X c #C6B7A6",
"5X c #CBB9A5",
"6X c #CCBCAA",
"7X c #D1BEAE",
"8X c #C4BDB2",
"9X c #CFC6A7",
"0X c #D4C3B4",
"qX c #D8C6B6",
"wX c #DAC9BA",
"eX c #E3D9BE",
"rX c #DDD8C5",
/* pixels */
"/  . . ... . .n c /  .@. .X. . .X.| 7 7 n n / c c / c / n 6 b {  . . . .../  .n 7 / X.@.| X. . . . .7 x c n n n c ( c / v 4 c / ",
" . . ...X...n  . .b c 5  .3 6 c 7 6 6 6 6 7 ..7 6 / / c b b b  . . ./ ( ;.. . X./ / 7 4  .3 5 c c 7 6 6 6 6 ..x 6 n c c / c / / ",
" . . . .X.X.O./ W J 7 '.3 9X5X6X0X0X7 6 c 3 c / n n ..c x W ! x  . .#.- 0 q q = . J x '.3 / c c 6 c 6 7 x 5 c / / n ( / c Y ! x ",
"c / ..X.X./ ( / H J eX-X1X3X6X6X6X6X6X9XrXn O.c  .n ..; H x  . .7  .o m X 0 0 q 0 O K Y c / / / c 7 / c / / O.c n / ( 5 H c / / ",
"/ ..( ..+.c R B I 7XE.-X{.{.Q.(.{.{.W.3X XqX8.<.4 K K B Q x ../ n ..o ^.x.X = 8 q o E 2 ..c / n c n x c n @.8.2.4 K K B _.7 X. .",
"........X.! 6 `.7X7X(.{.8 g j 8 g g & ].{.0X0X`.< ; < G Y 7 n / ......^.x._ # 9 9 # @ 3 6 c n n n .. . .7 =.2.`.< B 2 G E 7 / / ",
"n ..X./ x K R 6X6X X8 j h N r.r N S.j k & [.7X6XA '.4 K 6 / / ..n o.o.. - 0 0 X 0   . O v 4 ..6 I b n n c K c K A '.3 S 4 / /  .",
"..o.O...V x 1X3X X8 k r.r./.u.r r.r.r.t.k i  X6X<X4 Y x c .. .X...... o * 8 $ X i ^._ o 6 6 x 7 `.C 6 I 3 X.O./ S 4 Y c c .. .O.",
"/ / 3 Q 6 7 -X<X(.h r.u.u.r.r.r u.q.u.i.r.l W.3X3XF ^ D 4 x / ) ( b n.B.$ !.!.x.B.B.~.v.@ 3 3 Z 3 A 7 Q 3 X.O.@.! A ^ K 4 7  . .",
"6 S , 3 6 |.qX(.0 t.u.r.S.u.u.y u.r.a.i.q.t.m _ 0X-X....' < 3 3 4 $ ~.M.~.z.c.t 0.A.Z.b.@ 5 , x b b  .n n c +.U 6 G X. .' , 3 4 ",
"3 < 4 x x |.{.(.{ $.-.-.} -.>.[ >.3.} >.3.-.| E. X1X.. . .x c 3 3 < p ~.V.C.c.t A.V.z.9 2 v ) v n  .x b c x X.X.)  .X. . .c b 3 ",
"x 6 6 x x :X#X|.l r.S.u.S.S.s.y a.t.s.s.s.s.l E.+X@X/  ...x 3 6 x 6 o m.m.V.Z.s Z.V.).v.x x / x c b x 7 }.6 7 / / / / /  .7 3 4 ",
"3 x x x 7 :X@X{.y s.a.s.S.u.s.y d.s.s.d.s.t.M Q.*X@X .n / x 6 5 3 x 7 m ~.Z.C.w h.C.^.i c c v c 7 x }.8.2.O.7 / n / / / / x 7 6 ",
"6 x x x 7 :X#X XM d.s.S.S.S.d.y j.s.d.s.S.S.w.Q.%X%XQ 4 2 / 4 6 6 x x % o # n.C.N.C.v.$ x c x x c 7 ,.=.@.c / K b 7 _.3 3 n 4 6 ",
"x x x x c -X#X.Xy d.s.D.a.j.S.u p.j.j.a.S.s.r.].=X#XZ D K W 4 6 c 7 c X . = o !.x.o I I x x x / / c ..O.c G 2 H P U Z D I Y 3 6 ",
"x x c c 7 >X#X.XN d.d.l.d.H.6.:.5.D.d.d.s.d.y.Q.*X%XK R `.3 6 x $ v.n.W.X * : # p X E '.3 3 c c x c 2 3 , 7 / +.) n K R `.3 6 x ",
"x c c v 7 :X,XXXo.%.&.%.%.4.H.;XS.6.&.%.&.%.o.(.*X1X/ Y B K < 6 r R.X X a ~.~.C.V.o 6 K 6 ~ / 3 4 S 3 2 3 x c / / ( v Y B D 2 6 ",
"6 6 4 x x >X,XXXy h l l l 3.H.6.S.4.l l h h l W.*X*X/ / / / x 6 6 7 6 d !.C.Z.m.Z.% T , x / / v n ( G G U c / / c ) / / ( ( 7 6 ",
"v v ! c X.>X,XXXu j.J.k.G.j.3.5.3.G.J.J.J.j.p.Q.1X1Xc / / ( x 3 7 { n !.C.N.N.~.b.$ `.7 x / ../ n n X.G 3 c n c c v / / n / x 3 ",
"c x c c ( >X,XXXd.D.J.l.P.F.D.9.K.F.K.F.F.D.p.Q.1X*X/ / 6 / / c 7 7 o ).z.m.Z.d o J 5 4 c 7 / ..v c c I 5 U x c v v c / x n / v ",
"x x 6 c c 8X<XXXp.k.K.J.P.F.F.9.P.P.l.K.D.D.d.Q.3X1X/ c / / n 7 7 7 X s x.m.y.X z H F x c c c c c 3 / ` A H 2.1.n n n n n / n x ",
"4 x x x x >X<XoXf.k.P.J.L.P.L.w.U.U.k.P.P.P.d.Q.4X1X/ / n b 3 7 6 7 . x.c.c.& p   ` R 6 6 x 6 n v 3 n v Z 3 ~ | c 6 / n n n 6 6 ",
"6 6 6 6 6 8X2XOXf.k.k.J.I.I.I.y U.U.k.P.P.K.d.W.4X2Xc c / c 7 7 6 6 6 . _ _ W.X . ,.@.6 6 6 c c x c n c n c L c x c c c / x 6 6 ",
"3 4 3 ` 4 8X2XOX-.$.6.3.$.6.7.$.7.7.$.7.7.[ ,.Q.4X5Xc 7 n c 7  .3 4 3 ` e 9 9 i =   / v x v v 4 c / 7 / n / `.v c c c x / c 7 ..",
"/ ..6 C '.>X3X+Xl.L.J.P.Y.Y.P.e T.T.L.Y.J.P.J.Q.4X5Xc / b 3 O. .n ..4 C ] e d w m + 2 c 6 x x ( x x / c x c c K 7 v b n v 3 O. .",
"/ / 7 , A 0X2XoXl.J.L.I.Y.Y.T.e T.I.G.P.U.P.l.Q.4X5Xc c { 3 b  . .n 7 , A . 0 f 0 + 2 6 c x x x c c v x 6 6 3 x ; b b b b 3 b  .",
"b  .7 , D |.qXoXw.l.e.e.Y.L.T.1 g.h.P.e.P.L.e.W.0X4Xx c 7 b 7 7 v  .7 , D . p f a . J 4 v 4 c c x c c c c c c c 3 n 7 v b b x 7 ",
"7 b b / ^ |.%XoX$X@X@X$X&X%X%X&X*X%X%X&X&X@X@XQ.OX1Xc x b _.P 7 x b  . .^ . z q a -  .7 c 3 x c x c c c x c x x v 7 b 7 7 Q P 7 ",
" . . .O.{ 7 3 6X5X6X0X6X0X0X0XqXwXwXwXwXwXwXwX>Xc K ; G I E / 7 {  . .X.5.- X a s q X b  .v 7 2.2.x n 3 Z c c n / C B G I E / 7 ",
"|  . .@.| b C 5 n /  . . . . .X...V I _.; 6 7 3 6 c I 5 B n 7 3 |  .z > X - - X .  . . . . ./ X...V I _.B 6 x 3 5 / P 6 B n 7 3 ",
" . . . .X. .T R / c b b X.X.3 3 3  .v 4 G 6 6 n / / 6 x 5 6 n b {  .{ *.<.<.] R b b b  ...X.3 4 3 / c 6 G 6 6 / / / 6 7 5 6 n n ",
" . .b  . . .b b / /  .....O.O. .X.+.b 7 c v n 7 c 6 / c n 6 n /  . .{  . .{ b v {  . . . .O.O./ X.+.n 6 c c c 7 c 3 n n b 6 b  ."
};
