/* XPM */
static char *ml_cd_31722079347[] = {
/* columns rows colors chars-per-pixel */
"64 32 212 2 ",
"   c #060000",
".  c #0C0101",
"X  c #140000",
"o  c #1B0001",
"O  c #1B000A",
"+  c #240001",
"@  c #2B0000",
"#  c #24010D",
"$  c #3D1507",
"%  c #2F0E14",
"&  c #381A17",
"*  c #333D0D",
"=  c #2C231F",
"-  c #35271F",
";  c #3A3A1E",
":  c #2D2522",
">  c #312725",
",  c #332926",
"<  c #362C29",
"1  c #392E2B",
"2  c #3A3525",
"3  c #3A3827",
"4  c #3B322D",
"5  c #3E3431",
"6  c #470C05",
"7  c #540D00",
"8  c #4A1305",
"9  c #461907",
"0  c #44140A",
"q  c #4A140A",
"w  c #531402",
"e  c #5D1203",
"r  c #521E09",
"t  c #481812",
"y  c #5C1113",
"u  c #781E02",
"i  c #661418",
"p  c #58250E",
"a  c #5B2817",
"s  c #672809",
"d  c #732404",
"f  c #77270A",
"g  c #652616",
"h  c #732912",
"j  c #653519",
"k  c #5A1720",
"l  c #6C1623",
"z  c #641924",
"x  c #731825",
"c  c #592B22",
"v  c #553020",
"b  c #413633",
"n  c #443936",
"m  c #483A37",
"M  c #463C39",
"N  c #493E3B",
"B  c #7E2333",
"V  c #35410E",
"C  c #3A460E",
"Z  c #3D4C09",
"A  c #3D5703",
"S  c #394511",
"D  c #3D4A12",
"F  c #435E03",
"G  c #475B08",
"H  c #404E14",
"J  c #445215",
"K  c #49561A",
"L  c #4B5C19",
"P  c #4B6405",
"I  c #4A6109",
"U  c #516807",
"Y  c #516509",
"T  c #546C09",
"R  c #5B740D",
"E  c #5B750D",
"W  c #4F6019",
"Q  c #51641C",
"!  c #596C18",
"~  c #5D7413",
"^  c #637B0D",
"/  c #617512",
"(  c #697E14",
")  c #697E19",
"_  c #4B4C2B",
"`  c #4C5424",
"'  c #53592F",
"]  c #4D4935",
"[  c #4C413E",
"{  c #51433F",
"}  c #55493F",
"|  c #7B4A33",
" . c #79553C",
".. c #5B6927",
"X. c #5F7323",
"o. c #343F41",
"O. c #3D444A",
"+. c #4E4341",
"@. c #484845",
"#. c #524643",
"$. c #544945",
"%. c #5A4649",
"&. c #564B49",
"*. c #594D4A",
"=. c #5B524D",
"-. c #444B53",
";. c #4A5455",
":. c #5E5651",
">. c #674D56",
",. c #615953",
"<. c #685859",
"1. c #69625D",
"2. c #575D64",
"3. c #5D676C",
"4. c #6A6A67",
"5. c #746B66",
"6. c #74726D",
"7. c #78736C",
"8. c #666D73",
"9. c #697578",
"0. c #7B7A75",
"q. c #8C3E1E",
"w. c #872327",
"e. c #912427",
"r. c #9B382E",
"t. c #852536",
"y. c #8B2536",
"u. c #8B2639",
"i. c #912737",
"p. c #942A3B",
"a. c #9A2B3C",
"s. c #A52D3E",
"d. c #A92C3B",
"f. c #A4313C",
"g. c #8C481B",
"h. c #94461A",
"j. c #8B482D",
"k. c #9B4523",
"l. c #974827",
"z. c #834C31",
"x. c #85493A",
"c. c #914C36",
"v. c #845136",
"b. c #A04D2B",
"n. c #BA5D34",
"m. c #B2672E",
"M. c #AD6237",
"N. c #B46535",
"B. c #B96837",
"V. c #BC653D",
"C. c #C46336",
"Z. c #9D2C41",
"A. c #9F3345",
"S. c #A12E41",
"D. c #A92E41",
"F. c #AD3144",
"G. c #AC3246",
"H. c #B33244",
"J. c #B43549",
"K. c #BB364B",
"L. c #B63948",
"P. c #887056",
"I. c #9A7C56",
"U. c #9B7C5B",
"Y. c #A66843",
"T. c #B56848",
"R. c #AF714C",
"E. c #A66852",
"W. c #A77354",
"Q. c #B15363",
"!. c #997C65",
"~. c #827D77",
"^. c #B46C60",
"/. c #6B820F",
"(. c #728A14",
"). c #758D17",
"_. c #758E1A",
"`. c #798E1B",
"'. c #9C815E",
"]. c #9C8468",
"[. c #87837D",
"{. c #9A8D75",
"}. c #9D927C",
"|. c #A38869",
" X c #A58D73",
".X c #AA947B",
"XX c #AC987D",
"oX c #B1987A",
"OX c #8C949A",
"+X c #AA9A83",
"@X c #B3A38C",
"#X c #BCA58D",
"$X c #BAA691",
"%X c #B5A991",
"&X c #B7AA97",
"*X c #B7AD9A",
"=X c #B4AEA0",
"-X c #BBB5A9",
";X c #C3AB95",
":X c #C4AE9A",
">X c #C2B19C",
",X c #C9B19C",
"<X c #C5B6A6",
"1X c #CBB9A5",
"2X c #CCBBAA",
"3X c #D1BEAE",
"4X c #C4BDB2",
"5X c #CFC6A7",
"6X c #D4C4B5",
"7X c #D8C6B6",
"8X c #DAC9BA",
"9X c #E3D9BE",
/* pixels */
"[ +.+.+.#.+.+.M n N #.=.+.$.@.[ #.#.5 5 M M [ n n [ n ] M 1 M +.+.+.+.+.+.+.+.[ b N #.*.+.$.+.[ +.+.5 5 [ m [ [ b [ m N N 4 M [ ",
"+.+.+.#.$.#.N +.+.N n 1 +.< 4 n 5 5 4 4 5 5 +.n 4 [ n n N M M +.+.+.+.+.%.#.M +.@.[ n < +.1 4 n n 5 4 4 4 5 [ n 4 ] n N m M n +.",
"+.+.+.+.$.$.$.#.^ L 5 `., 5X1X3X6X6X5 4 n < n M N N #.N 5 / _ m +.[ +.+.$.$.$.+.^ W b _., +.N M 4 n 5 4 5 < n N M N #.m 5 ~ _ n ",
"n [ #.$.$.[ { N K L 9X*X>X<X1X2X2X2Xt q r 9 + n N N #.; K n [ N n +.+.%.$.[ +.[ J L P ^ n M N [ n b M N [ [ &.n N N #.; K n [ [ ",
"[ #.N $.*.n Q V T 3XP.&X'.!.'.!.].o X 9 w w $ + 1 P P V ) b $.+.[ #.N #.*.m Q V T #./ , #.m [ [ n N 5 n M :.0.7.< P P V /.n +.+.",
"#.#.#.$.$._ 4 (.2X3XU.|.6 z z $ k a j o q w 7 r > * : J E b N N #.#.$.#.$._ 3 (.n P ` 4 2 n m N [ +.+.[ 5 1.7.(.> * , J ~ 5 N +.",
"N #.$.[ b P W 1X2X|.6 z l B t.y B X j.E.+ t 8 9 & _., F 1 N [ +.N $.&.+.5 P W P 1 < = 4 n < #.4 U 5 [ N n P 5 P D `., G 1 +.N #.",
"#.%.&.#.Z b <X<X|.q z t.t.Q.u.y t.# @ o o 0 6 t = . R n m #.+.*.#.%.$.+.Z n :.6.5.1.@.3 4 4 n b (.G 5 T < $.*.+.Z 3 R n n #.+.&.",
"[ [ < ( 1 4 >X*X!.l y.y.u.u.y.y u.. 8 w q o X X   . . F 4 5 [ #.N N < ( 1 4 ,.:.=.$.n 5.n 1 , V < D 4 /.< $.&.&.` J ] F 5 5 +.#.",
"4 A = < 5 }.7X!.q t.u.y.u.i.u.i +  .@ 0 | | j.C.N.j.p N X., < , 5 F : < 4 4 > &.#.n 4 ,.$., = n M M @.[ [ n *.E 5 H #.+.X.: < < ",
"4 > < b 5 {.].].O.-.2.2.O.3.3.+ z.N.M.N.h.k.u k.C.V.j.o +.n m 1 1 , 1 b b 5 b 4 < , 5 : , m $.m [ +.5 n n 5 &.$.+.+.#.+.+.b n 1 ",
"b 4 5 b 5 =X$X].x y.p.p.i.Z.p.i + h.l.h.d f e f h.l.l.p + b , 4 b 1 4 b n 1 n b 5 n n < b b [ n n m n b [.4 5 [ +.[ +.[ #.n , 1 ",
"< b 4 b 5 =X@X|.i p.y.Z.Z.u.p.i + z.n.C.B.d d h.T.C.V.T.c.+ 5 4 < b b b b < N n N m n G n n n n 5 b OX~.5.=.5 [ M [ [ [ [ b b 4 ",
"4 b b b 5 *X#X|.x a.p.Z.Z.Z.s.i + z.T.h.V.k.f p + j.h.B.B.v.4 4 4 b b b b b n n N 4 , Q b b n n b 5 1.,.:.m M I M 5 /., , N 1 4 ",
"b b b n m =X;X Xi Z.a.Z.p.Z.+ + z.z.W.Y.R.Y.p $ &X$Xg n.B.a < 4 b b b n b m 2 [ [ [ P T b n b m m n } %.n J , K Y E C I U R 1 4 ",
"b b n m b =X#X XB a.a.S.+ z.E.!.T.[ 4.$.> & .   &X.  .T.z.+ 1 b b b m n b 4 +.+.+.L ~ `.1 < b n m n > < : b N *.} M P Q (.< 4 b ",
"b n n n b =X;X.X%.>.<.>.# x.a OXp.X T.T.B.M.a X . 5.N + * F , 4 b b n n 4 [ [ [ R 1 4 P 4 ' [ < 1 F < , , n n [ { { N ~ * P : 1 ",
"4 4 1 5 b -X;X.Xi i x x x 8.A.9.p.W.B.V.m.N.h + z.X O { { [ b 1 4 5 1 5 5 4 < 5 _.U ! : 4 [ [ M m { J J E n N [ b } [ [ { { b 4 ",
"n m ] n #.-X;X.Xx s.D.s.J.D.8.8.o B.C.C.B.g.j Y.B.0 N N N { b 1 n N ] n @.[ [ [ - U (.b n N $.[ N [ $.J 4 n n n n m N N N { b < ",
"n b n n { -X;XXXp.D.G.D.J.D.S.i l.l.b.B.c.@ j h 7 j N [ b N N n n 5 n n [ [ [ n (.W < 4 n 4 [ #.M n n Y < T n n n N N N b N [ n ",
"b n 4 n n 4X:X.Xi.D.J.D.J.F.O T.q.k.j.x.a.@ f k.u n.s N N [ N b b b 4 n n m 0.@.E J D n n n M n n < N ..D K 6.6.M M M [ N N N b ",
"< b b b b -X:XXXa.D.J.F.F.L.@ l.T.f + J.H.H.+ j.b.N.g.o + N < 5 1 b b b 5 4 3 Q ~ ..Q 5 5 5 5 n n < N n S 1 ' @.m 4 [ M N N 4 4 ",
"2 4 4 4 4 4X,XoXr.H.s.F.K.o x.l.M.c.G.L.J.H.a.U.*X^.T.T.z.& O 1 4 4 4 4 4 1 /.0.[.6.=.4 2 5 n b 5 n N n M N G n n m n m [ b 5 4 ",
", 4 < ..1 4X,XoX2.;.8.9.-.X $ @ @ z ;.9.9.O.3.U.<X+ c w w g q #., 1 1 ! 4 5 n 5.1.:.[ m 5 m m 4 n +.5 +.N N ).N n n m b N n 5 #.",
"[ #.5 A _.4X,XXXf.H.F.J.K.t 6 h w @ H.K.F.J.F.U.1X<Xn v s e e [ +.#.4 A _.> 1 :.=.#.< 5 5 5 b { n n [ n b M m G 5 n M N n < &.+.",
"[ N 5 : H 4X,X.Xf.F.F.K.X g 7 a t K.H.K.L.J.s.I.1X1Xn n o h e o +.N 5 : D J S 5 5 : > 5 n n b n 5 m m b 4 4 < b V n n N +., M +.",
"n @.5 : F }.8XXXw.f.e.o 8 w 0 - e.d.K.e.J.H.e.U.6X<Xb n n O & e + +.b : I U T D > K L 1 M 1 n b 5 m n n n n n b , M n n n n n 1 ",
"5 M [ [ ] {.$X.X@X@X+Xg s q O %X#X%X$X%X%X%X@XU.oX>Xn b n ) X d 9 n [ N _ 1 /.W n 5 [ 5 n < b n 5 n n n 5 n n b M 5 n 5 n ) Y b ",
"[ +.+.&.O.M , 1X5XX 8 s s o 7X7X8X8X8X8X8X8X7X<Xm F * J T O t d f % +.&.M M 1 5 M N N M [ M 5 7.7.5 [ < S n n N M F V J T ~ [ 5 ",
"[ +.+.=.+.n C ; n o O $ & O [ $.$.C T /.* 4 5 < 4 N T 2 O v 9 + # +.+.=.+.M Z 3 M +.+.[ #.[ [ $.#.C T /.* 4 5 1 4 N U 4 * N 5 < ",
"@.+.+.+.+.+.! ..N n N M #.#., 1 < [ n 4 J 4 4 N [ { 5 4 3 4 M N #.+.+.+.@.@.~ Q N M N N $.$., 4 < [ n 4 J 5 2 [ [ [ 4 5 2 4 M N ",
"[ [ [ +.+.[ M M [ +.+.+.#.*.&.+.$.*.M 4 n m N b n < [ m M 4 M +.+.+.N +.+.[ M M N +.+.@.#.&.&.[ $.&.[ 4 n n n 5 M < [ M M 4 N +."
};
