/* XPM */
static char *ml_cd_21722085377[] = {
/* columns rows colors chars-per-pixel */
"64 32 221 2 ",
"   c #050101",
".  c #060504",
"X  c #0D0001",
"o  c #140000",
"O  c #1C0001",
"+  c #1F0612",
"@  c #230001",
"#  c #220406",
"$  c #2B0000",
"%  c #3B0B05",
"&  c #371303",
"*  c #2E1415",
"=  c #3C1916",
"-  c #333E0D",
";  c #2C231F",
":  c #372618",
">  c #363B18",
",  c #2E1121",
"<  c #2D2422",
"1  c #302725",
"2  c #3B2723",
"3  c #332926",
"4  c #362C29",
"5  c #392E2B",
"6  c #3A3425",
"7  c #3A3926",
"8  c #3B322D",
"9  c #3E3431",
"0  c #470C06",
"q  c #540B00",
"w  c #4C1302",
"e  c #491608",
"r  c #551604",
"t  c #441C19",
"y  c #5B1515",
"u  c #661417",
"i  c #75181D",
"p  c #4E2A14",
"a  c #5A2A17",
"s  c #44321A",
"d  c #6B2606",
"f  c #79280E",
"g  c #672816",
"h  c #4F1923",
"j  c #6D1622",
"k  c #621823",
"l  c #6B1A25",
"z  c #731926",
"x  c #5A2D27",
"c  c #413633",
"v  c #443936",
"b  c #493A37",
"n  c #463C39",
"m  c #493E3A",
"M  c #652A26",
"N  c #78212B",
"B  c #7E2333",
"V  c #35410E",
"C  c #3A460E",
"Z  c #3D4C0A",
"A  c #3D5703",
"S  c #394611",
"D  c #3D4A12",
"F  c #435D03",
"G  c #475B08",
"H  c #445215",
"J  c #4A5618",
"K  c #4C5D19",
"L  c #4B6405",
"P  c #4A6109",
"I  c #516708",
"U  c #536B09",
"Y  c #5B730C",
"T  c #5B750D",
"R  c #4F6019",
"E  c #596B17",
"W  c #51641C",
"Q  c #5D7413",
"!  c #637B0D",
"~  c #677C16",
"^  c #4B4D2B",
"/  c #4C5424",
"(  c #53592F",
")  c #4F4B35",
"_  c #4C413E",
"`  c #50433F",
"'  c #59473D",
"]  c #7D4C38",
"[  c #785533",
"{  c #5C6D25",
"}  c #363E44",
"|  c #3B4249",
" . c #4E4341",
".. c #484845",
"X. c #524643",
"o. c #544945",
"O. c #5A4549",
"+. c #564B49",
"@. c #594D4A",
"#. c #5B524D",
"$. c #4B4952",
"%. c #4A5456",
"&. c #5E5651",
"*. c #775A44",
"=. c #674E56",
"-. c #615953",
";. c #69545A",
":. c #69625D",
">. c #565C63",
",. c #5D676A",
"<. c #5F6670",
"1. c #65696A",
"2. c #756B65",
"3. c #74726D",
"4. c #79736D",
"5. c #626A72",
"6. c #6A6B73",
"7. c #716F7C",
"8. c #697377",
"9. c #6D797C",
"0. c #797877",
"q. c #851E1F",
"w. c #801E2D",
"e. c #862327",
"r. c #932428",
"t. c #953F22",
"y. c #852435",
"u. c #8B2535",
"i. c #8D2936",
"p. c #8B2639",
"a. c #8E2A3A",
"s. c #942637",
"d. c #932738",
"f. c #942A3B",
"g. c #9B2C3D",
"h. c #9C313B",
"j. c #A0242C",
"k. c #A52C33",
"l. c #A32C3E",
"z. c #AA2C3F",
"x. c #A4313C",
"c. c #8E441F",
"v. c #99451C",
"b. c #A9421F",
"n. c #88462B",
"m. c #954524",
"M. c #994828",
"N. c #854C34",
"B. c #994A36",
"V. c #8C5335",
"C. c #AA542E",
"Z. c #B45F38",
"A. c #B16A34",
"S. c #B96739",
"D. c #C05F3E",
"F. c #C26436",
"G. c #9E2C41",
"H. c #A42E41",
"J. c #AA2E41",
"K. c #B62E42",
"L. c #A43144",
"P. c #AC3144",
"I. c #AE3549",
"U. c #B23244",
"Y. c #B43549",
"T. c #BB364B",
"R. c #BA394A",
"E. c #C23A4E",
"W. c #C53A50",
"Q. c #885149",
"!. c #8D6D4F",
"~. c #997B57",
"^. c #9B7C5B",
"/. c #AA6548",
"(. c #B76847",
"). c #A27453",
"_. c #B15363",
"`. c #816F63",
"'. c #9A7F64",
"]. c #827D77",
"[. c #C26843",
"{. c #6A820F",
"}. c #728A14",
"|. c #768E1A",
" X c #798F1B",
".X c #9C825E",
"XX c #9D8466",
"oX c #87837D",
"OX c #9A8D75",
"+X c #9D927C",
"@X c #A28768",
"#X c #A58D73",
"$X c #AA947B",
"%X c #AC987D",
"&X c #B1987A",
"*X c #A69584",
"=X c #B5A48E",
"-X c #BCA58D",
";X c #B8A88F",
":X c #B6A691",
">X c #B4A991",
",X c #BAAA94",
"<X c #B8A997",
"1X c #B7AD9A",
"2X c #929DA3",
"3X c #B4AEA0",
"4X c #BBB5A9",
"5X c #C3AC97",
"6X c #C2B19C",
"7X c #C9B29C",
"8X c #C6B6A5",
"9X c #CBB9A5",
"0X c #CCBCAA",
"qX c #D1BEAE",
"wX c #C4BDB2",
"eX c #CFC6A7",
"rX c #D4C3B3",
"tX c #D8C6B6",
"yX c #DAC9BA",
"uX c #E3D9BE",
"iX c #DDD8C5",
/* pixels */
"_  . . .X.X. .m v m X.@...o. ._  .X.9 9 m b _ _ 9 _ b m v 8 b _ _ X. . .X. . ._ 9 m  .@. .o. ._  . .9 9 n m _ n v _ v m m 8 n _ ",
" . . .X.o.X.n  . ._ n 4 _ 4 8 n n 9 8 5 8 c o.9 6 _ n n _ b v _  . . . .o.o._ _ .._ v 4 ..5 8 v v 9 8 8 8 9 _ v 8 _ m n b n b  .",
" . . . .o.o.o.X.! R 9  X4 eX9XqXrXrX9 5 v 3 v _ _ n X.m , : 6 9  . . . .o.o.o. .{.R 9  X4 _ n b 5 v 8 9 9 6 9 _ _ b ` _ v Q ^ 9 ",
"v _ X.o.o._  .m H K uX1X6X8X9X0X0X0X0X0XiX_ +.9 _ _ h = & q w , v  . .o.o._  .m H R L T v b _ _ v 9 _ b _ _ +.v _ m ` > J 9  . .",
"_ X._ X.@.b W V U qX!.<X.X'.'.'.XX.X~.9X@XtX0.4.4   ' g @ w r e * +._ X.+.n W V U X.Q 3 o.b _ _ n _ v v b &.0.4.4 L I - {.9 +._ ",
"X.X.X.X.o.^ 8 }.rX0X'.'.0 k k % h M 0 .XXXrXrX}.<   )./.M = e r w # o.X.o.^ 7 }.n L / 8 8 v b n _  . ._ 8 :.4.}.1 - 3 H Q 9 m  .",
"m X.o._ 9 L K 9X9X@X0 k j y.p.y B a.k l % XXeX0XD  XO N.V.$ e q w X   m 9 P R I 5 3 < 8 b 3 X.8 I v _ n v L 9 I D  X4 F 5  .m  .",
"X.O.+.X.Z v 8X8X@X0 l y.y._.y.y y.y.y.y.l y @X8X6X8 K X = = & e $ o   n Z v #.4.3.:._ 6 9 6 v 9 }.A 8 U 4 o.@. .Z 8 Y v v X. .+.",
"m m 4 ~ 5 5 1X6X'.j p.p.p.p.y.y p.z f.p.p.z ~.7X<X- O $ 0 # @ p N.).N.o 5 5 &.&.#.o.9 2.v 4 3 C 4 D 9 ~ 4 o.o.#./ D ) F 8 9  .o.",
"8 F ; 4 9 +XtX'.e y.p.p.p.f.p.u f.y.p.d.w.p.l [ *Xo /.(.$ (.Z.S.A.A.(.o .   1 +.o.v 7 -.o.4 ; v b n  .m m v @.U 9 H o. .{ 1 4 4 ",
"5 3 4 c c OXXXXX| $.>.>.} ,.,.} 5.<.| <.<.>.$.!.  ] S.S.Z.v.d d m.[.b.g 9 9 9 8 4 < 9 < 3 b _ b m  .c v v v +.o. . .o. ._ v v 4 ",
"c 5 9 c c 3X:XXXz p.f.f.f.f.f.i d.u.f.f.f.a.z !.`.O M.D.S.m.v.q.v.[.v.$ v 5 v v 9 n n 5 c v _ v v v v c oX8 v _  ._ _ _  .v 3 8 ",
"5 c c c 9 1X=X@Xu f.d.f.G.p.G.u H.d.d.G.d.i.N ~.;X2.Q.x.m.(.(.M.S.C.S.g c 5 b v _ v v F v v v v 9 v oX].2.+.9 .._ _ _ _ _ 9 8 6 ",
"8 c c c 9 3X=X#XB f.f.G.G.G.g.u g.d.g.d.g.g.y.^.:X:X{.$ m.A.(.d r F.F.] 8 v v v n 9 4 W c c v v v 9 2.:.&.b _ F n 9 {.3 4 _ 5 9 ",
"c c c c v 1X-X#Xu g.f.H.f.l.g.i g.l.l.d.G.d.i.^.<X:XC + O O O @ n.F.[.Q.v b 8  . ._ L U 8 c v b _ v  .o.v H 4 J I U C P I Y 8 8 ",
"c c v b 9 4X-X#Xy.s.g.x.g.H.8.,.7.J.g.f.d.H.i.^.<X<XL o X o X ).A.V.g b v 5  . . .J Q  X8 5 c v v v 3 4 < 9 m #.' n L W }.5 8 8 ",
"c c v b 8 3X<X$XO.=.;.=.;.6.L.2Xl.7.;.=.;.=.O.'.<X<X$ q r $ ' * X X b b 9 v _ m Y 5 9 L 8 ( _ 4 4 A 8 3 4 v v _ _ ` _ T - L 1 8 ",
"8 8 8 8 v 4X5X%Xu j z z j 1.x.6.L.5.z z j j j ^.<X@ Q.(.(.d q e @ @ 5 9 9 9 4 9 |.I E ; 8 _ _ n b _ H H T v _ _ c ' _ _ _ _ 9 8 ",
"b b _ v ` 4X5X&Xi l.P.l.K.H.5.7.5.U.P.P.P.l.s.^.# Q.q m.q d m.$ g $ n v X._ _ _ ; U }.c v m o._ m m o.H 8 9 v v b _ b v m _ 9 4 ",
"v c v v _ 4X5X$Xg.l.P.l.Y.J.H.w.P.J.Y.J.P.H.s.^.g m.t.C.B.$ f M.m.B.# b _ _  .v }.R 4 8 v 8 _ X.m v v U 6 U v b b v _ _ c _ _ n ",
"c c 8 v v 4X7X%Xd.z.I.P.Y.J.z.e.Y.R.x.I.H.J.f.o c.M.v.M.@ p g M.M.n.# v v b 0...T H H c v v v v v 4 _ { S J 3.6.n n n n m _ b 8 ",
"4 c c c c 8X6X%Xx.x.Y.P.U.R.U.e.R.R.z.I.P.Y.l.*.[ M.M.t.x o O M.v.M.M c v 5 7 R Q { W 8 9 v 9 v v 3 m b S 4 ( ..b 8 _ _ b _ 8 9 ",
"8 8 8 8 8 wX7X%Xh.U.x.P.T.T.K.u T.T.z.Y.I.P.g.~.8X8X@ $ w d e O [ S.v.Q.o b {.0.oX4.#.8 6 8 9 v 9 n n v _ b G v v v v b _ v 8 8 ",
"4 6 4 { 5 wX7X&X>.%.5.8.$.8.9.%.9.9.%.9.9.| 1.^.8X8Xv O a r q X   o O q : o b 2.:.&.n b 9 v _ 8 v  .9 _ n _ |.b v v b 8 _ v 9 o.",
"m X.9 Z |.4X8X*Xx.U.P.Y.E.E.Y.t E.E.U.E.P.Y.P.^.9X9Xv m b g g y $ : g f x @ 5 &.#.o.3 v 9 9 v _ v v _ b 9 b v P 9 n v m b 3 +. .",
" .m 9 < D rX7X%Xx.P.U.R.E.E.E.t W.E.K.Y.R.Y.l.~.9X9Xv n m 5 $ d d O O d % # C v 9 ; 3 8 v v v 9 9 v n 9 6 8 4 9 V v v m m 4 m  .",
"v ..9 < F +XtX*Xe.x.r.r.E.U.E.2 j.k.T.r.Y.U.e.^.tX8X9 n v v c w r d g @ a @ U D 1 J / 5 b 5 v v 9 b v v v v v v 4 n v v n n 9 9 ",
"9 n _ _ ) XX5X%X-X=X=X;X>X:X;X>X:X:X:X>X:X:X:X~.&X6Xv 9 v ~ I 0 g r O @ g q ~ P n 9 m 9 v 4 8 b 9 v v n 9 v v 9 n 9 v 9 v ~ I 9 ",
" . . .o.n n 4 9X9X0XrX0XrXrXrXtXyXyXyXiXtXtXyX8Xb F - H U Q _ a e _ b e d d t # n m _ v _ v 9 4.4.9 _ 4 S v b _ _ A V H U Q _ 9 ",
" . . .#...n Z 7 _ _ _  . . . .o.o.C U {.- 5 9 4 8 n U 6 V n 9 4 )   s a X X J S n _  . . . . .o.o.C U {.V 8 9 4 8 m U 5 V m 9 4 ",
" . . . .X...E W _ v n _ X.+.4 4 4  .v 5 H 9 8 m _ _ 8 8 7 8 n m  . . . . . .E W _ v m m o.+.4 4 4  .b 5 H 8 8 _ _ _ 8 9 6 5 m m ",
" . .n ..X._ n v _ _  . . .+.+. .o.@.m 8 v b b 9 v 5 _ _ n 8 m  ... . . . ._ b v m  ... . .+.+. .+.+.m 6 v v v 9 v 4 _ m m 5 n  ."
};
