/* XPM */
static char *ml_cd_01722079346[] = {
/* columns rows colors chars-per-pixel */
"64 32 220 2 ",
"   c #0C0000",
".  c #0C0800",
"X  c #130000",
"o  c #1B0000",
"O  c #19010A",
"+  c #230000",
"@  c #2C0000",
"#  c #29020A",
"$  c #3D0B06",
"%  c #3C1303",
"&  c #310F13",
"*  c #3B1C17",
"=  c #3A210D",
"-  c #333D0D",
";  c #2A231A",
":  c #38271C",
">  c #373B19",
",  c #2D2522",
"<  c #312725",
"1  c #3A2220",
"2  c #332A25",
"3  c #362C29",
"4  c #392E2B",
"5  c #3A3727",
"6  c #3B312D",
"7  c #3E3431",
"8  c #450C02",
"9  c #490C05",
"0  c #580E03",
"q  c #481606",
"w  c #4B140C",
"e  c #521303",
"r  c #5C1201",
"t  c #581B0D",
"y  c #4A1A16",
"u  c #591715",
"i  c #661417",
"p  c #462113",
"a  c #5B2817",
"s  c #5D2C1A",
"d  c #4C3010",
"f  c #5A3219",
"g  c #682607",
"h  c #762809",
"j  c #672815",
"k  c #64321A",
"l  c #4E1921",
"z  c #6D1622",
"x  c #621823",
"c  c #6B1A25",
"v  c #731926",
"b  c #572B20",
"n  c #41332F",
"m  c #413633",
"M  c #443936",
"N  c #483A37",
"B  c #463C39",
"V  c #493E3B",
"C  c #64212A",
"Z  c #7E2333",
"A  c #35410E",
"S  c #3A460E",
"D  c #3D4C0A",
"F  c #3D5703",
"G  c #3C4912",
"H  c #435E02",
"J  c #485A0A",
"K  c #414D15",
"L  c #445315",
"P  c #4B5C19",
"I  c #4B6505",
"U  c #4B6208",
"Y  c #516807",
"T  c #546B0A",
"R  c #5C740D",
"E  c #5F790F",
"W  c #4F6019",
"Q  c #5A6D17",
"!  c #52641C",
"~  c #5D7711",
"^  c #637B0D",
"/  c #697E14",
"(  c #697E18",
")  c #4B4C2B",
"_  c #4E552B",
"`  c #4C4934",
"'  c #4C413E",
"]  c #51433F",
"[  c #5B4039",
"{  c #764E33",
"}  c #784C38",
"|  c #5F7423",
" . c #363E44",
".. c #3B4249",
"X. c #4E4341",
"o. c #484845",
"O. c #524643",
"+. c #544945",
"@. c #5B434A",
"#. c #564B49",
"$. c #584D4A",
"%. c #5B524D",
"&. c #4B4952",
"*. c #4A5456",
"=. c #5F5751",
"-. c #745746",
";. c #674E56",
":. c #665657",
">. c #6A635E",
",. c #565C63",
"<. c #5D676A",
"1. c #5F6670",
"2. c #646A6D",
"3. c #736D67",
"4. c #70726E",
"5. c #79736D",
"6. c #626A72",
"7. c #6A6B73",
"8. c #716F7C",
"9. c #6B767A",
"0. c #797877",
"q. c #851E1F",
"w. c #993E1B",
"e. c #801E2D",
"r. c #862327",
"t. c #932428",
"y. c #852435",
"u. c #8B2535",
"i. c #8D2936",
"p. c #8B2639",
"a. c #8E2A3A",
"s. c #942637",
"d. c #932738",
"f. c #942A3B",
"g. c #9A2C3D",
"h. c #9D3731",
"j. c #A0242C",
"k. c #A32C3E",
"l. c #A92C3C",
"z. c #A4313C",
"x. c #8C431A",
"c. c #964616",
"v. c #93451E",
"b. c #9B431C",
"n. c #A0441D",
"m. c #87492B",
"M. c #974826",
"N. c #854937",
"B. c #82523D",
"V. c #B95D35",
"C. c #BC632E",
"Z. c #B96736",
"A. c #B3643C",
"S. c #BC653A",
"D. c #C56C3B",
"F. c #9E2C41",
"G. c #A42E41",
"H. c #AA2E41",
"J. c #B62E42",
"K. c #A43144",
"L. c #AC3144",
"P. c #AE3549",
"I. c #B23244",
"U. c #B43549",
"Y. c #BB364B",
"T. c #BA394A",
"R. c #C23A4E",
"E. c #C53A50",
"W. c #825343",
"Q. c #896D4D",
"!. c #9E6B5C",
"~. c #997B57",
"^. c #9B7C5B",
"/. c #A86843",
"(. c #B26543",
"). c #B86946",
"_. c #AB6E57",
"`. c #B07158",
"'. c #B15363",
"]. c #9A7F64",
"[. c #807B75",
"{. c #6A820F",
"}. c #718A15",
"|. c #758E1A",
" X c #798F1B",
".X c #9C825E",
"XX c #9D8466",
"oX c #9A8D75",
"OX c #938B7D",
"+X c #A38868",
"@X c #AB9276",
"#X c #AC987D",
"$X c #AC9C84",
"%X c #B4A48D",
"&X c #BCA58D",
"*X c #B8A88F",
"=X c #B6A691",
"-X c #B4A991",
";X c #BBAA95",
":X c #B9AA97",
">X c #B7AD9A",
",X c #929DA3",
"<X c #B4AEA0",
"1X c #BBB5A9",
"2X c #C3AB95",
"3X c #C4AE9A",
"4X c #C2B19C",
"5X c #C9B29C",
"6X c #C5B5A2",
"7X c #C6B7A6",
"8X c #CBB9A5",
"9X c #CCBCAA",
"0X c #D1BEAE",
"qX c #C4BDB2",
"wX c #CFC6A7",
"eX c #D4C3B4",
"rX c #D8C6B6",
"tX c #DAC9BA",
"yX c #E3D9BE",
"uX c #DDD8C5",
/* pixels */
"' X.X.X.O.X.X.V M V O.$.X.+.o.' X.X.7 7 B V ' B m ' N ' V 4 V ' X.X.X.X.X.X.X.V B V X.#.X.+.X.' X.X.7 7 B V V ' m ] M V V 4 V X.",
"X.X.X.O.+.O.V ' X.' B 3 X.3 4 N m 7 7 4 7 m O.7 6 ' B N V V B ' X.X.X.X.#.O.V X.X.V B 3 X.4 6 N M 7 6 6 6 7 X.m 5 ' V M V M M X.",
"' X.X.X.+.+.#.O.^ W 7  X3 wX8X0XeXrX6 7 M 3 M ' V V O.` 7 ~ ) m ' X.X.X.O.+.#.X.^ P 7  X<     X 4 M 7 6 7 3 7 ' V V ] V 7 ^ ) m ",
"M ' O.+.+.' X.V L P yX>X4X7X8X9X9X9XwX8XuXB #.M V V X.> P m ' X.m X.X.@.+.X.X.V L P H X * q e 9 w O B V ` ' $.M V ' O.> _ m ' X.",
"' O.' O.$.N ! A T 0XQ.>X.X].^.]..X+X~.8X+XrX[.5.4 I U A {.m O.' ' O.' O.#.B ! - T X.  X s X p w t y O N B :.0.5.3 I I A / 7 O.X.",
"O.O.O.+.+.) 5 }.0X0X].].9 x x $ l C $ .X].eX0X}.< - < L ~ 7 ' X.O.O.O.+.+._ 6 }.N I O X `.j @ 0 0 u X ' 7 =.5.}., A 3 K R 7 V ' ",
"V @.+.' m I P 9X9X+X9 x z Z p.u Z a.x c $ +X0X0XS |.3 H 4 X.V X.' O.+.' 6 I P I 4 3 ; 4 B.{ d % w 9 = o M I 7 Y G  X3 H 4 ' ' O.",
"+.+.+.X.D m 6X6X+Xw z Z p.'.p.u y.y.y.y.c u ].9X5X5 R m B O.X.@.O.+.+.X.D M :.5.5.>.O.2 1 -.X % + o : X o #.%.' K 5 R N m O.X.#.",
"V V 3 / 4 m <X4X].z p.p.p.p.y.u p.e.p.p.p.c ^.5X6XK ` H 6 m X.O.' B 2 {.6 7 =.=.$.+.o w N.W.+ X X X X } } s # $.L K ` U 6 7 X.O.",
"4 H , 3 6 OXrX].w y.p.y.p.f.p.i p.y.d.p.y.p.j { eX>X+.X.| , 3 2 7 I ; 3 6 4 < #.O.M -./.S.v./.+ o + r A.S.S.N.o 7 L O.X.| , 3 3 ",
"4 < 4 m m oXXX]...&.,.,...1.,. .6.1...1.2.,.&.Q.+X5X+.X.X.m N 3 4 < 4 7 m 7 m 6 4 < a M.c.g v.D.Z.b.M.r w.M.g e V X.+.X.V m B 3 ",
"m 4 n m m >X=X+Xv u.f.f.f.f.g.z d.p.f.f.d.d.v Q.$X%X' X.O.m 3 4 m 4 m 7 M 4 M m 7 M t @ A.h h.D.C.S.M.M.).c.A.V.f X ' ' +.m 3 4 ",
"4 m 6 m m <X%X+Xi f.d.f.g.p.g.i g.s.f.g.g.p.Z ~.=X%XX.V ' n 6 6 4 m 7 m m 4 V N V N s j g h h c.n.S.S.w.n.).A.w.M.a V V ' 7 6 6 ",
"m m m m 7 <X%X+XZ f.f.F.G.g.k.i g.f.F.s.F.f.r.^.=X=X{.4 2 ' 6 5 6 m m m 7 M M m V 4 9 g j m.g M.M.j m.k V m g n.Z./.+ 3 4 V 6 6 ",
"m m m M M <X&X@Xi f.f.G.f.G.g.z g.k.k.s.F.f.y..X;X=XS F Y R 6 6 m m m M M m 4 V . & _.(.m.X o o O   o X M L { ).A.g - H I R 4 6 ",
"m m N N m <X&X@Xr.f.g.k.g.G.4.<.8.G.k.f.d.g.i.^.;X;XI ! }.3 6 7 m m N # -.!.`._.; ) X X 6             X 6 M X _.d   I ! }.6 5 6 ",
"m m N N 6 1X&X@X@.;.;.;.:.7.K.,XF.8.;.;.:.;.@.^.;X;X' E A I 2 6 7 M B M { f o o T 4 m J } m.o k A.D.C.).@ -.V o V O.V ^ - H < 4 ",
"6 6 6 6 m 1X;X#Xi i v v v 7.K.7.K.7.v v v z v ^.;X3X] ' ' ' m 6 6 6 4 6 7 7 4 m |.Y Q o ).(.} (.S.Z.).w.).m.+ N M O.' ' X.] m 6 ",
"M V B M X.1X2X#Xv k.K.l.J.G.6.8.1.I.L.L.L.k.d.^.4X4XB V V ' m 2 B B ' m O.' ' ' : Y o } C.S.m.Z.C.A.r (.A.g 6 B N V V V V ] m 4 ",
"N 7 B B ' 7X2X#Xg.H.L.H.I.H.G.q.P.G.U.K.L.G.s.^.>X2XV ' 6 ' ' B B 6 M M ' ' ' M }.P j h c.m.B.(.Z.D.c.h O J m M N N V V m V V N ",
"m m m m N qX3X#Xd.l.U.L.U.H.l.r.U.U.K.P.G.K.g.^.8X4XB ' V ' V 7 m M 6 M B V 0.o.~ # ).M.M.M.N.m.(.w.n.M.O L 4.4.B B V V V V V m ",
"3 m m m 7 1X3X#Xg.L.U.K.L.Y.L.r.U.T.l.U.L.U.k.^.7X4X' B V V 3 7 4 n n 7 6 6 5 W R + v.b.h @ 7 + m.w.M.N.A 7 _ #.N 6 ' B V V 6 6 ",
"4 6 m 6 4 qX5X#Xh.L.l.L.Y.Y.I.i Y.T.l.T.U.P.g.~.8X4XN B ' M 7 6 6 6 7 7 6 6 / 5.OX3._.(.).+ n 6 + M.M.v.s o J m m B N B V N 7 6 ",
"3 4 4 Q 4 qX5X#X,.*.6.7.*.9.9.*.0.9.*.9.9. .2.~.7X6XN m V M 7 X.3 4 4 Q 6 6 N 2.>.:.@ @ + o o 6 B o /.x.!.+ X m m M B 7 ' m 7 O.",
"' O.4 F |.qX5X#Xg.I.L.U.R.R.U.y E.E.U.R.L.U.L.^.8X8XM V M 3 #.X.' O.4 F |., 4 =.%.+.$ b j y X O.m 6 X @ e j q X m B M V V 3 #.X.",
"X.V m , G eX5X$Xz.L.L.Y.R.R.E.y E.T.I.U.T.U.z.~.9X8XM B V 3 V X.' ' 7 , G L G 7 M ; + s r 8 o m N N V o g r 9 X A m m V V 4 V X.",
"B X.m , H oXrX#Xr.z.t.t.T.U.E.1 j.j.Y.t.U.I.r.^.eX7X7 B M B 7 7 7 X.7 , I Y T G 2 L + f 8 3 M m 7 N M M 7 + t q 2 N m V m B 7 4 ",
"7 B V ' ` oX*X#X*X%X*X*X-X*X;X-X;X;X=X-X=X=X%X^.#X4XM 7 M ( Y m 7 o.X.' ) 4 {.W B 7 @ j r 2 m m m m M M 7 M q j + 7 m 7 m ( T m ",
"o.X.X.&.V V 3 9X8X9XeX9XeXeXrXeXtXtXtXtXtXtXtX6XN I - L T R ' 7 ' X.X.&.B B 3 7 N + 9 h e m 7 5.5.m V 2 S M o r j 8 - L T Q ' m ",
"X.X.X.%.X.B D 5 V ' ' ' X.X.X.+.O.S T {.- 6 7 2 6 B T 5 A B 7 3 X.X.X.%.X.B O 1 b b 9 y p   ' +.O.S T {.X * = w w + U 5 A V 6 3 ",
"X.X.' X.X.X.Q W ' N B ' +.#.3 3 3 X.B 6 L 6 6 ' V ] 6 6 5 6 B V X.X.X.X.X.X.Q ! V B V X.O.O.3 4 4 ' B 6 G 6 6 V V ' 6 7 5 6 ' B ",
"X.X.B X.X.X.B B ' ' X.X.X.#.#.' +.$.B 6 M B B 7 N 2 ' ' B 6 B X.' X.V X.X.X.V V V X.O.X.O.@.#.' +.$.B 6 M M N m M 4 ' B B 6 B X."
};
