/* XPM */
static char *ml_01722085375[] = {
/* columns rows colors chars-per-pixel */
"64 32 201 2 ",
"   c #0C0000",
".  c #0C0800",
"X  c #130000",
"o  c #1B0000",
"O  c #130008",
"+  c #1B010A",
"@  c #230000",
"#  c #2C0000",
"$  c #29020A",
"%  c #3C0704",
"&  c #2E1E0F",
"*  c #3D1100",
"=  c #3A190A",
"-  c #26011A",
";  c #3E0D10",
":  c #391A14",
">  c #3A210D",
",  c #333D0D",
"<  c #252412",
"1  c #2C231F",
"2  c #312D1E",
"3  c #393A1E",
"4  c #2D2522",
"5  c #312725",
"6  c #332926",
"7  c #362C29",
"8  c #392E2B",
"9  c #383721",
"0  c #3A3425",
"q  c #3B312D",
"w  c #363A29",
"e  c #3D382B",
"r  c #3E3431",
"t  c #450C00",
"y  c #4D0C00",
"u  c #5C0E03",
"i  c #4C1204",
"p  c #4C1801",
"a  c #441609",
"s  c #4B150B",
"d  c #521303",
"f  c #5C1201",
"g  c #581B0D",
"h  c #491A15",
"j  c #551C15",
"k  c #640E00",
"l  c #6B1C00",
"z  c #4A280D",
"x  c #462113",
"c  c #5B2817",
"v  c #5D2C1A",
"b  c #4D3712",
"n  c #5A3219",
"m  c #652605",
"M  c #6B2302",
"N  c #6A250D",
"B  c #672B0B",
"V  c #742304",
"C  c #742B0C",
"Z  c #792A0B",
"A  c #662717",
"S  c #6E2812",
"D  c #61321B",
"F  c #6B3318",
"G  c #421A22",
"H  c #572B20",
"J  c #41332F",
"K  c #413633",
"L  c #443936",
"P  c #483A37",
"I  c #463C39",
"U  c #493E3B",
"Y  c #35410E",
"T  c #3A460E",
"R  c #3E4C0A",
"E  c #3A5204",
"W  c #3F5B02",
"Q  c #394510",
"!  c #3D4B12",
"~  c #415605",
"^  c #435E03",
"/  c #4A5D07",
"(  c #47560E",
")  c #4B5D0B",
"_  c #404E14",
"`  c #424A18",
"'  c #445215",
"]  c #495917",
"[  c #49531D",
"{  c #4C5C19",
"}  c #476104",
"|  c #4B6505",
" . c #4E620C",
".. c #506506",
"X. c #516807",
"o. c #52650C",
"O. c #536C09",
"+. c #57700B",
"@. c #5C740C",
"#. c #5F790F",
"$. c #4F6019",
"%. c #536811",
"&. c #5A6F11",
"*. c #51631C",
"=. c #59651D",
"-. c #5A6C1E",
";. c #5D7512",
":. c #60770E",
">. c #667E0D",
",. c #617512",
"<. c #697E14",
"1. c #697E19",
"2. c #4B4C2B",
"3. c #4B5223",
"4. c #52582A",
"5. c #444233",
"6. c #4F4B35",
"7. c #4C413E",
"8. c #50433F",
"9. c #58453C",
"0. c #535933",
"q. c #72462F",
"w. c #784C38",
"e. c #7E513A",
"r. c #5B6927",
"t. c #5F7423",
"y. c #4E4341",
"u. c #4B4E42",
"i. c #4A4A48",
"p. c #524643",
"a. c #544945",
"s. c #584A47",
"d. c #564B49",
"f. c #594D4A",
"g. c #5B524D",
"h. c #5E5550",
"j. c #5F5852",
"k. c #6C594A",
"l. c #7B5542",
"z. c #605953",
"x. c #655E58",
"c. c #6A625D",
"v. c #6C6660",
"b. c #6D6F6C",
"n. c #726B65",
"m. c #756E69",
"M. c #72726D",
"N. c #78736C",
"B. c #7D7872",
"V. c #797B78",
"C. c #943E1C",
"Z. c #9E3E1A",
"A. c #9D3D27",
"S. c #8C431A",
"D. c #954516",
"F. c #9A4617",
"G. c #93451E",
"H. c #9B431C",
"J. c #A0441D",
"K. c #834B2B",
"L. c #8B4A2D",
"P. c #934624",
"I. c #9C4A23",
"U. c #984827",
"Y. c #93462B",
"T. c #844533",
"R. c #8C4B32",
"E. c #844A3F",
"W. c #82523D",
"Q. c #BF5F2D",
"!. c #B65C3A",
"~. c #BC632E",
"^. c #AC603C",
"/. c #B56436",
"(. c #BA6A37",
"). c #B3643C",
"_. c #BC653A",
"`. c #C36A3D",
"'. c #CB7037",
"]. c #9E6B5C",
"[. c #A66646",
"{. c #AA6942",
"}. c #B26543",
"|. c #B76D41",
" X c #BA6A42",
".X c #B66748",
"XX c #B8694A",
"oX c #AB6E57",
"OX c #B46C53",
"+X c #A8765B",
"@X c #B37159",
"#X c #807B75",
"$X c #837E78",
"%X c #6A820F",
"&X c #6F8716",
"*X c #728A14",
"=X c #758E19",
"-X c #798F1B",
";X c #7B9317",
":X c #86817B",
">X c #88847E",
/* pixels */
"7.y.y.y.y.y.y.I L 7.i.g.y.a.y.y.y.p.r K I U 7.5.L 8.L U U 8 I 7.7.y.y.y.p.y.y.U r y.y.d.y.a.y.7.y.y.r r I P U U L 7.L P U q I 7.",
"y.y.y.p.a.p.7.y.y.U r 7 y.8 q L L r q 8 q r 8.K q 7.U P I L I y.y.y.y.y.a.p.I y.y.U I 7 y.q q I L r q q q r p.L q U U P U I I 7.",
"y.y.y.y.p.s.d.y.>.$.r =X7 7.U L 8 L r r L 7 L I U U 8.P L #.2.L y.y.y.y.a.a.d.y.>.{ r =X5     X 8 L r r L 8 I I U U 8.U r ;.2.L ",
"L U p.s.s.7.y.U ' { } @.L I 7.7.L K U P 7.I d.I U 7.p.3 [ K 7.y.P 7.y.s.s.7.y.7.] { ~ X : a d y s + U L 7.5.d.I 7.U p.3 [ L 7.7.",
"7.p.U a.f.P *.Y +.y.,.6 p.I 7.U I U r L I z.V.N.8 | | Y <.L p.7.7.p.7.a.d.P $.Y O.p.  o v o h i g h + I I j.B.N.8 |  .Y %XL y.y.",
"y.p.p.a.a.2.e *XI } 4.q q L I U U y.y.y.r x.N.*X5 , 6 ' #.r U y.y.p.p.p.a.2.e &XP | O o OXA @ u u j X y.r x.N.*X4 Y 6 ' ;.r 7.7.",
"U s.a.7.K | $...q 6 1 q L 7 8.e X.I U I L | r o.! -X7 ^ 7 U U y.7.a.s.7.r | $. .q 6 1 8 W.q.b * s t > X L | r | ! -X7 ^ 8 7.U p.",
"a.s.a.y.T K g.N.M.c.y.0 q q K K &X^ q O.8 s.d.7._ 9 @.K P p.p.d.p.a.a.y.R I g.N.m.c.8.2 8 k.X = @ o x O X s.d.y.R 0 @.L K p.y.d.",
"U 7.7 <.q q j.h.g.a.L n.K 8 6 Q 7 ! 8 1.7 s.d.f.3.' 6./ q K 7.p.U U 8 <.q q j.h.g.a.o a w.E.@ X o X X W.w.D $ f.3._ 6.^ q K y.p.",
"q W 1 7 q q 4 s.8.L q j.a.8 4 r U 5.y.U U I f.+.r ' y.y.t.4 8 7 q ^ 4 8 q q 4 d.a.L l.[.|.U.{.@ o @ d ).(._.T.o r ' i.y.t.5 7 7 ",
"8 5 8 K L q r q q 5 J 1 5 7.y.I 7.7.K L L L d.p.y.y.a.y.U K L 8 8 6 8 J r r r q 8 4 c Y.H.l G.`.~.H.P.u C.U.l p U 7.s.y.8.K K 8 ",
"J q q L L 8 I L q I I 8 q K 7.L L L L K $Xr L U y.7.7.y.p.L 7 8 K 8 q K L q I r r L g % !.Z U.`.~._.U.Y.|.D.).!.n X 7.7.p.K 7 8 ",
"8 K q K r 8 U L U I L / K L L L q L >X:Xm.d.K 8.I U y.7.5.K J q 7 J q K K 8 I L U L v S M V Z F.J._._.I.P..X!.Z.G.v I 7.7.K q q ",
"q K J L q L L L P r 6 =.K L L L I q c.c.h.L U } I r %X7 7 7.8 q q K J L q L L L I 8 t N A K.M P.Y.S L.D s.J M H./.{.@ 7 7 U q q ",
"K K K L L I 8 y.y.7.| O.q J K 7.7.K a.a.L ( 5 [ o.+.Q W X.@.q q K K K L L I 8 I . & oX.Xw.X o o o   o X L ( e. X/.m , W X.@.8 q ",
"K K L I r q y.y.y.] ;.;Xq q K K I L 4 8 4 r U g.a.I | *.*X8 q q L K L - e.].@XoX< 5.o o q X             q K X +Xz X | *.*Xq q q ",
"K K L I K I U U +.8 q | q 4.7.7 8 ~ 8 6 8 K I 7.7.p.7.#., ^ 5 q K L L L q.n o o O.8 r / w.L.o F ).'.~.XX# l.9.X U p.7.#., ^ 5 8 ",
"q q 8 K K q 8 r =XX.-.4 q 7.8.5.U 7.! ' +.L U 7.L 9.7.7.7.8.K q q r 8 r r q 8 r =XX.=.o |.^.e.}._.). XC.).L.o P L p.7.7.7.8.K q ",
"P U 5.L p.U 7.7.2 X.&XK L 7.a.7.U U s.' q L P L L P U U U 7.K 8 L I U L a.U 7.8.2 X.o e.Q. XK.(.~.).k }.!.B r L L U U U U 7.K 8 ",
"I q P I 8.7.U L *X{ 7 q L q 7.8.U L L %.2 O.L L I I U U J 7.7.L K K I I U y.7.K *X{ A l D.L.E.}.(._.F.C X ) L L P P P 7.K 7.U L ",
"K K r L L L V.u.#.] _ K K L L L L 7 7.r.R [ M.b.I I U U U U U K K K q L L I V.u.:.$ .XH.I.U.E.K.).H.I.Y.o ` N.b.I U P U U U U K ",
"8 J K K K 8 w *.&.r.*.r r K r P L 8 U L Q 8 0.i.L r 7.I U U 8 r 8 K K K r 8 w *.;.@ G.H.Z # 8 @ K.A.U.R.Y q 0.i.I q 7.U U U q q ",
"q q q q q 8 <.#X>Xm.d.r r r L L K I U L U I  .L L I L L 7.L r q q q q q q q <.#X>Xm.oX}.XX@ q J o P.I.P.v o ( K K I L I U L K 8 ",
"6 q 8 -.q r L n.v.j.I P r L P 8 L 7.r 7.P 7.*XL L L I r 7.L r y.8 8 8 -.q r L n.c.z.# # @ o o 8 L @ {.S.].@ X K L L L K 7.L r p.",
"7.y.r E =X4 q z.g.a.6 K r K K y.K K 7.L K I L / r L I U I 8 d.y.7.p.q E =X5 q j.g.a.; D A s X 8.K J o # d A a O r L I U I 7 d.y.",
"7.U r 4 ! ' T K K 1 6 q L K K L L L 5.J 8 q 8 K Y L L I U 6 I y.7.I r 4 ! ' Q r r 4 o c u t o K L L U o m f t X Y L P U U 7 I y.",
"r y.r 4 ^ X.O.! 4 ] $.8 P 8 L L K L L I L L L L 8 I L K L I r r I y.r 4 ^ | O.! 5 ] @ D t 7 L L K L L L K @ g p 5 P L K L K L r ",
"r I y.y.6.q %X .I r I L L 6 K L K L L L J L L K P r L r L 1.X.r L I y.U 6.q %X .I r # B d 7 K L K L L L K K a N @ r L r L 1. .r ",
"y.y.y.i.U I 8 r I U U I U r r N.N.K U 8 T K P U I ^ , ' O.@.7.r y.y.y.d.7.y.7 r U $ y C y L r N.M.K U 6 Q L o f S * , ' X.#.U K ",
"i.y.y.g.i.I R 9 I y.y.y.i.y.y.a.p.T O.%X, q r 7 q U X.q Y U r 8 y.y.y.d.y.r + G H j ; h x   y.a.p.T +.%XX : x a s @  .q Y U r 7 ",
"y.y.y.y.y.y.-.$.7.I I U a.a.7 8 8 7.L q ' q q U U y.r K 0 q I U y.y.i.y.y.y.-.*.7.I U 7.p.p.6 8 7 7.L 8 _ 8 q P I 7.r r 0 q U U ",
"y.y.U y.y.7.I I 7.y.y.y.p.d.d.7.s.d.I q L I I K I 8 I U I q I y.y.y.7.y.y.y.I I U y.y.p.p.s.d.7.s.f.U J L L I K I 8 U I I q I y."
};
