/* XPM */
static char *ml_31722085376[] = {
/* columns rows colors chars-per-pixel */
"64 32 192 2 ",
"   c #060000",
".  c #0C0101",
"X  c #140000",
"o  c #1B0001",
"O  c #1C000B",
"+  c #240000",
"@  c #2B0000",
"#  c #320000",
"$  c #3B1103",
"%  c #3E180A",
"&  c #270110",
"*  c #3E0C15",
"=  c #271E17",
"-  c #3D1815",
";  c #341C19",
":  c #333E0D",
">  c #2C231F",
",  c #312D1E",
"<  c #3A3A1E",
"1  c #2D2522",
"2  c #302725",
"3  c #332926",
"4  c #362C29",
"5  c #392E2B",
"6  c #3A3525",
"7  c #3B312D",
"8  c #363A29",
"9  c #3D382B",
"0  c #3E3431",
"q  c #440C00",
"w  c #540D00",
"e  c #4A1305",
"r  c #451B04",
"t  c #44140A",
"y  c #491509",
"u  c #4B1B0D",
"i  c #531402",
"p  c #5D1203",
"a  c #521E09",
"s  c #491412",
"d  c #441914",
"f  c #4C1D11",
"g  c #600D00",
"h  c #631000",
"j  c #781E02",
"k  c #58250E",
"l  c #552511",
"z  c #5C2615",
"x  c #5C2B1A",
"c  c #692707",
"v  c #652A0C",
"b  c #732404",
"n  c #7A2804",
"m  c #73250D",
"M  c #79290C",
"N  c #652513",
"B  c #612914",
"V  c #682618",
"C  c #732912",
"Z  c #653519",
"A  c #592B22",
"S  c #553020",
"D  c #413633",
"F  c #443936",
"G  c #483A37",
"H  c #463C39",
"J  c #493E3A",
"K  c #35410E",
"L  c #3A460E",
"P  c #3D4C09",
"I  c #3A5204",
"U  c #3F5B02",
"Y  c #394511",
"T  c #3D4A12",
"R  c #445E03",
"E  c #495D06",
"W  c #485B0A",
"Q  c #404E14",
"!  c #445215",
"~  c #495917",
"^  c #49531D",
"/  c #4C5D19",
"(  c #476104",
")  c #4B6405",
"_  c #4C600D",
"`  c #516807",
"'  c #51650A",
"]  c #536C09",
"[  c #57700B",
"{  c #5B730C",
"}  c #5F790F",
"|  c #4F6019",
" . c #536811",
".. c #5A6F11",
"X. c #51631C",
"o. c #5B6C1D",
"O. c #5D7213",
"+. c #667E0D",
"@. c #617512",
"#. c #697E14",
"$. c #697E19",
"%. c #4B4C2B",
"&. c #4D5524",
"*. c #52582A",
"=. c #494337",
"-. c #4F4B34",
";. c #4C413E",
":. c #51433F",
">. c #55493F",
",. c #535933",
"<. c #764932",
"1. c #7E4B34",
"2. c #79553C",
"3. c #5B6826",
"4. c #5F7323",
"5. c #4E4341",
"6. c #4B4E42",
"7. c #4A4A48",
"8. c #524643",
"9. c #544945",
"0. c #584A47",
"q. c #564B49",
"w. c #594D4A",
"e. c #5B524D",
"r. c #5E5550",
"t. c #5F5852",
"y. c #7D5343",
"u. c #615953",
"i. c #655E58",
"p. c #6A625D",
"a. c #6E6763",
"s. c #6D6F6C",
"d. c #716B65",
"f. c #786964",
"g. c #766F69",
"h. c #75716C",
"j. c #78736C",
"k. c #7D7872",
"l. c #797B78",
"z. c #873E1E",
"x. c #903D1D",
"c. c #993E21",
"v. c #8C481B",
"b. c #954716",
"n. c #94461B",
"m. c #8F462C",
"M. c #89492D",
"N. c #954523",
"B. c #9B4523",
"V. c #9E4A24",
"C. c #94462A",
"Z. c #964A29",
"A. c #86502E",
"S. c #834C31",
"D. c #85493A",
"F. c #914E34",
"G. c #91493B",
"H. c #81513D",
"J. c #A04D2B",
"K. c #B45C35",
"L. c #BF5E34",
"P. c #AF6333",
"I. c #AB623B",
"U. c #B46535",
"Y. c #BE6635",
"T. c #B46836",
"R. c #BD6B33",
"E. c #BC653D",
"W. c #B9683C",
"Q. c #C0622F",
"!. c #C76439",
"~. c #A26743",
"^. c #AA6943",
"/. c #B36745",
"(. c #B56C45",
"). c #B4644D",
"_. c #B96949",
"`. c #AF714C",
"'. c #A66852",
"]. c #A77354",
"[. c #997567",
"{. c #837E78",
"}. c #B46C60",
"|. c #C06E46",
" X c #6B820F",
".X c #6F8716",
"XX c #728A14",
"oX c #758E19",
"OX c #798E1B",
"+X c #7B9317",
"@X c #86817B",
"#X c #88847E",
/* pixels */
";.5.5.5.5.5.5.J F J 7.w.;.0.5.;.8.8.0 0 H J =.J F :.F J J 7 H 5.;.5.5.5.8.8.5.H F H 9.w.5.7.5.J 8.5.0 D F J J J F ;.D J J 7 J ;.",
"5.5.5.8.9.8.=.5.7.J F 4 5.5 7 F D 7 0 5 0 0 5.F 0 J J H H H H ;.5.5.5.8.8.8.J 5.5.=.F 4 5.5 7 F F 0 7 7 0 D 8.D 7 J J G H H H ;.",
"5.5.5.5.9.9.q.5.+.| 0 oX4 ;.J F 5 H 0 0 D 4 F H J J :.J 0 O.%.F 5.5.5.;.8.9.q.5. X/ D oX4 J J J 7 F 7 0 F 4 H J J J :.H D O.%.D ",
"F J 8.0.0.;.5.J ! ^ ) { F H ;.;.H D d t a e + F J ;.;.< ^ F ;.;.F 5.8.9.0.5.5.J ! ~ ( { F H J 5.F D J F =.H q.F ;.;.8.< ^ F ;.5.",
";.8.J 9.w.G X.K [ 5.@.3 8.H =.J H X o r i i $ @ 5 ) ) K #.D 8.;.5.8.=.9.w.H X.K { 8.@.3 8.F ;.J H J D D H u.k.j.5 ) ) K .X0 8.5.",
"5.8.8.8.9.%.9 XXH ) &.7 7 F J J H x Z o y w i u 2 : 3 Q O.D ;.;.5.8.9.8.8.%.9 XXH ( &.7 7 F J J J 5.5.5.0 i.j.XX2 : 3 ! { 0 ;.;.",
"J 0.9.5.D E | ' 7 3 > 7 G 4 8.7 ` X m.'.+ d e r ; oX4 R 5 ;.;.5.J 0.0.;.0 ) | ) 5 3 > 7 H 5 8.5 ` F J J F ) D ) T OX4 R 5 ;.J 8.",
"9.0.9.5.P D e.j.h.p.;.6 7 7 D D .X& + + o y q u = . { F F 8.5.0.8.8.q.5.P F e.j.j.p.;.6 7 7 D D .XR 0 ] 4 q.q.5.T 6 { F D 8.5.q.",
"J =.4 #.7 7 u.e.e.9.F d.F 4 3 Y 4 . e i y o o .   . . E 7 0 ;.8.;.J 4 #.7 0 u.t.w.0.F d.F 4 3 Y 4 T 5 $.4 9.q.w.&.T -.R 7 0 5.8.",
"0 R > 4 5 7 3 0.8.F 7 u.9.4 1 D + 2.@ t <.1.z.|.U.M.l J 4.3 4 4 7 R 1 4 5 7 1 q.8.F 7 t.9.4 , D H H 5.;.J F w.[ 0 ! 9.5.4.1 4 4 ",
"5 2 5 D D 0 D 7 7 1 D 1 3 H 8.+ 1.U.P.U.n.B.j B.Y.E.C.o 5.D F 4 5 2 4 D D D D 7 4 2 0 1 3 H 8.H J 8.D F F D q.9.5.5.0.5.;.D H 4 ",
"D 5 7 D F 5 H F 7 H F 4 0 D ;.F + n.N.B.b n g n b.B.C.k + D 3 7 D 5 D D D 5 F D 0 F H 4 D D ;.F F F F D @X7 F ;.;.;.;.;.8.F 3 7 ",
"5 D 7 D D 4 G F J F D E D F F F + S.K.!.Y.b b N./.E.E.(.F.+ 0 7 4 D D D D 4 J G J H D E D F H F 0 D #X{.g.0.0 ;.H ;.5.=.;.0 0 7 ",
"7 D D D 0 F F F H 0 3 3.D F D F + S.(.b.W.B.M k + m.N.Y.Y.H.7 7 D D D D D D F F J 7 3 3.D D D D H 0 p.p.r.G =.( H 0  X5 4 J 7 7 ",
"D D D F F H 5 5.;.;.' ] 7 D + + S.S.].^.`.~.k $ ' [ z Q.T.z 5 7 D D D D D H 6 J ;.;.` ` 7 F F H =.F 9.9.D ! 3 ^  .[ L U ` { 4 7 ",
"D F F G 0 7 5.5.5.~ O.+X+ S.'.[._.=.a.0.> >     >.X 2./.A.+ 7 D D D D G D 7 8.5.5.~ O.+X7 4 D F D F 3 4 1 D ;.w.>.H ) X.XX5 7 D ",
"D F F H D H J J { 4 0 ) & y.x 4 4 X _./.W.I.z .   f.:.o : E 2 5 F D F H 0 F J J { 4 0 ) 7 *.;.4 5 R 5 3 3 D F :.J 8.J O.: R 2 5 ",
"7 7 7 7 D 7 4 0 oX` o.1 7 ;.;.H H `.L._.U.T.C + S.X X :.J :.D 7 7 7 7 0 0 0 4 D oX` o.1 7 ;.;.H J ;.Q ! { F J ;.D 8.:.:.:.:.D 7 ",
"F F J F 8.J :.;., ) XXD F ;.9.G o R.!.Q.R.v.Z ^.E.t J ;.J :.D 5 F J J F 8.;.:.;., ` XX0 F J 0.J J ;.0.Q 5 F H H G J J J J :.D 4 ",
"F D F H ;.;.;.F XX/ 4 7 F 7 ;.N Z.V.V.U.F.# B C w Z H H D J J H F 7 F F ;.;.J F XX/ 4 7 F 0 :.8.H H D  .< [ D D G H H =.D J ;.F ",
"0 F 0 F D H l.>.{ ~ ! D 0 F o ).c.x.C.D.L + m B.j U.c J J ;.J 0 D F 7 D F H l.6.} ~ Q D D F J D F 4 J 3.T ! h.s.F J H J J J J D ",
"4 D 0 0 D 7 8 | ..3.X.0 0 F @ Z._.M + G L 4 @ M.J.U.v.+ + J 5 0 5 D D D 0 5 8 X...3.X.7 D D 7 H F 4 J J Y 5 ,.7.H 7 ;.J J J 7 7 ",
"7 7 7 0 7 7  Xl.#Xj.e.7 7 X D.Z.I.G.H D J H _ D D }.).).S.; o 5 7 7 7 7 0 7 #.k.#Xg.e.7 6 7 D F 0 H J D J J W D F F F H ;.D 0 7 ",
"4 7 4 o.7 0 F d.p.t.=.H 0 X r @ @ V D :.H ;.XXH D + A i i V s 8.4 5 5 o.5 0 F d.a.u.=.F D H H 7 H ;.0 ;.J J OXH F F H D J F 0 8.",
"=.8.7 I OX3 5 u.e.8.3 F 0 d q V e @ ;.F D G F E 0 F D S v h i 5.;.8.7 I oX1 7 t.e.7.4 D D D G :.F D ;.D D H H E D F G J H 4 q.;.",
"5.J 0 1 T ! L 0 F > 3 7 X N w z f D J 0 7 7 6 D : F F J o m g o ;.J 0 1 T ! Y F 0 1 3 7 D D D D F F =.D 7 7 5 D K D F J J 4 H 5.",
"H 5.0 1 R ) ` ! 2 ~ | o e w t D D F D F D H G D 4 H D H F O - p + 5.D 1 R ) ` T 2 ^ / 5 G 7 D D D D H F D F D D 4 H D H G D F 7 ",
"0 H J 5.-.0 +.W F D F B c u O F D F F F D G D D J D D D F .XX b r H ;.;.-.7  X_ F F H 0 F 4 D D D F D F D F F D J D D D D $. .0 ",
"5.5.5.7.J H 3 0 H X y m k o 0 j.j.D H 4 L D H H G R : ! ` o d b m * 5.9.=.H 4 0 H H ;.H ;.H 0 j.j.F H 4 Y F F J H R : ! ` O.;.0 ",
"5.5.5.w.7.H P < H o o % % O 5.9.8.L ` .X: 7 D 4 7 H ` 7 O S t + & 5.5.e.5.H P 8 H 5.;.5.5.5.;.9.8.L ]  XK 7 D 4 7 H ] 7 K J 0 4 ",
"5.5.5.5.5.5.o.3.H F H H 8.9.4 4 4 ;.H 7 ! 7 7 H J 5.0 D 6 7 H ;.5.5.5.5.5.5.O.X.H H H 5.9.9.3 5 4 ;.G 7 ! 7 7 J J 5.0 0 6 7 H ;.",
"5.5.H 7.5.5.F F 5.5.5.5.8.q.q.5.0.q.H 7 F H J D H 5 J H H 7 H 5.;.5.5.5.5.;.H H ;.5.5.5.5.q.q.;.0.w.J 7 F F H D F 5 =.H H 7 H 5."
};
