/* XPM */
static char *ml_41722085376[] = {
/* columns rows colors chars-per-pixel */
"64 32 205 2 ",
"   c #0C0000",
".  c #0C0800",
"X  c #130000",
"o  c #1B0000",
"O  c #130008",
"+  c #1B010A",
"@  c #230000",
"#  c #2C0000",
"$  c #29020A",
"%  c #3C0704",
"&  c #2E1E0F",
"*  c #3D1100",
"=  c #3A190A",
"-  c #26011A",
";  c #3E0D10",
":  c #391A14",
">  c #3A210D",
",  c #333D0D",
"<  c #393F0F",
"1  c #252412",
"2  c #2C231F",
"3  c #3E2119",
"4  c #312D1E",
"5  c #393A1E",
"6  c #2D2522",
"7  c #312725",
"8  c #332926",
"9  c #362C29",
"0  c #392E2B",
"q  c #383721",
"w  c #3A3425",
"e  c #3B312D",
"r  c #363A29",
"t  c #3D382B",
"y  c #3E3431",
"u  c #450C00",
"i  c #4D0C00",
"p  c #540F03",
"a  c #5C0E03",
"s  c #4C1204",
"d  c #441609",
"f  c #4B150B",
"g  c #521303",
"h  c #5C1201",
"j  c #581B0D",
"k  c #491A15",
"l  c #551C15",
"z  c #640E00",
"x  c #6B1C00",
"c  c #4A280D",
"v  c #462113",
"b  c #5B2817",
"n  c #5D2C1A",
"m  c #4D3712",
"M  c #5A3219",
"N  c #652605",
"B  c #6B2302",
"V  c #6A250D",
"C  c #672B0B",
"Z  c #742304",
"A  c #742B0C",
"S  c #792A0B",
"D  c #662717",
"F  c #652A14",
"G  c #6E2812",
"H  c #61321B",
"J  c #6B3318",
"K  c #421A22",
"L  c #572B20",
"P  c #41332F",
"I  c #413633",
"U  c #443936",
"Y  c #483A37",
"T  c #463C39",
"R  c #493E3B",
"E  c #35410E",
"W  c #3A460E",
"Q  c #3E4C0A",
"!  c #3A5204",
"~  c #3F5B02",
"^  c #394510",
"/  c #3D4B12",
"(  c #415605",
")  c #435E03",
"_  c #4A5D07",
"`  c #47560E",
"'  c #4B5D0B",
"]  c #404E14",
"[  c #424A18",
"{  c #445215",
"}  c #495917",
"|  c #49531D",
" . c #4C5C19",
".. c #476104",
"X. c #4B6505",
"o. c #4E620C",
"O. c #506506",
"+. c #516807",
"@. c #52650C",
"#. c #536C09",
"$. c #57700B",
"%. c #5C740C",
"&. c #5F790F",
"*. c #4F6019",
"=. c #536811",
"-. c #5A6F11",
";. c #51631C",
":. c #59651D",
">. c #5A6C1E",
",. c #5D7512",
"<. c #60770E",
"1. c #667E0D",
"2. c #617512",
"3. c #697E14",
"4. c #697E19",
"5. c #4B4C2B",
"6. c #4B5223",
"7. c #52582A",
"8. c #444233",
"9. c #4F4B35",
"0. c #4C413E",
"q. c #50433F",
"w. c #58453C",
"e. c #535933",
"r. c #72462F",
"t. c #784C38",
"y. c #7E513A",
"u. c #5B6927",
"i. c #5F7423",
"p. c #4E4341",
"a. c #4B4E42",
"s. c #4A4A48",
"d. c #524643",
"f. c #544945",
"g. c #584A47",
"h. c #564B49",
"j. c #594D4A",
"k. c #5B524D",
"l. c #5E5550",
"z. c #5F5852",
"x. c #6C594A",
"c. c #7B5542",
"v. c #605953",
"b. c #655E58",
"n. c #6A625D",
"m. c #6C6660",
"M. c #6D6F6C",
"N. c #726B65",
"B. c #756E69",
"V. c #72726D",
"C. c #78736C",
"Z. c #7D7872",
"A. c #797B78",
"S. c #943E1C",
"D. c #9E3E1A",
"F. c #8C431A",
"G. c #954516",
"H. c #9A4617",
"J. c #93451E",
"K. c #9B431C",
"L. c #A0441D",
"P. c #884527",
"I. c #834B2B",
"U. c #8B4A2D",
"Y. c #934624",
"T. c #9C4A23",
"R. c #984827",
"E. c #93462B",
"W. c #844533",
"Q. c #824937",
"!. c #8C4B32",
"~. c #82523D",
"^. c #BF5F2D",
"/. c #B65C3A",
"(. c #BC632E",
"). c #AC603C",
"_. c #B56436",
"`. c #BD6736",
"'. c #BA6A37",
"]. c #B3643C",
"[. c #BC653A",
"{. c #C36A3D",
"}. c #CB7037",
"|. c #825343",
" X c #9E6B5C",
".X c #A66646",
"XX c #AA6942",
"oX c #B26543",
"OX c #B76D41",
"+X c #BA6A42",
"@X c #B66748",
"#X c #B8694A",
"$X c #AB6E57",
"%X c #B46C53",
"&X c #A8765B",
"*X c #B37159",
"=X c #807B75",
"-X c #837E78",
";X c #6A820F",
":X c #728A14",
">X c #758E19",
",X c #798F1B",
"<X c #7B9317",
"1X c #86817B",
"2X c #88847E",
/* pixels */
"0.p.p.p.p.p.p.T U 0.p.k.p.s.d.0.p.d.y I U R R R I q.U 8.R e U p.p.p.p.p.d.p.p.R y p.p.k.p.s.p.0.p.d.y I U R R R U q.U R R 0 T 0.",
"p.p.p.d.f.d.0.p.p.R T 9 p.9 e U I y y 9 y I f.I e 0.R Y T U R p.p.p.p.p.g.d.T p.p.0.T 9 p.9 e U U e e e e I d.I e R R Y R U U p.",
"p.p.p.p.d.g.h.p.1.*.y ,X8     X 0 Y y y I 9 U T R R q.R y 2.5.I p.p.p.p.f.d.h.p.1.*.y <X8 0.R R e U e y U 9 T T R R q.R I ,.5.U ",
"U R d.g.g.0.p.R {  .!   : f s i f + Y Y 0.T h.T R R d.5 | U p.p.I p.0.g.g.p.p.R { } X.%.U T R 0.U I T R 0.8.h.T 0.R d.5 | I p.p.",
"0.d.R f.j.Y ;.E $.d.  o H X k g l k O U T z.Z.C.0 X.X.E 3.U f.0.0.p.0.f.h.T ;.E #.f.2.8 q.T 0.R U R I U T z.Z.C.0 ..o.E ;XI d.p.",
"p.d.d.f.f.5.t :XT ..O o %XD # p a l X p.y n.C.:X7 < 8 { ,.y R R d.d.d.f.d.5.t :XR ..6.e t U R R R p.p.p.e b.C.:X7 E 8 { ,.y R 0.",
"R g.f.0.I X.*.O.e 8 2 e Q.r.m * g s > X U X.I O./ ,X9 ) 9 0.0.d.0.f.g.0.y X.*.o.0 8 2 e Y 9 d.e +.T 0.R U X.U X./ ,X9 ) 0 0.0.d.",
"f.g.f.p.W I k.C.B.n.0.4 e x.X = @ o 3 X X f.h.0.Q w %.U U d.p.h.d.f.f.0.Q U l.C.V.n.p.w e e I I :X( e #.9 h.h.0.Q w %.U I d.p.h.",
"0.0.9 3.e e v.l.k.f.o d Q.|.@   X X X ~.t.M $ j.6./ 9...e I 0.q.R R 0 3.e e z.l.k.f.U N.U 9 9 ^ 8 / 0 4.9 f.h.j.6.] 9.) y y p.d.",
"e ) 2 8 0 e 7 h.p.U c..XOXR.XX@ o @ g ].[.[.W.o y { d.p.i.7 9 9 e ) 2 9 e e 8 f.f.U e z.f.9 2 I T R p.0.R U j.#.y { d.p.i.6 9 9 ",
"0 7 0 I I y I e 0 6 b Y.K.x J.{.^.K.Y.z J.T.x g R p.d.p.p.I U 0 0 7 0 I I e P e 9 7 y 6 8 R q.T 0.p.y U U I g.f.p.p.f.p.p.I U 9 ",
"P e y I U 0 U U y U j % /.S R.{.(.`.R.E.OXG.oX/.M X p.0.d.I 9 0 P 0 P I I e T I y U T 9 e U 0.U U U T I 1Xe U 0.0.p.0.0.d.I 9 e ",
"9 I e I y 9 U U R U n G V Z S K.K.[.[.Y.Y.@X/.D.J.M R 0.0.e e t 0 I e I I e T U 0.T I _ I U T U y U 2X-XB.j.y d.T 0.0.0.0.I e e ",
"e I I I y U U T R 0 u V D I.B Y.E.G E.H g.U B K.].XX@ 8 9 0.e e e P P I e I T T R e 7 u.I I I I U y n.n.l.U R ) T y ;X0 9 R e e ",
"I P I U T T 0 T . & $X@XI.X o o X X X X I ` t.+X_.N , ) +.%.e e I I I U T T e 0.0.0.+.+.e U I 0.0.I f.h.U ` 8 | @.$.W ~ +.%.9 e ",
"I U U - t. X*X$X1 8.o o e             X 0 U X &Xc X ..;.:X9 e y I I T T I e 0.p.0.} ,.<Xe 9 I U U I 8 9 6 I 0.j.f.8.X.;.:X0 e I ",
"I U U U t.M o X +.e y _ r.U.o J oX}.^.#X# c.R o 0.q.R &., ) 8 0 I I U T y R R R $.0 y X.e 7.0.9 e ( w 8 9 I U q.R d.R %., ) 8 e ",
"e e 0 y y y 9 I >X+.:.o OX).y.oX[._.+XS.oXU.o Y I w.0.0.0.q.I e e y e y y y 9 y >X+.>.6 e 0.0.T R 0.{ ] %.U R R U d.0.0.q.q.I 0 ",
"T T 8.U d.R 0.q.4 +.o y.{.[.I._.(.].z oX_.A P I R R R R R q.P 9 U T R U d.0.p.R 4 +.:Xe I 0.g.0.R R g.] e U U U Y R R R R q.I 0 ",
"U P Y T q.0.R I :X .D Z G.P.|.oX'.'.H.A X ' U U U T R R I 0.0.U U I U U 0.0.R T :X .9 e T e 0.d.T U U =.q #.U U Y Y R R I R 0.U ",
"I I y U U Y A.a.&.$ #XK.T.R.Q.I.@XD.T.E.X [ V.M.T T T R R 0.R y I I e U U R A.9.<.} ] I U U U U U 9 R u./ | V.M.R U R R R R R P ",
"e e I I I 0 r ;.-.@ F.L.S # 0 @ I.R.R.!.< 0 e.s.T e 0.R R R 0 y 9 I I I e e r ;.%.u.;.e I I y U U 9 R Y ^ 0 e.s.U e 0.R R R e e ",
"e e e e y 0 3.=X2XB.$X@X#X@ e I @ Y.T.J.D o ` I U T U T 0.U y e e e e e e e 3.=X2XV.k.e e e I I y T 8.I R U o.I U T U T R U y e ",
"8 e 9 >.e I I N.m.v.# # @ o o 0 U o .XF. X@ X I U U T y R U y p.9 e 0 >.e I U N.n.z.R Y e R R e T 0.y q.R 0.>XU U U U I 0.U y d.",
"0.d.e ! >X7 e v.k.f.; n D f X p.U e o # g F d O I U U R T 9 h.p.0.d.0 ! >X7 0 z.k.a.9 I I y U q.U I 0.U P R T ..y U U R T 9 j.p.",
"0.R y 7 / { ^ I I 2 @ n a * o U U U R o N h u X , I U R R 8 R p.0.T y 6 / { / y y 2 8 e U I I I U I R I e e 9 I , U U R 0.9 T p.",
"y p.y 6 ) +.+.{ 7 } @ H u 9 U I I U U U I @ j s 8 T I Y U T I y T p.y 6 ~ +.+./ 7 } 6.0 Y 0 U I I U U U U U U U 9 U I U U U I e ",
"y T 0.p.9.e 1.` U I @ C a 8 I U I U U U I T d V @ y I I U 4.+.y U T p.0.9.e ;Xo.T y 0.y U 9 I U I I U U y U I I R I T y I 4.@.y ",
"p.p.p.f.T T 9 U U @ i G p U y C.C.I R 9 W I o h G u , { +.%.0.y p.p.p.s.0.p.9 y T R R T p.U I V.C.I R 9 ^ I T R U ..E { @.,.0.I ",
"s.p.s.k.s.T + K L n u k k O p.f.d.W #.;XX : v d f @ o.e E R y 9 p.p.s.k.p.y ! r T R p.p.p.p.0.f.f.W #.;XE e y 9 e T #.e E R e 9 ",
"p.p.p.p.p.p.>.;.p.T R p.d.d.9 9 9 0.T e ] y e U R p.y I w e T R p.p.p.p.p.p.,.u.R T R R d.g.9 0 9 0.U e { e e 0.0.0.e y w e R 0.",
"p.p.T p.p.0.T U R 0.p.p.p.j.h.p.g.h.T e U U T y T 9 T T T e R p.p.p.R p.p.p.T y p.p.p.p.p.h.h.0.h.j.Y t U U T y U 0 0.T T e T 0."
};
