/* XPM */
static char *lr_cd_31722085375[] = {
/* columns rows colors chars-per-pixel */
"64 32 220 2 ",
"   c #060000",
".  c #0C0101",
"X  c #140000",
"o  c #1B0001",
"O  c #1C000B",
"+  c #240000",
"@  c #2B0000",
"#  c #27000B",
"$  c #3A0A06",
"%  c #3D1507",
"&  c #2F0E14",
"*  c #391B18",
"=  c #333E0D",
"-  c #2D2522",
";  c #312725",
":  c #392320",
">  c #332926",
",  c #362C29",
"<  c #392E2B",
"1  c #3A3625",
"2  c #3B312D",
"3  c #3E3431",
"4  c #460C05",
"5  c #540D00",
"6  c #4A1305",
"7  c #461907",
"8  c #44140A",
"9  c #4A140A",
"0  c #531402",
"q  c #5A1504",
"w  c #491913",
"e  c #5B1515",
"r  c #620F00",
"t  c #781E02",
"y  c #661417",
"u  c #75181D",
"i  c #58250E",
"p  c #5B2817",
"a  c #672809",
"s  c #732404",
"d  c #77270A",
"f  c #652616",
"g  c #732912",
"h  c #653519",
"j  c #5A1720",
"k  c #6D1622",
"l  c #621823",
"z  c #6B1A25",
"x  c #731926",
"c  c #592B22",
"v  c #553020",
"b  c #413633",
"n  c #443936",
"m  c #483B37",
"M  c #463C39",
"N  c #493E3B",
"B  c #78212B",
"V  c #7E2333",
"C  c #35410E",
"Z  c #3A460E",
"A  c #3D4C09",
"S  c #3D5803",
"D  c #394611",
"F  c #3D4A12",
"G  c #435E03",
"H  c #404E14",
"J  c #445215",
"K  c #49531D",
"L  c #4C5C19",
"P  c #4B6405",
"I  c #4E640B",
"U  c #516708",
"Y  c #536B09",
"T  c #57700B",
"R  c #5C740D",
"E  c #4F6019",
"W  c #586D15",
"Q  c #52641C",
"!  c #5D7711",
"~  c #637B0D",
"^  c #697F13",
"/  c #697E19",
"(  c #4B4C2B",
")  c #4E552B",
"_  c #4D4935",
"`  c #4C413E",
"'  c #51433F",
"]  c #55493F",
"[  c #7B4A33",
"{  c #785639",
"}  c #5C6C29",
"|  c #5F7423",
" . c #363E44",
".. c #464547",
"X. c #4E4341",
"o. c #524643",
"O. c #544945",
"+. c #5A4549",
"@. c #564B49",
"#. c #594D4A",
"$. c #5A514D",
"%. c #4B4952",
"&. c #4A5456",
"*. c #5E5751",
"=. c #7D5343",
"-. c #674E56",
";. c #675558",
":. c #6A625D",
">. c #565C63",
",. c #5D676A",
"<. c #5F6670",
"1. c #67696A",
"2. c #746B65",
"3. c #74726D",
"4. c #79736D",
"5. c #626A72",
"6. c #6A6B73",
"7. c #716F7C",
"8. c #6B767A",
"9. c #797776",
"0. c #851E1F",
"q. c #8C3E1E",
"w. c #801E2D",
"e. c #862327",
"r. c #932428",
"t. c #9B382E",
"y. c #852435",
"u. c #8B2535",
"i. c #8D2936",
"p. c #8B2639",
"a. c #8E2A3A",
"s. c #942637",
"d. c #932738",
"f. c #942A3B",
"g. c #9A2C3D",
"h. c #A52C33",
"j. c #A32C3E",
"k. c #AA2C3F",
"l. c #A4313C",
"z. c #8C481B",
"x. c #94461A",
"c. c #8B482D",
"v. c #9B4523",
"b. c #974827",
"n. c #834C31",
"m. c #85493A",
"M. c #914C36",
"N. c #845136",
"B. c #A04D2B",
"V. c #BA5D34",
"C. c #B2672E",
"Z. c #AD6237",
"A. c #B86736",
"S. c #BC653D",
"D. c #C46336",
"F. c #9E2C41",
"G. c #A42E41",
"H. c #AA2E41",
"J. c #B62E42",
"K. c #A43144",
"L. c #AC3144",
"P. c #AE3549",
"I. c #B23244",
"U. c #B43549",
"Y. c #BB364B",
"T. c #BA394A",
"R. c #C23A4E",
"E. c #C53A50",
"W. c #896D4D",
"Q. c #997B57",
"!. c #9B7C5B",
"~. c #A66843",
"^. c #B56848",
"/. c #A86E51",
"(. c #B15363",
"). c #997C65",
"_. c #837E78",
"`. c #B46C60",
"'. c #69820F",
"]. c #6F8715",
"[. c #728B14",
"{. c #778E1A",
"}. c #9C825E",
"|. c #A0825E",
" X c #9D8466",
".X c #87837D",
"XX c #9A8D75",
"oX c #9D927C",
"OX c #A38868",
"+X c #A58D73",
"@X c #AA947B",
"#X c #AC987D",
"$X c #B1987A",
"%X c #AC9C84",
"&X c #B4A48D",
"*X c #BCA58D",
"=X c #B8A88F",
"-X c #B6A691",
";X c #B4A991",
":X c #BBAA95",
">X c #B7AD9A",
",X c #929DA3",
"<X c #B4AEA0",
"1X c #BBB5A9",
"2X c #C3AB95",
"3X c #C4AE9A",
"4X c #C2B19C",
"5X c #C9B29C",
"6X c #C5B5A2",
"7X c #C6B7A6",
"8X c #CBB9A5",
"9X c #CCBCAA",
"0X c #D1BEAE",
"qX c #C4BDB2",
"wX c #CFC6A7",
"eX c #D4C3B4",
"rX c #D8C6B6",
"tX c #DAC9BA",
"yX c #E3D9BE",
"uX c #DDD8C5",
/* pixels */
"` X.X.X.o.X.X.N n N o.#...O.X.` X.o.3 3 M N ` m n ` n N N 2 M ` ` X.X.X.o.X.X.N 3 ` ..#.X.O.X.` X.o.2 b M M ` ` b ` m N N < M ` ",
"X.X.X.o.O.o.N X.X.N M < ` < 2 n n 3 3 < 3 3 o.3 2 _ M n M M M X.X.X.X.X.@.o.N X.X.` n , X.< 2 n b 3 2 2 2 3 o.3 2 ` m n m m M X.",
"X.X.X.X.O.O.@.X.~ E 3 {., wX8XeXeXeX2 2 n , n ` n _ ' N b ~ ( b X.X.X.X.o.o.@.X.~ E 3 {., ` N n 2 b 3 2 3 , n n ` n ' N b ! ( 3 ",
"n ` o.O.O.` X.N J L yX>X4X6X8X8X9X9XwX9XuXM @.n N ` ' 1 K b ` X.b X.X.+.@.X.X.N L + 7 q 8 w ` ` m 3 ` M ` _ O.` ` _ o.1 L 3 X.X.",
"` o.N O.#.m Q Z Y 0XW.>X X).}.). X XQ.8XOXrX9.4.< P P C ^ b O.` ` o.` O.@.n Q C + % 0 0 7 X o N n ` b m m *.9.4., P I C ^ b o.` ",
"o.o.o.o.O.( 2 ].eX0X).).4 j l 8 j l $ }. XeXeX[.; = > J ! 3 N N o.o.o.O.o.) 2 ].w 5 0 6 o h p N ` X.X.` 2 :.4.].; C > H ! 3 N X.",
"N O.+.X.b P E 8X9XOX4 l k V y.e V a.l z $ |.9X9XF {., G < ` ` o.N O.O.` 3 P E * 7 6 w + /.m.X 3 U n ` M n P 3 U F {.< G < ` ` o.",
"o.O.O.X.A b 6X6XOX4 k y.y.(.p.e y.y.y.y.z p OX9X4X2 R n m X.X.@.o.O.O.X.Z 3   - 7 4 8 + o @ O 3 ].S 2 T , O.$.` A 1 R n n X.X.+.",
"` ` , ^ < 2 <X3X!.k p.p.p.p.p.e p.w.p.p.u.x !.5X6XH _ P 2 b ` ] N N , ^ 2 . .   . o o 6 0 6 X C , F 3 / , o.@.$.( F _ P 2 3 X.X.",
"2 S - , 2 oXrX).9 y.p.y.p.a.d.e p.y.d.p.w.p.y { eX>XX.X.| > > , b G - , , i c.A.^.c.[ [ 8 + { + M M X.` N M #.T 2 L o.X.| - , , ",
"< ; < 3 b XX X X..%.>.>. .<.<. .5.5. .5.5.>.%.W.OX4XO.X.` b m , < ; , b o b.S.A.v.t v.x.Z.Z.A.n.o ' 3 n n 3 @.O.X.X.O.X.X.b M , ",
"b 2 3 b b >X-X Xx p.f.f.f.f.g.y p.u.F.f.d.f.x W.%X&X` ` o.n > 2 b 2 2 + i b.v.x.d r d s b.v.x.+ n n n 3 .X3 3 X.` ` ` ` O.3 , 2 ",
", b b b 3 >X&XOXy f.i.g.F.p.g.y g.s.f.F.g.p.V Q.-X=XX.N ` b 2 2 , b + M.^.A.D.^.v.s s A.D.V.n.+ 3 b .X_.2.#.3 _ ` ` ` ` ` 3 2 2 ",
"2 b b b 3 <X&X+XB g.f.g.F.F.j.y g.f.g.s.F.f.e.!.;X-X^ < > ` < 2 b b N.D.A.b.c.+ a d b.A.z.^.n.+ n 3 :.:.*.n ` G M 3 '.< > ` 2 2 ",
"b b b b n >X*X+Xy g.f.K.f.j.g.u g.j.j.s.F.p.u.!.>X-XD G U R < 2 b b i A.A.a < X.$ i ~.^.Z.!.c.n.+ + O.@.m J ; K I T Z G U R < 2 ",
"b b n m 3 1X*X+Xy.f.g.j.g.K.6.,.7.j.g.g.f.j.i.!.:X-XP Q [., 2 3 b b + n.^.{ . X.    - : O.1._ ^.)./.n.+ - 3 ` $.] m P Q [.< 2 2 ",
"b b n m 3 1X*X@X+.-.-.-.;.6.K.,XF.7.;.-.;.-.+.!.4X:X_ ! = G ; 2 b b n n o o.2.. . p Z.S.^.^.X ; , p =.# , b m ` ' ' N ! = G ; 2 ",
"2 b 2 2 3 1X*X#Xy k x x x 5.K.6.K.5.x z x k k !.>X:X` ` ' ' b 2 2 b < 3 b X o n.+ g A.C.S.D./._ M ` F J R b N ` b ] ` ` ' ' b < ",
"n m m n O.1X2X#Xu j.L.l.J.j.5.7.5.I.L.L.H.j.f.!.4X5X` m N ' b , n N N n o.N 9 A.~.h x.A.A.D.D.o n X.#.H 2 b n n n m N N N ` b , ",
"n b m m ` 1X2X#Xg.H.L.j.U.H.G.0.L.H.U.H.L.H.s.!.>X:Xm ` b N ` n n b n m ' N h 5 g h @ M.V.v.B.b.f M 3 W 1 Y n n m N M ` b ` ` n ",
"b b 2 n n 1X5X#Xi.k.P.L.U.I.k.e.U.U.l.P.G.G.g.!.4X4X` N N ` M 3 b b 2 n b a C.t v.d + 3 m.c.q.t.^.X N } F K 8.3.N n m N N N N b ",
"< b b b b 7X3X#Xl.k.U.L.I.T.k.e.U.U.k.U.U.P.j.!.7X4X` ` N N < 3 , b b + o c.Z.B.c.+ Q 2 3 + d ^.M.@ N n D , ) o.n 2 ` N N N 2 2 ",
"2 2 2 2 3 qX5X#Xg.k.l.k.Y.Y.Y.y Y.Y.L.P.P.P.g.Q.7X5Xn n ` b 3 2 3 o * n.^.^.`.4..X4.$.2 < 3 m.Z.b.m.X n N n I n n m n N ` n b < ",
"> < > } , qX5X$X,.&.5.8.%.8.8.&.8.8.>.8.8.3 5.!.7X8Xm b ` n 3 o., 9 f 0 5 c + 2.:.*.N m b N f @ @ 7 X ` N N [.m n n n b ` n 2 o.",
"` O.2 S [.1X8X#Xl.L.L.U.R.R.U.w E.E.I.R.L.U.L.!.7X7Xm ` M , @.X.` 0 r a c ; 2 ;.$.O., b 3 b @ 0 f 4 w n b m m G 3 n M N N , @.X.",
"` ` 3 - D eX5X%Xl.L.I.Y.R.R.E.* E.E.I.T.U.U.H.Q.8X8X3 m ` , M X.+ q g o F J Z 3 b - > 2 n 3 b w i 5 f . < 2 , b = n b M N , M X.",
"n ..3 - P XXtX#Xe.l.r.r.T.I.E.: r.h.T.r.P.U.r.!.eX9Xn m n n b + q * o - P U U F ; J L , N < n b b 4 q 6 + n n n , n n N n n b 2 ",
"3 M ` ` _ XX*X#X&X&X=X=X;X*X:X;X:X-X=X;X&X-X&X!.$X>Xn 3 n ^ U 6 s X N ` ( 2 '.I M 3 ` b n , b n b O 7 a f b n b N 3 b 3 n / I b ",
"X.X.X.@.N M < 7X9X9XeXeXeXeXtXeXtXtXtXuXrXrXrX7Xm P = F T ! & d a w o O.M N < 3 M N N M ` M 3 4.4.b o a a 9 X N n G = J Y R X.b ",
"X.X.X.$...M A 1 N ` ` ` X.` X.O.O.Z Y '.= < 3 , < m Y 1 C M 3 # @ 7 v O ..n A 1 N N ..` X.X.` O.O.Z O % % o o ; 2 N Y 2 C N 2 , ",
"X.X.X.X.X.X.W Q ` n M ` o.O., , , ` m < J < 3 N ` ` 3 2 1 2 M N X.X.X.X...X.W Q N M N N o.@., < , ..M < J 3 2 N N X.3 3 1 < N N ",
"..N N X.X.X.M M ` ` X.X.X.@.@.` O.#.M 3 m m m 3 n , ` ` M 2 M X.X.X.` ` X.` n ` ` X.X.X.X.@.@.X.o.#.M 3 n n n b n < N N n 3 M ` "
};
