/* XPM */
static char *lr_cd_01722085374[] = {
/* columns rows colors chars-per-pixel */
"64 32 218 2 ",
"   c #0C0000",
".  c #0C0800",
"X  c #130100",
"o  c #1B0000",
"O  c #130008",
"+  c #1C020B",
"@  c #230000",
"#  c #2C0000",
"$  c #2A010A",
"%  c #3C1303",
"&  c #310F13",
"*  c #3B1C17",
"=  c #3A210D",
"-  c #333D0D",
";  c #2A231A",
":  c #38271C",
">  c #393A1E",
",  c #2D2522",
"<  c #302725",
"1  c #3A2220",
"2  c #332926",
"3  c #362C29",
"4  c #392E2B",
"5  c #3A3425",
"6  c #3A3827",
"7  c #3B312D",
"8  c #3E3431",
"9  c #450C02",
"0  c #4D0C00",
"q  c #460B0B",
"w  c #580E03",
"e  c #481606",
"r  c #4B150B",
"t  c #521303",
"y  c #5C1201",
"u  c #581B0D",
"i  c #4A1A16",
"p  c #581B17",
"a  c #462113",
"s  c #5B2817",
"d  c #5D2C1A",
"f  c #4C3010",
"g  c #5A3219",
"h  c #6B2302",
"j  c #67280A",
"k  c #762809",
"l  c #652A14",
"z  c #682816",
"x  c #64321A",
"c  c #511822",
"v  c #6A1A24",
"b  c #7B1F2E",
"n  c #572B20",
"m  c #413633",
"M  c #443936",
"N  c #483A37",
"B  c #463C39",
"V  c #493E3A",
"C  c #76242F",
"Z  c #35410E",
"A  c #3A460F",
"S  c #3D4C0A",
"D  c #3D5703",
"F  c #394511",
"G  c #3D4B12",
"H  c #435E03",
"J  c #475B08",
"K  c #444E17",
"L  c #445215",
"P  c #49561A",
"I  c #4B5C19",
"U  c #505F1C",
"Y  c #4C6505",
"T  c #4A6109",
"R  c #516807",
"E  c #516509",
"W  c #536B09",
"Q  c #5B750D",
"!  c #5C740C",
"~  c #4F6019",
"^  c #5A6F11",
"/  c #566618",
"(  c #51641C",
")  c #5A6C1E",
"_  c #5D7413",
"`  c #667E0C",
"'  c #617512",
"]  c #697E14",
"[  c #697E19",
"{  c #4B4C2B",
"}  c #4C5424",
"|  c #53592F",
" . c #444233",
".. c #4F4B35",
"X. c #4C413E",
"o. c #50433F",
"O. c #72462F",
"+. c #784C38",
"@. c #7A5537",
"#. c #5B6927",
"$. c #5F7423",
"%. c #4E4341",
"&. c #4B4947",
"*. c #524643",
"=. c #544945",
"-. c #5A4749",
";. c #564B49",
":. c #594D4A",
">. c #5B524D",
",. c #4B5558",
"<. c #5B5653",
"1. c #745746",
"2. c #694E57",
"3. c #615953",
"4. c #69625D",
"5. c #5E6C6C",
"6. c #726B65",
"7. c #766F69",
"8. c #74726D",
"9. c #79736D",
"0. c #6F787D",
"q. c #7C7974",
"w. c #993E1B",
"e. c #8E2127",
"r. c #8A2937",
"t. c #952939",
"y. c #9B2D3C",
"u. c #953534",
"i. c #A0242C",
"p. c #A52E3B",
"a. c #954516",
"s. c #9A4617",
"d. c #93451E",
"f. c #9B431C",
"g. c #A0441D",
"h. c #884527",
"j. c #834B2B",
"k. c #8B4A2D",
"l. c #934624",
"z. c #9C4A23",
"x. c #984827",
"c. c #93462B",
"v. c #824937",
"b. c #874937",
"n. c #82523D",
"m. c #BF5F2D",
"M. c #B65C3A",
"N. c #BC632E",
"B. c #AC603C",
"V. c #B96736",
"C. c #B3643C",
"Z. c #BC653A",
"A. c #C36A3D",
"S. c #CB7037",
"D. c #8C3842",
"F. c #A42E41",
"G. c #A92F42",
"H. c #AA3143",
"J. c #B73547",
"K. c #C33B4F",
"L. c #C73B50",
"P. c #825343",
"I. c #866C4D",
"U. c #8E704E",
"Y. c #9E6B5C",
"T. c #977957",
"R. c #9B7C5B",
"E. c #A66646",
"W. c #AA6942",
"Q. c #B26543",
"!. c #B76945",
"~. c #BA6A42",
"^. c #B8694A",
"/. c #AB6E57",
"(. c #B07158",
"). c #937B63",
"_. c #827D77",
"`. c #69820F",
"'. c #728A14",
"]. c #758E1A",
"[. c #798F1B",
"{. c #9B815E",
"}. c #A0825E",
"|. c #9D8666",
" X c #87837D",
".X c #9A8D75",
"XX c #9D927C",
"oX c #A38665",
"OX c #A18B72",
"+X c #AC947C",
"@X c #AC987D",
"#X c #B1987A",
"$X c #9D968B",
"%X c #AC9C86",
"&X c #B19C88",
"*X c #A59D92",
"=X c #B3A38D",
"-X c #B8A88F",
";X c #B6A691",
":X c #B7AD9A",
">X c #BCAC9B",
",X c #BBA9A2",
"<X c #BBB5A9",
"1X c #BCB6AA",
"2X c #C3AB95",
"3X c #C4AE9A",
"4X c #C2B19C",
"5X c #C9B29C",
"6X c #C5B5A2",
"7X c #C6B8A6",
"8X c #CBB9A5",
"9X c #CCBCAB",
"0X c #D1BEAD",
"qX c #C4BDB2",
"wX c #CFC6A7",
"eX c #D4C3B3",
"rX c #D8C7B8",
"tX c #E3D9BE",
/* pixels */
"X.%.%.%.*.%.%.V M V &.>.X.=.%.X.%.*.8 M M V X.N B *.M V N 7 B %.X.%.%.%.%.%.%.V 8 X.&.>.X.=.%.X.%.*.7 B B V V V M o.M V V 4 V X.",
"%.%.%.*.=.*.V %.%.X.M 3 %.3 7 B M 8 7 4 8 8 *.m 7  .V M V B B %.%.%.%.%.;.*.B %.X.X.M 3 %.3 3 B M 7 6 3 7 8 *.m 7 V V M V M B X.",
"%.%.%.%.=.=.;.%.` I 8 [.3 wX8X>XX     4 m 3 B B V V o.V 8 ' { M %.%.%.%.=.*.;.&.`.I 8 [.3 X.B N 7 M 8 8 M 3 N B V V o.V M _ { M ",
"M X.*.=.=.X.%.V L I tX>X4X7X+ r 0 e r r X 8 ;.M V V o.> P M X.X.M X.%.-.=.V *.V L I Y Q B B X.X.M m V B X. .;.N X.V *.> P M X.X.",
"X.*.V *.:.N ( A W 0XI.:X{.+ i r r a o d o   q.9.4 Y Y Z `.M *.X.X.*.X.=.;.N ( F W *.' 2 *.N X.V B B 8 B B <.q.9.3 Y Y Z ] M %.X.",
"*.*.*.*.=.{ 7 '.eXeXR.{.q X p w w @ z (.o O eX'.< - < K _ 8 V X.*.*.*.=.=.{ 7 '.B Y } 7 7 M V V V *.%.%.7 4.9.'., - 3 K Q 8 V %.",
"V *.*.%.m Y I 8X7XoXq v O = q t % f O.P.% |.9X0XK [.3 H 3 X.V *.V *.=.X.8 Y ~ Y 7 2 ; 7 N 3 *.4 R 8 V V M Y M Y G [.3 H 4 V V *.",
"*.-.;.*.S M 6X6XoXq v o X a o @ % X 1.C p p }.8X4X5 ! M B *.%.;.*.-.=.%.S N >.9.7.4.%.5 7 7 m m '.J 8 W 3 =.;.X.G 5 ! M N *.*.;.",
"X.X.3 `.8 7 4X>X|.$ g +.n.X X X X @ P.n.r o T.3X6XG ..H 7 m X.*.o.X.3 `.7 7 3.<.>.*.M 6.m 5 2 F 3 G 4 [ 3 *.=.;.} G ..T 7 8 %.*.",
"7 D , 3 7 .XeX|.o v.C.Z.C.y @ o @ W.l.C.E.P.v @.rX>X=.%.$.< 3 3 7 D ; 3 4 7 < =.*.V 7 3.=.2 , M B B %.X.X.M >.! 8 L =.%.$., 3 3 ",
"7 < 7 8 8 .X|.).t h f.d.y l.f.N.A.d.h s.c.s &.I.oX4X=.%.X.M M 3 4 < 4 m M 7 m 7 3 < m ; 2 V o.V X.X.m M m M ;.=.%.%.=.%.%.m M 3 ",
"7 7 8 8 8 :XX f M.C.a.!.c.x.Z.N.S.u.k M.# u C U.%X=XX.X.*.m 2 7 m 4 m m M 4 M m 8 B M 4 m m X.m N M M 8  X7 8 X.X.X.X.X.=.m 2 7 ",
"4 m m m M *Xs l.g.C.^.c.f.Z.Z.g.f.k k h z d b T.;X=X%.X.X.8 8 7 4 m m m m 3 V M V M M J m M M M 8 m  X X7.;.m X.X.X.X.X.X.m 7 7 ",
"7 m m m 7 o B.V.f.j b r.x k.z c.l.h j.l j 9 C R.;X;X`.3 3 V 4 7 7 m m m m m M M V 8 2 / m M M M M 8 4.4.>.M X.T M 8 `.3 < X.7 7 ",
"m m m M M $Xj C.~.v.r.u.X X X o o o X j.!./.; . *X&XF H T ! 7 7 m m m M m N 5 %.X.X.Y W m m m V X.M %.;.M L < P E Q A H R ! 7 7 ",
"m m M M 8 :XX f /.X r.D.            X r.o o  .; /.(.Y.+.& 3 4 m m m M N m 7 X.%.%.P _ [.4 4 m M m M 2 3 , M X.>.*.M Y / '.3 7 7 ",
"m M M V 7 <X-X+XX V P.# ^.m.S.C.x o k.O.2.2.-.T.o o g O.- H < 4 8 B M B 8 B X. .! 4 8 Y 7 | X.3 7 J 3 2 3 8 N X.X.o.V _ - H < 7 ",
"7 7 4 8 m <X2X@Xp o c.C.w.~.V.Z.Q.n.B.~.o v v R.>X3XX.X.%.*.m 7 7 7 3 7 8 8 3 8 '.R ) ; 7 X.X. . .X.K L Q B V X.M *.X.o.o.o.m 4 ",
"N V  .M o.<X2X@Xv r.j C.Q.y C.N.V.h.Q.N.n.o t.R.4X4XV V V o.m 3 N  .X.M *.X.o.X.: R '.m M V *.X.V X.=.L 7 8 M M N V V  .V o.m 4 ",
"M 7 N N V <X2X@Xy.F.y.X k f.A.V.Q.P.k.a.h z t.R.>X3XV  .m V X.M M 8 N N X.X.X.8 '.~ 2 7 M m X.*.B M M E 5 W M M M V V N m V X.M ",
"m m 7 M N 1X5X@Xt.p.F.o c.z.g.W.j.b.x.x.w.^.$ R.6X4XN V V V N m m m 8 M M V q.&._ I G 8 m N N B M 3 X.#.G P 8.8.B B V X.V V V m ",
"4 m m m m 7X3X@Xy.G.J.t.b.x.w.j.@ H.# k g.a.@ R.7X4XX.X.V V 4 8 3 m 7 m 7 7 6 ( ^ #.( 8 m m 7 B M 3 V B F 3 | &.N 7 X.B V V 7 7 ",
"7 7 7 7 8 7X5X%Xy.F.o s z.z.l.o H.H.@ ^.Q.(.t.R.7X5XM M X.M m 4 7 7 7 m 7 7 [ _. X9.>.6 7 7 M m 8 N X.m V M T m M N M N V M m 4 ",
"3 5 3 #.4 qX5X+X,.X # Y.l.W.@ ,.0.o o @ # # 5.R.8X6XV m V M 8 &.3 7 3 ) 7 m m 6.4.<.B B 7 N V 7 B X.7 X.V X.'.V M M N m V M 8 *.",
"V *.8 S '.qX5X@XO % z 0 # o F.i K.X r x d & H.R.8X6XN V B 3 ;.%.X.*.4 D ].< 7 <.<.=.2 M 7 M m o.M M X.M 8 N M T 8 M M V B 3 ;.%.",
"%.V 8 , K qX5X@XX 0 y j o K.L.: L.o % w s @ G.R.8X8XM V X.3 B %.X.V 8 , F L F 8 8 ; < 7 M 8 m m M M  .8 7 7 3 M - M M B V 4 B %.",
"8 %.8 , H XXrXOXe u @ e.J.J.L.1 i.p.G.0 x @ e.R.eX7Xm N M M 8 8 M %.8 , H R W G 2 P } 4 V 7 M m m M M M B M m m 3 B M B M M M 7 ",
"8 M X.X....X&X# j e =X-X;X-X-X;X-X;X=Xw l @ ;XR.#X3XM m M [ R 8 M B %.%...8 `.T M 8 X.8 M 2 m M m m M M 8 M M 8 B 8 M 8 M [ E 8 ",
"&.&.%.=.B 8 9 z y o eX9XeXeXrXrXrXrX9X0 k t @ ,XM H - L W _ X.8 V %.%.=.V V 3 8 B V V B X.M m 9.9.m V 4 A M N X.M H - L R ^ X.m ",
"%.%.%.>.&.B o r e a * O %.%.X.=.*.A X i i % s n c + W 6 Z B 8 3 %.%.&.>.&.M S 6 V X.X.%.%.%.X.=.o.A W `.Z 3 8 3 7 X.R 7 Z V 8 3 ",
"%.%.%.%.&.&./ U X.8 M M &.*.3 4 3 %.M 4 } m 7 N B %.8 8 6 7 B V %.%.%.%.&.%.^ ( V M B V =.=.2 4 4 X.M 7 L 7 7 X.X.X.8 m 6 7 B V ",
"%.%.V %.%.X.B B %.%.%.&.*.;.;.X.=.:.B 8 M M N m M 3 X.N B 7 B %.X.%.X.%.%.%.M B X.%.%.*.&.;.;.X.=.:.V 7 B M N 8 N 3 B B B 7 V %."
};
