/* XPM */
static char *lr_cd_41722087951[] = {
/* columns rows colors chars-per-pixel */
"64 32 220 2 ",
"   c #0E0000",
".  c #140000",
"X  c #1C0000",
"o  c #1C0008",
"O  c #230000",
"+  c #2C0103",
"@  c #25030E",
"#  c #2C010B",
"$  c #350001",
"%  c #380000",
"&  c #32020B",
"*  c #3F0F09",
"=  c #270313",
"-  c #350211",
";  c #39191A",
":  c #333E0D",
">  c #35321E",
",  c #3C1825",
"<  c #2D2522",
"1  c #302725",
"2  c #352825",
"3  c #362C29",
"4  c #392E2B",
"5  c #3B3727",
"6  c #3B312D",
"7  c #3E3431",
"8  c #470C07",
"9  c #4D1305",
"0  c #45140A",
"q  c #4A120D",
"w  c #521203",
"e  c #5F1000",
"r  c #451716",
"t  c #5B1515",
"y  c #631000",
"u  c #661417",
"i  c #75181D",
"p  c #5F231B",
"a  c #5C291C",
"s  c #752404",
"d  c #652715",
"f  c #6C2615",
"g  c #622A1D",
"h  c #5A1720",
"j  c #6D1622",
"k  c #621823",
"l  c #6B1A25",
"z  c #731926",
"x  c #592926",
"c  c #413633",
"v  c #443936",
"b  c #473738",
"n  c #463B39",
"m  c #4A3E3B",
"M  c #503E3F",
"N  c #64212A",
"B  c #78212B",
"V  c #7E2333",
"C  c #35410E",
"Z  c #3A460E",
"A  c #3D4C0A",
"S  c #3D5703",
"D  c #3C4912",
"F  c #435E02",
"G  c #445316",
"H  c #47531C",
"J  c #4A5B19",
"K  c #4C6505",
"L  c #4A6109",
"P  c #516806",
"I  c #536B0A",
"U  c #5B750D",
"Y  c #5C740C",
"T  c #4F6019",
"R  c #52641C",
"E  c #5A6C18",
"W  c #5D7711",
"Q  c #637A0D",
"!  c #697E14",
"~  c #687B18",
"^  c #4B4C2B",
"/  c #4C5424",
"(  c #54592C",
")  c #4F4B35",
"_  c #4C413E",
"`  c #51433F",
"'  c #5C423D",
"]  c #7E4C3D",
"[  c #755934",
"{  c #576423",
"}  c #5F7423",
"|  c #6E6537",
" . c #363E44",
".. c #543D43",
"X. c #3B4249",
"o. c #4E4341",
"O. c #484845",
"+. c #524543",
"@. c #544945",
"#. c #5A4549",
"$. c #564B49",
"%. c #594D4A",
"&. c #5C534E",
"*. c #514D51",
"=. c #4A5456",
"-. c #724E4A",
";. c #654E54",
":. c #694F58",
">. c #615953",
",. c #69545A",
"<. c #775251",
"1. c #565C63",
"2. c #5D676A",
"3. c #5F6670",
"4. c #66686B",
"5. c #736D6E",
"6. c #70726E",
"7. c #79736D",
"8. c #626A72",
"9. c #6A6B73",
"0. c #6B767A",
"q. c #787878",
"w. c #851E1F",
"e. c #801E2D",
"r. c #862327",
"t. c #932428",
"y. c #852435",
"u. c #8B2535",
"i. c #8D2936",
"p. c #8B2639",
"a. c #8E2A3A",
"s. c #942637",
"d. c #932738",
"f. c #942A3B",
"g. c #9A2C3D",
"h. c #9C313B",
"j. c #A52C33",
"k. c #A32C3E",
"l. c #AA2C3F",
"z. c #A4313C",
"x. c #95451D",
"c. c #99441E",
"v. c #8C472C",
"b. c #964624",
"n. c #954529",
"m. c #854933",
"M. c #874937",
"N. c #8A493C",
"B. c #924A37",
"V. c #AE653E",
"C. c #B96737",
"Z. c #B4653B",
"A. c #B7673C",
"S. c #BA683B",
"D. c #9E2C41",
"F. c #A42E41",
"G. c #AA2E41",
"H. c #B62E42",
"J. c #A43144",
"K. c #AC3144",
"L. c #AE3549",
"P. c #B23244",
"I. c #B43549",
"U. c #BB364B",
"Y. c #BA394A",
"T. c #C23A4E",
"R. c #C53A50",
"E. c #834E40",
"W. c #8E6D50",
"Q. c #997B57",
"!. c #9B7C5B",
"~. c #AD6749",
"^. c #B56544",
"/. c #BA6640",
"(. c #B56948",
"). c #A76957",
"_. c #8D566E",
"`. c #875A73",
"'. c #B15363",
"]. c #9A7F64",
"[. c #857D7A",
"{. c #6A820F",
"}. c #728A14",
"|. c #778E1A",
" X c #9C825E",
".X c #9D8466",
"XX c #9A8D75",
"oX c #A38868",
"OX c #A58D73",
"+X c #AA947B",
"@X c #AC987D",
"#X c #B1987A",
"$X c #AC9C84",
"%X c #B4A48D",
"&X c #BCA58D",
"*X c #B8A88F",
"=X c #B6A691",
"-X c #B4A991",
";X c #BBAA95",
":X c #B9AA97",
">X c #B7AD9A",
",X c #929DA3",
"<X c #B4AEA0",
"1X c #BBB5A9",
"2X c #C3AB95",
"3X c #C4AE9A",
"4X c #C2B19C",
"5X c #C9B29C",
"6X c #C5B5A2",
"7X c #C6B7A6",
"8X c #CBB9A5",
"9X c #CCBCAA",
"0X c #D1BEAE",
"qX c #C4BDB2",
"wX c #CFC6A7",
"eX c #D4C3B4",
"rX c #D8C6B6",
"tX c #DAC9BA",
"yX c #E3D9BE",
"uX c #DDD8C5",
/* pixels */
"_ o.o.o.o.o.o.m c _ O.&.o.@.o._ +.o.4 v b m _ _ c _ v _ m 4 n _ _ o.o.o.o.+.o.m 7 _ O.$._ @._ _ o.+.7 7 n m _ _ c _ v _ v 5 b _ ",
"o.o.o.+.@.+._ o.o._ 7 3 o.3 6 v b c 7 4 7 c o.6 6 _ v v n n m ..o.o.o.+.@.+.m o._ _ m 3 o.4 6 b c 7 6 6 6 7 ` c 6 _ _ v _ v n _ ",
"_ o.o.o.@.@.$.+.Q T 7 |.1 ..eXeX0X8XwX7 7 3 b o.n _ ) m 7 W ^ c o.o.o.o.@.@.@.o.{.J 7 |.3 _ +.# # +.7 7 5 4 b n _ _ ` _ 7 Q ^ c ",
"b _ +.@.@._ o.m G J K uXqX9XwX9X9X7X7X3X4XyX$.v _ m +.5 J v o._ c o.o.@.@._ o._ G J K U v @ q 9 9 0 , = _ _ $.b _ n ` > J c _ _ ",
"_ +.M +.%.b R C I o.eX.X6XQ. X X.X!.oX!.>XW.0X7.3 K K C {.7 +._ _ +._ +.$.m R C U o.W 3 # q 8 q 0 O -.o @.>.q.7.3 K K C ~ v +...",
"o.+.+.@.@./ 5 }.m eXeX.X X0 N h - k k 8 oX!.9X9X2 : < G W 7 _ _ +.+.@.@.@.^ 6 }.v L / 6 O 9 w r O m.).O ..>.7.}.< C 3 G W 7 _ _ ",
"_ @.@._ 7 L J P 9XeX.X* l k a.V t y.V j k 8 oX8X8X|.4 L 6 _ _ +._ +.$._ 7 K T K 6 2 < o r 0 q + x ).+ +.v K 7 K D |.3 S 6 _ _ _ ",
"+.@.@.+.A v &.4X6XoXa l y.y.V y.t y.'.y.y.l 8 oX4X6XY b b o.o.@.@.@.@._ A v &.7.7.,.@ . ; O O ; . O ,.| 3 @.%.o.G 5 U v b o.o.$.",
"_ _ 3 ! 6 6 >.6X5X!.z p.p.p.e.p.t y.p.p.p.y.k ].5X<X^ L 6 c _ ` _ m 3 ! 6 6 >.&.- g ] ] O O X -.X ] p r 4 @.$.$.H G ) F 7 7 o.+.",
"4 F < 3 4 6 >XrX[ l p.y.p.d.u.p.u a.d.p.u.p.y.r ].eXXXo.} 1 3 3 6 F < 3 4 6 1 ;.N.(.Z./.w $ X $ ).n.(.).& n %.U 4 G +.o.} < 3 3 ",
"4 1 4 c v 6 4XoXW.*.1.1.8. .8.3. .3.2.X.1.1.=....X.XXXo._ c v 3 3 2 3 c c 6 v % s c.b.y c.b.S.c.c.s /.v.& c $.+._ +.@.o.o.c b 3 ",
"c 6 6 c b 4 %X$XW.f p.d.D.f.u.d.u f.g.f.f.f.y.z .X=X>X_ +.v 3 6 c 6 6 c b 6 - B./.x.(.n.c.S.C.C.c.Z.B.% = 6 c _ o.m _ _ +.7 3 6 ",
"3 c c c c 3 %X=X!.z d.f.D.f.s.D.u g.f.g.g.u.f.u XX%X;Xn _ c 6 6 3 c c c c % f (.S.^.n.n.A./.c.b.s b.$ p O %.c _ _ _ _ _ _ 7 6 6 ",
"6 c c c 6 b *X=X!.V D.f.p.g.d.D.u g.g.D.D.f.g.B OX&X<X3 2 _ 6 6 6 c c c 7 M.(.Z.d _._.g v.f v.m.f % M.d # n m L n 7 {.4 3 _ 6 6 ",
"c c c c n n =X;X Xu.s.D.s.F.D.g.i g.k.f.D.g.g.u OX2X<XF P Y 4 6 c c c v m $ f (.] `.`.X X O X O O O M.~.O @ o.) R Y Z F P Y 4 6 ",
"c c v v 7 6 ;X;X!.i.k.s.g.D.G.9.2.9.G.g.D.g.f.y.OX&X<XR }.4 6 c c c v v 7 +.% m.O `.`.. X X . +.  o @ # , , X ).).+ - R }.6 6 6 ",
"c v v v c v ;X;X!.#.:.,.;.:.9.F.,XJ.9.:.;.:.:...+X&X1XW : F 1 4 c c v v c n m @.' <.$ ~.C.C.~.O O ).$ 2 3 c _ & a & #.U : F 2 4 ",
"6 c 4 c c c ;X4X!.j j i z z 8.J.9.J.4.z j z j j @X2X1Xm m ` c 4 6 c 4 c c 7 3 5 + m.(.x.^.A./.$ M.V.E.$ U v n ` n @.` ` ` ` c 4 ",
"v v _ v ) _ 4X4X!.d.k.K.L.K.G.8.0.8.F.P.F.G.F.i @X2X1Xn m ` c 4 n n n v +.m _ ` 5 f ~.^.e A.S.% m.A.(.E.6 b b v n m m m m ` c 4 ",
"v c c v m _ 4X4X!.s.F.K.G.I.G.I.r.F.G.I.G.G.G.g.@X3X1Xn c m _ n c c n n _ m _ v }.T O s x.C.S.% M.x.^.s + I c v v n m n c m m n ",
"7 v 7 v b n 5X4X Xg.z.F.L.F.I.Y.t.G.K.I.G.L.G.d.@X5X7Xm m _ m 7 c c c c v n q.O.W J $ v.b.c.^.$ -.n.b.b.M.H 7.6.n n n m m m m c ",
"4 7 7 7 c 6 4X7X!.g.P.L.I.G.Y.U.w.G.I.K.K.I.G.g.@X3X1X.._ n 3 7 3 c c c 6 6 5 R E { R N.c.b.m.M _ f (.b.-.7 ( O.v 6 ` n m m 6 6 ",
"6 5 7 6 6 6 4X8XQ.g.L.Y.I.l.U.U.u l.I.Y.P.z.K.h.@X3XqXn _ c 7 7 4 c c 4 6 6 Q [.[.O a v.n.m.& c n N.n.(.% v L v v v v n _ b c 4 ",
"3 6 4 E 6 c 6X8X X2.X.0.0.=.0.0.=.0.0.=.9.9.=.1.#X5XqXc _ c 7 o.3 4 3 E 6 c c 5.= O ).n.~.$ _ 6 = $ $ + # _ }.n v n n 6 _ v 7 +.",
"o.+.6 S |.1 6X8X!.G.I.P.U.H.R.T.a I.T.T.I.l.P.z.@X5XeXm v 3 $.o._ @.4 S |.< 4 >.0 d w $ # b c ` # d w a = n v L c v b m n 3 $._ ",
"_ n 7 < A G 8X8XQ.z.I.Y.U.H.T.R.; R.T.T.T.l.P.z.@X4XeXn o.3 n o._ n 7 < D G D c 8 e f & c c c c = g d a 6 6 3 v : v v m _ 2 m o.",
"n O.7 < K K 7XeX!.t.I.L.t.I.j.t.2 R.P.U.t.t.z.r.@XtXXX7 n n 7 7 n _ 7 < F P P $ g & ( 4 n 6 v c v + d g m b b c 3 n c v c n c 6 ",
"7 7 ..o.) 6 4X#XQ.%X-X-X-X;X;X=X&X=X*X=X-X*X%X%X@X=XXX7 7 {.I 7 c m o._ ) c ~ q r 7 m 7 b 3 c v v + f g m c c 7 n c v c c ~ K v ",
"O.o.o.$.n n 3 c 1XrXrXtXtXtXtXtXrXrXrXeX9XeX9X9X9XF C G I U _ 7 o.o.o.@.m # 8 f $ n m n _ n 7 7.7.O f f q #.n n n S C G I U _ c ",
"o.o.O.%.o.n S 5 m _ o.o.o.o.o.@.+.Z I {.: 4 7 3 6 m I 6 C m 7 1 o.o.o.*.+.= + q ; , = o.o.o.o.@.` ; 0 0 a x x = b _ P 6 C _ 6 3 ",
"o.o.o.o.o.O.E R m v n n @.@.3 3 4 _ n 6 G 6 6 m _ o.7 6 5 4 _ _ o.o.o.o.O.o.U R m n n _ O.@.3 4 3 _ n 6 G 6 c _ _ _ 6 7 5 4 m _ ",
"..o.n O.O...b v o.o.o.o.+.$.$.o.@.%.m 6 c m m 7 c 4 _ n b 6 n _ _ o...o.o.o.n v o.o.o.o.+.$.@.o.@.$._ 6 b b n 5 n 4 m m m 4 m o."
};
