/* XPM */
static char *lr_cd_21722085374[] = {
/* columns rows colors chars-per-pixel */
"64 32 218 2 ",
"   c #050101",
".  c #060504",
"X  c #0D0001",
"o  c #140000",
"O  c #1C0001",
"+  c #1E0B0E",
"@  c #1E0014",
"#  c #230001",
"$  c #220406",
"%  c #2B0000",
"&  c #3B0B05",
"*  c #371303",
"=  c #2D1315",
"-  c #3C1916",
";  c #343E0D",
":  c #2C231F",
">  c #37271B",
",  c #393A1E",
"<  c #321523",
"1  c #2D2522",
"2  c #302725",
"3  c #332926",
"4  c #362C29",
"5  c #392E2B",
"6  c #3A3425",
"7  c #3A3923",
"8  c #3B322D",
"9  c #3E2932",
"0  c #3E3431",
"q  c #470C06",
"w  c #540B00",
"e  c #4C1302",
"r  c #491608",
"t  c #551604",
"y  c #441C19",
"u  c #5B1515",
"i  c #661417",
"p  c #75181D",
"a  c #4E2A14",
"s  c #5A2A17",
"d  c #44321A",
"f  c #6B2606",
"g  c #79280E",
"h  c #672816",
"j  c #4F1923",
"k  c #6D1622",
"l  c #621823",
"z  c #6B1A25",
"x  c #731926",
"c  c #512C2B",
"v  c #413633",
"b  c #443936",
"n  c #483A37",
"m  c #463C39",
"M  c #493E3B",
"N  c #652A26",
"B  c #7E2333",
"V  c #37430E",
"C  c #3E4D0A",
"Z  c #3D5703",
"A  c #394611",
"S  c #3D4B12",
"D  c #435E02",
"F  c #475B08",
"G  c #404E14",
"H  c #445215",
"J  c #4A5518",
"K  c #4B5C19",
"L  c #4B6405",
"P  c #4A6109",
"I  c #516807",
"U  c #516509",
"Y  c #546C09",
"T  c #57700B",
"R  c #5B740D",
"E  c #4F6019",
"W  c #586A17",
"Q  c #52641C",
"!  c #5D7512",
"~  c #637B0D",
"^  c #667A17",
"/  c #697E14",
"(  c #4A4A2B",
")  c #4C5424",
"_  c #53592F",
"`  c #4E4A34",
"'  c #4C413E",
"]  c #51433F",
"[  c #59473D",
"{  c #764E32",
"}  c #7D4C38",
"|  c #5C6C25",
" . c #363E44",
".. c #3B4249",
"X. c #464547",
"o. c #4E4341",
"O. c #524643",
"+. c #534945",
"@. c #5A4549",
"#. c #564B49",
"$. c #594E4B",
"%. c #5B524D",
"&. c #4B4952",
"*. c #4A5456",
"=. c #5E5751",
"-. c #674E56",
";. c #665658",
":. c #69625D",
">. c #565C63",
",. c #5D676A",
"<. c #5F6670",
"1. c #736C66",
"2. c #74726D",
"3. c #79736D",
"4. c #626A72",
"5. c #6A6B73",
"6. c #716F7C",
"7. c #6B767A",
"8. c #797776",
"9. c #851E1F",
"0. c #993F1D",
"q. c #801E2D",
"w. c #862327",
"e. c #932428",
"r. c #953F22",
"t. c #852435",
"y. c #8B2535",
"u. c #8D2936",
"i. c #8B2639",
"p. c #8E2A3A",
"a. c #942637",
"s. c #932738",
"d. c #942A3B",
"f. c #9A2C3D",
"g. c #9C313B",
"h. c #A0242C",
"j. c #A52C33",
"k. c #A32C3E",
"l. c #AA2C3F",
"z. c #A4313C",
"x. c #8E441F",
"c. c #99451C",
"v. c #A9421F",
"b. c #88462B",
"n. c #984727",
"m. c #854C34",
"M. c #994A36",
"N. c #8C5335",
"B. c #B45F38",
"V. c #B16A34",
"C. c #B96739",
"Z. c #C26436",
"A. c #9E2C41",
"S. c #A42E41",
"D. c #AA2E41",
"F. c #B62E42",
"G. c #A43144",
"H. c #AC3144",
"J. c #AE3549",
"K. c #B23244",
"L. c #B43549",
"P. c #BB364B",
"I. c #BA394A",
"U. c #C23A4E",
"Y. c #C53A50",
"T. c #885149",
"R. c #8D6D4F",
"E. c #997B57",
"W. c #9B7C5B",
"Q. c #AA6548",
"!. c #B76847",
"~. c #A27453",
"^. c #B15363",
"/. c #9A7F64",
"(. c #C26843",
"). c #6A820F",
"_. c #728A14",
"`. c #758D17",
"'. c #758E1A",
"]. c #798F1B",
"[. c #9C825E",
"{. c #9D8466",
"}. c #87837D",
"|. c #9A8D75",
" X c #9D927C",
".X c #A38868",
"XX c #A58D73",
"oX c #AA947B",
"OX c #AC987D",
"+X c #B1987A",
"@X c #AC9C84",
"#X c #B39B8A",
"$X c #B4A48D",
"%X c #BCA58D",
"&X c #B8A88F",
"*X c #B6A691",
"=X c #B4A991",
"-X c #BBAA95",
";X c #B7AD9A",
":X c #929DA3",
">X c #B4AEA0",
",X c #BBB5A9",
"<X c #C3AB95",
"1X c #C4AE9A",
"2X c #C2B19C",
"3X c #C9B29C",
"4X c #C5B5A2",
"5X c #C6B7A6",
"6X c #CBB9A5",
"7X c #CCBCAA",
"8X c #D1BEAE",
"9X c #C4BDB2",
"0X c #CFC6A7",
"qX c #D4C3B4",
"wX c #D8C6B6",
"eX c #DAC9BA",
"rX c #E3D9BE",
"tX c #DDD8C5",
/* pixels */
"' o.o.o.O.o.o.M b M O.$.X.+.o.' o.o.0 0 m M ' ' 0 ' b ' M 8 M o.o.o.o.o.] o.o.M 0 ' O.%.X.O.O.' o.O.0 v b M M M b ' n m M 8 m ' ",
"o.o.o.O.+.O.M o.o.' m 4 ' 5 8 b b 0 0 5 0 0 ] 0 8 ' b b m m b o.o.o.o.O.O.@.m o.' ' m 3 ' 5 8 b v 8 8 8 8 8 O.v 8 ' M m m m n ] ",
"o.o.o.o.+.O.#.O.~ E 0 ].4 0X6XqXqXwX0 0 b 5 b ' b ' ] ' 0 ! ( 0 o.9 < < +.X.#.o.~ E v '.4 ' M b 8 b 8 0 0 6 n ' M M ] m v ! ( v ",
"b ' O.+.+.' o.M H K rX;X2X4X6X6X7X7X6X6XtXm #.b ' ' ] , J b o.M = e e * - j o.M H K L R b m ' ' n 8 ' m ' ' #.b ' M O., K v o.' ",
"' O.M O.$.n Q V Y 8XR.;X{./.W./.{.{.E.4X.XwX8.3.4 L L V / v O.- r e e # h N . A Y O.^ 3 O.b o.M b ' v b m =.8.3.4 L L V / v O.o.",
"O.O.O.O.#.( 8 _.7X7X/./.q l l & j N q [.{.qXqX_.2 V 2 H ! 0 + e t e - N ~.~.. ^ n L ) 5 5 b m M ' o.O.' 8 :.3._.2 ; 4 G R 0 M ' ",
"M O.+.' v L E 6X7X.Xq l k B i.u B p.u z & .X6X8XC ].4 D 4   o e t t # N.m.O Q P 5 4 1 8 n 5 +.6 I b M m v L b L S ].4 D 5 M ' O.",
"O.@.#.O.C v 4X4X.Xr z t.t.^.i.u t.t.i.t.z u .X5X2X6 R b 0   o # r * - - X v %.8.2.:.' 6 8 8 v v _.Z 0 Y 5 +.#.' C 6 R n n O.o.#.",
"' ' 4 / 8 8 1X;X/.k t.i.i.i.t.u p.q.i.i.t.x E.3X4XS ` C o } ~.N.a O # w $ O X.%.%.O.b 1.v 4 4 A 4 S 0 ^ 4 O.#.$.) S ` D 0 b o.O.",
"8 Z 1 4 8  XwX/.q y.i.t.A.t.i.u i.t.s.p.q.i.N { wX;X  . o Z.V.C.B.!.!.O !.B.o n O.b 8 ;.+.6 1 v m m o.' M n $.Y 0 H O.o.| 1 4 4 ",
"5 2 4 v 0 |.{.{.X.&.>.>...>.<. .<.<...4.4.>.&.R..X2XO.o.h v.(.n.f f n.V.Z.C.}   5 2 0 : 3 m O.m M o.v b b v +.+.o.o.O.o.o.v b 4 ",
"v 8 0 v 0 >X-X{.x i.A.p.A.d.d.p s.y.d.d.d.s.x R.@X$X' o.% c.Z.c.g 0.n.B.(.n.O 3 8 b b 5 0 v ' b b n b 0 }.0 b ' o.o.o.' O.v 4 6 ",
"4 v 8 v v ;X#X{.i d.y.A.A.i.d.i f.a.d.A.d.p.B E.*X$Xo.M h C.V.B.v.B.!.c.M.T.9 n ' b n F v v b b 0 b }.}.1.%.0 ' M M ' ' M v 0 8 ",
"v v v v 0 >X%XXXB d.d.A.A.A.k.i f.a.A.a.A.d.w.W.=X*X).5 { Z.C.t h !.V.n.# v n m ' 8 3 Q v v v v b 8 :.;.%.b M L M 0 ).4 4 M 5 8 ",
"v v v v m >X%XXXi d.d.S.d.A.g.p f.k.k.a.A.s.t.[.-X*XA D T.C.(.m.# O O O @ n 5 o.' ' L Y 0 v v ' ' b +.#.n H 3 J U T A D L R 5 0 ",
"v v v n v >X%XoXw.d.f.z.f.G.5.,.6.S.f.f.a.A.u.W.-X*XP Q `.i M.V.~.X o X O 8 o.o.' K ! ].6 8 v n b 0 2 6 2 v M %.O.m L Q '.5 6 0 ",
"v b n b v >X<XoX@.-.-.-.-.5.S.:XA.5.-.-.;.-.@./.1X-X' ! V D X X = [ % t w % ' M R 5 0 L 8 _ ' 4 5 Z 6 4 3 0 ' ' ' ' m ! ; L 1 6 ",
"8 8 6 8 v ,X%XOXi k x x x 4.G.7.G.5.x x x k k W.;X-X' ' ] ] # % e w f (.Q.N.@ 0 '.U W 1 8 ' M M ' ' H G R b ' ' v [ ' ' ] ] v 8 ",
"n n ' b O.,X<XOXp k.H.k.K.k.4.6.4.K.D.H.H.k.a.W.;X3XM M M ] % h % b.f w n.w } $ > I _.0 b M +.' M ' #.G 5 b m b b M M ' M O.v 4 ",
"b v b b ] ,X<XOXf.D.H.S.L.D.D.9.J.S.L.D.H.S.a.W.2X1Xm ' v # M.c.n.g % M.n.n.c.h _.K 4 6 b v ' O.b b 0 W 6 T 0 b b M b ' v M M m ",
"v v v b n ,X3XOXs.l.J.D.L.D.l.w.P.L.G.J.S.S.f.W.4X2XM M ' # b.n.n.h a % n.r.n.x.o K G v v b m v n 3 ' | A J 2.2.m m M M M M M v ",
"3 v v v 8 9X1XOXg.G.L.H.K.P.K.w.L.I.z.L.L.J.k.W.6X2X' m M N M.c.n.# X c r.n.M.m.J Q Q 0 0 v 0 m b 4 ' b A 5 _ X.b 0 ' m n M 5 0 ",
"8 8 8 8 5 9X3XOXg.J.z.H.P.P.F.i I.P.l.I.L.H.f.E.6X2XM o T.c.C.{ O t f e % # ).8.}.2.%.8 8 0 v v 0 ' b n M n P v b b b b ' v 0 5 ",
"4 4 4 | 5 9X3X+X=.*.7.4.&.7.7.*.7.7.*.7.7...,.W.5X4XO > t O O   X w t s O 0 n 1.:.;.m n 0 M M 6 m ' 8 ' m ' '.n b n n v ' n 0 O.",
"] O.8 Z '.9X3XOXz.K.H.L.U.U.L.y Y.U.F.U.H.L.H.W.6X5XO s g h > # r h h C '.2 5 ;.%.O.3 v 0 0 v O.v b ' b v b b F 0 b m M m 4 #.o.",
"' M 0 1 G 9X3XOXg.K.K.P.U.U.Y.y Y.U.K.P.I.L.z.E.6X6XO r f $ O h f % v 1 S G A 0 0 1 4 0 b v v v b v ' v 8 8 5 v ; b b M M 5 m o.",
"m X.v 1 D  XwXOXw.z.e.e.P.K.Y.> h.j.P.e.K.L.w.W.qX5X# s # h f t e o.v 1 D U Y S 2 J K 5 n 5 n v 0 b b b b b n v 3 m b n m m v 8 ",
"v m M ' ` |.%XOX$X$X&X&X*X%X-X=X*X*X=X=X*X*X$XW.+X#Xt h O o t h e M ' ' ` 0 ).P m v m 0 b 4 0 b v b b b 0 b v v M 0 v 0 b ^ U 0 ",
"' o.o.#.m m 4 7X6X7X8XqXqXqXwXwXeXeXeXeXeXeXeX4X# r f f r Y ' e s o.o.#.M m 4 0 m M ' m ' n 0 3.3.0 M 4 A b n M m D V G Y ! ' 0 ",
"o.o.o.%.X.m C 7 M ' o.o.o.' X.+.O.A Y ).; 8 0 3 8 ] o X a d   4 o.o.o.%.o.m C 7 m ' ' o.o.o.o.+.] C Y ).; 8 0 4 0 M Y 6 V m 0 4 ",
"o.o.o.o.o.o.W Q ' n m M o.+.4 4 4 ' n 8 H 8 8 ' ' ' 0 8 7 8 m ' o.o.X.o.o.o.! Q M b M M +.+.4 5 4 o.b 8 H 8 8 M M o.0 0 6 8 m M ",
"' X.M o.o.o.m m ' ' o.o.+.#.#.o.+.%.m 8 n n m 0 b 5 ' ' M 8 m o.' o.M o.o.X.m m o.o.X.o.O.+.#.' +.$.M 8 b b n v m 4 M m m 8 m o."
};
