/* XPM */
static char *lr_cd_11722085374[] = {
/* columns rows colors chars-per-pixel */
"64 32 218 2 ",
"   c #020200",
".  c #0C0101",
"X  c #140100",
"o  c #1C0000",
"O  c #18000C",
"+  c #001106",
"@  c #180015",
"#  c #240000",
"$  c #2C0002",
"%  c #24000E",
"&  c #3C0808",
"*  c #2F1A05",
"=  c #3D1B08",
"-  c #381B18",
";  c #343E0D",
":  c #2C231F",
">  c #382A17",
",  c #371921",
"<  c #2D2522",
"1  c #302725",
"2  c #3A2220",
"3  c #332926",
"4  c #362C29",
"5  c #392E2B",
"6  c #3A3725",
"7  c #3B322D",
"8  c #3E3431",
"9  c #460A06",
"0  c #570C02",
"q  c #45140B",
"w  c #481508",
"e  c #541405",
"r  c #5D1100",
"t  c #441C16",
"y  c #591213",
"u  c #661900",
"i  c #661417",
"p  c #75181D",
"a  c #582713",
"s  c #512E13",
"d  c #682608",
"f  c #792704",
"g  c #672914",
"h  c #6A311A",
"j  c #5A1720",
"k  c #6D1622",
"l  c #651823",
"z  c #731926",
"x  c #503325",
"c  c #413633",
"v  c #4A3735",
"b  c #443936",
"n  c #463C39",
"m  c #493E3B",
"M  c #662624",
"N  c #78222B",
"B  c #7E2333",
"V  c #36410E",
"C  c #3A460E",
"Z  c #3D4C09",
"A  c #3D5703",
"S  c #394511",
"D  c #3D4A12",
"F  c #445E03",
"G  c #475B08",
"H  c #404E14",
"J  c #445215",
"K  c #49561A",
"L  c #4C5D19",
"P  c #4B6405",
"I  c #4A6109",
"U  c #516807",
"Y  c #516509",
"T  c #536C09",
"R  c #5B750D",
"E  c #5C740C",
"W  c #4F6019",
"Q  c #51641C",
"!  c #596C18",
"~  c #5D7413",
"^  c #647C0D",
"/  c #697E14",
"(  c #677C18",
")  c #4B4C2B",
"_  c #4C5424",
"`  c #4F4B34",
"'  c #4C413E",
"]  c #50433F",
"[  c #55493F",
"{  c #555A31",
"}  c #774C32",
"|  c #5C6D25",
" . c #363E44",
".. c #4D3E41",
"X. c #3B4249",
"o. c #4E4341",
"O. c #484845",
"+. c #524643",
"@. c #544945",
"#. c #5A4649",
"$. c #564B49",
"%. c #594D4A",
"&. c #5B524D",
"*. c #444B53",
"=. c #4A5456",
"-. c #5E5651",
";. c #6B524D",
":. c #674E56",
">. c #615953",
",. c #695459",
"<. c #69625D",
"1. c #575D64",
"2. c #755D63",
"3. c #5C6569",
"4. c #5F6670",
"5. c #676B69",
"6. c #736A65",
"7. c #76726B",
"8. c #78736C",
"9. c #626A72",
"0. c #6A6B73",
"q. c #716F7C",
"w. c #697377",
"e. c #6D797C",
"r. c #787878",
"t. c #851E1F",
"y. c #903E0E",
"u. c #801E2D",
"i. c #852326",
"p. c #932428",
"a. c #862536",
"s. c #8A2534",
"d. c #8B2639",
"f. c #8E2A3A",
"g. c #942637",
"h. c #932738",
"j. c #942A3B",
"k. c #9A2B3D",
"l. c #9C313B",
"z. c #A0242C",
"x. c #A52C33",
"c. c #A32C3E",
"v. c #AA2C3F",
"b. c #A4313C",
"n. c #99431D",
"m. c #8B4727",
"M. c #9A4526",
"N. c #8B4437",
"B. c #934833",
"V. c #8B5338",
"C. c #A34B29",
"Z. c #B05F30",
"A. c #B56A29",
"S. c #AB6631",
"D. c #B56433",
"F. c #B86739",
"G. c #BA653C",
"H. c #C2753D",
"J. c #9E2C41",
"K. c #823844",
"L. c #A42E41",
"P. c #AA2E41",
"I. c #B62E42",
"U. c #A43144",
"Y. c #AC3144",
"T. c #AE3549",
"R. c #B23244",
"E. c #B43549",
"W. c #BB364B",
"Q. c #BA394A",
"!. c #C23A4E",
"~. c #C53A50",
"^. c #854C44",
"/. c #B65F43",
"(. c #887056",
"). c #9B795C",
"_. c #AB6A46",
"`. c #B76546",
"'. c #AB6E54",
"]. c #B15363",
"[. c #9A7F64",
"{. c #827D77",
"}. c #C16A42",
"|. c #6B820F",
" X c #728A14",
".X c #758E1A",
"XX c #798F1B",
"oX c #9C825E",
"OX c #9C8467",
"+X c #87837D",
"@X c #9A8D75",
"#X c #9D927C",
"$X c #A38769",
"%X c #A58D73",
"&X c #AA947B",
"*X c #AC987D",
"=X c #A89883",
"-X c #B5A48D",
";X c #BCA58D",
":X c #B8A88F",
">X c #B4A991",
",X c #B7A995",
"<X c #B7AD9A",
"1X c #929DA3",
"2X c #B4AEA0",
"3X c #BBB5A9",
"4X c #C3AC97",
"5X c #C8B19C",
"6X c #C7B7A5",
"7X c #CCBBAA",
"8X c #D1BEAE",
"9X c #C4BDB2",
"0X c #CFC6A7",
"qX c #D4C3B4",
"wX c #D8C6B6",
"eX c #DACABA",
"rX c #E3D9BE",
"tX c #DDD8C5",
/* pixels */
"' o.o.o.+.o.o.m b m +.&.o.@.O.' o.+.8 8 ' m ' m 8 ] b ' m 5 n ' o.o.o.o.+.o.o.m c m +.$.o.$.o.' o.o.8 b b m ' ' c ] b m m 4 m m ",
"o.o.o.+.@.+.m o.o.m b 4 o.4 7 b b 8 7 5 7 8 +.8 '   . 2.m m n o.o.o.' +.@.+.m o.O.' n 3 o.5 7 b b 8 7 4 7 c ] c 7 ' m m m n n +.",
"o.o.o.o.@.@.@.+.^ L 8 XX4 0X6X8XqXqX7 7 8 4 b . w w w w - { ) c o.o.o.+.@.@.$.o.^ W 8 .X3 ' m b 7 b 8 8 c 4 b m ' m ] m 8 ^ ) c ",
"b ' +.@.@.' ] m K L rX<X5X6X6X7X7X7X7X0XtX' O w e e q o M o ..m b ..o.+.@.' o.m J L P E n n m ' b 8 ' b ' ' $.b m ' ' ; _ c ....",
"' +.m @.%.n Q V T 8X(.<XoXOX).OXOXoX).6X$XwXo e 9 = X m.'.X +.+.] +.' +.%.m Q V T +.^ 3 @.b ' ' n m 8 b m -.r.8.4 P P ; |.8 +.o.",
"+.+.+.+.@.) 7  XqX7X).OX9 j l q j M & oXOX@ # e 0 # } m.'.8 m m +.+.+.+.+.) 6  Xb P _ 7 7 b b m ' o.o.o.c >.8. X1 V 3 J ~ 8 ' o.",
"m +.@.' c P W 6X7X$X9 l k B a.y B f.l k O     q X w q -   ..] +.m +.@.o.8 P Q P 7 3 : 7 m 4 +.7 U b m n b P b P D XX4 F 5 ' m o.",
"+.#.$.+.Z c 6X6X$X9 k a.a.].a.y a.a.a.a.o } '.a X $ 9 = o . ' $.+.#.+.o.Z n &.8.7.<.' 6 7 7 b 8  XF 8 T 4 $.$.' Z 7 E b b +.o.$.",
"' ' 4 / 7 7 <X4X).k a.d.d.a.a.y d.u.d.@ N.`.S.Z.m._._.$ S.V.v [ ' m 4 / 7 7 >.&.&.$.b 6.c 4 4 S 3 D 7 ( 4 +.@.$._ D ` F 7 8 o.+.",
"5 A < 4 7 #XwX[.q a.d.s.J.d.d.i d.a.h.@ B.`.H.y.u n.n.G.D.`.$ 4 7 F < 4 7 7 1 $.+.b 7 >.@.4 : c n m o.' m b &.E 8 J @.o.| 1 4 4 ",
"5 3 4 c 8 @XOXOXO.*.1.1.X.3.4. .4.4. .4.0 n.D.}.u M.F.D.`.s c 5 5 1 5 c c 7 c 7 4 3 c : 3 m [ b m o.c b b b $.+.o.o.@.o.' c b 4 ",
"c 5 8 c c 2X,XOXz d.j.j.j.j.k.i j.d.f.J.B.}.D.G.f G.Z.C.M.X 3 5 c 7 7 c b 7 b c 8 b b 4 7 v ' b b b b 8 +X7 b ' ' o.' ' +.c 4 7 ",
"5 c c c b 2X-X$Xi j.d.k.J.d.k.i J.h.j.k.a '.H.M.r F.F.`.M v 7 7 5 c 7 c c 5 m b ' b b G b b b b c c +X+X7.%.8 ' n ' ' ' ' 8 8 7 ",
"7 c c c 8 <X-X$XN k.j.J.J.J.k.i c.g.k.h.$ N.G.A.F.V.# o O m 7 7 7 c c c 7 b b b ' 7 3 Q c c b c b 8 <.<.&.b m I n 8 |.4 4 ' 6 7 ",
"c c c c b 2X;X%Xi k.k.J.j.c.J.p k.c.c.g.L.h.o m._.o > . X ^ 5 8 c c c b b b 7 o.' ' P T 7 c c m ' b +.$.n J 1 K Y R C I U E 5 7 ",
"c c b b b 2X;X%Xa.j.k.b.k.L.w.3.q.L.k.k.g.J.X s # t * X ).V.^.$ v c b b c 7 ' o.' L ~ XX7 5 b b b c 3 4 < c m &.[ b P Q  X4 7 8 ",
"c b b m 7 2X4X&X#.:.,.:.,.0.U.1XJ.0.,.:.,.:.# D.G.`.`.d X X ^.y c c b b 8 n m m E 5 8 P 7 _ ' 4 4 F 4 3 4 8 b ' ] ] m E ; F 1 5 ",
"7 c 7 7 c 3X4X*Xi k z z z 9.U.w.U.0.z z k k % G.n.}.F.`.a +.c 7 7 8 7 7 8 8 4 8 .XU ! < 7 ' ' ' ' ' H J R b ' ' c [ ] ] ] ] v 5 ",
"b b m b [ 3X4X&Xp c.Y.c.I.c.9.q.9.R.Y.Y.Y.c.% B.}.A.A.`._.] c 5 m b ' b +.' ` ' : T  X8 b ' @.' m m @.J 4 b m n b n m m m ' 8 4 ",
"b c b v ' 3X4X&Xk.c.T.c.R.P.P.t.Y.L.E.P.Y.L.g.# h /.C.y.}.% m b b 8 b b ' ' ' b  XW 4 7 b 7 ' +.m n b Y 6 T c b n n m m c m m m ",
"c c 8 c c 3X5X*Xg.v.T.Y.E.P.I.i.E.E.b.T.L.U.k.x o m.M.m.f X m 8 c c 7 b b ' r.O.R J J 8 b b b b b 4 m | D K 7.5.b n m m m m m c ",
"4 c c c c 6X5X*Xl.v.E.Y.Y.W.P.i.E.Q.v.E.T.R.k.  a & M.M.n.. 4 8 4 c c c 8 4 6 Q ~ | Q 7 c c 8 b n 3 n m S 4 { O.b 7 ' m ' m 7 7 ",
"7 7 7 8 7 9X5X*Xl.R.P.P.W.W.I.i Q.Q.v.T.E.Y.K.. X ).} } . 8 8 8 7 7 7 7 7 7 / {.+X7.&.7 7 7 b b 8 m m b m n G v b m b m ' b 7 7 ",
"4 5 5 ! 5 9X5X*X1.=.9.w.=.w.e.=.e.e.=.e.e.X.  q a 0 0 > ..b 8 o.4 7 7 ! 7 8 b 6.<.-.m m 8 b m 4 b ' 7 ' m m XXn b b b c m b 8 +.",
"' +.7 A .X9X5X*Xb.R.Y.E.!.!.R.t ~.~.R.!.R.E.  h e g q o.m 3 $.o.' +.5 A .X< 5 -.&.+.3 8 8 8 c [ c c ' b c b b I 8 b n m n 4 $.o.",
"' m 8 < H 9X5X*Xb.Y.Y.W.!.!.~.t ~.!.I.E.Q.T.+ w h w . m m 4 m o.o.m 8 < S K S 8 8 < 3 8 b 8 c b b b m c 7 7 4 c ; c c m m 4 m o.",
"8 o.8 < F #XwX*Xt.b.p.p.Q.E.~.2 z.x.E.p.E.R.. g g s . n b n c 7 n o.8 < F U T D 3 K W 7 ' 4 b c c b b b b b c c 4 n c m b n c 7 ",
"8 n ..o.` @X:X*X-X:X:X:X>X:X,X>X;X,X,X>X>X=Xt d w x X c b ( Y 8 8 n o.o.` 8 |.I n 8 n 8 b 4 c b c c b b c b v b m c c c b ( P c ",
"O.o.o.$.m n 4 7X7X7X8XqXqXqXwXwXeXwXeXeXeXX e f d o - 7.T E ' c ..o.o.$.n m 4 8 n m ..8 ' n c 7.8.8 m 4 S b m m b F ; J T ~ ' c ",
"o.o.o.%.O.8 Z 6 m ' o.o.o.' o.@.+.C T |.V 8 8 . X > - . , x 8 3 o.o.o.&.O.n Z 6 m o.o.o.o.o.' @.@.Z T |.; 7 8 3 7 m T 7 ; m 7 4 ",
"o.o.o.O.@.o.! Q ' b m m +.$.3 4 4 o.n 5 J 7 8 m m :.2.2.;.5 m m o.o.o.o.o.O.~ Q ' 8 m m +.$.4 5 4 ' b 7 J 7 7 m m ' 8 8 6 7 m m ",
"o.o...o.o.o.n n ' ' o.o.o.$.$.o.@.%.m 7 b b m 8 n 5 ' b m 7 m o.o.o.m o.o.o.n n ..o.o.o.o.$.$.' $.%.m 7 b b b c n 5 m m n 7 n o."
};
