/* XPM */
static char *ll_cd_11722085372[] = {
/* columns rows colors chars-per-pixel */
"64 32 217 2 ",
"   c #020200",
".  c #0C0101",
"X  c #140100",
"o  c #1C0000",
"O  c #18000C",
"+  c #001106",
"@  c #180015",
"#  c #240000",
"$  c #2C0002",
"%  c #24000E",
"&  c #3C0808",
"*  c #2F1A05",
"=  c #3D1B08",
"-  c #381B18",
";  c #333E0D",
":  c #2C231F",
">  c #382A17",
",  c #393318",
"<  c #371921",
"1  c #2D2522",
"2  c #312625",
"3  c #3A2220",
"4  c #332926",
"5  c #362C29",
"6  c #392E2B",
"7  c #393625",
"8  c #3B312D",
"9  c #3E3431",
"0  c #460A06",
"q  c #570C02",
"w  c #45140B",
"e  c #481508",
"r  c #541405",
"t  c #5D1100",
"y  c #441C16",
"u  c #591213",
"i  c #661900",
"p  c #661417",
"a  c #75181D",
"s  c #582713",
"d  c #512E13",
"f  c #682608",
"g  c #792704",
"h  c #672914",
"j  c #6A311A",
"k  c #5A1720",
"l  c #6D1622",
"z  c #651823",
"x  c #731926",
"c  c #50322C",
"v  c #413633",
"b  c #443936",
"n  c #483A37",
"m  c #463C39",
"M  c #493E3B",
"N  c #662624",
"B  c #7E2333",
"V  c #35410E",
"C  c #3C4A0C",
"Z  c #3C5503",
"A  c #394511",
"S  c #3D4A12",
"D  c #435E03",
"F  c #475B08",
"G  c #404E14",
"H  c #445215",
"J  c #49561A",
"K  c #4C5C1A",
"L  c #4B6505",
"P  c #4A6109",
"I  c #516807",
"U  c #516509",
"Y  c #536B09",
"T  c #5B750D",
"R  c #5C740C",
"E  c #4F6019",
"W  c #596B17",
"Q  c #52641C",
"!  c #5D7512",
"~  c #637B0D",
"^  c #697E14",
"/  c #677C18",
"(  c #4A4A2B",
")  c #4C5424",
"_  c #53592F",
"`  c #4F4B35",
"'  c #4C413E",
"]  c #50433F",
"[  c #55493F",
"{  c #774C32",
"}  c #7A4E31",
"|  c #5A6727",
" . c #5F7423",
".. c #707A2C",
"X. c #363E44",
"o. c #4F3F41",
"O. c #3B4249",
"+. c #4E4341",
"@. c #484845",
"#. c #524643",
"$. c #534945",
"%. c #584548",
"&. c #564B49",
"*. c #594E4A",
"=. c #5B524D",
"-. c #444B53",
";. c #4A5456",
":. c #5E5651",
">. c #674E56",
",. c #615953",
"<. c #69545A",
"1. c #765B5F",
"2. c #69625D",
"3. c #575D64",
"4. c #745D66",
"5. c #5C6569",
"6. c #5F6670",
"7. c #676B69",
"8. c #766B68",
"9. c #74726D",
"0. c #79736D",
"q. c #626A72",
"w. c #6A6B73",
"e. c #776B7B",
"r. c #697377",
"t. c #6D797C",
"y. c #787878",
"u. c #851E1F",
"i. c #903E0E",
"p. c #852326",
"a. c #932428",
"s. c #862536",
"d. c #8A2534",
"f. c #8B2639",
"g. c #8E2A3A",
"h. c #942637",
"j. c #932738",
"k. c #942A3B",
"l. c #9A2B3D",
"z. c #9C313B",
"x. c #A52C33",
"c. c #A32C3E",
"v. c #AA2C3F",
"b. c #A4313C",
"n. c #99431D",
"m. c #8B4727",
"M. c #9A4526",
"N. c #8B4437",
"B. c #934833",
"V. c #8B5338",
"C. c #A34B29",
"Z. c #B05F30",
"A. c #B56A29",
"S. c #AB6631",
"D. c #B56433",
"F. c #B86739",
"G. c #BA653C",
"H. c #9E2C41",
"J. c #A42E41",
"K. c #AA2E41",
"L. c #B62E42",
"P. c #A43144",
"I. c #AC3144",
"U. c #AE3549",
"Y. c #B23244",
"T. c #B43549",
"R. c #BB364B",
"E. c #BA394A",
"W. c #C23A4E",
"Q. c #C53A50",
"!. c #854C44",
"~. c #887056",
"^. c #9B795C",
"/. c #AB6A46",
"(. c #B76546",
"). c #AB6E54",
"_. c #B15363",
"`. c #9A7F64",
"'. c #827D77",
"]. c #C16A42",
"[. c #6B820F",
"{. c #728A14",
"}. c #758D17",
"|. c #768E1A",
" X c #798F1B",
".X c #9C825E",
"XX c #9C8467",
"oX c #87837D",
"OX c #9A8D75",
"+X c #9D927C",
"@X c #A38769",
"#X c #A58D73",
"$X c #AA947B",
"%X c #AC987D",
"&X c #B0967D",
"*X c #A89883",
"=X c #B5A48D",
"-X c #BCA58D",
";X c #B8A88F",
":X c #B4A991",
">X c #B7A995",
",X c #B7AD9A",
"<X c #929DA3",
"1X c #B4AEA0",
"2X c #BBB5A9",
"3X c #C3AC97",
"4X c #C8B19C",
"5X c #C7B7A5",
"6X c #CCBBAA",
"7X c #D1BEAE",
"8X c #C4BDB2",
"9X c #CFC6A7",
"0X c #D4C3B4",
"qX c #D8C6B6",
"wX c #DACABA",
"eX c #E3D9BE",
"rX c #DDD8C5",
/* pixels */
"' +.+.+.+.#.+.m b ' #.*.' $.+.' +.+.9 9 m m ' ' v #.b M m 8 m ' ' #.+.+.#.' +.M b m #.*.+.$.@.M +.+.9 b b m ' m b ] ( n M 8 m o.",
"+.+.+.#.&.#.m +.+.M b 5 @.5 8 b 9 9 9 8 8 b #.8 7 m m n m m m +.+.+.+.] 4.. . $.@.' b 4 +.8 8 b b 9 8 5 8 b #.v 8 ' b b n m n +.",
"+.+.+.#.$.#.&.+.~ K 9 |.4 ' m b 9 b 9 9 b 6 b ' ' ' ] M 9 ! ( b +.+.&.- e e e e . K 9 |.4 +.0X0X6X6X9X9 b 4 b m m n ] ' b ! ( 9 ",
"b M #.$.$.' #.M J K L T b ' ' ' b 9 m n ' b &.b m ' #., J b o.+.b o.X N o e r e e O L rX6X6X6X6X6X5X5X4X3XeX*.b ] ' ] 7 J 9 +.+.",
"' #.M $.%.n Q A Y +.~ 4 #.n ' ' n o.9 b b :.y.0.6 L L V [.b #.M M #.o ).m.X = 0 r o qXXX5X^..XXXXX^.XX`.,X~.7X0.5 L U ; / b #.' ",
"#.#.$.$.$.( 7 {.m P ) 8 8 b ' n M +.+.' 9 2.0.{.1 V 4 H ! 9 ' ' #.#.#.).m.{ # q r # @ XX.X& N k & z k 0 @X^.7X9X2 ; 4 H ! 9 ' ' ",
"M #.$.M v L E L 8 5 1 8 m 5 ] 7 U b ' ' b L 9 U S }.5 D 5 M #.+.M %.$.. - e e X w   . O z z g.B u s.B l z 0 @X6X6X|.5 D 6 ' ' +.",
"$.%.&.#.C b =.0.9.2.' 7 8 8 v v {.D 7 Y 4 &.*.' G 7 R b b #.+.%.#.$.. X = 0 $ X s ).} o s.s.s.s.u g._.f.s.z 0 @X5X5XR b b #.+.&.",
"' ' 5 ^ 8 8 ,.=.=.$.b 8.b 4 4 A 5 S 6 / 5 $.&.*.) S ` D 8 v ' [ M n V.S.$ /./.m.Z.S.(.N.@ f.x f.u f.s.s.f.s.l `.3X,X` Z 9 9 +.$.",
"6 D : 4 6 8 4 &.#.b 8 ,.#.5 1 b m n +.' M n =.Y 9 J #.+. .2 5 5 9 $ (.Z.(.n.C.i i.F.G.B.@ g.f.k.p f.f.H.d.f.s.w XXqXOX+. .1 5 5 ",
"6 2 6 v b 8 9 8 6 2 v : 5 b #.b ' ] v n b b $.#.+.+.#.+.+.v b 5 6 2 d (.A.G.M.f ].D.n.t 6.O.6.q.X.6.5.O.3.3.-.@.`.XXOX+.+.b n 5 ",
"v 8 9 v b 6 n b 8 m b 6 8 b ' b b b b b oX8 b o.' ' +.' #.v 4 8 v 6 o C.C.Z.F.g F.D.].N.l.j.d.g.p k.k.k.k.j.s.x XX;X,X+.+.9 5 8 ",
"5 v v v b 6 n b M m n F b b b b 9 b oX'.8.=.9 #.M +.+.M m v v 8 5 v 9 N (.G.F.t M.G.).s c.l.h.l.p l.j.k.l.g.l.p XX=X:X' ' 9 8 8 ",
"8 v v v 8 b b b M 8 4 Q v b v b b 7 7.,.:.b m D m 9 [.6 4 ` 6 8 8 v 9 % o # V.F.D.F.N.$ j.H.l.l.a l.H.H.H.j.k.B #X=X1X5 5 ' 8 8 ",
"v v v v b m 8 ' ' ' I Y 8 b b b ' b [ &.b H 2 J U T A Z I R 6 8 n 9 b X . > o /.m.o k.z.h.c.l.l.a H.J.k.P.h.h.p #X-X1XL I R 5 8 ",
"v v b n 9 8 +.+.' K R  X6 6 b b b b 4 4 2 9 ' *.[ m L Q {.6 6 v $ N.V.^.X * y o s X c.h.l.l.P.e.5.w.K.l.l.l.l.s.$X-X1XQ {.6 8 v ",
"v b b b v b ' ' T 5 8 L 8 _ ' 4 6 Z 6 5 5 9 b ' ' ] n ! ; P 2 8 u !.X X f (.(.F.D.# >.<.>.<.w.H.<XP.w.<.>.<.>.%.*X3X1X! ; D 2 6 ",
"8 8 6 v v 8 4 9 }.I W 1 9 ' ' ' ' ' H H T b M ' b [ ' ] ] ' v 8 8 9 6 j /.F.F.C.G.% l l x x w.P.q.P.6.l l x l p $X-X2X] #.] v 9 ",
"n b ' b ] ' ' ] 4 I {.9 9 ' #.' ' ' #.S 7 b n b b ' ' m n ' v 6 m m m /.F.A.A.(.B.% l.I.I.I.Y.q.t.q.b.Y.v.I.c.a &X3X2XM n #.v 5 ",
"b v b b ' ' ' b {.E 5 8 ' 7 ' #.b b b Y 7 Y b b b n n ' v ' ' b 9 9 # (.n.C.G.h # h.J.I.I.U.K.I.u.b.v.T.K.I.K.l.&X3X2Xn v M M n ",
"9 b 9 b b b y.` ! J S 9 b b n b b 4 ' | A J 9.7.b m ' M m ' m 9 9 b . g m.C.z.o c l.v.v.U.v.T.T.a.K.I.T.I.I.b.j.&X3X8Xm M M m b ",
"6 9 9 9 v 6 7 Q Y | Q 9 9 9 9 n b 5 M m A 6 _ @.b 9 ' m ' m 8 9 8 9   n.M.M.$ d   l.T.I.T.v.T.T.p.K.T.Y.I.T.P.z.%X3X2Xm m M 6 9 ",
"8 8 9 9 8 8 [.y.*X7.*.9 8 9 b v b n m n ' b E b b b b b ' b 9 8 8 8 9 . } { ^.O . { U.T.T.L.R.R.p L.R.R.I.b.I.P.*X4X8Xb M b v 6 ",
"4 8 6 W 8 9 b 9.2.:.m n 9 b n 6 b ' 8 ] n ' {.b b b b v ' b 9 +.5 5 5 | - q q s w   O.t.t.;.t.t.;.t.r.-.r.q.;.:.&X4X8Xv ' b 9 #.",
"' #.8 Z |.2 6 :.=.#.5 b 9 b v #.b b ' b v n n D v b b m m 5 *.+.M $.8 Z ..y h t j + T.I.W.L.Q.Q.y Y.W.W.E.v.Y.b.*X4X8Xm n 5 *.+.",
"' M 9 1 S H C b v : 2 8 b 9 v v b b ' 8 6 6 5 b ; b b M ' 4 n +.o.M 9 1 S . e j w + T.T.R.Y.Q.Q.y W.W.W.R.I.I.b.&X4X9Xn ' 4 n +.",
"m @.9 1 P I Y H 4 H E 4 n 6 b b v b v b b b b b 4 n b b b b b 8 n +.9 1 D . d j f . Y.U.a.T.x.a.3 Q.T.W.a.a.b.p.&XqX+Xn b b 9 9 ",
"9 9 +.+.` 8 ~ F b b m b b 5 9 n v b b b v b b b M 9 b b b / U v 9 o.+.m ` X c e f y *X:X:X:X>X-X>X>X;X:X;X;X=X=X%X3XOXv b / U 9 ",
"+.+.+.$.o.9 5 v m ' M n +.b 9 9.0.v m 5 A b b m n D ; H Y ! ' v o.+.+.$.e.- X f g r X wXwXwXqXwXqXqXqX0X0X6X6X6X6XD V H Y ! ' 9 ",
"+.+.+.*.#.X.Z 7 m ' ' +.+.+.+.$.[ C Y [.; 8 v 5 6 M Y 8 V m 8 5 o.+.c < X - - X . +.+.+.+.+.+.$.$.A Y [.V 8 v 5 8 m I 8 V M 9 5 ",
"+.+.+.@.+.+.W Q ' b m M #.$.4 6 4 ' n 8 H 8 8 m M +.9 v 7 8 m ' @.o.o.1.8.8...Q M n m o.$.$.5 6 6 ' b 8 H 8 8 ' ' ' 8 9 7 8 m ' ",
"+.+.o.+.+.+.m m ' +.@.+.#.&.&.+.$.*.M 8 b b m b n 6 m m m 8 m +.@.+.o.#.o.+.b n M +.@.+.#.&.&.' $.*.m 8 b b b 9 m 5 ' m m 8 m +."
};
