/* XPM */
static char *ll_cd_21722085373[] = {
/* columns rows colors chars-per-pixel */
"64 32 220 2 ",
"   c #050101",
".  c #060504",
"X  c #0D0001",
"o  c #140000",
"O  c #1C0001",
"+  c #1F0612",
"@  c #230001",
"#  c #220406",
"$  c #2B0000",
"%  c #3B0B05",
"&  c #371303",
"*  c #2E1415",
"=  c #3C1916",
"-  c #333E0D",
";  c #2C231F",
":  c #372618",
">  c #363B18",
",  c #2E1121",
"<  c #2D2422",
"1  c #302725",
"2  c #3B2723",
"3  c #332926",
"4  c #362C29",
"5  c #392E2B",
"6  c #3A3725",
"7  c #3B322D",
"8  c #3D2D30",
"9  c #3E3431",
"0  c #470C06",
"q  c #540B00",
"w  c #4C1302",
"e  c #491608",
"r  c #551604",
"t  c #441C19",
"y  c #5B1515",
"u  c #661417",
"i  c #75181D",
"p  c #4E2A14",
"a  c #5A2A17",
"s  c #44321A",
"d  c #6B2606",
"f  c #79280E",
"g  c #672816",
"h  c #4F1923",
"j  c #6D1622",
"k  c #621823",
"l  c #6B1A25",
"z  c #731926",
"x  c #512D2C",
"c  c #413633",
"v  c #443936",
"b  c #493A37",
"n  c #463C39",
"m  c #493E3B",
"M  c #652A26",
"N  c #7E2333",
"B  c #35410E",
"V  c #3A460E",
"C  c #3D4C0A",
"Z  c #3D5703",
"A  c #394511",
"S  c #3D4A12",
"D  c #435D03",
"F  c #475B08",
"G  c #445215",
"H  c #4A5618",
"J  c #4C5D19",
"K  c #4B6405",
"L  c #4A6109",
"P  c #516807",
"I  c #516509",
"U  c #536B09",
"Y  c #5B730C",
"T  c #5B750D",
"R  c #4F6019",
"E  c #596B17",
"W  c #51641C",
"Q  c #5D7413",
"!  c #647C0D",
"~  c #687D16",
"^  c #4A4C29",
"/  c #51582B",
"(  c #4F4B35",
")  c #4C413E",
"_  c #50433F",
"`  c #59473D",
"'  c #754831",
"]  c #7D4C38",
"[  c #785533",
"{  c #5C6D25",
"}  c #363E44",
"|  c #3B4249",
" . c #474744",
".. c #4E4341",
"X. c #524643",
"o. c #544945",
"O. c #5A4549",
"+. c #564B49",
"@. c #594D4A",
"#. c #5B524D",
"$. c #4B4952",
"%. c #4A5456",
"&. c #5E5651",
"*. c #674E56",
"=. c #605953",
"-. c #69545A",
";. c #69625D",
":. c #565C63",
">. c #5D676A",
",. c #5F6670",
"<. c #64686A",
"1. c #736C66",
"2. c #74726D",
"3. c #79736D",
"4. c #626A72",
"5. c #6A6B73",
"6. c #716F7C",
"7. c #697377",
"8. c #6D797C",
"9. c #787878",
"0. c #851E1F",
"q. c #801E2D",
"w. c #862327",
"e. c #932428",
"r. c #953F22",
"t. c #852435",
"y. c #8B2535",
"u. c #8D2936",
"i. c #8B2639",
"p. c #8E2A3A",
"a. c #942637",
"s. c #932738",
"d. c #942A3B",
"f. c #9A2C3D",
"g. c #9C313B",
"h. c #A0242C",
"j. c #A52C33",
"k. c #A32C3E",
"l. c #AA2C3F",
"z. c #A4313C",
"x. c #8E441F",
"c. c #99451C",
"v. c #A9421F",
"b. c #88462B",
"n. c #954524",
"m. c #994828",
"M. c #854C34",
"N. c #994A36",
"B. c #8C5335",
"V. c #AA542E",
"C. c #B45F38",
"Z. c #B16A34",
"A. c #B96739",
"S. c #C05F3E",
"D. c #C26436",
"F. c #9E2C41",
"G. c #A42E41",
"H. c #AA2E41",
"J. c #B62E42",
"K. c #A43144",
"L. c #AC3144",
"P. c #AE3549",
"I. c #B23244",
"U. c #B43549",
"Y. c #BB364B",
"T. c #BA394A",
"R. c #C23A4E",
"E. c #C53A50",
"W. c #885149",
"Q. c #8D6D4F",
"!. c #997B57",
"~. c #9B7C5B",
"^. c #AA6548",
"/. c #B76847",
"(. c #A27453",
"). c #B15363",
"_. c #9A7F64",
"`. c #C26843",
"'. c #6B820F",
"]. c #728A14",
"[. c #768E1A",
"{. c #798F1B",
"}. c #9C825E",
"|. c #9D8466",
" X c #87837D",
".X c #9A8D75",
"XX c #9D927C",
"oX c #A38868",
"OX c #A58D73",
"+X c #AA947B",
"@X c #AC987D",
"#X c #B1987A",
"$X c #AC9C84",
"%X c #B39B8A",
"&X c #B4A48D",
"*X c #BCA58D",
"=X c #B8A88F",
"-X c #B6A691",
";X c #B4A991",
":X c #BBAA95",
">X c #B7AD9A",
",X c #929DA3",
"<X c #B4AEA0",
"1X c #BBB5A9",
"2X c #C3AB95",
"3X c #C4AE9A",
"4X c #C2B19C",
"5X c #C9B29C",
"6X c #C5B5A2",
"7X c #C6B7A6",
"8X c #CBB9A5",
"9X c #CCBCAA",
"0X c #D1BEAE",
"qX c #C4BDB2",
"wX c #CFC6A7",
"eX c #D4C3B4",
"rX c #D8C6B6",
"tX c #DAC9BA",
"yX c #E3D9BE",
"uX c #DDD8C5",
/* pixels */
") ......X.X...m v m X.#. .o...) X.X.9 v v m ) v v _ v ) m 5 m ..) ......X.X...m v m ..+...o...m ....9 9 v m ) m c _ v m m 7 n ..",
"......X.o.X.n ....m v 4 ) 4 7 n c 9 9 4 9 9 X.9 7 ) v v n m v ..........X.X.m .... .n 4 ..4 9 v v 9 9 7 7 9 X.c 7 ) m n m v v ..",
"........o.o.+...! R 9 [.4 ) m v 9 c 9 9 c 4 v ) ) n ` m * : 4 9 ......X.o.X.+...! R 9 {.4  .eXeX0X8XwX9 v 5 v m ) b _ m c Q ^ v ",
"v ) X.o.o.) ..m G J L T v v ) ) v c v b ) n +.v ) ) h = & w r , v ..X.X.X.) ..m G J L uX9X9X9X9X9X9X7X>X4XyX+.v m ) _ > H 9 ....",
") X._ X.@.v W V U ..! 4 X.b ) ) v m 9 v ) =.9.3.3 . ` g @ w r e = o.) X.@.b W A Y ..rX|.6X!.}.}._.~._._.>XQ.0X3.5 L K - ~ c X.) ",
"X.X.X.X.o.^ 7 ].m D / 7 7 v v m ........c =.3.].< . (.^.M = 0 r w # X.o.o.^ 7 ].v eXeX|.|.0 M h 0 k k 0 _._.9X0X1 - 4 G Q c ) ) ",
"m X.o.) c L W K 7 3 ; 7 v 4 o.7 P v m m c P v K S {.O M.B.$ r w w X   n 9 K R K wX9X|.% j k p.N y t.N j k 0 oX9X8X{.4 D 5 m ) X.",
"X.O.+.X.C c #.3.2.;.) 6 7 7 c c ].D 7 U 4 o.+.m G 4 J X = = & e @ X   ) V n #.4X8XoXy l t.t.t.t.y i.).t.t.l 0 oX6X6XT v v X...+.",
") ) 4 ~ 7 7 &.&.#.o.v 1.c 4 4 V 4 S 5 ~ 4 O.+.@.^ - O $ 0 # @ p M.(.M.o 4 6 &.6X5X~.j i.i.i.N i.y t.t.t.i.i.k ~.3X4X( Z 9 9  .o.",
"7 D ; 4 7 7 1 +.X.v 7 =.o.4 < 9 n n ..) ) v #.U 1 o ^./.@ /.C.A.Z.Z./.o .   >XrX[ M i.q.s.i.t.a.u d.i.F.y.i.y.e |.eX.X..{ 1 4 4 ",
"4 1 5 c c 9 c 7 5 3 c ; 3 m X.n ) ( c v 9 9 +.o.  ' A.D.C.c.d d m.S.v.g 9 9 4XoXQ.$.:.4.,.| ,.,.} ,.>.| :.:.$.| _.|..X..) c v 7 ",
"c 7 7 c v 5 v v 7 v v 5 c c ) v v v v c  X7 n ..9 @ m.S.A.n.c.0.c.`.c.$ v 5 &X%XQ.z s.i.d.d.y.a.u d.d.d.d.d.y.z |.-X>X..X.c 3 7 ",
"4 c c c c 5 b v m v b F c c v v c c  X X1.#.c X.n c W.z.n././.m.A.V.A.g c 5 &X-X!.z u.f.d.d.a.f.u d.s.F.f.i.f.u |.&X>X) ) c 7 7 ",
"7 c c c 7 v v v b c 3 W c c v v v 7 ;.;.&.v b F n c '.@ n.Z./.d r D.D.] 7 v -X-X~.y.f.f.d.F.d.k.i f.F.F.f.d.f.N OX&X<X4 4 m 7 7 ",
"c c c c v n 7 ) ) ) P U 7 c c ) ) c o.o.v G 1 H I Y V + O O O @ b.D.`.W.v m -X:X~.y.a.k.a.k.F.f.i F.F.i.F.d.f.u OX*X<XL P Y 7 7 ",
"c c c b 9 7 ......J Y {.7 7 c c v v 3 4 1 7 m @.o.n L o o o X (.Z.B.g b c 7 :X:X}.u.f.a.f.f.G.6.>.5.H.k.z.f.d.t.OX*X>XW ].7 7 7 ",
"c v v v c n ) n U 7 7 K 7 / ) 4 4 D 5 4 4 c v ) ..X.$ q q @ ` * X o v v 9 n 3X:X~.O.*.-.*.-.7.F.,XK.5.-.*.-.*.O.+X2X<XQ - D 1 5 ",
"7 7 6 9 c 7 4 9 [.P E < 7 ..) ) m m S G T v m m c # W././.d q e @ @ 7 7 9 7 3X:X~.j j j z z 4.K.4.K.>.j j z j u +X2X1X..X.X.c 5 ",
"b b ) v X.) ) _ 3 P ].c v ) X.) m ) o.G 7 v b v # M.q m.q d n.$ g $ ) v o.) 4X4X~.s.G.G.H.P.I.<.8.4.l.I.l.K.k.i +X2X1Xm m ..c 5 ",
"v c v v ) ) ) c ].J 4 5 v 9 ) X.b v v U 6 U v v g m.c.N.N.$ f m.n.N.@ v ) ) 4X>X~.f.G.L.H.U.H.P.0.K.l.U.H.L.l.f.@X2X7Xm c m m b ",
"c c 9 v c b 9.( ! G G c c v m v v 4 m { A H 2.o x.m.c.m.@ p g m.m.b.# b v n 4X6X~.a.H.H.P.l.P.U.w.l.H.U.L.L.K.a.@X3XqXm m m m c ",
"5 c 9 9 c 7 6 W U { W 9 c c 9 v v 4 m m A 5 / 9 M.B.c.r.x X O m.c.m.M c 9 5 4X7X~.k.I.P.U.l.T.U.w.J.U.J.L.U.K.g.@X3X1Xm m m 5 9 ",
"7 7 7 7 9 5 '.9. X2.@.c 5 9 c c c v m c m v R v v v @ $ w d w O [ A.c.W.X v 4X7X~.f.I.U.T.J.Y.Y.u I.T.Y.L.z.L.K.@X5XqXv m v 9 5 ",
"4 7 4 { 5 9 v 2.1.&.n v 9 v m 5 v ) 9 ) m ) ].n v v v @ a r q X X o O q p o 7X7X~.,.} 8.8.%.8.8.%.7.7.%.7.4.%.&.#X5XqXc m v 9 X.",
") ..7 Z [.3 7 =.#.X.4 c c c c X.v c ) v c b v L 9 v v m b g g y @ : a f M @ 7X8X~.H.U.L.Y.J.R.R.t U.R.R.T.l.I.z.$X5XqXb b 4 @...",
") ) 9 < S G V c c ; 3 7 c c c c v v b c 7 7 4 c B v v m m 8 $ d d O @ d & @ 6X9X!.l.U.T.U.T.R.E.t R.R.R.T.L.L.z.+X5XqXb m 4 n ..",
"v ..9 < D K P G 3 G R 4 b 5 v v c v v v v v v c 4 n c v v v c w r d g @ a @ 7XeX~.w.I.U.e.U.j.h.2 E.I.R.e.e.z.w.@XrXXXb v n c 8 ",
"9 v  .) ( 7 '.L v c n v v 4 c v c v v v c v c c m 9 v c c ~ I 0 g r O O g r %X#X~.;X;X-X=X-X-X-X-X:X=X=X=X=X&X&X+X2X.Xc v ~ K c ",
"......+.n n 5 9 n ) n v ..v 9 3.3.c m 5 V v b m v F B G U T ..a e ) ) 0 d d p @ 1XrXrXrXtXtXrXtXrXrXeXeXeX0X9X9X9XD - G U Q ) c ",
"......#.$.n C 6 n )  .........X.X.V U '.- 5 9 4 7 m U 7 B m 9 3 (   s a X X G > n ............o.X.V U '.B 7 9 4 7 m P 7 A v 9 4 ",
"............E W ) v m m X.X.4 5 4 ) v 7 G 7 7 m ) ..7 7 6 7 m m ............Q W n v m ..o.o.4 5 4 ..v 5 G 7 7 ) m ..9 9 6 7 n m ",
" ...n ......v v ) ......X.+.+...o.#.n 7 v v m c v 4 ) m v 7 m .. ...........v v ..........+.+.) +.@.m 7 v v v 9 n 4 m m v 7 m .."
};
