/* XPM */
static char *ll_cd_41722087951[] = {
/* columns rows colors chars-per-pixel */
"64 32 223 2 ",
"   c #0E0000",
".  c #140000",
"X  c #1C0000",
"o  c #1C0008",
"O  c #230000",
"+  c #2C0102",
"@  c #24020E",
"#  c #2C020B",
"$  c #2C090E",
"%  c #340001",
"&  c #380000",
"*  c #33020B",
"=  c #3A0C08",
"-  c #270314",
";  c #350212",
":  c #310318",
">  c #39191A",
",  c #343E0D",
"<  c #2C231F",
"1  c #312D1E",
"2  c #393C1A",
"3  c #3C1825",
"4  c #2D2522",
"5  c #302725",
"6  c #332A26",
"7  c #362C29",
"8  c #392E2B",
"9  c #3A3726",
"0  c #3B322D",
"q  c #3E3431",
"w  c #470C07",
"e  c #4D1305",
"r  c #45140A",
"t  c #4A120D",
"y  c #521203",
"u  c #5F1000",
"i  c #451716",
"p  c #5B1515",
"a  c #661417",
"s  c #6F1513",
"d  c #5E231B",
"f  c #5C291C",
"g  c #752404",
"h  c #652715",
"j  c #6C2615",
"k  c #622A1D",
"l  c #5A1720",
"z  c #6D1622",
"x  c #621823",
"c  c #6B1A25",
"v  c #731926",
"b  c #592926",
"n  c #473F2D",
"m  c #413633",
"M  c #443936",
"N  c #463C39",
"B  c #483938",
"V  c #4A3E3B",
"C  c #64212A",
"Z  c #78212B",
"A  c #7E2333",
"S  c #35410E",
"D  c #3A460E",
"F  c #3D4C09",
"G  c #3D5703",
"H  c #3C4912",
"J  c #435E02",
"K  c #4B5D0C",
"L  c #404E14",
"P  c #445316",
"I  c #485917",
"U  c #4B5C19",
"Y  c #476104",
"T  c #4B6405",
"R  c #506506",
"E  c #516806",
"W  c #536B09",
"Q  c #5C740D",
"!  c #5F790F",
"~  c #4F6019",
"^  c #52641C",
"/  c #5A6E18",
"(  c #5D7711",
")  c #637B0D",
"_  c #667B16",
"`  c #697E14",
"'  c #4B4C2B",
"]  c #4C5424",
"[  c #4F4B35",
"{  c #4C413E",
"}  c #51433F",
"|  c #5C423D",
" . c #535933",
".. c #7E4C3D",
"X. c #755934",
"o. c #596324",
"O. c #5F7423",
"+. c #363E44",
"@. c #4F3F40",
"#. c #3B4249",
"$. c #4E4341",
"%. c #484845",
"&. c #524643",
"*. c #544945",
"=. c #584449",
"-. c #564B49",
";. c #584D4A",
":. c #5B524D",
">. c #4B4952",
",. c #4A5456",
"<. c #5F5751",
"1. c #704D4D",
"2. c #644D54",
"3. c #694F58",
"4. c #605953",
"5. c #69545A",
"6. c #6A635E",
"7. c #565C63",
"8. c #5D676A",
"9. c #5F6670",
"0. c #736C66",
"q. c #74726D",
"w. c #79736D",
"e. c #626A72",
"r. c #6A6B73",
"t. c #716F7C",
"y. c #6B767A",
"u. c #787878",
"i. c #851E1F",
"p. c #801E2D",
"a. c #862327",
"s. c #932428",
"d. c #852435",
"f. c #8B2535",
"g. c #8D2936",
"h. c #8B2639",
"j. c #8E2A3A",
"k. c #942637",
"l. c #932738",
"z. c #942A3B",
"x. c #9A2C3D",
"c. c #9C313B",
"v. c #A0242C",
"b. c #A32C3E",
"n. c #A92C3C",
"m. c #A4313C",
"M. c #95451D",
"N. c #99441E",
"B. c #8C472C",
"V. c #964624",
"C. c #954529",
"Z. c #854933",
"A. c #874937",
"S. c #8A493C",
"D. c #924A37",
"F. c #B96737",
"G. c #B4653B",
"H. c #B7673C",
"J. c #BA683B",
"K. c #9E2C41",
"L. c #A42E41",
"P. c #AA2E41",
"I. c #A43144",
"U. c #AC3144",
"Y. c #AE3549",
"T. c #B23244",
"R. c #B43549",
"E. c #BB364B",
"W. c #BA394A",
"Q. c #C23A4E",
"!. c #C53A50",
"~. c #834E40",
"^. c #8E6D50",
"/. c #997B57",
"(. c #9B7C5B",
"). c #AD6749",
"_. c #BB6640",
"`. c #B56847",
"'. c #A86A57",
"]. c #8D5869",
"[. c #885577",
"{. c #B15363",
"}. c #917E6A",
"|. c #A36860",
" X c #6C830F",
".X c #718A14",
"XX c #768D1A",
"oX c #798F1B",
"OX c #9C825E",
"+X c #A0825E",
"@X c #9D8466",
"#X c #9A8D75",
"$X c #938B7D",
"%X c #A38868",
"&X c #AB9276",
"*X c #AA947B",
"=X c #AC987D",
"-X c #AC9C84",
";X c #B4A48D",
":X c #BCA58D",
">X c #B8A88F",
",X c #B6A691",
"<X c #B4A991",
"1X c #BBAA95",
"2X c #B9AA97",
"3X c #B7AD9A",
"4X c #929DA3",
"5X c #B4AEA0",
"6X c #BBB5A9",
"7X c #C3AB95",
"8X c #C4AE9A",
"9X c #C2B19C",
"0X c #C9B29C",
"qX c #C5B5A2",
"wX c #C8B8A6",
"eX c #CCBCAA",
"rX c #D1BEAE",
"tX c #C4BDB2",
"yX c #CFC6A7",
"uX c #D4C3B4",
"iX c #D8C6B6",
"pX c #DAC9BA",
"aX c #DDD8C5",
/* pixels */
"{ $.$.$.$.$.$.V M { %.:.$.*.$.{ &.&.q m N V { N M { M { V 8 N $.$.$.$.$.$.$.$.V m V $.;.$.*.$.$.$.$.q q N N { N M { n V B 0 N $.",
"$.$.$.&.*.*.{ { $.V M 7 $.7 0 M M m 0 8 0 m } M 0 { N M N M N @.$.$.$.$.-.&.V $.%.{ N 8 %.7 0 M M q 0 0 0 q &.M 0 { N B V B B $.",
"$.$.$.$.*.*.-.$.) ~ q XX6 $.&.# @ V 0 0 m 7 M N N { } V q _ ' m @.$.$.$.*.*.-.$.) ~ q XX6 $.uXuXrXwXyXq N 8 M V V { } V q ) ' q ",
"M { &.*.*.{ { V P U Y Q - 3 r e y t # B { N ;.M { { } 2 I M @.&.M $.$.&.*.$.$.V P U T aXeXeXeXeXeXeXwX3X1XaX;.M { N } 2 U q $.$.",
"{ &.V &.;.B ~ S W &.) B X 1.O r t e t * { 4.u.w.7 T T , ` M *.V { &.V &.-.M ^ S W *.iX@XwX(.@X@X(.%X}.(.1X^.rXw.8 T T , _ M &.@.",
"&.&.&.*.*.' n .XV J ] B O |.Z.O i y r X q 4.w..X5 , 6 L Q m V V &.&.&.*.*.' 9 .XB uXuX@X+X= b l w x x w %X(.rXeX4 , 6 P ( q V $.",
"V *.=.{ m T U T 8 7 < 0 $.% '.b + t r i o T M E L oX6 J 8 V V &.V *.*.$.q T ^ R yXeX%X= z x K.v p d.A z x w %XeXeXoX6 J 8 { { $.",
"&.*.*.&.F M :.w.q.6.&.9 =.5.O . > O O > . @ 2.{ L 2 Q M B &.&.-.*.*.-.$.F M :.9XwX%Xp c d.d.d.d.p d.{.d.d.c w %XqXqXQ M M &.$.-.",
"{ { 7 ` 0 0 <.<.;.*.M 0.i C Z.X 1.X O O ....k ; ] H [ J 0 m } } V V 8 ` 0 q 4.qX0X(.c h.h.h.v h.p h.h.h.h.d.c (.8X3X[ J q q $.&.",
"0 J < 7 0 0 5 -.&.B q * '.`.B.'.% O + y _.G.`.S.@.I &.$.O.5 7 7 0 J 5 6 8 8 2XiXX.c h.p.j.j.h.l.a h.z.h.f.h.d.t (.iX$X$.O.4 7 6 ",
"7 5 8 m q q q 0 8 4 m * B._.g N.N.J.N.V.u V.N.g & $.&.$.} m M 7 7 5 8 m m m qX%X^.>.7.e.9.+.e.e.+.7.9.#.7.7.>.#.@X@X#X$.$.m B 7 ",
"m 0 0 m M 0 M M q B M @ % B.F.N.F.F.J.N.C.`.M._.D.; &.{ &.m 7 7 m 8 m m M q -X-X^.v l.l.K.l.f.l.a K.z.z.z.z.f.v #X,X3X@.&.M 6 0 ",
"7 m 0 m q 8 B M V B M O d % V.g V.N.J._.C.C.`.J.`.j % V { m 0 0 7 m m m m 8 ;X,X/.v g.z.x.z.k.x.a K.j.z.K.h.z.a %X;X3X{ V m q 0 ",
"0 m m m q M N M N q 6 * h S.% h Z.B.j C.k ].].h G.`.1.q 6 { 9 0 m m m m 8 n >X<X/.d.x.x.l.K.l.b.s K.K.L.L.k.z.A %X;X5X7 7 V 0 0 ",
"m m m M B B 8 -.=.2.@ O '.A.O X O O O X . [.[.S.`.j & J T Q 8 0 m m m M B B >X1XOXf.l.b.k.b.K.x.s K.K.l.L.l.x.a &X,X5XY T Q 7 0 ",
"m m M N q : # |.'.X > 3 + $ o . } . X .   [.[.O D.& o.^ XX7 0 m m m m M m 8 1X1X(.g.x.k.x.x.L.t.8.r.P.x.x.x.x.A &X:X5X/ .X7 0 m ",
"m n M N m =.* f % m q T q % '.O O ).F.F.).% 1.| =.} V ! , J 5 8 m q M B q { 1X8X(.=.3.5.2.5.r.K.4XI.r.5.3.5.3.=.*X7X6XQ , J 5 8 ",
"0 0 0 0 m 0 8 M XXE / 4 & ~.).A.% H.G._.V.`.Z.+ M } } { V } m 0 q q 8 q q 9 9X3X(.z z z v v r.I.y.L.9.z z v z a *X7X6X{ V &.M 8 ",
"B B N M &.V } { 1 E .Xm ~.).H.Z.% J.H.u _.).j { V V N { V } m 8 M N ' m } { 8X1X(.x.L.I.U.Y.T.e.u.e.L.T.b.P.n.v *X7X6XV V } m 8 ",
"M m N N } { V M .XU 7 + g `.M.A.% J.F.N.g + N M n N N N M V V B M q { M { { 8X6X(.k.L.P.P.Y.P.T.i.I.b.R.P.U.n.c.*X7XtXB m V V B ",
"M q q q M B u.[ ! I P A.V.V.C.~.% `.V.N.B.+ q.r.N N N V V V N q m M q M N { 1X0X(.k.U.b.Y.I.R.R.a.P.U.R.U.U.n.z.=X0XtXV V V V m ",
"7 M q q m 8 9 ^ W o.o.1.C.`.h V V B.V.N.A.8  .%.N 0 { V V V 0 q 7 m q q q 0 9XwX(.b.T.T.R.n.W.R.a.U.R.T.U.R.n.c.=X8X6XV V V 0 0 ",
"0 0 q 0 q q  Xu.$Xq.;.% `.C.S.B m * Z.C.B.f + V M M M N { M q 0 0 q 0 0 0 7 qXwX/.c.R.R.W.T.E.E.a n.Q.E.U.m.Y.c.*X0X6XN V m m 8 ",
"6 0 6 O.0 q q 0.6.<.{ # + % + - M { % ).B.|.+ @ M M N q { M q $.6 8 8 / 0 0 wXwX(.8.#.y.y.,.y.y.,.y.y.>.r.e.,.7.=X0XtXm { M m &.",
"{ $.q G XX5 0 4.:.&.6 : f y h $ M M { + % y h r q B M V N 6 ;.$.$.&.0 G XX6 wXwX(.L.R.T.E.T.Q.Q.i R.Q.Q.W.n.n.m.-X0XtXV N 7 -.{ ",
"$.V q 4 H P D m m < 6 0 f h k $ M M N M ; j u w , M M V { 7 V $.$.V q 4 H H wXeX/.m.R.W.T.E.Q.!.i Q.Q.Q.W.Y.T.m.=X0XtXB } 6 B &.",
"M $.q 4 J E E L 5 I ~ 8 k h % m m M M M M V * k % M m B M M q 0 M %.q 4 Y E wXuX(.s.R.Y.s.E.v.v.7 !.T.Q.s.s.n.a.=XiX#XB B B m 0 ",
"q N V %.[ 0 ` K B m V V k h # M m M M M q M M t e @.M q M _ W q q @.V @.[ 0 9X=X/.;X<X<X<X<X1X1X>X1X>X<X>X1X;X;X*X7X#Xm M _ E m ",
"$.$.$.*.@.q 7 q V V =.t j j O q.w.m V 6 D M M % j w # P W Q { M $.$.%.*.N { 6 q 6XiXiXpXpXpXpXpXiXiXuXuXuXuXwXeXeXJ , P W Q { q ",
"%.$.$.:.&.+.F ' - b b f r r > *.} D W  X2 - 3 > t # $ 0 S N q 6 $.$.$.:.$.N G 9 V $.$.@.$.$.$.*.&.F W  X, 0 q 7 q V E 9 S N q 7 ",
"@.@.$.$.$.$./ ^ @.N @.V *.=.6 8 7 { M 0 P 0 0 { { $.q 0 9 0 N V $.$.$.$.$.$./ ^ @.q N V *.*.6 8 6 $.B 8 P 0 0 V V $.0 q 9 0 N { ",
"@.%.V $.$.$.N M +.$.$.$.%.;.-.$.*.:.V 0 M M B q M 7 { N B 0 N $.@.$.{ $.$.{ M N @.$.$.&.%.-.-.$.*.;.V 0 M M N q M 7 { N N 0 N $."
};
