/* XPM */
static char *ll_cd_31722085373[] = {
/* columns rows colors chars-per-pixel */
"64 32 218 2 ",
"   c #060000",
".  c #0C0101",
"X  c #140000",
"o  c #1B0001",
"O  c #1C000B",
"+  c #240000",
"@  c #2B0000",
"#  c #28010C",
"$  c #3A0A06",
"%  c #3D1507",
"&  c #2F0E14",
"*  c #391B18",
"=  c #333D0D",
"-  c #2C231F",
";  c #312D1E",
":  c #3A3A1E",
">  c #2D2522",
",  c #302725",
"<  c #392320",
"1  c #332926",
"2  c #362C29",
"3  c #392E2B",
"4  c #3B3826",
"5  c #3B312D",
"6  c #3E3431",
"7  c #460C05",
"8  c #540D00",
"9  c #4A1305",
"0  c #461907",
"q  c #44140A",
"w  c #4A140A",
"e  c #531402",
"r  c #5A1504",
"t  c #491913",
"y  c #5B1515",
"u  c #781E02",
"i  c #661417",
"p  c #58250E",
"a  c #5B2817",
"s  c #672809",
"d  c #732404",
"f  c #77270A",
"g  c #652616",
"h  c #732912",
"j  c #653519",
"k  c #5A1720",
"l  c #6D1622",
"z  c #621823",
"x  c #6B1A25",
"c  c #731926",
"v  c #592B22",
"b  c #553020",
"n  c #413633",
"m  c #443936",
"M  c #483A37",
"N  c #463C39",
"B  c #493E3B",
"V  c #78212B",
"C  c #7E2333",
"Z  c #35410E",
"A  c #3A460E",
"S  c #3D4C08",
"D  c #3D5703",
"F  c #394510",
"G  c #3E4C13",
"H  c #445E03",
"J  c #4A5D09",
"K  c #445315",
"L  c #495917",
"P  c #4B5C19",
"I  c #4B6405",
"U  c #4A6109",
"Y  c #516806",
"T  c #52650C",
"R  c #536B09",
"E  c #5B740C",
"W  c #5F790F",
"Q  c #4F6019",
"!  c #51641C",
"~  c #5A6C19",
"^  c #5D7413",
"/  c #637B0D",
"(  c #667B16",
")  c #697E14",
"_  c #4B4C2B",
"`  c #4F5725",
"'  c #4D4935",
"]  c #4C413E",
"[  c #51433E",
"{  c #55493F",
"}  c #7B4A33",
"|  c #785639",
" . c #5A6624",
".. c #5F7323",
"X. c #363E44",
"o. c #3B4249",
"O. c #474744",
"+. c #4E4341",
"@. c #524643",
"#. c #544945",
"$. c #5B434A",
"%. c #564B49",
"&. c #584D4A",
"*. c #5B524D",
"=. c #4B4952",
"-. c #4A5456",
";. c #5F5751",
":. c #7D5343",
">. c #674E56",
",. c #615953",
"<. c #6B515B",
"1. c #6A635E",
"2. c #565C63",
"3. c #5D676A",
"4. c #5F6670",
"5. c #64686B",
"6. c #746B65",
"7. c #78726C",
"8. c #626A72",
"9. c #6A6B73",
"0. c #6B767A",
"q. c #74757C",
"w. c #8C3E1E",
"e. c #801E2D",
"r. c #862327",
"t. c #932428",
"y. c #9B382E",
"u. c #852435",
"i. c #8B2535",
"p. c #8D2936",
"a. c #8B2639",
"s. c #942637",
"d. c #932738",
"f. c #942A3B",
"g. c #9A2C3D",
"h. c #A52C33",
"j. c #A32C3E",
"k. c #AA2C3F",
"l. c #A4313C",
"z. c #94461A",
"x. c #8B482D",
"c. c #9B4523",
"v. c #974827",
"b. c #834C31",
"n. c #85493A",
"m. c #914C36",
"M. c #845136",
"N. c #A04D2B",
"B. c #BA5D34",
"V. c #B2672E",
"C. c #AD6237",
"Z. c #B86736",
"A. c #BC653D",
"S. c #C46336",
"D. c #9E2C41",
"F. c #A42E41",
"G. c #AA2E41",
"H. c #B62E42",
"J. c #A43144",
"K. c #AC3144",
"L. c #AE3549",
"P. c #B23244",
"I. c #B43549",
"U. c #BB364B",
"Y. c #BA394A",
"T. c #C23A4E",
"R. c #C53A50",
"E. c #896D4D",
"W. c #997B57",
"Q. c #9B7C5B",
"!. c #A66843",
"~. c #B56848",
"^. c #A86E51",
"/. c #B15363",
"(. c #997C65",
"). c #B46C60",
"_. c #6C830F",
"`. c #728A14",
"'. c #758D17",
"]. c #758E1A",
"[. c #798E1B",
"{. c #9C825E",
"}. c #9D8466",
"|. c #9A8D75",
" X c #938B7D",
".X c #A38868",
"XX c #A58D73",
"oX c #AA947B",
"OX c #AC987D",
"+X c #B1987A",
"@X c #AC9C84",
"#X c #B4A48D",
"$X c #BCA58D",
"%X c #B8A88F",
"&X c #B6A691",
"*X c #B4A991",
"=X c #BBAA95",
"-X c #B9AA97",
";X c #B7AD9A",
":X c #929DA3",
">X c #B4AEA0",
",X c #BBB5A9",
"<X c #C3AB95",
"1X c #C4AE9A",
"2X c #C2B19C",
"3X c #C9B29C",
"4X c #C5B5A2",
"5X c #C6B7A6",
"6X c #CBB9A5",
"7X c #CCBCAA",
"8X c #D1BEAE",
"9X c #C4BDB2",
"0X c #CFC6A7",
"qX c #D4C3B4",
"wX c #D8C6B6",
"eX c #DAC9BA",
"rX c #E3D9BE",
"tX c #DDD8C5",
/* pixels */
"] +.+.+.+.@.+.B n ] #.*.O.#.+.] +.+.6 6 B B B B n ] m ] B 5 N +.+.+.+.+.@.@.+.B n B @.&.+.%.+.+.+.+.6 n N B B B n @.B B M 5 B ] ",
"+.+.+.@.#.#.B +.+.B 6 2 +.2 5 m m 5 6 2 6 6 { 6 5 ] M N B m N +.+.+.+.+.@.@.B +.+.O.m 2 +.2 5 n n 6 5 5 5 6 @.n 5 B B n B N m ] ",
"] +.+.+.#.#.%.+./ Q 6 ].1 ] B N 6 m 6 6 n 3 N ] B B [ ] n ^ _ m +.+.+.] #.#.%.+./ Q 6 ].2 O.qXqX8X6X0X6 N 3 m B ] M [ B 6 W _ 5 ",
"m ] @.#.#.] ] ] K P I E m N ] ] m 6 t q t 9 + m B B ' : L n +.B n +.+.$.#.] +.B K P I tX7X7X7X7X7X5X5X2X=XrX&.m ] B @.: P n +.+.",
"] @.B #.&.M ! Z R +./ 1 @.N ] ] m X o 0 e e % @ 3 I I Z ) m @.@.] @.] @.&.B ! Z R @.wX}.5XW.}.}.(.{.(.(.=XE.qX7.2 I I Z ) m +.+.",
"@.@.@.#.#._ 5 `.B U ` 5 5 m N M +.a j o w e e t , = , K ^ 6 B ] +.@.@.#.@._ 4 `.B qXqX}.{.$ z k q z z 7 .X(.7X7X> Z 1 K ^ 6 B +.",
"B $.#.] n I Q Y 3 1 - 5 N 2 { 5 Y X x.^.+ t 9 0 * ].2 H 2 ] ] +.] #.#.] 6 I Q Y 0X7X}.% x k D.V y u.C l z 7 .X7X7X[.2 H 5 ] +.+.",
"#.#.#.+.S n *.7.7.1.] 4 5 5 n 6 `.O @ o + q 7 q -   E n m @.+.%.@.#.$.@.S n ,.;X5X.Xy x u.a.u.u.y a./.u.u.l 7 .X4X5XE n m +.+.$.",
"] ] 2 ) 5 5 ;.;.*.@.m 6.n 2 1 F 2 . w e q + X .   . . H 5 n ] @.B B 3 ) 3 5 ,.4X3XQ.x i.a.a.e.a.y u.a.a.a.u.x Q.1X1X' U 5 n +.@.",
"5 D > 2 3 5 , %.@.N 5 ;.#.3 > 6 + | @ q } } v.S.C.x.a B ..> 2 2 5 H > 2 5 5 =XwX| x i.u.a.d.u.d.i a.d.d.u.a.u.w (.wX X+...> 2 2 ",
"3 , 3 n n 6 n 6 2 > 6 - > ] @.+ } Z.C.Z.z.c.u c.S.A.v.o +.n m 2 2 , 3 n n 5 2XXXE.=.-.8.8.X.8.8.X.4.4.o.2.2.=.o.}.}.|.B +.n m 2 ",
"n 5 n n n 3 m n 5 B N 3 6 n ] m + z.c.z.d d r f z.v.v.p + n 2 3 n 2 n n m 3 #X@XE.c f.f.f.f.i.a.i f.f.f.f.f.i.c }.*X;XO.+.n 2 5 ",
"2 n n n n 3 m M B m m H n N m m + b.B.S.Z.d d v.~.S.A.~.m.+ 5 5 3 n n n n 2 #X&XW.u.p.g.f.f.d.D.i g.a.g.g.a.f.i .X#X>X] ] n 5 5 ",
"4 n n n 6 m m m M 6 1  .n n n m + b.~.z.~.c.d s + x.z.Z.A.M.4 6 n n n n n n %X&XQ.r.g.g.f.D.d.j.l j.g.g.D.f.g.C XX#X;X2 2 B 5 5 ",
"n n n n m m 3 +.+.B Y R 6 6 + + b.b.^.!.~.!.p % Y E g Z.Z.a 3 n n n n m n M %X=XQ.u.d.j.s.j.F.s.c g.F.f.D.f.f.i XX$X;XH I E 2 5 ",
"n n m M 6 6 +.+.+.L ^ [.+ b.^.(.~.' 5.] < -     @.X M.!.b.+ 3 n n n n M n 5 %X=XQ.p.g.s.g.g.F.q.3.9.F.j.j.g.g.u.XX$X>X~ `.5 5 n ",
"n m m N n m B B E 2 5 U # :.a 2 3 X ~.~.A.C.a . . 6.[ o = H 1 3 n n m m 6 B 2X=XQ.$.<.<.>.<.0.D.:XJ.5.<.>.<.>.$.oX<X>X^ = H , 3 ",
"5 5 3 n n 4 2 n '.Y ~ > 6 O.] M m ^.B.Z.V.Z.h + b.X X [ B [ n 3 6 6 3 6 6 5 2X=XQ.l l l c c 8.J.9.J.5.c l c l i oX<X,X[ [ @.n 5 ",
"M m M m @.B ] @.; Y `.6 n ] #.m o Z.S.S.V.z.j !.Z.q ] M B B m 3 m B ' n @.] 2X=XQ.s.F.J.G.L.H.3.q.8.l.K.j.K.j.c OX<X,XB B @.n 3 ",
"m n N N B ] B n `.! 2 5 n n ] g v.N.N.Z.m.@ j h 8 j M ] m B B B m 5 N m ] ] 2X2XQ.s.F.G.G.I.G.L.r.l.G.I.k.K.k.g.OX<X,XB n B B m ",
"n m 6 n M M q.#.W L G 6 m m o ^.y.w.v.n.A @ f c.u V.d M B B M 6 n n 6 n n B 2X4XQ.g.l.G.I.j.I.I.r.k.G.I.K.K.l.f.OX1X,XB B B B n ",
"3 6 n 6 n 5 4 ! ~  .! 6 n n @ v.A.h + m A 5 + x.m.B.x.o + B 3 6 3 n n n 6 3 2X5XQ.j.I.P.I.l.Y.U.r.H.Y.P.K.I.l.l.OX<X9XB B B 3 5 ",
"5 5 6 5 5 4 _.q. X6.*.5 5 o n.v.C.m.B m B m J m n ).~.~.b.* o 6 5 5 5 5 6 5 2X5XW.g.L.I.I.K.Y.U.y k.T.U.K.l.K.l.OX3X9Xm ] n n 3 ",
"1 5 2 ~ 5 6 m 6.1.;.B m 6 X % @ @ g 5 ] B ] ].m N + v e e g w #.2 5 3 ~ 4 6 6X5XQ.3.o.0.0.-.q.q.-.0.0.=.9.8.-.2.+X3X9Xn ] m n @.",
"] @.3 D ].> 3 ,.*.#.1 m n q 7 h e + +.m n M N H n m m v s r r B ] @.5 D ]., 5X7XQ.K.I.P.U.P.R.T.t I.T.T.Y.k.P.l.@X3X9XB M 2 %.+.",
"] ] 6 > G K A n n - 1 4 X g 8 a t m M n 5 5 2 n = m n B o h r + +.B 6 > G G 4X7XW.j.I.Y.U.H.T.R.t T.T.T.U.K.K.l.oX3X9XN +.1 N +.",
"m +.6 > U Y Y K 1 L P + 9 e q n n m m m m m m m 1 B n M m O * r o ] 6 > H Y 5XqXQ.r.I.I.t.I.h.t.1 R.P.T.t.t.l.r.OXwXoXm m m n 5 ",
"6 N B O.' 5 / U N 6 n g s w O m n n m m n m n n B n m 6 n ) X d 9 B ] ] ' 4 2X+XW.*X#X&X*X&X=X=X&X=X%X*X%X%X&X#XOX$X|.6 m ( T n ",
"+.+.+.%.N N 2 6 B X w s s o n 7.7.n B 2 F m m B m H = K R o t d f & +.%.] N 2 6 ,XeXwXwXeXeXeXeXwXwXqXqXqX7X7X7X7XD = K R ^ ] n ",
"O.+.+.*.=.N S 4 n X X % * O +.#.#.A R _.= 3 n 2 6 B R 5 O b q + # +.+.*.+.N D 4 B +.+.+.+.+.+.#.#.A R _.= 5 6 2 5 ] Y 3 = B 6 2 ",
"+.+.+.+.+.+.~ ! +.m N B @.#.1 3 2 +.m 2 K 6 5 B B +.6 6 4 5 B N @.+.+.+.+.+.~ ! B 6 B B #.%.1 2 2 +.m 5 K 6 4 ] ] ] 6 6 4 3 B B ",
"+.+.N +.+.+.m m ] +.+.+.@.%.%.] #.&.B 6 m m m n m 2 B B m 5 N +.+.+.] O.+.] m N +.+.+.+.+.%.%.+.#.&.B 5 m m m 6 m 3 B B B 5 m +."
};
