/* XPM */
static char *ll_cd_01722085373[] = {
/* columns rows colors chars-per-pixel */
"64 32 214 2 ",
"   c #0C0000",
".  c #0C0800",
"X  c #130100",
"o  c #1B0000",
"O  c #130008",
"+  c #1C020B",
"@  c #230000",
"#  c #2C0000",
"$  c #2A010A",
"%  c #3B0904",
"&  c #3C1303",
"*  c #3B1C17",
"=  c #3A210D",
"-  c #333D0D",
";  c #2A231A",
":  c #38271C",
">  c #393A1E",
",  c #2D2522",
"<  c #302725",
"1  c #3A2220",
"2  c #332926",
"3  c #362C29",
"4  c #392E2B",
"5  c #3A3525",
"6  c #3A3827",
"7  c #3B312D",
"8  c #3E3431",
"9  c #450C02",
"0  c #4D0C00",
"q  c #460B0B",
"w  c #580E03",
"e  c #481606",
"r  c #4B150B",
"t  c #521303",
"y  c #5C1201",
"u  c #581B0D",
"i  c #4A1A16",
"p  c #581B17",
"a  c #462113",
"s  c #5B2817",
"d  c #5D2C1A",
"f  c #4C3010",
"g  c #5A3219",
"h  c #6B2302",
"j  c #67280A",
"k  c #762809",
"l  c #652A14",
"z  c #682816",
"x  c #64321A",
"c  c #511822",
"v  c #6A1A24",
"b  c #7B1F2E",
"n  c #572B20",
"m  c #413633",
"M  c #443936",
"N  c #483B37",
"B  c #463C39",
"V  c #493E3B",
"C  c #76242F",
"Z  c #35410E",
"A  c #3A460E",
"S  c #3D4C0A",
"D  c #3D5703",
"F  c #394511",
"G  c #3D4A12",
"H  c #435E03",
"J  c #455907",
"K  c #414E15",
"L  c #445215",
"P  c #49561A",
"I  c #4B5C19",
"U  c #4C6505",
"Y  c #4B6109",
"T  c #516806",
"R  c #516509",
"E  c #536C09",
"W  c #5B750D",
"Q  c #5C740C",
"!  c #4F6019",
"~  c #5A6F11",
"^  c #566618",
"/  c #52641C",
"(  c #5A6C1E",
")  c #5D7512",
"_  c #667E0C",
"`  c #617512",
"'  c #697E14",
"]  c #697E19",
"[  c #4B4C2B",
"{  c #4C5424",
"}  c #53592F",
"|  c #444233",
" . c #4F4B35",
".. c #4C413E",
"X. c #50433F",
"o. c #72462F",
"O. c #784C38",
"+. c #7A5537",
"@. c #5B6927",
"#. c #5F7423",
"$. c #4E4341",
"%. c #4B4947",
"&. c #524643",
"*. c #544945",
"=. c #5A4749",
"-. c #564B49",
";. c #594D4A",
":. c #5B524D",
">. c #4B5558",
",. c #5B5653",
"<. c #745746",
"1. c #694E57",
"2. c #605953",
"3. c #655E58",
"4. c #69625D",
"5. c #6D6B66",
"6. c #726B65",
"7. c #766F69",
"8. c #74726D",
"9. c #79736D",
"0. c #6F787D",
"q. c #7B7A75",
"w. c #993E1B",
"e. c #8E2127",
"r. c #8A2937",
"t. c #952939",
"y. c #9B2D3C",
"u. c #A0242C",
"i. c #A52E3B",
"p. c #8C431A",
"a. c #954516",
"s. c #9A4617",
"d. c #93451E",
"f. c #9B431C",
"g. c #834B2B",
"h. c #8B4A2D",
"j. c #934624",
"k. c #9C4A23",
"l. c #984827",
"z. c #93462B",
"x. c #824937",
"c. c #874937",
"v. c #82523D",
"b. c #B65C3A",
"n. c #BC632E",
"m. c #AC603C",
"M. c #B96736",
"N. c #B3643C",
"B. c #BC653A",
"V. c #C36A3D",
"C. c #CB7037",
"Z. c #A42E41",
"A. c #A92F42",
"S. c #AA3143",
"D. c #B73547",
"F. c #C33B4F",
"G. c #C73B50",
"H. c #825343",
"J. c #896D4D",
"K. c #9E6B5C",
"L. c #977957",
"P. c #9B7C5B",
"I. c #A66646",
"U. c #AA6942",
"Y. c #B26543",
"T. c #B76945",
"R. c #BA6A42",
"E. c #B8694A",
"W. c #AB6E57",
"Q. c #B07158",
"!. c #937B63",
"~. c #6A820F",
"^. c #728A14",
"/. c #758D17",
"(. c #758E1A",
"). c #798F1B",
"_. c #9B815E",
"`. c #9D8666",
"'. c #87837D",
"]. c #9A8D75",
"[. c #9D927C",
"{. c #A38665",
"}. c #A48C6A",
"|. c #A18B72",
" X c #AC947C",
".X c #AC987D",
"XX c #B1987A",
"oX c #9D968B",
"OX c #AC9C86",
"+X c #B19C88",
"@X c #A59D92",
"#X c #B3A38D",
"$X c #B8A88F",
"%X c #B6A691",
"&X c #BAAA93",
"*X c #B7AD9A",
"=X c #BCAC9B",
"-X c #BBA9A2",
";X c #BBB5A9",
":X c #BCB6AA",
">X c #C3AB95",
",X c #C4AE9A",
"<X c #C2B19C",
"1X c #C9B29C",
"2X c #C5B5A2",
"3X c #C6B8A6",
"4X c #CBB9A5",
"5X c #CCBCAB",
"6X c #D1BEAD",
"7X c #C4BDB2",
"8X c #CFC6A7",
"9X c #D4C3B3",
"0X c #D8C7B8",
"qX c #E3D9BE",
/* pixels */
"..$.$.$.&.$.$.V m V %.;.$.*.$...%.&.8 m N V V V M ..N V V 7 B $.$.$.$.$.$.$.$.V 8 $.%.;.$.*.$...$.$.8 8 N V B V M ..M V N 7 B ..",
"$.$.$.&.*.&.V $.$.$.M 3 $.3 7 M m 8 7 4 8 8 &.M 8 V B N B B N $.$.$.$.&.&.=.B $.$...M 3 $.3 7 N M 8 7 7 8 m &.m 7 ..B V V B B ..",
"$.$.$.$.*.-.-.&._ I 8 (.3 ..V M 8 m 8 8 m 3 N | V V X.V 8 ) [ M $.$.$.&.*.*.;.$.' I 8 (.2     X =X4X8X8 M 3 M V V V X.V m ) [ m ",
"M ..&.*.&...$.V L I U W M B ....M 8 N N V V ;.8 ..V &.> P M V ..m $.$.&.*...$.V L I D X * e t 0 r + 3X=X=XqX-.M ..V X.> I M V $.",
"..&...&.;.N / Z E %.` 2 &.B ..V B V 8 N B 2.q.9.3 U U Z ' 8 &.....&...*.;.B / Z E &.  o d X a r u i + `.&XJ.6X9.3 U R Z ' m &.$.",
"&.&.&.&.*.[ 6 ^.V U { 7 7 N B B V $.$.$.7 3.9.^.< - 2 L ) 8 ....&.&.&.&.&.[ 6 ^.N 9XO o Q.z # w w p X q {.!.5X8X< - 2 K ) 8 V ..",
"V &.&.$.m U I T 4 3 ; 7 N 3 X.6 E m ..V N U M Y G /.3 H 7 ....&.V &.*...8 U ! R 5X5X_.% v.o.f & t 9 = X v q {.5X5X(.2 H 4 V ..&.",
"&.=.-.&.S m :.9.7.4.$.5 7 7 M m ^.H 7 E 3 *.-.$.K 5 Q N N ..$.-.&.-.-.$.S M :.<X3X`.s v C <.X & $ o : X o v q {.2X2XQ N N &.$.-.",
"....3 ' 7 7 2.,.;.*.N 6.m 3 2 F 2 G 4 ] 3 &.-.;.{ K  .H 7 m ..X.V V 3 ' 4 7 2.2X1XL.o r x.v.@ X X X X v.O.n $ P.<X,X..U 7 8 $.$.",
"7 H ; 3 7 7 < *.&.B 7 ,.*.3 , M V | &.V V N ;.E 8 L &.$.#.< 4 3 m H , 2 7 7 =X0X+.v <.I.R.k.I.@ o @ t N.M.B.x.o `.9X[.$.#., 3 3 ",
"4 < 4 m m 7 8 7 4 , m , 2 | $.B ....7 N M m -.-.$.$.*.$...m N 4 4 < 4 m m 7 <X}.J.%.s j.f.h d.V.n.f.j.y w.k.h t !.`.].$.$.m M 3 ",
"m 7 7 m M 7 N 8 8 N N 3 m M ..m B M B m '.7 M V ..$...$.&.m 2 4 m 4 m m M 4 #X+XJ.v u % b.k l.V.n.V.l.z.R.a.N.b.f X *XV &.8 3 5 ",
"3 m m m m 3 V N V N N J m m N M 7 M '.'.7.*.m &.V V $.$.V M m 7 4 m 8 8 m 4 #X%XP.b d z h k k f.f.V.b.w.j.Y.b.w.d.l @X..$.m 8 7 ",
"7 m m m 7 M N M V 7 2 / m M m M B 7 4.4.:.N V H N 8 ~.3 3 | 4 4 7 m m m 7 N %X*XP.b 9 j z g.h j.z.z h.x r.r.j f.N.U.o 2 2 V 4 7 ",
"m m m m B B 7 ......T E 7 m m V ..m *.*.B L , P R W F D T Q 7 7 m m m N N M OX+X. = W.Y.g.X o o X   o X r.t.x.B.M.j oXH U Q 3 8 ",
"m m M N 8 7 $.&...P ) ).7 4 m N B m 2 4 ; m ..:.&.B U / (.3 4 m m m M $ O.K.Q.K.; | X X r.            X H.r.X K.f . -X/ (.5 7 8 ",
"m M M V 7 V ..B W 3 8 U 7 { ..3 4 J 7 3 3 8 B ..&.X.V ) - H < 4 m M N N o.g @ o K.=.1.1.o.h.o x N.C.n.E.@ <.V X  X$X;XQ - H 2 4 ",
"7 7 7 7 m 7 4 7 /.T ( , 7 $...| V V G L W M V V m &...V X.X.m 7 7 7 3 7 8 8 =X=XP.v v o R.m.v.Y.B.M.T.w.B.h.@ v  X>X;X..V &.M 4 ",
"N V V M X.V X...: T ^.m M ..&.....V *.K 7 N V N N V V ..V X.m 3 B B B B *...<X=XP.t.o v.n.R.g.M.n.N.y Y.N.j e.v XX>X;XV V &.m 3 ",
"M 7 M B ......M ^.I 3 7 M 8 ..&.B M M E 5 E m m N N B | m V ..N N 7 B | ....<X<XL.t.z h a.h.v.T.M.V.s.k O t.A.y.XX>X:XV m V V N ",
"m m 8 M N N q.%.` P K m m B M B M 3 ..@.A L 8.8.B M B V V V V 8 m m 8 m N B <X2XP.$ E.f.k.z.c.g.U.w.k.z.o Z.A.t.XX,X:XV V V V m ",
"5 m 8 m m 7 6 ! E @./ 7 m m 7 B M 2 V N F 3 } %.M 8 ..V V V 4 8 5 8 m m 7 7 <X2XP.@ d.s.k # S.@ h.w.k.c.y.D.S.i..X,X7XB V V 4 7 ",
"7 7 7 7 7 7 ~.q.oX5.;.7 4 7 m M M N V M | M ! 8 M N M N ..m 8 4 7 7 7 8 7 7 2X3XP.t.Q.Y.E.@ S.S.@ h.k.d.d o y.y..X1X7XN V m m 4 ",
"2 7 3 ( 7 8 M 5.4.,.V B m N N 4 M ..8 ..V ../.B M M B 8 ..N 8 %.3 4 3 ( 7 8 3X3XP.5.# @ @ o o 0.>.@ U.p.K.@ X >. X1X7Xm ..M m &.",
"$.%.7 D (., 7 2.:.*.2 N m m m &.M 8 ..M 8 B B Y 7 M M V N 2 ;.$...&.4 D (.2 3X5X_.A.& n z r X F.i Z.o # 0 z e . OX,X7XV N 3 -.$.",
"..V 8 , G L A 8 m ; 2 7 M m m m M M B 8 7 7 3 m Z M M V ..2 V $.$.V 8 , G G 3X3XL.i.@ d y 9 o G.: G.F.o j y 9 o XX1X7XN ..3 N $.",
"B $.m , H E E L 2 L I 4 B 4 M M 7 M B N N M N m 3 V 8 N M M 8 8 M $.8 , H T 3X0XP.e.@ x 9 Z.i.u.1 G.D.D.e.@ u e |.0X[.N M M m 7 ",
"8 B V V  .7 ~.J B 8 B M M 2 m M M M m M 7 N m m B 8 M 8 M ] E 8 8 V $.$. .7 ,XXX_.%X# l y #X%X%X%X&X$X%X#X#Xe z # +X].8 M ] R m ",
"$.$.$.*.B B 3 8 B V V B $.M 8 9.9.m V 4 A M B V N H - L E W ..8 $.$.$.-.B B 3 8 -X# 0 k 0 5X0X0X0X0X0X9X9X5Xo y z & - L E ) ..8 ",
"$.$.%.;.%.B S 6 V ..V $.$.$.$.*.&.A E ~.- 4 8 3 8 V E 7 Z B 8 3 $.$.$.,.$.B + c n c % i a   $.*.&.F E ~.X * = r r @ Y 7 Z B 8 3 ",
"$.$.$.$.$.$.^ / ..M B B *.*.2 3 3 ..M 7 L 7 7 ..V $.8 m 5 7 B V $.$.%.$.$.$.~ / V B ....=.&.2 4 3 ..N 4 G 7 7 N N X.8 8 5 7 B V ",
"$.$.B %.$.$.B B ..$.$.%.&.-.-.$.*.:.B 7 N N M 8 M 4 B B B 7 V $.V $.8 $.$.%.$.8 ..$.$.$.&.-.-...-.;.B 7 M M N m N 4 B B N 7 V $."
};
