/* XPM */
static char *mr_11722085379[] = {
/* columns rows colors chars-per-pixel */
"64 32 185 2 ",
"   c #020200",
".  c #0C0101",
"X  c #140100",
"o  c #1C0000",
"O  c #15000B",
"+  c #1F000D",
"@  c #001106",
"#  c #160014",
"$  c #1B0018",
"%  c #240000",
"&  c #2C0002",
"*  c #24000E",
"=  c #380000",
"-  c #2F1A05",
";  c #3D1B08",
":  c #331915",
">  c #3A1C19",
",  c #39250C",
"<  c #343E0D",
"1  c #2C231F",
"2  c #312D1E",
"3  c #393A1E",
"4  c #371921",
"5  c #2D2422",
"6  c #302725",
"7  c #332926",
"8  c #362C29",
"9  c #392E2B",
"0  c #353222",
"q  c #3A3525",
"w  c #3B3C20",
"e  c #3B312D",
"r  c #363A29",
"t  c #3D382B",
"y  c #3E3431",
"u  c #490900",
"i  c #540B00",
"p  c #5A0D03",
"a  c #451507",
"s  c #4F1402",
"d  c #471709",
"f  c #45140B",
"g  c #40190D",
"h  c #541405",
"j  c #5D1100",
"k  c #431C12",
"l  c #511313",
"z  c #57290B",
"x  c #5C2413",
"c  c #532B13",
"v  c #463517",
"b  c #52331E",
"n  c #682608",
"m  c #792704",
"M  c #692610",
"N  c #632D1A",
"B  c #61311D",
"V  c #733016",
"C  c #503325",
"Z  c #413633",
"A  c #4F3030",
"S  c #443936",
"D  c #483A37",
"F  c #463C39",
"G  c #493E3B",
"H  c #672922",
"J  c #36410E",
"K  c #3A460E",
"L  c #3D4C09",
"P  c #3A5204",
"I  c #3F5B02",
"U  c #394511",
"Y  c #3D4A12",
"T  c #415705",
"R  c #435D03",
"E  c #495D06",
"W  c #404E14",
"Q  c #445214",
"!  c #495917",
"~  c #46531A",
"^  c #4C531F",
"/  c #4C5D19",
"(  c #476104",
")  c #4B6405",
"_  c #4C600D",
"`  c #516807",
"'  c #516509",
"]  c #536C09",
"[  c #57700B",
"{  c #5B730C",
"}  c #5F790F",
"|  c #4F6019",
" . c #536811",
".. c #5A6F11",
"X. c #51631C",
"o. c #58641F",
"O. c #5B6C1D",
"+. c #5D7213",
"@. c #60770E",
"#. c #667E0D",
"$. c #617512",
"%. c #697E14",
"&. c #697E19",
"*. c #4B4C2B",
"=. c #4D5524",
"-. c #4D5926",
";. c #52582A",
":. c #4F4B34",
">. c #4C413E",
",. c #50443F",
"<. c #55493F",
"1. c #535933",
"2. c #5A5E37",
"3. c #79452D",
"4. c #774C32",
"5. c #775438",
"6. c #5A6624",
"7. c #5C6C29",
"8. c #5F7423",
"9. c #4D3E41",
"0. c #4E4341",
"q. c #4B4E42",
"w. c #4A4A48",
"e. c #524643",
"r. c #544945",
"t. c #584A47",
"y. c #564B49",
"u. c #594D4A",
"i. c #5B524D",
"p. c #5E5550",
"a. c #5F5852",
"s. c #6B524D",
"d. c #615953",
"f. c #69625D",
"g. c #755D63",
"h. c #6C6660",
"j. c #726060",
"k. c #716B65",
"l. c #766F69",
"z. c #7C7267",
"x. c #74726D",
"c. c #78736C",
"v. c #7D7872",
"b. c #797B78",
"n. c #903E0E",
"m. c #9B421D",
"M. c #8B4826",
"N. c #8C4529",
"B. c #974624",
"V. c #9B4325",
"C. c #9C472B",
"Z. c #8D4434",
"A. c #88453D",
"S. c #8B5338",
"D. c #A34B29",
"F. c #AE662C",
"G. c #B56A29",
"H. c #AA6634",
"J. c #B56433",
"K. c #BB6A35",
"L. c #B96638",
"P. c #BA653C",
"I. c #B5683D",
"U. c #C2753D",
"Y. c #844840",
"T. c #855048",
"R. c #9F725D",
"E. c #AB6A46",
"W. c #B66444",
"Q. c #BB6443",
"!. c #B4674A",
"~. c #B4764D",
"^. c #A96B55",
"/. c #B06955",
"(. c #A37458",
"). c #807B75",
"_. c #C16040",
"`. c #C16F44",
"'. c #6B820F",
"]. c #6F8716",
"[. c #718A14",
"{. c #758E19",
"}. c #7B9317",
"|. c #86817B",
" X c #88847E",
/* pixels */
">.0.0.0.0.0.0.G S >.w.i.0.r.0.0.0.e.y S S G G G S e.S G D e F 9.0.0.0.0.e.0.0.G S >.0.u.0.r.0.>.0.0.y Z F F G >.Z >.S G G e F >.",
"0.0.0.e.r.e.G 0.0.G y 8 0.8 e S S y e 9 e Z e.y >.  . g.F D F 0.0.0.9.e.r.e.G 0.0.G S 8 0.9 e S S y e e y y e.Z e >.G F F F G >.",
"0.0.0.0.r.r.y.0.#.| y {.8 >.G S 9 S y y S 9 S X a s s f > 2.*.S 0.0.0.e.r.r.y.0.#./ Z {.8 >.F S e S y e y 0 S >.>.G ,.F y @.*.S ",
"S G e.t.t.>.0.G ~ ! ( } S S >.>.S y G D G F O a s s f o B o 9.9.Z 0.e.e.t.>.0.G ! ! ( { S F >.>.S y >.F >.>.y.S >.G ,.3 ~ S 0.G ",
">.e.G t.u.D X.J [ e.$.7 e.F >.>.F G y S F d.o h u ; X N./.o e.G >.0.>.e.y.S X.J [ e.$.7 <.F >.G S G Z S >.d.v.c.9 ( ) < %.Z e.9.",
"e.e.e.e.e.*.t [.F ( =.e e S S G G 0.0.0.e # & i p % 4.N.^.y >.G r.e.e.r.r.*.t [.S ( -.e e F F G >.0.0.>.y d.c.[.6 < 8 ~ } Z G >.",
"G y.e.0.Z ( | ' e 7 1 e D 8 e.t ] S G >.O .   k X f g :   9.>.e.>.e.t.>.Z ) / ' e 8 1 e S 8 e.e ] S >.F S ) S ) Y }.8 R 9 >.>.e.",
"e.y.e.e.L S i.c.x.f.0.q e e Z Z [.R e ] o 4.^.z X & u ; o . 0.y.e.t.r.>.L S i.c.x.f.>.q e e Z Z ].T e ] 9 r.y.>.W q { S Z e.0.y.",
">.G 8 %.e e d.p.i.e.S k.Z 8 8 U 8 Y e # Z.W.F.F.M.!.E.% H.S.D e.G G 8 %.9 e d.p.i.r.S k.Z 9 8 U 8 Y 9 &.9 t.r.u.=.Y :.R y y 0.e.",
"e R 1 8 9 e 5 t.e.S e d.r.8 5 Z S G 0.$ Z.Q.U.n.j V.m.I.J.Q.& 8 y R 5 8 e e 7 y.e.S e d.r.8 1 Z F F 0.>.G S u.[ y Q e.0.8.5 8 8 ",
"9 6 9 Z S y Z 9 e 6 Z 1 6 >.e.S >.>.Z S p m.J.`.n V.P.K.W.z Z 8 8 5 e Z Z e y e 8 7 Z 5 7 F e.F G 0.S S S y r.r.>.0.r.0.>.Z S 9 ",
"Z e e Z S 9 F S e F S 9 y Z >.S S S S Z Z.`.J.L.m L.F.D.V.X 8 e Z e e Z S e S S y F S 8 Z Z >.S F S S y |.y S >.>.0.>.>.e.Z 8 e ",
"8 Z e Z Z 9 F S G S S E Z Z S F y Z  X|.x ~.P.D.j L.L.!.H S e e 8 Z Z Z Z 0 D D G S S E y S S S y Z  X|.x.t.t >.F >.>.>.>.S e e ",
"Z Z Z Z e S S S G y 7 o.Z Z S S S e h.f.& A.W.G.K.S.% o * G 9 e Z Z Z Z Z Z S S G e 6 6.y S Z S S y f.f.p.S >.( F y '.8 8 G 9 e ",
"Z Z Z Z F F 9 0.>.G ` ] t Z Z >.>.S e.t.S Q o M.E.o , . X } 9 Z Z Z Z Z Z F e >.>.>.` ] e S Z G >.S e.r.S Q 6 ^ ' [ K ( ` { 8 e ",
"Z Z Z D y e 0.e.0.! ..}.9 e Z Z S Z 7 q 5 Z X c o k - X (.S.Y.& Z Z S D Z e >.e.0.! +.}.9 9 Z S Z Z 7 9 5 Z >.i.e.F ) X.[.9 e Z ",
"Z S D S Z S >.G [ 8 y ) e ;.>.7 9 R e 7 8 Z o J.K.Q.!.z o X T.l Z Z S S y F G G [ 9 y ( e ;.>.8 e T 8 8 8 Z S ,.,.,.F @.< R 6 9 ",
"e Z 8 Z Z t 8 y {.` O.5 e >.>.>.G G Y Q { S * L.D.I.L.!.N ,.Z 9 e e e Z Z y 8 e {.` O.5 t >.,.F >.>.W Q { Z G >.Z ,.>.,.,.,.Z e ",
"Z F >.S e.G >.,.2 ` [.y S >.e.>.G >.t.Q e S * C.Q.G.G.J.E.>.Z q G S G S e.>.,.,.2 ` [.Z Z G r.>.G G t.W e S F S D G G G G ,.Z 9 ",
"S Z S S >.>.>.Z [./ 8 9 S y >.e.S S S  .0 [ Z o M W.C.V._.+ >.S S Z S S >.>.>.Z [./ 8 e Z Z >.e.F S S ] 0 ] S S D F F >.Z G G S ",
"Z Z y S Z F b.<.@.! Q S S S G S S 8 >.7.U ~ x.C X N.C.B.m X F S Z Z e S S F b.q.@.! W S Z S S S S 8 >.7.K ~ x.x.S G G G G >.G Z ",
"9 y Z y Z e r | ..6.X.y y S e S S 8 F F U 9 1.  c = C.B.n.. 8 y 8 Z Z Z e e r X.{ 6.X.y Z Z e G S 8 D F U 9 1.q.S e >.G G G 9 e ",
"e e e y e e '.b. Xc.i.e 9 e Z S Z F G Z G S -.  X R.3.5.. F y 9 t e e e e e %.). Xx.y.e e e Z Z e F G S G S _ Z S F S F G S Z 9 ",
"8 e 8 O.e y S k.f.p.G S Z F F e Z >.y >.G >.  g M i h 4 9.S y e.8 8 e O.9 Z S k.f.a.>.D Z F F e G >.y >.G >.[.F S S S Z >.S y e.",
">.0.e P {.5 e d.i.q.8 Z Z Z Z ,.Z Z >.S y F   B j M f 0.F 8 y.0.>.e.e P ].7 9 a.p.w.7 Z Z Z Z <.S S >.S Z S F E Z S F F D 8 y.0.",
">.>.y 5 Y Q K y S 1 7 e Z Z Z Z F D >.Z e 9 @ f V g O G G 8 F 0.0.G y 5 Y ~ U y y 5 7 e Z Z D Z S Z F Z e e 9 Z < S S F 0.8 F 0.",
"y 0.y 5 ( ` ] Y 6 ! | 8 D 9 S S Z S Z S S S . M N v   D S S Z e S 0.y 5 ( ` ] Y 7 ~ | e F e Z Z Z Z S S S S Z S 8 F S Z S D S 9 ",
"y F >.0.:.e '.! S Z G Z S 8 Z S Z Z S S S G k n h b X y S &.' Z S F 9.0.:.e '._ F y F y S 8 Z Z Z S Z S Z S Z Z D S S y y &.' Z ",
"0.w.0.y.9.y 9 y G G F F 9.S y c.z.Z F 8 K X h m n o > z.] { 0.y 0.0.0.w.F F 8 y F G 9.y >.F y c.z.Z >.8 U S F G F R J Q ] +.>.y ",
"0.0.0.i.w.F L w F >.0.0.0.0.0.r.e.L ` ].J e y . X > : . 4 A y 8 0.0.0.i.0.F L w G 0.0.0.0.0.>.r.e.K ] '.< e Z 8 e F ] e J G y 8 ",
"0.0.0.0.w.0...X.G S G G w.r.8 8 8 0.S 9 Q e e >.>.s.j.j.s.9 G G 0.0.0.0.0.0.+.| G y F 0.r.r.8 8 8 >.S e ! e e F >.>.e y q e F G ",
"0.0.G 0.0.9.F S 0.0.0.0.e.y.y.9.r.u.G y S S F y S 9 >.F F 9 G 0.9.0.0.0.0.w.y >.0.0.0.0.0.u.y.>.t.y.>.e S S S Z F 8 >.F F e G 0."
};
