/* XPM */
static char *mr_21722085379[] = {
/* columns rows colors chars-per-pixel */
"64 32 193 2 ",
"   c #050101",
".  c #060504",
"X  c #0D0001",
"o  c #140000",
"O  c #1C0001",
"+  c #1E0B0E",
"@  c #1E0014",
"#  c #230001",
"$  c #220406",
"%  c #2B0000",
"&  c #2E1A0F",
"*  c #371303",
"=  c #2C0C1A",
"-  c #391212",
";  c #3E1D16",
":  c #343E0D",
">  c #2C231F",
",  c #3D2018",
"<  c #312D1E",
"1  c #393A1E",
"2  c #321523",
"3  c #2D2422",
"4  c #302725",
"5  c #332926",
"6  c #352629",
"7  c #362C29",
"8  c #392E2B",
"9  c #373626",
"0  c #3A3425",
"q  c #3B3C20",
"w  c #3B312D",
"e  c #3E2932",
"r  c #3E3431",
"t  c #4A0D02",
"y  c #520700",
"u  c #520C00",
"i  c #5B0C00",
"p  c #4C1302",
"a  c #481807",
"s  c #4A1409",
"d  c #521300",
"f  c #5A1500",
"g  c #561E05",
"h  c #52130B",
"j  c #4E2A14",
"k  c #592714",
"l  c #5D2E1B",
"z  c #44321A",
"x  c #672304",
"c  c #6F2400",
"v  c #6C2409",
"b  c #6A2C0D",
"n  c #7E2A00",
"m  c #652416",
"M  c #6A2612",
"N  c #642914",
"B  c #6E2A13",
"V  c #612C1A",
"C  c #6C2A19",
"Z  c #772715",
"A  c #431B26",
"S  c #5F2726",
"D  c #543228",
"F  c #402B32",
"G  c #413633",
"H  c #443936",
"J  c #483A37",
"K  c #463C39",
"L  c #493E3A",
"P  c #663322",
"I  c #35410E",
"U  c #3A460E",
"Y  c #3E4D0A",
"T  c #3D5703",
"R  c #394511",
"E  c #3D4A12",
"W  c #415705",
"Q  c #435D03",
"!  c #495D06",
"~  c #4B5D0C",
"^  c #404E14",
"/  c #445215",
"(  c #495917",
")  c #4A531B",
"_  c #4C5D19",
"`  c #476104",
"'  c #4B6405",
"]  c #4C600D",
"[  c #506506",
"{  c #516807",
"}  c #546C09",
"|  c #57700B",
" . c #5B730C",
".. c #5F790F",
"X. c #4F6019",
"o. c #536811",
"O. c #5A6F11",
"+. c #52641C",
"@. c #58641F",
"#. c #5B6B1C",
"$. c #5D7413",
"%. c #60770E",
"&. c #667E0D",
"*. c #637514",
"=. c #697E15",
"-. c #687F1B",
";. c #4A4A2B",
":. c #4C5424",
">. c #52582A",
",. c #4C4633",
"<. c #4F4B34",
"1. c #4C413E",
"2. c #51433F",
"3. c #5C443A",
"4. c #55493F",
"5. c #535933",
"6. c #7D4A2D",
"7. c #6C4534",
"8. c #794933",
"9. c #7F4E3A",
"0. c #7A5131",
"q. c #5B6927",
"w. c #5F7423",
"e. c #4E4341",
"r. c #4B4E42",
"t. c #4A4A48",
"y. c #524643",
"u. c #534945",
"i. c #584A47",
"p. c #564B49",
"a. c #5A4E4B",
"s. c #5B524D",
"d. c #5D5650",
"f. c #5F5852",
"g. c #615953",
"h. c #655E58",
"j. c #69625D",
"k. c #6C6660",
"l. c #6D6F6C",
"z. c #726B65",
"x. c #766F69",
"c. c #74726D",
"v. c #78736C",
"b. c #7D7872",
"n. c #797B78",
"m. c #993F1D",
"M. c #953F22",
"N. c #8E441F",
"B. c #9C431C",
"V. c #98461C",
"C. c #A9421F",
"Z. c #88462B",
"A. c #954524",
"S. c #9C4523",
"D. c #9B4D27",
"F. c #964629",
"G. c #934A2E",
"H. c #9B492A",
"J. c #97512F",
"K. c #854C34",
"L. c #9B4932",
"P. c #984B3B",
"I. c #81553A",
"U. c #A24B2D",
"Y. c #B15D2F",
"T. c #B45F38",
"R. c #B76535",
"E. c #BD6935",
"W. c #B3633A",
"Q. c #BC6B3C",
"!. c #C3633D",
"~. c #8D4642",
"^. c #835848",
"/. c #875451",
"(. c #9A6A54",
"). c #AB644C",
"_. c #B66043",
"`. c #BE6443",
"'. c #B56B46",
"]. c #B46E4D",
"[. c #A2754E",
"{. c #A17258",
"}. c #807B75",
"|. c #837E78",
" X c #C26843",
".X c #6A820F",
"XX c #6F8716",
"oX c #728A14",
"OX c #758E19",
"+X c #798F1B",
"@X c #7B9317",
"#X c #86817B",
"$X c #88847E",
/* pixels */
"1.e.e.e.e.e.e.1.r 1.t.s.e.u.e.1.e.y.r H H L L 1.G 1.J ,.L w K e.e.e.y.e.e.e.e.L r e.e.p.e.t.1.1.y.y.r r K L 1.L H 1.H L L 8 L e.",
"e.e.e.y.u.u.1.1.e.1.r 7 e.8 w H G r w w r r y.H w 1.H H K K H e.e.e.2.y.i.y.K e.e.1.K 7 e.w w H H w w w w r 4.r w 1.L H L H H e.",
"e.e.e.e.u.i.u.1.&.X.r OX5 1.L K r G r r G w H K L L y.J r $.;.H e.e 2 2 u.u.u.e.&._ r +X5 1.L K w H r r r 7 H K L L 4.L G $.;.G ",
"H L y.i.u.1.1.1./ ( ` ..H K 1.1.H r L J L K u.H L L y.q _ r e.1.= p p * ; A e.1.) _ `  .H K 1.1.H G J K 1.1.p.H 1.L 1.1 ) H 1.e.",
"1.y.L i.i.H +.U | y.*.5 y.J 1.1.H L G H K f.b.v.8 ' ' I XXr y.- a p p # V 7.. : | y.*.4 4.K 1.L H L G H K g.b.b.7 ' ' : XXG y.e.",
"y.y.y.i.i.;.r oXK ` :.w w H K K L e.e.e.w j.v.oX5 : 5 / $.r + p g t ; P ).(.. *.H Q >.9 w K J L 1.e.e.e.r h.v.oX5 : 7 / | r L e.",
"L p.y.L r ' _ ' w 5 > w J 7 y.w { K 1.K H ' H ] E +X8 Q 5   o p d h # G.I.O >.[ 9 7 > w K 8 y.w { K L K H ' G ' E +X7 Q 7 e.L y.",
"y.p.p.y.U H s.v.c.j.e.q w w G G XXQ w } 8 u.p.e.Y w | H r   o # s * ; - X G s.v.x.j.1.0 w w G G XXQ r { 8 u.p.1.^ 0  .H H y.y.u.",
"1.1.7 =.8 w g.d.s.y.H z.G 8 5 R 5 E 8 XX6 u.u.a.:.E ,.Y o 9.{.I.j # # t # O e.s.s.y.H z.H 7 7 U 5 E w -.7 u.u.p.:.E <.Q r r e.y.",
"8 Q > 5 r 8 5 u.y.K w f.u.8 3 r K 1.e.1.K H a.} r /     X E.R.R.W._.].# ].W.o H y.K w f.u.7 > G K K e.1.L H a.| r / y.e.w.3 5 8 ",
"8 5 8 G G r G r 8 4 G > 5 J y.K 1.1.G H K r p.u.e.e.i.1.N C.Q.S.c c V.T.!.R.8.  8 4 r 3 5 J y.K 1.y.r H H H u.i.1.e.i.e.e.G H 8 ",
"G 8 r G G 8 H H w K H 8 G G 1.H H H H r |.r K 1.1.1.e.1.% B. XB.n m.A.W. XH.# 6 r H H 9 G G 1.G H G H G #Xr H 1.e.1.L e.y.G 7 8 ",
"7 G w G G 8 J H L J G ! G G K H r G $X|.x.p.r 1.1.1.e.1.N Q.Y.T.S._.`.V.P.~.F H L H G ! G G H H r G $X|.z.a.r e.1.K 1.1.1.G w w ",
"G G G G r H H H L w 5 q.G G G H H r k.j.d.H 1.` K r .X7 6.E.E.f M '.W.A.# H H H J r 5 q.G G H H H r k.j.d.J ,.Q K r .X8 7 L 8 w ",
"G G G H H H w e.1.L ' } w G G 1.L H u.p.H W 4 ) ' | R Q /.`.!.K.# O O O @ H 8 e.e.1.' } r G G L 1.H y.p.H / 4 ) ]  .U Q {  .w w ",
"G H H H r w e.e.e.( $.@Xw 0 H G H H 5 8 3 r 1.s.u.1.` X.oXm J.W.[.X o X o r e.e.e.( $.+X8 8 H H H G 5 8 3 G 1.s.4.K ' +.oX8 w r ",
"G G H K r ,.K K | 9 r ` w >.1.5 8 W 9 7 7 G H 2.2.y.J $.: Q X X & 3.# f d % K 1.| 8 w ' w >.1.7 8 W 8 5 8 G J 1.2.4.L ..: Q 5 8 ",
"w w w w r r 8 r OX{ #.3 r e.1.K L 1.E / | H L L H y.1.2.2.2.# # s u c ].).~.$ r OX{ #.> w 1.1.J L L / /  .G J 1.G 4.1.1.2.y.G 8 ",
"H J J J y.L 1.1.< { oXr G L i.1.L 1.i./ w H J H H L L L L 2.% C % Z.c i F.y K.$ < { oXG H 1.u.1.1.1.i.^ w G K H H L L L L y.G 7 ",
"H G J J 1.1.1.H oX_ 5 w H r 1.y.J H H o.0 } H H J J L L G # L.B.D.Z % L.U.S.A.N oXX.7 w H w 1.u.K H G o.0 } H H H H L L G L L H ",
"G G r H H K n.r.%.( / H G H L H H 7 1.q.U ) l.l.H K L L L # Z.F.F.B j # L.M.D.N.o ( ^ G G H K H H 5 1.q.E ) c.l.H H L L L L L G ",
"9 r r G G 8 9 +.O.q.+.w G G r H H 8 L J R 8 5.t.H r e.K 1.S G.B.D.O X D M.S.G.K.) q.@.w G G w H H 8 J K R 9 5.t.K r 1.L L L 8 G ",
"w w w w w w =.b.$Xv.a.G w w H G r K L H L K ] H H K L   ^.B.Q.0.O g v t % # =.}.$Xc.a.w w w G G r K 1.H K H ] G H H H H L H w 8 ",
"8 8 8 #.w r H z.j.f.K H r H J 8 H 1.w 2.J 1.oXH H H o j u # o   X t i k O G G z.j.d.,.J G J L w H 1.w 1.L L OXJ H H L G L H G y.",
"1.y.r T OX5 8 g.s.y.7 G r G G y.H G 1.J G J K ! r H O l Z V , # h M m Y OX4 w f.s.t.5 H G G G 2.H G L H G H K ! G H K K K 7 u.e.",
"e.K r 3 ^ / U G G > 5 w H r G G G K ,.w w 8 7 G I H O t x $ O b v % G 3 E / R G H 3 5 w G G G H H H J G w w 8 G : H H 1.e.6 K y.",
"r e.r 3 Q ' { ^ 5 / X.8 J w H G G H H K H H G H 5 J # l # C v f p e.G 3 Q ' { / 6 / _ 6 J 8 H G G G H H H H G H 7 H H H H H G w ",
"r K 1.1.<.w .X~ K r K H H 7 G H G G H H G H H H L G p N O o h M s H 1.1.<.r &.~ K r K K H 7 G G G H H H G H H G J G H r H -.] G ",
"t.e.e.p.K K 8 r K L K K e.K r c.c.G J 8 U G H L % a b x p o.,.a k e.e.u.K K 8 G K K K K L K G v.v.G ,.7 R H K L H Q : / {  .y.G ",
"e.e.e.a.t.K Y q K 1.e.e.e.1.e.u.y.U } XX: 8 r 8 w y.X o k z   5 e.e.e.d.t.H Y q K e.e.e.e.e.e.u.y.U } .XI w G 5 w L } w I L w 7 ",
"e.e.e.t.e.e.@.X.1.K K K e.u.6 8 8 1.K 8 / w r L L y.w G 9 w K 1.e.e.e.e.e.e.O.+.K K K 1.y.u.7 8 7 e.H 8 / w w L 1.1.r r 0 w L K ",
"e.e.K e.e.e.K K e.e.e.e.u.p.p.e.i.p.K w H H H G H 8 L L K w 1.1.e.e.1.e.e.e.K H 1.e.e.e.u.p.u.e.y.a.L r H H K r H w L L K w K e."
};
