/* XPM */
static char *m_r_01722079349[] = {
/* columns rows colors chars-per-pixel */
"64 32 201 2 ",
"   c #0C0000",
".  c #0C0800",
"X  c #130100",
"o  c #1B0000",
"O  c #130008",
"+  c #1B010A",
"@  c #230000",
"#  c #2C0000",
"$  c #29020B",
"%  c #3C0704",
"&  c #2E1E0F",
"*  c #3D1100",
"=  c #3A190A",
"-  c #270319",
";  c #3E0D10",
":  c #391A14",
">  c #3A210D",
",  c #333D0D",
"<  c #252412",
"1  c #2C231F",
"2  c #3E2119",
"3  c #312D1E",
"4  c #393A1E",
"5  c #2D2522",
"6  c #312725",
"7  c #332926",
"8  c #362C29",
"9  c #392E2B",
"0  c #3A3425",
"q  c #3B312D",
"w  c #363A29",
"e  c #3D382B",
"r  c #3E3431",
"t  c #450C00",
"y  c #4D0C00",
"u  c #540F03",
"i  c #5C0E03",
"p  c #4C1801",
"a  c #441609",
"s  c #4B150B",
"d  c #521303",
"f  c #5C1201",
"g  c #581B0D",
"h  c #491A15",
"j  c #640E00",
"k  c #6B1C00",
"l  c #4A280D",
"z  c #462113",
"x  c #5B2817",
"c  c #5D2C1A",
"v  c #4D3712",
"b  c #5A3219",
"n  c #652605",
"m  c #6B2302",
"M  c #6A250D",
"N  c #742304",
"B  c #742B0C",
"V  c #792A0B",
"C  c #662717",
"Z  c #652A14",
"A  c #6E2812",
"S  c #61321B",
"D  c #6B3318",
"F  c #421A22",
"G  c #40312F",
"H  c #413633",
"J  c #443936",
"K  c #483A37",
"L  c #463C39",
"P  c #493E3A",
"I  c #35410E",
"U  c #3A460F",
"Y  c #3E4C0A",
"T  c #3A5204",
"R  c #3F5B02",
"E  c #3A4611",
"W  c #3D4A12",
"Q  c #445706",
"!  c #445E03",
"~  c #495D06",
"^  c #4C5D0C",
"/  c #404E14",
"(  c #4B4D1E",
")  c #445215",
"_  c #4A5915",
"`  c #49531D",
"'  c #4C5C19",
"]  c #515B1C",
"[  c #476104",
"{  c #4B6505",
"}  c #4E610C",
"|  c #506506",
" . c #516807",
".. c #52650C",
"X. c #546B09",
"o. c #57700B",
"O. c #5C740C",
"+. c #5F790F",
"@. c #4F6019",
"#. c #536811",
"$. c #5A6F11",
"%. c #51631C",
"&. c #58641E",
"*. c #5A6C1E",
"=. c #5D7413",
"-. c #61770E",
";. c #667E0C",
":. c #617512",
">. c #697E14",
",. c #697E19",
"<. c #4B4C2B",
"1. c #4C5424",
"2. c #53592F",
"3. c #444233",
"4. c #4F4B35",
"5. c #4C413E",
"6. c #50433F",
"7. c #58453C",
"8. c #72462F",
"9. c #784C38",
"0. c #7E513A",
"q. c #5B6826",
"w. c #5F7423",
"e. c #717F24",
"r. c #4E4341",
"t. c #4B4E42",
"y. c #4A4A48",
"u. c #524643",
"i. c #544945",
"p. c #584A47",
"a. c #564B49",
"s. c #594D4A",
"d. c #5B524D",
"f. c #5E5550",
"g. c #5F5852",
"h. c #6C594A",
"j. c #7B5542",
"k. c #615954",
"l. c #655E58",
"z. c #69625D",
"x. c #6D6661",
"c. c #6D6F6C",
"v. c #726B65",
"b. c #766F69",
"n. c #74726D",
"m. c #78736C",
"M. c #7D7872",
"N. c #797B78",
"B. c #943E1C",
"V. c #9E3E1A",
"C. c #9D3D27",
"Z. c #8C431A",
"A. c #954516",
"S. c #93451E",
"D. c #9B431C",
"F. c #A0441D",
"G. c #884527",
"H. c #834B2B",
"J. c #8B4A2D",
"K. c #934624",
"L. c #9C4A23",
"P. c #984827",
"I. c #93462B",
"U. c #844533",
"Y. c #824937",
"T. c #8C4B32",
"R. c #844A3F",
"E. c #82523D",
"W. c #BF5F2D",
"Q. c #B65C3A",
"!. c #BC632E",
"~. c #AC603C",
"^. c #B56436",
"/. c #BD6736",
"(. c #BA6A37",
"). c #B3643C",
"_. c #BC653A",
"`. c #C36A3D",
"'. c #CB7037",
"]. c #825343",
"[. c #9E6B5C",
"{. c #A66646",
"}. c #AA6942",
"|. c #B26543",
" X c #B76D41",
".X c #BA6A42",
"XX c #B66748",
"oX c #B8694A",
"OX c #AB6E57",
"+X c #B46C53",
"@X c #A8765B",
"#X c #B37159",
"$X c #807B75",
"%X c #837E78",
"&X c #69820F",
"*X c #6E8417",
"=X c #728A14",
"-X c #758E1A",
";X c #798F1B",
":X c #7B9317",
">X c #88847E",
/* pixels */
"5.r.r.r.r.r.r.P r 5.y.s.5.i.r.5.r.u.r r L P 5.3.J 6.J P P 9 J r.r.r.r.r.r.r.r.P r 5.y.a.r.i.5.5.r.r.r H J P P P J u.J P P 9 P 5.",
"r.r.r.u.i.i.5.5.r.5.L 8 r.8 q L H r q q q r u.r r P P J P P P r.r.r.r.r.p.r.P r.r.5.J 8 r.8 q J L e q q e r u.r q P P J P J J r.",
"r.r.r.r.u.i.p.r.;.@.r -X8 5.5.r X     9 J 8 J P P P 6.P r :.<.H P r.r.r.i.u.a.r.;.@.r :X8 5.P J q J r q r 8 J P P P 6.P r =.<.J ",
"J P u.p.p.5.r.P ) ' [ O.J L + s u d s : X r a.L 5.P 6.4 ` J 5.r.J r.r.p.u.r.r.5.) ' [ O.L L 5.5.J H P J 5.5.a.L 5.P u.4 ' J 5.5.",
"5.u.P i.s.K %.I o.i.=.7 u.+ h g d h X c o   N.m.9 { { I *Xr u.r.5.u.P u.s.J %.I X.u.:.8 u.J 5.P J P r L L g.M.m.9 { { I >.H u.r.",
"r.u.u.i.i.<.e =XP [ 1.q q X h i u # C +Xo O m.=X6 , 7 ) +.r P P u.u.i.u.i.<.e =XL [ 1.q q J P K P u.r.5.e z.m.=X5 , 7 / =.r P 5.",
"P p.i.5.H { ' | 9 7 5 q X > y s * v 8.E.r { r X.W ;X8 ! 8 5.P u.P i.i.r.r { @.{ q 8 1 q P 8 i.e X.L 5.P H { r { W ;X8 ! 9 5.5.u.",
"i.p.i.r.U H f.m.b.z.r.o X 2 o @ = X h._ 6 p.a.5./ 0 O.H K r.u.a.u.p.a.r.Y J f.m.n.z.5.0 q q H r *XQ q X.8 i.s.r.Y q O.J K r.r.p.",
"5.5.8 >.q q k.d.d.$ S 9.E.X X X O @ R.Y.h o a.a.1.W 4.! q H 5.u.P 5.8 >.r q f.f.d.i.J v.J 8 8 U 7 W q ,.8 a.a.a.1.W 4.[ q r y.u.",
"9 ! 1 8 q q 6 p.o U.)._.).d @ o @ }.K.(.{.j.p.o.r ) u.r.w.6 8 8 q Q 1 8 9 q 5 a.i.J q g.i.8 1 H L P r.P P J s.o.r ) i.r.w.5 8 8 ",
"9 6 9 H H q H 9 p k L.B.i K.D.!.`.D.m D.I.x u.i.r.r.i.r.5.H J 8 9 6 q G H r r q 8 5 r 5 7 L 6.L 5.r.H J J H a.i.r.r.u.r.5.H J 9 ",
"G q q H J q X v Q.).A. XI.P.`.!.`.I.B Q.% g r 5.5.r.5.5.i.H 8 9 H 9 e H H r J J r P J 8 H H 5.J J J J r >Xq J 5.r.r.5.5.u.H 8 9 ",
"9 H e H H 8 Z S.V.Q.XXK.D._.Q.F.D.V N m A C r r.P P r.5.5.G e q 9 H G H H q J K P P H ~ H J L J r H >X%Xb.a.r r.P 5.5.5.P H G q ",
"e r H H 9 @ }.).D.m 6 ] S T.A P.K.m H.Z M t J ! P r &X9 8 5.q q q H G H e H J J P q 6 q.H H H H J r x.z.f.J P [ L r &X8 8 P 9 e ",
"H H H J J r n ^..XY.} } X X X o o o X H.{.#X& . ^ X.I R { O.8 r H H J J J J q r.5.5.{ X.r J H 5.5.J u.i.L Q 6 ` } O.U !  .O.9 q ",
"H H J J H q X l @XX &.e.              9 o o 3.< @XOX[.j.- 9 q H H H J J H q r.r.r._ =.:X9 8 H J H J 7 8 5 H 5.d.6.P { %.=X8 q H ",
"H J J K H J P P   P ].# oX!.'.).D o J.9.7 H L P X o b 9., ! 6 9 H H J L r J P P o.9 r { q 2.5.8 8 ! 8 8 8 H L 5.6.6.5.+., ! 6 9 ",
"r q 9 H H r 9 r *Xo I.|.B..X^./.|.0.~..Xo H P P J 7.5.5.u.P H q q r 9 q H r 8 H -X| *.5 q 6.P P 5.5.W ) o.J P 5.H 7.5.5.5.6.H q ",
"J J P J u.P 5.5.3 Q B ^.|.j |.!.(.G.|.W.0.o K J L L P P K 5.H 9 J P P J u.P 5.6.3  .=Xr H P i.P P 5.p.) q J J J J L P P P 6.H 9 ",
"J H J J 5.5.P J =X' 5 X N D.`.(.}.].J.A.m A J J L J P P H P P K J H P J 5.5.5.H =X' 8 q J H r.i.P J H #.0 X.J J L P P P H P P J ",
"H H r J J J N.t.+._ E o I.L.V.}.H.Y.P.L.D.XX$ c.P J P P P 5.P r H H r L J K N.t.+.) ) H H J J J J 8 5.q.W ) n.c.J J P P P 5.P G ",
"8 H H H H q w %.$.q.%.9 T.P.C.H.@ 8 # V F.S.@ y.J r 5.P P 5.8 r 8 G H e H 9 w %.O.q.%.r H H r J L 7 K P E 9 2.y.J r r.P P P 9 e ",
"q q e q e 9 >.$X>Xx.o c L.L.K.o G H @ oXXX#X^ H J J J J 5.r r q q q q e e 9 >.$X>Xn.d.q q 9 H H r L L H P J } J J J J P P J r q ",
"8 9 8 q.9 H H v.l.X # [.Z.{.@ 9 J o o @ @ # =XJ J J P e 5.L r r.8 9 8 q.9 H J v.z.g.P J e P P q L 5.e 5.P 5.-XJ J J J H P J r u.",
"5.u.q T -X6 9 k.O = C u # o r u.J X s C S ; J ~ r J L P P 7 a.r.5.u.q T -X7 q g.d.r.8 J r r J 6.H H 5.L H L L ~ H J L L L 8 a.r.",
"5.P r 5 / ) U H X y f n o H H H J o * i x @ 8 H , J J P 5.8 P r.5.P r 5 W W W r J 1 7 e J r H H H H 5.G q q 8 H , J J L 5.8 L r.",
"r r.J 5 !  ...W p g @ 8 L 9 K H r J H t S @ K J 8 P J K L J r r J r.r 5 !  ...W 7 ) 1.8 K q J H H J J J J J H J 8 L J K J J H q ",
"r L r.P 4.q -.@ M a K H J 7 H J H J H f Z @ H r L r r r r ,...r J P r.P 4.q &X} L r P r J 8 H H H J H L H H J H L H J r J ,...H ",
"r.y.r.i.L L t A f o P L r.r r m.m.H K u B y @ P L Q , ) X.O.r.r 5.r.r.i.3.L 8 r L L 5.L r.J r m.m.e P 8 E J J P P R I ) ..O.5.H ",
"r.r.y.d.y.r o s a z : X r.y.r.i.u.U X z h ; x c F + X.q I P r 7 r.r.r.d.y.L Y w P P 5.y.r.r.r.i.i.Y X.&X, q r 8 q 5.X.8 I P r 8 ",
"r.r.r.r.r.r.*.' P J J L i.i.8 9 8 5.H 9 ( H G P r.u.r H 0 q P P r.r.r.r.y.r.=.%.P L P P u.u.7 9 8 r.J q ) e q 5.P 5.r r 0 9 J P ",
"5.r.P r.r.r.J L r.r.r.r.r.a.a.5.p.a.P r J J J H J 9 P J J q P r.5.r.P r.r.5.P J 5.r.r.r.i.a.a.5.a.s.P q H L J r P 8 L P P r P r."
};
