/* XPM */
static char *m_r_41722079350[] = {
/* columns rows colors chars-per-pixel */
"64 32 198 2 ",
"   c #0C0000",
".  c #0C0800",
"X  c #130100",
"o  c #1B0000",
"O  c #130008",
"+  c #1B010A",
"@  c #230000",
"#  c #2C0000",
"$  c #29020B",
"%  c #3C0704",
"&  c #2E1E0F",
"*  c #3D1100",
"=  c #3A190A",
"-  c #270319",
";  c #3E0D10",
":  c #391A14",
">  c #3A210D",
",  c #333D0D",
"<  c #252412",
"1  c #2C231F",
"2  c #312D1E",
"3  c #393A1E",
"4  c #2D2522",
"5  c #312725",
"6  c #332926",
"7  c #362C29",
"8  c #392E2B",
"9  c #383721",
"0  c #3A3425",
"q  c #3B312D",
"w  c #363A29",
"e  c #3D382B",
"r  c #3E3431",
"t  c #450C00",
"y  c #540F03",
"u  c #5C0E03",
"i  c #4C1204",
"p  c #4C1801",
"a  c #441609",
"s  c #4B150B",
"d  c #521303",
"f  c #5C1201",
"g  c #581B0D",
"h  c #491A15",
"j  c #640E00",
"k  c #6B1C00",
"l  c #4A280D",
"z  c #462113",
"x  c #5B2817",
"c  c #5D2C1A",
"v  c #4D3712",
"b  c #5A3219",
"n  c #652605",
"m  c #6B2302",
"M  c #6A250D",
"N  c #672B0B",
"B  c #742304",
"V  c #742B0C",
"C  c #792A0B",
"Z  c #662717",
"A  c #652A14",
"S  c #6E2812",
"D  c #61321B",
"F  c #6B3318",
"G  c #421A22",
"H  c #572B20",
"J  c #40312F",
"K  c #413633",
"L  c #443936",
"P  c #483A37",
"I  c #463C39",
"U  c #493E3A",
"Y  c #35410E",
"T  c #3A460F",
"R  c #3E4C0A",
"E  c #3A5204",
"W  c #3F5B02",
"Q  c #3A4611",
"!  c #3D4A12",
"~  c #445706",
"^  c #445E03",
"/  c #495D06",
"(  c #4C5D0C",
")  c #404E14",
"_  c #4B4D1E",
"`  c #445215",
"'  c #4A5915",
"]  c #49531D",
"[  c #4C5C19",
"{  c #515B1C",
"}  c #476104",
"|  c #4B6505",
" . c #4E610C",
".. c #506506",
"X. c #516807",
"o. c #52650C",
"O. c #546B09",
"+. c #57700B",
"@. c #5C740C",
"#. c #5F790F",
"$. c #4F6019",
"%. c #536811",
"&. c #5A6F11",
"*. c #51631C",
"=. c #58641E",
"-. c #5A6C1E",
";. c #5D7413",
":. c #667E0C",
">. c #617512",
",. c #697E14",
"<. c #697E19",
"1. c #4B4C2B",
"2. c #4C5424",
"3. c #53592F",
"4. c #444233",
"5. c #4F4B35",
"6. c #4C413E",
"7. c #50433F",
"8. c #58453C",
"9. c #72462F",
"0. c #784C38",
"q. c #7E513A",
"w. c #5B6826",
"e. c #5F7423",
"r. c #717F24",
"t. c #4E4341",
"y. c #4B4E42",
"u. c #4A4A48",
"i. c #524643",
"p. c #544945",
"a. c #584A47",
"s. c #564B49",
"d. c #594D4A",
"f. c #5B524D",
"g. c #5E5550",
"h. c #5F5852",
"j. c #6C594A",
"k. c #7B5542",
"l. c #615954",
"z. c #655E58",
"x. c #69625D",
"c. c #6D6661",
"v. c #6D6F6C",
"b. c #726B65",
"n. c #766F69",
"m. c #78736C",
"M. c #7D7872",
"N. c #797B78",
"B. c #943E1C",
"V. c #9E3E1A",
"C. c #8C431A",
"Z. c #954516",
"A. c #9A4617",
"S. c #93451E",
"D. c #9B431C",
"F. c #A0441D",
"G. c #834B2B",
"H. c #8B4A2D",
"J. c #934624",
"K. c #9C4A23",
"L. c #984827",
"P. c #93462B",
"I. c #844533",
"U. c #824937",
"Y. c #8C4B32",
"T. c #844A3F",
"R. c #BF5F2D",
"E. c #B65C3A",
"W. c #BC632E",
"Q. c #AC603C",
"!. c #B56436",
"~. c #BD6736",
"^. c #BA6A37",
"/. c #B3643C",
"(. c #BC653A",
"). c #C36A3D",
"_. c #CB7037",
"`. c #825343",
"'. c #9E6B5C",
"]. c #A66646",
"[. c #AA6942",
"{. c #B26543",
"}. c #B76D41",
"|. c #BA6A42",
" X c #B66748",
".X c #B8694A",
"XX c #AB6E57",
"oX c #B46C53",
"OX c #A8765B",
"+X c #B37159",
"@X c #69820F",
"#X c #6E8417",
"$X c #728A14",
"%X c #758E1A",
"&X c #798F1B",
"*X c #7B9317",
"=X c #86817B",
"-X c #88847E",
/* pixels */
"6.t.t.t.t.t.t.U r 6.u.d.6.p.t.6.t.i.r L L U 6.4.L 7.L U U 8 I 6.t.t.t.t.i.t.t.U r 6.u.d.t.p.t.6.t.t.r K L U U U L 7.L U U 8 I t.",
"t.t.t.i.p.p.6.6.t.6.I 7 t.7 q I K r r 7 q K t.L r U U P U U I t.t.t.t.t.s.i.U t.6.6.L 6 t.7 q L L r q q q L i.K e U U P U I I t.",
"t.t.t.t.i.p.a.t.:.$.r %X6 6.6.I q L q r L 7 L L 6.P 7.P K >.1.L 6.t.t.t.i.s.s.t.@X$.r %X6 t.U K O     q L 7 L U U U i.P r >.1.r ",
"L U i.a.a.6.t.U ` [ } @.L L 6.6.L r U U 6.L d.I U 6.i.3 ] K 6.6.I t.6.i.a.6.t.U ` [ | @.I 4.+ s y i i :   r s.I U U i.3 ] K 6.6.",
"6.i.U p.d.P *.Y O.p.>.6 i.L 6.6.I U r L I h.M.m.7 | | Y ,.r i.6.6.i.6.i.s.L *.Y O.t.;.5 i.+ h g i h o c X   M.m.8 } | Y #XK i.t.",
"t.i.i.p.p.1.e $XU } 2.q q L U 4.6.t.t.6.e x.m.%X5 Y 6 ` ;.r U 6.i.i.i.i.p.1.e $XU } 3.q q o G f u @ Z oXo O m.$X5 Y 6 ` ;.r 6.6.",
"U a.p.6.K | [ ..q 6 1 e L 7 i.q X.I U U L | r  .! &X7 ^ q 6.6.i.6.i.a.6.r | $.| 8 6 4 r X > i d * v 9.U.K | K ..! &X7 ^ 7 6.6.t.",
"p.a.p.t.T K g.m.n.x.6.0 q q K K #X^ q O.7 p.s.t.R 0 @.L I t.t.s.i.a.p.t.R I f.m.n.x.t.o   z o @ = X j.( 5 a.d.U R q @.L L i.t.a.",
"6.6.7 ,.q q l.f.f.p.L b.L 7 6 Q 6 ! q #X6 i.s.d.2.) 5.^ q K 6.i.6.U 8 ,.q q l.f.f.$ b 0.T.X X X X @ `.U.a o s.d.2.! 5.} 8 r t.t.",
"q ^ 1 7 q q 6 s.p.L q l.p.7 4 r U L t.6.U I d.+.r ` i.t.e.5 7 7 8 ^ 4 7 q q 5 a.o I.(.(.!.d @ o @ [.J.^.].`.s.O.r ` i.t.e.6 7 7 ",
"7 5 8 K r q K q 7 4 K 4 6 L i.U 6.6.L L r r s.t.t.t.p.t.6.K P 8 8 5 8 e K q J 8 p k K.B.j J.D.(.).S.k D.P.x i.s.t.t.s.t.6.L I 7 ",
"J q r K K q I K r I L 7 K K 6.L L L L r -Xr I t.t.6.6.t.i.K 6 8 K 8 r K L q o v E./.S.}.P.J.).W.).P.V /.% g K 6.6.6.6.6.t.L 7 7 ",
"8 K e K r 8 I P U L K / L L L L r L -X=Xb.d.r 7.U U t.U 6.K e q 8 J q K K 6 x S.V.E..XJ.V.(.(.D.D.C B m S c r t.4.6.t.6.6.r e q ",
"e r K K q L L L U r 6 w.r L K L L r x.x.h.L U } I r @X8 6 6.8 q e K K K q @ [./.D.n 5 { D Y.M P.J.m G.Z M t I ^ U r @X8 7 6.8 q ",
"K K K L U I 7 t.6.6...O.e K L L 6.L i.s.P ~ 5 ]  .+.Q W | @.8 e K K K L L r N !.|.U... .X o X X o o X G.{.XX& . ' O.Q W X.@.q q ",
"K K L L r q t.t.t.' &.*X8 q K L L r 6 8 4 r 6.f.p.U | *.%X8 8 q K K L I K 8 X l OXX =.r.X           X 8 o X 4.< XX+X'.0.- 7 q r ",
"K L L L K I U U +.q e } q 3.U 6 8 ~ 7 6 7 r L 6.6.7.6.#., ^ 5 q L L L L r I U U X 8.k.# .XR._./.F o Y.0.7 K P U o @ b 9., ^ 5 q ",
"q q 8 K K r 7 r %XX.-.4 q 6.7.4.U 7.` ` @.I 6.6.L 7.6.6.7.7.K q q q q r L r 6 r ,.X H./.B. X^.~.{.q.Q.}.o K U U K i.6.6.t.i.K q ",
"I P U L i.U 6.6.6 X.$XK K 6.i.6.U U a.! q P L L L U U U U 6.K q L U 6.K t.U 6.7.2 ~ V Q.{.j {.W./.B.(.W.q.o L L P 6.P U U 6.K 8 ",
"L K L L 7.U 6.L $X[ 6 8 L J 6.p.U L L %.3 +.K K L I U U J 6.6.K L q L P 6.6.6.L $X[ 5 X V A.^.(.].`.H.Z.B Z L L P P 4.U K U U P ",
"K K r K L P N.y.#.` ` K K L I L L 7 6.w.Q ] v.v.L U U U U 6.U r K L e K L L N.y.>.' ! o P.K.F.{.G.U.L.K.K..X$ v.I I U P U U U K ",
"7 K K K K 8 w *.&.w.*.e K K r I L 7 U P Q 7 3.u.I q 6.U U U 7 r 8 J K K r q w *.@.w.*.8 Y.L.L.H.@ 6 # C F.C.@ u.L r 6.U U U 8 r ",
"q e e q e 8 ,.M.-Xm.f.q q q K K L L U K U L  .L L L L U 6.L r r q q q r r 8 <.M.-Xc.o x S.K.J.@ r K @ .X{.+X( L L L I I 6.K r 8 ",
"6 8 7 w.8 K L b.x.h.U P r I U 8 K 6.r 6.U 6.$XU L L I r U L r t.7 8 7 -.8 K K b.z.X @ XXC.[.o 8 L o o @ @ # $XP L L I K U L r i.",
"t.i.r E %X4 q h.f.t.6 L r K K i.L L 6.P K U L / r L I U I 6 s.t.6.i.8 E %X6 8 h.O = Z d # X J i.L X s Z H a I ^ r I I U I 8 s.6.",
"U U r 4 ! ` T L L 1 6 e L r K K L L U e 8 q 8 K , L K U 6.6 U t.t.U r 4 ! ! ! r o t f n o K K K L o t u Z @ 6 L , K K U U 8 I t.",
"r t.K 4 ^ X.X.` 6 ` [ 7 P 8 I r r L L L L L L L 6 U K I L I r r I t.r 4 ^ X.O.! p g @ 8 P q L K r L K t c @ L K 6 U K I K I K q ",
"r I 6.6.5.8 @X( L r U L I 6 K I K L L L K L K K U K K r L <.X.r r U t.6.5.r #.@ M a I r L 6 K L K L K d A # L K U K K K I <.o.r ",
"u.t.t.s.I I 6 r U U I I t.r r m.m.K U 7 T L L U I ^ , ` O.@.6.r 6.t.t.u.U I * S u @ 6.I U I K m.m.K L y V d @ P U ^ Y ` X.;.6.r ",
"t.t.t.f.u.I R 9 U 6.6.t.u.t.t.i.i.T O.@X, 8 K 6 q U X.q Y U r 6 t.t.t.f.t.r + s a : : O t.t.t.i.t.T X z h ; x H G + O.7 Y U r 6 ",
"t.t.t.t.u.t.-.w.U r 6.6.i.i.7 8 7 6.I q ` e r U U 6.r K 0 q U U t.t.t.t.t.t.&.{ I L I I i.s.6 8 6 t.K 8 _ K q U U t.r r 0 8 U U ",
"t.t.I t.t.6.K I t.t.t.t.i.s.s.t.a.s.U q L L I r I 8 U U U q I t.t.t.6.t.t.6.I U 6.t.t.t.t.s.s.t.s.d.U r L L I r U 7 U U U q U t."
};
