/* XPM */
static char *m_r_31722079349[] = {
/* columns rows colors chars-per-pixel */
"64 32 193 2 ",
"   c #060000",
".  c #0C0101",
"X  c #140000",
"o  c #1B0001",
"O  c #1C000B",
"+  c #240000",
"@  c #2B0000",
"#  c #27000B",
"$  c #320000",
"%  c #3B1103",
"&  c #3E180A",
"*  c #270110",
"=  c #3E0C15",
"-  c #271E17",
";  c #3D1815",
":  c #341C19",
">  c #333E0D",
",  c #2C231E",
"<  c #312D1E",
"1  c #393A1E",
"2  c #2D2422",
"3  c #302725",
"4  c #332926",
"5  c #362C29",
"6  c #382E2B",
"7  c #353524",
"8  c #3A3425",
"9  c #3B3C20",
"0  c #3B312D",
"q  c #3D382B",
"w  c #3E3431",
"e  c #440C00",
"r  c #540D00",
"t  c #451706",
"y  c #4A1305",
"u  c #451B04",
"i  c #44140A",
"p  c #491509",
"a  c #4B1B0D",
"s  c #531402",
"d  c #5D1203",
"f  c #491412",
"g  c #441914",
"h  c #4C1D11",
"j  c #600D00",
"k  c #631000",
"l  c #781E02",
"z  c #58250E",
"x  c #552511",
"c  c #5C2615",
"v  c #5C2B1A",
"b  c #692707",
"n  c #652A0C",
"m  c #732404",
"M  c #7A2804",
"N  c #73250D",
"B  c #79290C",
"V  c #652513",
"C  c #612914",
"Z  c #682618",
"A  c #732912",
"S  c #653519",
"D  c #592B22",
"F  c #553020",
"G  c #413633",
"H  c #443936",
"J  c #483A37",
"K  c #463C39",
"L  c #493E3B",
"P  c #6A3120",
"I  c #35410E",
"U  c #3A460E",
"Y  c #3E4D0A",
"T  c #3A5204",
"R  c #3F5B02",
"E  c #394511",
"W  c #3D4A12",
"Q  c #435D03",
"!  c #485C09",
"~  c #404E14",
"^  c #445215",
"/  c #495917",
"(  c #46531A",
")  c #4C531F",
"_  c #4C5D19",
"`  c #476104",
"'  c #4B6405",
"]  c #4D620B",
"[  c #506506",
"{  c #516807",
"}  c #52650C",
"|  c #536C09",
" . c #57700B",
".. c #5B730C",
"X. c #5F790F",
"o. c #4F6019",
"O. c #536811",
"+. c #5A6F11",
"@. c #52641C",
"#. c #5B6C1D",
"$. c #5D7512",
"%. c #60770E",
"&. c #667E0D",
"*. c #617512",
"=. c #697E14",
"-. c #697F1A",
";. c #4B4C2B",
":. c #4B5223",
">. c #52582A",
",. c #494337",
"<. c #4F4B35",
"1. c #4C413E",
"2. c #51433F",
"3. c #55493F",
"4. c #535933",
"5. c #764932",
"6. c #7E4B34",
"7. c #79553C",
"8. c #5B6A27",
"9. c #5F7423",
"0. c #4E4341",
"q. c #4A4A48",
"w. c #524643",
"e. c #544945",
"r. c #584A47",
"t. c #564B49",
"y. c #5A4D4A",
"u. c #5A524C",
"i. c #5D5650",
"p. c #5F5852",
"a. c #7D5343",
"s. c #615953",
"d. c #655E58",
"f. c #69625D",
"g. c #6D6662",
"h. c #6D6F6C",
"j. c #726B65",
"k. c #776C67",
"l. c #74726D",
"z. c #79736D",
"x. c #7D7872",
"c. c #797B78",
"v. c #903D1D",
"b. c #993E21",
"n. c #8C481B",
"m. c #954716",
"M. c #94461B",
"N. c #8F462C",
"B. c #89492D",
"V. c #954523",
"C. c #9B4523",
"Z. c #9E4A24",
"A. c #94462A",
"S. c #964A29",
"D. c #86502E",
"F. c #834C31",
"G. c #85493A",
"H. c #914E34",
"J. c #91493B",
"K. c #81513D",
"L. c #A04D2B",
"P. c #B45C35",
"I. c #BF5E34",
"U. c #B2672E",
"Y. c #AB623B",
"T. c #B46535",
"R. c #BE6635",
"E. c #B46836",
"W. c #BD6B33",
"Q. c #BC653D",
"!. c #B9683C",
"~. c #C0622F",
"^. c #C76439",
"/. c #A26743",
"(. c #AA6943",
"). c #B36745",
"_. c #B56C45",
"`. c #B4644D",
"'. c #B96949",
"]. c #AF714C",
"[. c #A66852",
"{. c #A77354",
"}. c #997567",
"|. c #837E78",
" X c #B46C60",
".X c #69820F",
"XX c #6F8715",
"oX c #728B14",
"OX c #768E1A",
"+X c #798F1B",
"@X c #7B9317",
"#X c #86817B",
"$X c #88847E",
/* pixels */
"1.0.0.0.0.0.0.L H 1.q.u.0.e.0.1.0.w.w G H L ,.K H 2.H L L 0 K 1.1.0.0.0.w.0.0.L H L 0.t.0.e.w.L 0.0.w G H L L L H 1.H L L 6 L 0.",
"0.0.0.w.e.w.L 0.0.1.w 5 0.6 0 H G w w 6 0 G w.G w L L K K K K 0.0.0.0.0.e.w.L 0.0.1.K 6 0.6 0 H H w 0 0 0 w w.G q L J J J K K 0.",
"0.0.0.0.w.r.t.0.%.o.w OX4 1.L K 6 H w w G 6 H L L L 2.L w *.;.G 0.0.0.w.w.t.t.0.&._ w OX5 1.L K 6 H q w H 6 H K L L w.L w $.;.G ",
"H L w.r.e.1.w.L ( / ` X.H K 1.1.K w K K 1.K t.H L K 3.1 :.G 1.0.H 0.0.e.e.L 0.L ^ + t z i g L 1.K G J K 1.,.t.H L L w.1 ) H 1.1.",
"1.w.L e.y.K @.I  .e.*.4 w.K 1.L K L w H L p.x.z.6 ' ' I XXw e.0.1.w.1.w.y.K @.I + e s s t X o L K L G H K p.x.z.6 ' ' > XXH 0.0.",
"0.w.w.w.e.;.q oXK ` :.0 0 K K L 1.0.0.0.w d.z.oX3 > 4 ^ $.w L L w.w.w.r.e.;.q oXh r s p o S v L L 0.0.0.w d.z.oX2 > 5 ^  .w L 0.",
"L r.e.1.w ' _ [ 0 4 , 0 J 6 3.0 { H L L H ` H ] W +X4 Q 6 L L w.L r.w.1.G ! _ : u y g o [.N.X 0 | H L 1.G ' G ] W +X6 Q 6 L L w.",
"e.r.r.0.Y G u.z.l.f.0.8 0 6 G q XXQ w | 6 e.t.1.~ 8 ..H H w.w.t.w.e.r.0.Y G   - h e i + o @ O G XXQ 6 | 5 t.t.0.~ 0  .H J w.0.t.",
"1.L 5 =.6 0 s.i.u.e.H g.H 6 4 E 5 W 0 .X5 t.t.y.:.W <.Q 0 G 1.3.L L 6 =.6 . .   X X + p s y . E 4 W 0 -.4 t.t.t.) W <.` 0 w 0.w.",
"6 Q , 6 0 0 3 t.w.H w p.e.5 2 w K K 1.1.1.H y.| w ( w.0.9.2 5 5 0 Q 2 4 6 x B.E.'.n.6.5.& @ 7.+ K K 0.1.L H y. .w ^ e.0.9.2 4 6 ",
"6 4 6 G G w G 0 6 3 G , 4 L w.K 1.1.G H w w t.e.0.0.w.0.0.G H 6 6 4 6 G o A.Q.^.C.l C.M.E.Y.E.F.+ 0.G H H G r.e.1.0.w.0.1.G H 6 ",
"G 6 0 G H 6 K G w H H 6 w G 1.H H H H G #Xw K 1.0.1.0.1.w.G 4 0 G 0 0 + z V.V.m.M j M m C.V.M.+ H K H w #Xw H 1.1.0.1.0.w.G 5 0 ",
"6 G G G G 6 J H L J G ! G H H H w G $X|.j.y.w 3.K L 0.1.1.G 0 0 6 G + H.).Q.Q._.V.m M Q.^.P.F.+ w G $X|.k.t.q 1.L 1.0.,.1.w w 0 ",
"0 G G G 0 H H H L 0 4 8.G G H H H q g.f.i.H K Q K H .X6 4 1.0 0 0 G K.W.R.V.N.+ b B C.Q.m.!.F.+ H w f.f.i.H 1.` K w .X6 6 L 6 0 ",
"G G G G H K 0 1.1.L { | q G G L 1.G 3.t.K ^ 4 ) |  .E R { ..6 0 G G c E.I.C 0 1.% x /.]./.{.F.F.+ + e.t.H ^ 4 ) ]  .U R { ..6 0 ",
"G H H H w 0 0.w.0./ +.@X6 6 H G K G 4 5 , G 1.y.w.K ` @.oX6 0 G G G + D.(.7.X 0.    , , w.g.,._.}.[.6.+ 2 G L u.3.L ' @.oX6 0 w ",
"G G H H G H L L  .6 w ' 0 >.1.5 6 Q 6 4 6 G K 1.2.2.L X.> Q 3 6 G H H H + 2.k.. . v P.E.).'.X 5 6 v a.* 5 G H L 2.2.L %.> Q 3 0 ",
"0 0 6 G G q 6 w oX{ #.2 q 1.1.L L L ~ (  .H L 1.G 3.1.1.L 2.G 0 0 0 6 G w X X F.+ A E.U._.R.].H L L ^ ^  .H L 2.H w.1.1.2.2.G 6 ",
"J K L H w.L 1.2.< { oXG G L w.1.L L t.~ 0 H J H K L L L L 2.G 6 K J L H w.L i E./.S n.R.~.^.W.o K L e.^ 0 H H H J L L L L 2.G 6 ",
"H G H H 1.1.1.G oX_ 4 6 K w 1.w.J K G O.<  .G H H K L L G L L J G G H K 1.1.P r N S $ H.P.L.Z.S.V H H O.7 | H H J J L K G L 1.H ",
"G G w H H L c.3.%./ ~ G G G K K H 5 L 8.Y ( l.h.K K L L L L L w G G q G H b T.l C.N @ w G.N.v.b.`.o L 8.W ( l.h.K K L L L L L G ",
"6 w G w G 6 7 o.+.8.@.G G G w K H 5 L J E 6 4.q.K 0 1.L L L 6 w 6 G G + o n.T.Z.B.+ @.w w + B ).S.@ L H E 6 4.q.K 0 1.L L L 0 0 ",
"0 q 0 0 w 0 .Xc.$Xl.y.w 6 w G G G J L H L J ] G H H H K 1.H w 0 w X ; F.`.`. Xz.$Xz.y.w 0 w J.Y.B.G.X H L J ] H H H H K 1.H w 0 ",
"5 6 7 8.6 w H j.g.i.K J w K L 6 H 1.G L L 1.oXK H H K G L H w w.6 f Z s r D + j.f.i.L H w K Z @ @ u X 2.L L oXJ H H H G L G w w.",
"L w.0 T OX2 0 s.u.w.5 G w G G 2.H G 1.H G J H ! w H K L K 5 t.1.1.s k n D 2 6 s.i.w.5 w w w + s Z e g H G L J ! G H H L K 5 t.0.",
"0.L w 2 W ^ E G G , 4 q K G G G H H L G 6 6 6 G I H H K 1.5 L 0.o d N X W / E G q , 3 w H G G h C r V X 6 0 4 G > G H L L 5 K 0.",
"w 0.w 2 Q { { ^ 4 / o.6 J 6 K G G H G H H H H H 5 J G K H H G + k ; O , Q | | ~ 4 ( :.5 L 6 H G G i r t + H H G 6 K G K H H G w ",
"w K 1.0.<.w &.! H w K G G 5 G H G H H H G H H G L G G w H -.' u m X 1.1.<.0 .X! K w 1.w H 6 G G G o a b C G H H J G G G G -.} w ",
"q.0.0.t.K K 6 w L L K w 0.K w z.z.G J 6 I H K L K Q > ^ |  .= m m g o q.K L 5 w K K L K 0.H G l.z.G o n b p X L K Q I ^ | $.1.G ",
"0.0.0.u.q.K Y 8 K 1.0.0.0.0.0.e.3.U | XX> 0 w 5 0 L | 0 I L w # + i F O 0.K Y 9 K 1.0.0.0.0.0.e.w.E O & i o X 4 0 K | 0 I L 0 5 ",
"0.0.0.0.q.0.#.@.1.w 1.1.q.t.4 5 5 0.H 6 ^ 0 q J L 1.w w 8 0 K L 0.0.0.0.0.0.+.@.1.K K 1.w.e.5 6 5 0.H 6 ~ 0 q L L 1.w w 8 0 K L ",
"0.0.K 0.0.1.K H 1.0.0.0.w.t.t.0.e.t.L 0 H H K G K 6 L L L 0 K 0.0.0.1.0.0.0.K K 1.0.0.0.0.t.e.0.e.t.L w H H K G H 6 L K K 0 L 0."
};
