/* XPM */
static char *mr_od_11722079352[] = {
/* columns rows colors chars-per-pixel */
"64 32 199 2 ",
"   c #000000",
".  c #0C0101",
"X  c #140100",
"o  c #1C0000",
"O  c #15000B",
"+  c #1F000D",
"@  c #001106",
"#  c #160014",
"$  c #1B0018",
"%  c #240000",
"&  c #2C0002",
"*  c #24000E",
"=  c #380000",
"-  c #2F1A05",
";  c #3D1B08",
":  c #361A17",
">  c #343E0D",
",  c #2C231F",
"<  c #382A17",
"1  c #371921",
"2  c #2D2522",
"3  c #302725",
"4  c #332926",
"5  c #362C29",
"6  c #392E2B",
"7  c #3A3825",
"8  c #3B312D",
"9  c #3E3431",
"0  c #490900",
"q  c #540B00",
"w  c #5A0D03",
"e  c #4F1402",
"r  c #461608",
"t  c #45140B",
"y  c #40190D",
"u  c #541405",
"i  c #5D1100",
"p  c #431C12",
"a  c #411F1D",
"s  c #511313",
"d  c #57290B",
"f  c #582713",
"g  c #463517",
"h  c #52331E",
"j  c #682608",
"k  c #792704",
"l  c #672914",
"z  c #61311D",
"x  c #733016",
"c  c #503325",
"v  c #413633",
"b  c #4F3030",
"n  c #443936",
"m  c #483A37",
"M  c #463C39",
"N  c #493E3B",
"B  c #672922",
"V  c #36410E",
"C  c #3A460E",
"Z  c #3D4C08",
"A  c #3D5703",
"S  c #394511",
"D  c #3D4A13",
"F  c #435D02",
"G  c #475B08",
"H  c #445215",
"J  c #495917",
"K  c #46531A",
"L  c #4C5D19",
"P  c #476104",
"I  c #4B6405",
"U  c #516806",
"Y  c #536C09",
"T  c #5C740C",
"R  c #5F790F",
"E  c #4F6019",
"W  c #5A6F11",
"Q  c #566618",
"!  c #51641C",
"~  c #5A6C1E",
"^  c #5D7413",
"/  c #60770E",
"(  c #667E0C",
")  c #697E14",
"_  c #697E18",
"`  c #4B4C2B",
"'  c #4E5826",
"]  c #52582A",
"[  c #4F4B34",
"{  c #4C413E",
"}  c #50433F",
"|  c #575C35",
" . c #79452D",
".. c #7E502E",
"X. c #774C32",
"o. c #765736",
"O. c #5B6927",
"+. c #5F7423",
"@. c #4D3E41",
"#. c #4E4341",
"$. c #4B4E42",
"%. c #524643",
"&. c #544945",
"*. c #564B49",
"=. c #584D4A",
"-. c #5B524D",
";. c #5F5751",
":. c #6B524D",
">. c #655353",
",. c #605953",
"<. c #69625D",
"1. c #755D63",
"2. c #736964",
"3. c #76726B",
"4. c #73716C",
"5. c #78736D",
"6. c #903E0E",
"7. c #97451D",
"8. c #9B421D",
"9. c #8B4826",
"0. c #8C4529",
"q. c #9B4325",
"w. c #994627",
"e. c #8B4437",
"r. c #934833",
"t. c #8B5338",
"y. c #A34B29",
"u. c #B56A29",
"i. c #AA6634",
"p. c #B56433",
"a. c #BA6737",
"s. c #BA653C",
"d. c #B5683D",
"f. c #C2753D",
"g. c #854C44",
"h. c #B65F43",
"j. c #866C4D",
"k. c #8E704E",
"l. c #9B7859",
"z. c #9B7C5B",
"x. c #AB6A46",
"c. c #B66444",
"v. c #BB6443",
"b. c #B4674A",
"n. c #A96B55",
"m. c #AD7153",
"M. c #9A7F64",
"N. c #C16A42",
"B. c #6C830F",
"V. c #718914",
"C. c #758E1A",
"Z. c #798F1B",
"A. c #9C825E",
"S. c #A0825E",
"D. c #9F8461",
"F. c #978169",
"G. c #9C856A",
"H. c #88847E",
"J. c #9A8D75",
"K. c #9D927C",
"L. c #A38665",
"P. c #A2896B",
"I. c #A69176",
"U. c #AC957C",
"Y. c #AC987D",
"T. c #B1987A",
"R. c #AC9C84",
"E. c #B4A48D",
"W. c #BCA58D",
"Q. c #B8A88F",
"!. c #AFA99B",
"~. c #B6A691",
"^. c #BAA691",
"/. c #B4A991",
"(. c #BBAA95",
"). c #B2AA9D",
"_. c #BBAD99",
"`. c #BFB099",
"'. c #B8B2A5",
"]. c #BCB6AA",
"[. c #BFB9AD",
"{. c #C3AB95",
"}. c #C4AE9A",
"|. c #C2B19C",
" X c #C9B29C",
".X c #C5B5A2",
"XX c #C8B6A2",
"oX c #C7B8A5",
"OX c #CBB9A5",
"+X c #C4BAAC",
"@X c #CCBCAA",
"#X c #D1BEAE",
"$X c #C4BDB2",
"%X c #CFC6A7",
"&X c #D4C3B4",
"*X c #D8C6B6",
"=X c #DAC9BA",
"-X c #E3D9BE",
";X c #DDD8C5",
/* pixels */
"{ #.#.#.#.#.#.{ v { $.=.#.*.#.#.#.%.9 v M N N N n { M m N 8 M N #.%.#.#.%.#.#.N 9 #.#.=.#.&.#.#.#.$.9 n M m N N n { n { m 8 M { ",
"#.#.#.%.&.&.{ { #.N n 5 #.5 8 v n 9 8 6 8 v %.v { . . 1.N M M #.#.#.#.#.&.%.N #.#.{ n 5 #.8 8 n v 9 8 5 8 v %.n 8 N m m m M M { ",
"#.#.#.#.&.&.*.{ ( E 9 C.5 { N n 8 n 9 9 v 6 n . r e e t : | ` n #.#.#.{ &.&.*.#.( L 9 C.4 #.&X&X#XOX%X9 n 6 M M N N } N n R ` v ",
"n { %.&.&.{ } m H L P T n M { { v v N m { M O t e e t o B o @.N n @.%.%.&.{ #.N K L P ;X+X@X@X@X@XOX.X|._.-X*.n { N %.7 L v #.{ ",
"{ %.N %.=.m Q V Y %./ 4 %.M { N M N 9 n M ,.o u 0 ; X 0.n.o %.{ { %.} %.=.M ! S Y %.=XP..Xl.D.A.M.M.L.z._.j.#X5.6 I I > ) 9 %.#.",
"%.%.%.&.&.` v V.N P ' 8 8 n M N N %.#.#.8 # % u w % X.0.n.9 N { %.%.%.%.%.` 7 V.n &X&XF.A.              S.M.#X%X3 > 3 K T 9 N #.",
"N *.&.@.v F E U 8 4 , 8 m 5 %.8 U v { { O .   p X y t :   @.{ %.N %.%.#.8 P ! I %X#XD.                      L.@XOXZ.5 F 6 { N %.",
"%.%.&.%.H v -.5.3.<.{ 7 8 8 v v V.F 8 Y o X.n.d X & 0 ; o X #.*.%.*.*.#.Z n ,.}.OXL.                          L..X.XT n n %.#.*.",
"} N 5 ) 6 8 ,.;.-.&.n 2.v 5 5 S 4 C 8 # e.c.u.u.9.b.x.% i...N %.N N 6 ) 6 8 ,..X Xz.                          z.}.}.[ F 9 9 #.%.",
"6 F , 5 8 8 3 &.%.n 8 ,.&.6 2 9 n { } $ r.s.a.7.i 8.8.d.p.v.& 5 v F 3 5 8 8 _.&Xo.                              M.*XK.#.+.2 5 5 ",
"6 3 6 v n 8 9 8 6 3 9 , 3 { %.M { } v n w 8.a.v.j q.s.a.b.d v 5 5 3 5 v n 8  XP.j.                              F.G.J.#.#.v v 5 ",
"v 8 8 v n 6 M n 9 n M 5 8 v { n n n v v e.N.p.a.k d.p.y.w.o 5 6 v 6 v v v 6 E.R.k.                              G.~.!.{ %.n 5 8 ",
"6 v 8 v v 6 n m N n n G v n n n v v H.H.f m.s.w.i a.a.b.x 9 9 6 5 v v v v 5 E.~.l.                              P.E.!.{ N n 8 8 ",
"8 v v v 9 n n n N 9 5 Q v n v n v v <.<.& e.d.u.a.t.% o + { 5 9 v v v v v n Q./.z.                              P.W.).5 5 N 6 8 ",
"v v n n n M 8 #.{ N U Y 8 v v { { v %.*.N J o 9.x.o < . . R 6 n v v v v v m W.(.z.                              I.W.).P U T 6 8 ",
"v v n n 9 8 #.#.#.J T Z.8 8 n v n n 4 5 , v X f % p - X n.t.g.& v v n m v 8 Q.(.z.                              I.W.'.Q V.6 8 9 ",
"v n n m v M { M T 6 9 P 8 ] { 4 6 A 8 5 5 v o p.a.v.c.j X X g.s v v n m v M _.(.z.                              U.^.'.R > F 3 6 ",
"8 8 5 v v 8 5 9 C.U ~ 2 8 #.{ { { { D H T 9 * a.y.N.p.b.h #.n 6 8 8 8 8 v 8 _.`.z.                              U.{.].} N %.v v ",
"m m M n } N { } < U V.v 9 { &.{ m { &.H 8 M * r.b.u.u.p.c.N v 6 M m { n } { |.`.z.                              U.{.].N N %.v 5 ",
"n v M M { { { n V.L 5 6 n 9 { %.{ v v Y 7 Y v % l h.y.8.f.+ N m n v n M { { |.`.z.                              Y.{.].N v N N n ",
"9 n 9 n n m 5.$./ J H v n n n n n 5 { O.C K 4.c X 0.y.0.k X N v v v 8 n n m |..Xz.                              U.}.+XN N N N v ",
"7 9 9 9 v 8 7 ! W O.! 8 9 n 9 M n 5 N m C 5 |   f = w.w.6.. 5 9 5 v v v 8 8 |.OXz.                              Y.}.[.N N N 5 v ",
"8 8 8 8 9 8 B.5.H.5.-.8 6 8 v v v M N n N M '   X l. .o.. M 9 8 8 8 7 9 8 8 .XoXz.                              R. X+XM N n v 6 ",
"5 8 5 O.8 9 M 4.<.;.N n v M N 6 n { 8 { N {   y l q u 1 @.M 9 #.5 6 6 ~ 8 9 XXoXz.                              T. X$Xv N v v %.",
"{ #.8 A C.4 7 ;.;.$.5 n 9 n v %.n v { n n m   z i l t @.M 5 *.#.{ %.8 A V.4 +X@Xz.                              U. X$XN N 5 =.#.",
"{ N 9 2 D D S 9 9 2 3 8 n 9 v v n n m v 6 6 @ t x y X N N 4 N #.#.N 9 2 D D OXoXz.                              U. X$Xm N 5 m %.",
"M #.9 2 F U Y D 3 H ! 5 M 6 n n v n n M n n . j l g . M n n n 6 n #.9 2 P U oX&Xz.                              Y.*XK.v n n n 6 ",
"9 9 @.#.[ 6 B.E M n N v n 4 n n v v n n v N a j u c X 9 n _ U n v N #.@.[ 8 |.T.z.~.~.~././.^././.^.^././.E.~.E.U.{.J.v n _ U v ",
"#.#.#.$.@.M 8 9 M N N n @.9 9 4.3.v N 5 S X u k j o : 3.U T N v #.#.#.&.M { 5 9 ].*X*X=X=X=X=X=X*X*X&X&X&X&XOXOXOXF > H U ^ { v ",
"#.#.#.-.#.M A 7 N { #.#.%.#.#.&.%.Z Y B.> 8 v . X < : X 1 b 9 5 #.#.#.-.#.n A 7 M #.@.#.$.#.{ &.%.C Y B.> 8 9 5 9 N Y 8 > N 9 5 ",
"#.#.#.#.#.#.! ! N n M N &.*.4 5 6 { M 8 H 8 8 { N >.1.2.:.6 N N #.#.#.#.#.#.W ! N n N @.&.&.4 5 5 #.n 8 H 8 8 N N #.9 9 7 8 M N ",
"#.#.#.#.#.#.M 9 #.#.#.#.%.*.*.#.&.=.M 8 n n M v M 6 M m m 8 N #.#.#.@.#.#.#.N n @.#.#.#.#.*.*.{ *.=.N 8 n M n 9 M 5 N M M 6 N #."
};
