/* XPM */
static char *mr_od_01722079351[] = {
/* columns rows colors chars-per-pixel */
"64 32 210 2 ",
"   c black",
".  c #0C0000",
"X  c #0C0800",
"o  c #130100",
"O  c #1B0000",
"+  c #130008",
"@  c #1B010A",
"#  c #230000",
"$  c #2C0000",
"%  c #29020B",
"&  c #3C0704",
"*  c #2E1E0F",
"=  c #3D1100",
"-  c #3A190A",
";  c #270319",
":  c #3E0D10",
">  c #391A14",
",  c #3A210D",
"<  c #333D0D",
"1  c #292419",
"2  c #393A1E",
"3  c #2D2522",
"4  c #312725",
"5  c #342927",
"6  c #362C29",
"7  c #392E2B",
"8  c #3A3425",
"9  c #3B312D",
"0  c #3B3A28",
"q  c #3E3431",
"w  c #450C00",
"e  c #4D0C00",
"r  c #540F03",
"t  c #5C0E03",
"y  c #461507",
"u  c #4C1801",
"i  c #4B150B",
"p  c #521303",
"a  c #5C1201",
"s  c #581B0D",
"d  c #491A15",
"f  c #640E00",
"g  c #6B1C00",
"h  c #462113",
"j  c #5B2817",
"k  c #5D2C1A",
"l  c #4C3010",
"z  c #5A3219",
"x  c #6B2302",
"c  c #67280A",
"v  c #762809",
"b  c #662717",
"n  c #652A14",
"m  c #6E2812",
"M  c #64321A",
"N  c #421A22",
"B  c #572B20",
"V  c #40312F",
"C  c #413633",
"Z  c #443936",
"A  c #463B39",
"S  c #493E3B",
"D  c #35410E",
"F  c #3A460F",
"G  c #3D4C0A",
"H  c #3D5703",
"J  c #3B4611",
"K  c #3E4B13",
"L  c #435E02",
"P  c #4A5A0A",
"I  c #464E19",
"U  c #445316",
"Y  c #4C5914",
"T  c #4B5C19",
"R  c #515B1C",
"E  c #4C6505",
"W  c #4C6109",
"Q  c #506506",
"!  c #516806",
"~  c #546B0A",
"^  c #5B750D",
"/  c #5C740D",
"(  c #4F6019",
")  c #51641C",
"_  c #596A1E",
"`  c #5D7711",
"'  c #61770E",
"]  c #657D0C",
"[  c #617512",
"{  c #697E14",
"}  c #697E18",
"|  c #4B4C2B",
" . c #4C5424",
".. c #444233",
"X. c #4F4B35",
"o. c #4C413E",
"O. c #51433F",
"+. c #5B4039",
"@. c #72462F",
"#. c #784C38",
"$. c #7A5537",
"%. c #5A6624",
"&. c #5F7423",
"*. c #717F24",
"=. c #4E4341",
"-. c #4B4C45",
";. c #524643",
":. c #544946",
">. c #564B49",
",. c #584D4A",
"<. c #5C534D",
"1. c #5E5550",
"2. c #745746",
"3. c #615954",
"4. c #69625D",
"5. c #6E6A67",
"6. c #746D67",
"7. c #79736D",
"8. c #7B7A75",
"9. c #993E1B",
"0. c #9D3D27",
"q. c #8C431A",
"w. c #954516",
"e. c #9A4617",
"r. c #93451E",
"t. c #9B431C",
"y. c #A0441D",
"u. c #884527",
"i. c #834B2B",
"p. c #8B4A2D",
"a. c #934624",
"s. c #9C4A23",
"d. c #984827",
"f. c #93462B",
"g. c #824937",
"h. c #874937",
"j. c #82523D",
"k. c #BF5F2D",
"l. c #B65C3A",
"z. c #BC632E",
"x. c #AC603C",
"c. c #B96736",
"v. c #B3643C",
"b. c #BC653A",
"n. c #C36A3D",
"m. c #CB7037",
"M. c #825343",
"N. c #866C4D",
"B. c #8E704E",
"V. c #9E6B5C",
"C. c #997B57",
"Z. c #9B7C5B",
"A. c #A66646",
"S. c #AA6942",
"D. c #B26543",
"F. c #B76945",
"G. c #BA6A42",
"H. c #B8694A",
"J. c #AB6E57",
"K. c #B07158",
"L. c #9A7F64",
"P. c #6A820F",
"I. c #6C8017",
"U. c #728A14",
"Y. c #768E1A",
"T. c #798F1B",
"R. c #9C825E",
"E. c #9F8461",
"W. c #978169",
"Q. c #9C856A",
"!. c #9A8D75",
"~. c #A38665",
"^. c #A2896B",
"/. c #A69176",
"(. c #AC957C",
"). c #AC987D",
"_. c #B1987A",
"`. c #AC9C84",
"'. c #B4A48D",
"]. c #BCA58D",
"[. c #B8A88F",
"{. c #AFA99B",
"}. c #B6A691",
"|. c #BAA691",
" X c #B4A991",
".X c #BBAA95",
"XX c #B2AA9D",
"oX c #BBAD99",
"OX c #BFB099",
"+X c #B4AEA0",
"@X c #BBB5A9",
"#X c #BCB6AA",
"$X c #C3AB95",
"%X c #C4AE9A",
"&X c #C2B19C",
"*X c #C9B29C",
"=X c #C5B5A2",
"-X c #C8B6A2",
";X c #C7B8A5",
":X c #CBB9A5",
">X c #C3B7AA",
",X c #CCBCAA",
"<X c #D1BEAE",
"1X c #C4BDB2",
"2X c #CFC6A7",
"3X c #D4C3B4",
"4X c #D8C6B6",
"5X c #DAC9BA",
"6X c #E3D9BE",
"7X c #DDD8C5",
/* pixels */
"o.=.=.=.;.=.=.S C S :.,.=.-.=.=.=.;.q Z Z S S S Z o.Z A S 7 A o.o.=.=.=.=.=.=.S q =.=.,.=.-.=.=.=.-.q C S S S S Z o.Z o.S 9 A O.",
"=.=.=.;.:.;.S =.=.o.q 6 =.6 9 Z Z q 9 7 9 C :.q 9 o.S A A A A =.=.=.=.=.>.:.S o.=.o.A 6 =.7 7 A q q 9 9 9 q =.C 9 o.A A Z A A o.",
"o.=.=.=.:.:.>.;.] ( q Y.6 o.S C o . . 9 C 6 Z S A o.O.S q [ | C =.=.=.=.;.>.>.;.] T q Y.5 =.3X3X<X:X2X9 C 7 Z S o.A O.A C ' | Z ",
"Z o.;.:.:.S ;.S U T E ^ Z S @ i e p i > o q ,.Z o.o.O.2 T Z o.;.Z =.=.:.>.o.o.S U Y E 7X,X,X,X,X,X;X;X&XOX6X>.Z S o.O.2 T C o.o.",
"o.;.S ;.,.Z ) D ~ =.' 5 ;.@ d s i d o k o . 8.7.6 E E D { C :.S S ;.S :.>.Z ) < ^ =.4X^.-XC.E.R.L.Z.~.Z.oXB.3X7.6 E E < { C ;.o.",
";.;.:.:.:.| 0 U.S E  .9 9 o d t a # b H.O + 7.U.4 < 4 U ` q S S ;.;.:.:.:.| C U.Z 3X3XW.R.              E.L.<X,X4 < 5 I ` q S =.",
"S :.:.o.C E Y E 9 5 3 9 + , e i = l @.j.C E q ! U Y.5 L 7 o.S ;.S :.:.o.q E ( E ,X3XE.                      ~.,X:XT.6 L 7 S S ;.",
":.:.:.;.I V <.7.7.4.o.+ o h O # - o 2.Y 4 >.>.o.G 8 / Z Z ;.;.>.;.:.:.;.G Z <.&X;X~.                          ~.-X=X[ Z Z ;.;.>.",
"S o.6 { 9 9 1.1.,.% z #.j.o o O o # h.#.y O :.,. .K X.L 9 C o.;.S S 7 { 7 9 3.=X&XZ.                          Z.&XoXX.E 7 q =.;.",
"q L 1 6 q 0 4 >.O g.b.v.v.p # O # D.d.F.A.M.:.^ q U ;.=.&.4 6 6 V L 3 5 9 7 oX4X$.                              L.4X!.=.&.3 5 7 ",
"7 4 7 C q q C 7 u g s.9.t a.e.c.n.a.g e.f.j ;.:.=.=.:.=.o.C Z 6 7 4 7 C C C &X^.N.                              W.Q.!.=.=.Z A 6 ",
"C 7 q C C 7 O l l.v.w.G.f.s.b.z.n.f.v v.& s q =.o.=.o.=.;.C 6 8 C 7 9 Z Z 7 '.`.B.                              Q.[.{.o.=.q 6 7 ",
"7 C q C C 6 n r.9.l.H.d.t.b.l.y.t.v v x m b q =.S S =.S o.q 9 9 6 C C V C 8 '.}.C.                              ^.'.{.o.o.q q 9 ",
"9 q C C 9 O S.v.t.x 4 R M p.m f.a.x u.n c w Z L S q P.7 5 o.9 9 V C C C 9 Z }.}.Z.                              ^.].XX6 6 S 9 9 ",
"C C C Z Z q c v.n.g.P W o o o O O O o i.D.J.* X W ~ D H ! / 7 9 C C C Z Z Z |..XZ.                              /.].XXE ! / 6 9 ",
"C Z Z Z q 7 o l J.o _ *.. . . . . . . 9 O + ..1 J.K.V.2.; 6 9 C C C Z Z C 9 .X.XZ.                              /.].+X) U.7 9 C ",
"C C Z A C Z S S o +.2.# H.k.m.v.M O p.@.6 Z Z S O O k @.< L 4 7 C Z A Z q Z .XoXZ.                              (.$X@X[ < L 4 7 ",
"9 9 8 C C 9 6 C I.o p.b.9.G.c.c.D.j.x.F.O C S o.C :.o.o.o.;.C 9 9 9 9 9 C q %XoXZ.                              /.$X@XO.S O.q q ",
"A A A Z ;.S o.O.1 P v v.D.f D.z.c.u.D.k.j.O A Z Z S S S S o.C 7 Z A o.Z ;.o.&X&XZ.                              ).$X#XS S ;.C 6 ",
"Z C Z A O.o.S Z U.( 3 o v w.n.c.D.M.p.w.x m C Z Z S S S C o.o.Z Z C Z Z o.o.oXOXZ.                              ).$X#XS C S o.Z ",
"C C q Z Z Z 8.-.` U K o f.s.t.v.i.h.f.s.t.H.% 5.S S Z S S S S q C C V Z Z ..&X-XZ.                              ).%X#XS S S S C ",
"6 C q C V 9 0 ) ) %.) 9 h.d.0.i.# 6 $ v y.w.# -.Z q o...S o.6 q 6 C V C q 7 &X:XZ.                              ).$X1XS S S 7 9 ",
"9 9 9 q 9 9 } 8.`.3.O k s.s.a.O q Z # H.D.K.Y q Z Z Z S o.q q 9 9 9 9 0 9 9 *X;XZ.                              `.*X1XZ o.C q 9 ",
"6 9 6 _ 0 q C 6.3.o # V.q.S.# 7 Z O O # $ $ Y...Z Z Z q o.Z q =.6 9 7 _ 9 q ;X;XZ.                              _.*X1XC S Z q ;.",
"o.=.9 H Y.4 9 3.. y b e $ O q =.C o i b k : S L q C Z S S 5 >.=.o.;.7 H Y.5 >X,XZ.                              `.*X1XS S 7 >.=.",
"o.S q 3 K U F q o e a c O q C Z Z O = t k # 6 Z < A Z S o.5 S =.o.S q 3 J K :X;XC.                              _.%X1XS S 5 Z ;.",
"A =.q 3 L ! ~ K u s # 6 Z 7 A A q Z C w k # Z Z 6 A Z Z A A q q Z =.q 3 L ! ;X3XZ.                              (.3X!.A Z Z C 9 ",
"q A S =.X.9 ' # m y Z Z A 5 q q C Z C a c $ Z C S q Z q q } ! q Z A =.o.X.0 &X_.Z.}.}.}. X X.X}. X|.[. X X'.'.'.).$X!.C Z } Q C ",
"=.=.=.-.A A w m a O o.A o.q q 7.7.C Z r v p # S Z P < U ~ ^ =.q =.=.=.:.S A 6 q @X4X4X5X5X5X5X5X4X3X4X3X3X<X,X,X>XL < U ~ [ S C ",
"=.=.=.<.-.q O y y , > o =.=.=.:.;.F o h d : j B N @ ~ 9 D Z q 5 =.=.=.,.=.A G 0 o.=.o.=.-.o.=.:.:.F ~ P.D 9 q 6 9 S ~ 9 < S q 6 ",
"=.=.=.=.;.=._  .o.q A A >.>.5 7 6 o.C 7 I C V S S ;.q q 8 9 S S =.=.=.=.=.=.^ ) o.q S S :.:.5 6 6 o.Z 9 U 9 9 A o.o.q q 8 7 Z S ",
"=.=.A =.=.=.A A =.=.=.=.=.>.>.=.:.,.S q Z A Z C Z 7 S S S 9 A =.=.=.=.=.=.=.A A o.=.=.;.=.>.>.=.:.,.S 9 Z A Z C Z 9 S S Z q S =."
};
