/* XPM */
static char *mr_od_31722079352[] = {
/* columns rows colors chars-per-pixel */
"64 32 201 2 ",
"   c #000000",
".  c #0C0101",
"X  c #140000",
"o  c #1B0001",
"O  c #1C000B",
"+  c #240000",
"@  c #2B0000",
"#  c #27000D",
"$  c #320000",
"%  c #3B1103",
"&  c #3E180A",
"*  c #331516",
"=  c #381A17",
"-  c #333E0D",
";  c #2C231F",
":  c #312D1E",
">  c #393A1E",
",  c #2D2422",
"<  c #302725",
"1  c #332926",
"2  c #362C29",
"3  c #382E2B",
"4  c #3A3525",
"5  c #3A3926",
"6  c #3B312D",
"7  c #3E3431",
"8  c #440C00",
"9  c #540D00",
"0  c #4A1305",
"q  c #461907",
"w  c #44140A",
"e  c #491509",
"r  c #531402",
"t  c #5D1203",
"y  c #521E09",
"u  c #491412",
"i  c #481B12",
"p  c #600D00",
"a  c #781E02",
"s  c #58250E",
"d  c #5A2513",
"f  c #5C2B1A",
"g  c #672809",
"h  c #732404",
"j  c #77270A",
"k  c #672616",
"l  c #612914",
"z  c #732912",
"x  c #653519",
"c  c #592B22",
"v  c #553020",
"b  c #413633",
"n  c #443936",
"m  c #483A37",
"M  c #463C39",
"N  c #493E3B",
"B  c #35410E",
"V  c #3A460E",
"C  c #3D4C09",
"Z  c #3D5803",
"A  c #394511",
"S  c #3D4A12",
"D  c #435E03",
"F  c #475B08",
"G  c #404E14",
"H  c #445215",
"J  c #495917",
"K  c #49531D",
"L  c #4C5D1A",
"P  c #476104",
"I  c #4C6405",
"U  c #4E640B",
"Y  c #516806",
"T  c #516509",
"R  c #536B09",
"E  c #5B750D",
"W  c #5C740C",
"Q  c #4F6019",
"!  c #5A6F11",
"~  c #52641C",
"^  c #58691B",
"/  c #5D7512",
"(  c #667E0C",
")  c #617512",
"_  c #697E14",
"`  c #697E19",
"'  c #4B4C2B",
"]  c #4C5424",
"[  c #53592F",
"{  c #494337",
"}  c #4F4B35",
"|  c #4C413E",
" . c #51433F",
".. c #55493F",
"X. c #7B4A33",
"o. c #79553C",
"O. c #5B6927",
"+. c #5F7423",
"@. c #4E4341",
"#. c #4B4C45",
"$. c #524643",
"%. c #544945",
"&. c #584A47",
"*. c #564B49",
"=. c #594D4A",
"-. c #5B524D",
";. c #5E5651",
":. c #7D5343",
">. c #615953",
",. c #655E58",
"<. c #69625D",
"1. c #6D6966",
"2. c #726B65",
"3. c #776C67",
"4. c #74726D",
"5. c #79736D",
"6. c #7B7A75",
"7. c #903D1D",
"8. c #993E21",
"9. c #8C481B",
"0. c #954716",
"q. c #94461B",
"w. c #8F462C",
"e. c #89492D",
"r. c #954523",
"t. c #9B4523",
"y. c #974928",
"u. c #86502E",
"i. c #834C31",
"p. c #85493A",
"a. c #914C36",
"s. c #81513D",
"d. c #A04D2B",
"f. c #BA5D34",
"g. c #B2672E",
"h. c #AF6333",
"j. c #AB623B",
"k. c #B46535",
"l. c #B46836",
"z. c #BB6837",
"x. c #BC653D",
"c. c #C0622F",
"v. c #C76439",
"b. c #887056",
"n. c #9A7C56",
"m. c #9B7C5B",
"M. c #A66843",
"N. c #B56C45",
"B. c #B4644D",
"V. c #B96949",
"C. c #AF714C",
"Z. c #A66852",
"A. c #A77354",
"S. c #997C65",
"D. c #827D77",
"F. c #B46C60",
"G. c #6A820F",
"H. c #6F8715",
"J. c #728A14",
"K. c #768E1A",
"L. c #798F1B",
"P. c #7B9317",
"I. c #9C815E",
"U. c #A0825E",
"Y. c #9C8468",
"T. c #87837D",
"R. c #9A8D75",
"E. c #9D927C",
"W. c #A38869",
"Q. c #A58D73",
"!. c #A69176",
"~. c #AC957C",
"^. c #AC987D",
"/. c #B1987A",
"(. c #AA9A83",
"). c #B3A38C",
"_. c #BCA58D",
"`. c #AFA99B",
"'. c #BAA691",
"]. c #B5A991",
"[. c #B9AA95",
"{. c #B6AA99",
"}. c #BFB099",
"|. c #B4AEA0",
" X c #BBB5A9",
".X c #BCB6AA",
"XX c #C3AB95",
"oX c #C4AE9A",
"OX c #C2B19C",
"+X c #C9B19C",
"@X c #C6B5A3",
"#X c #CBB9A5",
"$X c #C5B7A8",
"%X c #CCBBAA",
"&X c #D1BEAE",
"*X c #C4BDB2",
"=X c #CFC6A7",
"-X c #D4C4B5",
";X c #D8C6B6",
":X c #DAC9BA",
">X c #E3D9BE",
/* pixels */
"| @.@.@.@.@.@.N n N #.=.@.%.@.@.$.$.7 n n N N N n $.n M N 6 M @.@.@.@.@.$.@.@.N 7 @.@.*.@.#.@.@.@.@.7 7 n N N N n | n N m 6 n | ",
"@.@.@.$.*.$.N @.@.| M 2 @.2 3 n b 7 6 3 7 7 $.b 6 { M M M M n @.@.@.@.@.%.$.N @.@.N M 2 @.6 3 n n 7 6 6 7 7 $.b 6 N N M N M n @.",
"@.@.@.@.$.%.*.$.( Q 7 K.2 | N M 3 n 7 7 b 2 n N N N  .N 7 ) { m | @.@.$.$.*.*.@.( Q 7 L.2 | -X-X&X#X=X7 n 2 n M | N  .m 7 ) ' b ",
"n N $.&.&.| @.N H J P E n M | | n b N M { N *.n N N $.> J b | | n @.@.%.&.N @.N J + 0 y w u %X%X%X#X$X}.oX>X=.n N | $.> L b @.@.",
"| $.N %.&.m ~ B R %.) 1 $.M { N n N 7 n M >.6.5.3 I I B _ n %.|  .$.| $.&.n ~ B @ % r r q X o Y.Y.m.Y.I.[.b.=X5.3 P U - ` b $.| ",
"@.$.$.%.&.' 5 J.{ P ] 6 6 n M N | @.@.@.7 ,.5.J.1 - 1 H W b N | $.$.$.$.%.' 7 J.i 9 r e o x f           U.m.%X&X< B 1 H E b N @.",
"N &.%.| 7 U L U 3 2 ; 6 m 2 $.6 Y n | M n I b T G K.1 D 2 N N $.N %.%.@.7 P Q = q 0 i + Z.w.X               W.%X#XL.2 D 3 | N $.",
"%.&.%.@.C b -.5.3.<.@.4 6 6 b b H.D 6 R 2 &.*.@.G 4 W b m $.$.&.$.%.*.@.C 7   ; i 8 w o o @ O                 W.@X@X/ b m $.@.*.",
"| N 2 _ 3 6 >.>.-.%.n 2.b 2 2 A 2 S 3 ` 2 &.*.=.] S } D 6 b | ..N N 2 _ 6 . . . . X + e r 0 .                 m.oXOX} D 6 7 @.$.",
"3 D ; 2 6 3 < *.$.M 7 ;.%.2 , 7 n N @.N N b =.R 7 K $.@.+., 2 2 b D , 1 3 s e.k.V.9.X.X.& @ o.+                 S.-XE.@.+., 2 2 ",
"3 1 3 b b b b 6 2 < 7 ; 1 { %.M { $.b n n 7 *.*.@.| %.$.@.b n 3 3 < 2 b o w.x.v.t.a t.q.l.h.k.X.+               Y.Y.R.@.@.b n 3 ",
"b 3 6 b n 3 n b 7 M M 2 7 b | b M b n b T.7 n N | @.N @.$.b 1 6 b 6 6 @ s y.r.0.j p j h t.r.q.+                 Y.].`.| $.b 2 6 ",
"3 b 6 b b 3 M n M m n F b n n n 7 b T.D.2.*.b  .M N @.| N b 6 6 3 b + a.N.x.x.N.t.h h x.c.f.i.@                 W.).`.| | 7 6 6 ",
"b b b b 7 n n m M 7 1 ^ b b n n n 7 1.<.;.M N D M b G.3 3 { 6 6 6 b s.z.z.r.w.+ g j t.x.0.N.i.+                 Q.'.`.3 2 N 6 6 ",
"b b b n n n 3 @.$.N I R b b b N N n %.*.m F < K R R A Z Y W 6 6 b b d l.f.l '.[.% s M.C.M.A.i.i.+ @             !._.{.P Y W 3 6 ",
"b b n n b 3 @.@.@.J / P.3 3 b n n n < 2 , 7 | -.%.M I ~ J.2 6 6 b b @ u.j.o.X [.  . ; ; %.1.{ N.S.Z.X.#         !._.|.~ J.2 6 b ",
"b n n M b M N N E 2 7 I 6 [ | 2 3 F 6 2 2 b n |  . .m / - P < 6 b b m n o  .3.. . f j.l.C.V.X     f :.#         ~._. XE - D < 3 ",
"6 6 6 6 b 6 2 6 K.Y ^ , 6 | N N N N S K E b N | n $.| |  . .b 6 6 7 3 6 b X X i.+ z l.g.x.c.A..                 ^.XX X .N $.b 7 ",
"m m M n $.N  .| : Y J.b n { %.{ N N *.G 6 n m n n N N N N | b 2 M m m M $.N e x.M.x 9.z.c.v.c.o .               ^.XX XN N  .b 2 ",
"n b M m | | | n H.Q 1 6 b 7 | %.M n n R : R n n n N N N b N | m n b n n  .| x 9 z k $ a.f.d.d.y.d               ^.XX XN b N N m ",
"b b 7 n n m 6.} / J H b b m n b n 2 N O.S K 4.1.M M M N N @.N 7 b b 6 n b g g.a t.j +   p.w.7.8.B.o             ^.oX.XN N N N b ",
"2 7 7 7 b 6 5 ~ ! O.~ 6 b b 7 m n 3 N n V 6 [ #.n 7 @.M N N 3 7 2 b b + o e.k.d.e.@       + z V.y.@             ^.XX*XM N N 3 7 ",
"6 6 6 7 7 6 ` 6.T.3.=.7 3 7 n n b M n n { M Q 7 n n n M N n 7 3 6 O = u.B.B.F.{.n.          a.j.y.p.X           (.+X*Xn | b 7 6 ",
"2 6 1 +.3 7 n 1.1.;.N n 7 M M 3 n | 7 $.N { J.M n n M b N n 7 $.2 u l r 9 c @ $Xm.          k @ @ & X           /.+X*Xb | n 7 $.",
"| $.6 C K., 6 >.-.%.1 b 7 7 b $.n b | n b m n F b n n N M 2 *.@.| t p g c < @X#Xm.          + 0 k % i           (.+X*XN m 3 &.@.",
"| { 7 , S H A 7 n ; 1 6 m b b b n n N b 6 6 3 b B b n N N 2 M @.o t z X S J #X#Xn.          . i l 9 k X         /.+X*XM | 1 N @.",
"M #.7 , D Y R H 2 J Q 2 N 3 m b b n n n n n b n 2 N b n n M 7 + t & O , D Y $X-Xm.              . % 9 w +       ~.:XE.m n n b 3 ",
"7 7 | @.} 7 ( F n 7 M n b 2 b b b b n n b n n b N b b b 7 H.Y 0 h X @.N } 6 OX/.m.).].{.].].[.].].O y k l (.).).~._.R.b n ` T b ",
"@.@.@.*.M M 2 7 M N M M @.7 7 4.5.b N 3 V n n N n D - H R E * a g i X %.N N 3 7 $X-X-X:X:X:X:X:X;X;Xo g g 0 X #X#XD - H Y / | b ",
"@.@.@.-.#.M C 5 N | | @.@.#.@.*.$.V R G.- 3 b 2 7 N Y 6 B N 7 # @ w v O @.n C 5 M @.@.@.@.@.@.%.$.A O & & o o 1 6 N Y 6 B N 6 2 ",
"@.@.@.#.@.@.^ ~ N 7 | | $.*.1 2 2 | n 6 H 6 7 N N @.7 b 4 6 N N @.@.@.@.@.@./ ~ M M M M $.*.2 2 2 @.M 3 H 7 7 N N @.7 b 4 6 N N ",
"@.@.M @.@.@.M n | @.@.@.$.*.*.@.&.=.M 6 n n n b n 2 N N n 6 N @.@.@.| @.@.@.M n @.@.@.@.#.*.*.@.$.-.M 6 n n n b n 2 { M M 6 M @."
};
