/* XPM */
static char *mr_od_21722079352[] = {
/* columns rows colors chars-per-pixel */
"64 32 209 2 ",
"   c #000000",
".  c #060504",
"X  c #0D0001",
"o  c #140000",
"O  c #1C0001",
"+  c #1E0B0E",
"@  c #1E0014",
"#  c #230001",
"$  c #220406",
"%  c #2B0000",
"&  c #2E1A0F",
"*  c #371303",
"=  c #2C0C1A",
"-  c #391212",
";  c #3E1D16",
":  c #343E0D",
">  c #2C231F",
",  c #37271B",
"<  c #393A1E",
"1  c #321523",
"2  c #2D2522",
"3  c #302725",
"4  c #332926",
"5  c #362C29",
"6  c #392E2B",
"7  c #3A3525",
"8  c #393924",
"9  c #3B312D",
"0  c #3E2932",
"q  c #3E3431",
"w  c #4A0D02",
"e  c #520700",
"r  c #520C00",
"t  c #5B0C00",
"y  c #4C1302",
"u  c #481707",
"i  c #5A1500",
"p  c #541802",
"a  c #52130B",
"s  c #4E2A14",
"d  c #5A2A17",
"f  c #44321A",
"g  c #672304",
"h  c #6F2400",
"j  c #6C2409",
"k  c #6A2A0A",
"l  c #7E2A00",
"z  c #6A2612",
"x  c #692717",
"c  c #642914",
"v  c #612C1A",
"b  c #772715",
"n  c #431B26",
"m  c #5A2D27",
"M  c #413633",
"N  c #443936",
"B  c #483A37",
"V  c #463C39",
"C  c #493E3B",
"Z  c #663322",
"A  c #35410E",
"S  c #3A460E",
"D  c #3E4D0A",
"F  c #3D5703",
"G  c #394511",
"H  c #3D4A12",
"J  c #435E02",
"K  c #475B08",
"L  c #404E14",
"P  c #445215",
"I  c #495917",
"U  c #49531D",
"Y  c #4B5C19",
"T  c #4B6405",
"R  c #4A6109",
"E  c #516806",
"W  c #516509",
"Q  c #546C09",
"!  c #5B740D",
"~  c #5B750D",
"^  c #4F6019",
"/  c #5A6F11",
"(  c #52641C",
")  c #576819",
"_  c #5D7512",
"`  c #60770E",
"'  c #667E0C",
"]  c #647515",
"[  c #697E14",
"{  c #697F1A",
"}  c #4A4A2B",
"|  c #4C5424",
" . c #53592F",
".. c #4C4633",
"X. c #4F4B34",
"o. c #4C413E",
"O. c #51433F",
"+. c #59473D",
"@. c #754831",
"#. c #7D4C38",
"$. c #785533",
"%. c #5B6927",
"&. c #5F7423",
"*. c #4E4341",
"=. c #4B4C45",
"-. c #524643",
";. c #544945",
":. c #584A47",
">. c #564B49",
",. c #594E4A",
"<. c #5B524D",
"1. c #5E5651",
"2. c #775A44",
"3. c #615953",
"4. c #655E58",
"5. c #69625D",
"6. c #6D6B66",
"7. c #726B65",
"8. c #7A6B66",
"9. c #74726D",
"0. c #79736D",
"q. c #7B7A75",
"w. c #993F1D",
"e. c #953F22",
"r. c #8E441F",
"t. c #9C431C",
"y. c #98461C",
"u. c #A9421F",
"i. c #88462B",
"p. c #954524",
"a. c #9C4523",
"s. c #98492A",
"d. c #97512F",
"f. c #854C34",
"g. c #994A36",
"h. c #81553A",
"j. c #A24B2D",
"k. c #B15D2F",
"l. c #B45F38",
"z. c #BA6735",
"x. c #B16A34",
"c. c #B3633A",
"v. c #BC6B3C",
"b. c #C0652E",
"n. c #C3633D",
"m. c #885149",
"M. c #8D6B4F",
"N. c #8E704E",
"B. c #997B57",
"V. c #9B7C5B",
"C. c #AA6548",
"Z. c #B96443",
"A. c #B46E4D",
"S. c #A27453",
"D. c #816F63",
"F. c #9A7F64",
"G. c #827D77",
"H. c #C26843",
"J. c #6B820F",
"K. c #728A14",
"L. c #758D17",
"P. c #758E1A",
"I. c #798F1B",
"U. c #9C825E",
"Y. c #A0825E",
"T. c #9F8461",
"R. c #978169",
"E. c #9C856A",
"W. c #87837D",
"Q. c #9A8D75",
"!. c #9D927C",
"~. c #A38665",
"^. c #A1886C",
"/. c #A69176",
"(. c #AC957C",
"). c #AC987D",
"_. c #B1987A",
"`. c #A69584",
"'. c #B5A48E",
"]. c #BCA58D",
"[. c #B8A88F",
"{. c #AFA99B",
"}. c #B6A691",
"|. c #BAA691",
" X c #B4A991",
".X c #BAAA94",
"XX c #B7AB9A",
"oX c #BFB099",
"OX c #B4AEA0",
"+X c #BBB5A9",
"@X c #BCB6AA",
"#X c #C3AB95",
"$X c #C4AE9A",
"%X c #C2B19C",
"&X c #C9B29C",
"*X c #C6B5A2",
"=X c #C8B6A2",
"-X c #C7B8A5",
";X c #CBB9A5",
":X c #C3B7AA",
">X c #CCBCAA",
",X c #D1BEAE",
"<X c #C4BDB2",
"1X c #CFC6A7",
"2X c #D4C3B3",
"3X c #D8C6B6",
"4X c #DAC9BA",
"5X c #E3D9BE",
"6X c #DDD8C5",
/* pixels */
"o.*.*.*.*.*.*.C N o.=.<.*.;.*.o.-.-.q N N C o.V M O.N ..C 6 C *.*.*.*.-.*.*.*.C N C *.,.*.=.*.*.*.*.q q V C C C N O.N C B 6 C *.",
"*.*.*.-.>.-.C *.*.C q 5 *.5 9 V M q 9 6 q q -.q 9 o.V V C C N *.*.*.o.-.:.-.C *.*.o.N 5 *.9 9 N N q q 6 9 q -.M q ..C B C V V *.",
"*.*.*.*.;.-.>.*.' ^ q P.5 o.C N 6 N 9 q M 5 N o.C C O.B q _ } N *.0 1 1 ;.;.;.*.' ^ q P.4 *.2X2X,X;X1Xq N 6 N C V C -.B M _ } q ",
"N C -.:.:.o.*.C P Y R ~ N V o.o.V M B V C C >.N o.C -.< Y q o.o.= y y * ; n *.C P I T 6X>X>X>X>X>X:X-XoXoX5X;.V C C -.< U N *.C ",
"o.-.C -.,.V ( G Q ;.` 4 -.V o.C V C q V C 3.q.9.6 R T A [ M O.- u y y O v Z . 8 Q ;.3X^.=XB.T.U.F.Y.~.V.XXN.,X0.6 R W : J.M -.*.",
"-.-.-.-.:.} 7 K.C R | 9 9 N V C C *.*.*.q 4.0.K.3 A 5 P ~ q + u p w ; Z C.S.. { N 2X2XR.U.              T.V.>X,X3 A 4 P _ q C *.",
"C :.-.*.M R Y E 9 4 > 9 V 5 +.9 W N C C M T N W H L.6 J 4 X X y r a # d.h.o Y W >X2XT.                      ~.>X-XI.4 J 6 o.C -.",
"-.:.:.*.D M <.0.9.5.o.8 9 9 M q K.J 9 Q 5 >.,.C L 7 ~ M q X o # u * ; - X q <.*X-X~.                          ^.-X=X! N N -.*.>.",
"C C 6 [ 6 9 3.1.<.-.N 7.M 5 4 G 4 H 9 J.5 >.>.>.| H ..D o #.S.h.s # # w % O *.XX&XV.                          V.#X%X..R 6 q *.-.",
"9 J > 5 9 9 3 >.-.V 9 3.;.6 2 M V C o.o.C N >./ q P   . o v.z.x.c.Z.A.# A.C.o `.$.                              F.3X!.*.&.2 5 5 ",
"6 3 6 M M q M 9 6 3 M > 3 ..-.V o.o.M N N N >.>.*.*.-.*.c u.n.a.h h t.c.b.z.@.X M.                              R.E.Q.*.o.M V 4 ",
"M 9 9 M N 6 V M 9 V N 5 q N o.M N N N M G.q N C o.o.*.o.% t.H.y.l w.e.c.H.s.# D.N.                              E.}.{.o.;.M 5 9 ",
"6 M M M M 6 B N C V N K M N V N M M W.G.7.>.q o.o.o.o.o.x n.k.l.a.Z.Z.p.g.m.8.|.B.                              ^.'.{.o.o.M 9 9 ",
"9 M M M 9 N N N B q 4 ) M M M N N 9 6.5.1.N o.R C q J.5 @.z.z.i z Z.x.p.% B [.}.V.                              ^.].XX5 4 o.9 9 ",
"M M M M N V 9 *.o.o.T Q 9 M M C o.M ;.>.N K 3 U T ~ G J m.Z.H.f.# o O O @ V }.XXV.                              /.].OXR E ! 7 9 ",
"M M N N q 9 *.*.*.I ] I.6 6 N N N N 4 5 2 q o.<.-.V T ^ K.x d.x.S.X o X O 9 |..XV.                              /.].OX( K.6 6 q ",
"M M N N M C C C ~ 6 q T 9  .o.5 5 F 6 5 5 q C o.O.O.C ` : J o X & +.% i r % .XoXV.                              (.|.+X~ : J 3 6 ",
"9 M 7 M M 9 5 q P.E ) 2 q o.o...C *.H P ~ N C o.N -.o.C -.O.# # u e h A.C.m.$ .XV.                              (.#X+XO.C -.M M ",
"N B C N -.C o.o., E K.M q o.;.o.o.C :.P 9 V N N N C C C C o.% x % i.h t a.e f.@ V.                              (.#X@XC C O.M 5 ",
"N M N N C o.o.N K.Y 4 9 N q o.O.V N N W 7 Q M N V B C C M % g.t.a.b % g.j.a.p.c V.                              ).#X@XC M C C N ",
"M M 9 V N B q.=.` I L M M N N N V 5 o.%.S U 9.6.V V B C C # i.a.s.z s % s.e.s.r.o                               ).$X@XC C C C N ",
"6 M M M M 9 8 ( / %.( 9 M M q V N 4 C V S 5  .=.N q o.C C m g.t.s.O . m e.a.d.f.2.                              ).&X@XC C C 6 9 ",
"7 9 9 9 9 9 { q.W.0.,.9 6 q N M M C ..M o.N ^ q N N C . m.y.v.$.o p k y % # =X-XV.                              `.&X:XC C M M 6 ",
"5 9 6 ) 9 M M 7.5.3.C N M V C 6 N o.9 o.V o.K.o.N V o s r # o X X e t d O q =X-XV.                              _.&X<XM o.N M -.",
"o.*.q F P.2 9 3.<.;.4 N M M M O.M M o.N M N B K M N O v b v , # a x v L K.3 =X;XV.                              `.&X<XC C 6 ,.*.",
"o.C q 2 H P S q M > 4 9 N M M M N N C q 9 6 5 M A M # * g $ O k k % M 3 L P =X;XV.                              _.&X<XC C 4 V *.",
"q *.q 2 J E Q P 3 I ^ 6 B 6 N M M N M V N N N N 4 B # d # x j i y *.q 2 J E :X2XV.                              _.4X/.N N M M 9 ",
"q V C *.X.6 J.I N q C M N 5 M N M N M V M N N M C M p k O o a k y C C C X.9 $X_.V. X}.}. X X|. X X|.[. X}.}.'.}.).|.Q.q N { W M ",
"=.*.*.>.V V 5 q C C V N *.q q 9.0.M C 5 S N V C # u k g u Q o.u d *.*.>.C V 5 q @X3X3X4X4X4X4X4X3X3X3X2X2X,X>X>X>XF : P Q ! o.M ",
"*.*.*.<.=.V D 8 C o.*.*.*.*.*.:.O.S Q J.: 9 M 4 q -.X o d f . 4 *.*.*.<.-.V D 8 V *.C *.*.*.o.>.*.S Q J.A 7 q 4 9 C Q 9 A C q 4 ",
"*.*.*.*.*.*.( ( o.q V *.;.>.4 5 6 o.N 6 P 9 9 C C -.M M 7 9 C C *.*.*.*.*.*._ ( V N V *.;.;.4 5 5 *.N 9 P 9 9 o.o.o.q q 7 5 C C ",
"*.*.C *.*.*.V V o.*.*.*.=.>.>.*.;.<.C 9 N N V M V 5 B B V 9 C o.o.*.C *.*.*.V N *.*.*.*.*.,.>.o.;.,.C 9 M V V q N 6 C C C 9 C *."
};
