/* XPM */
static char *closed_door_bg1721729928[] = {
/* columns rows colors chars-per-pixel */
"32 32 188 2 ",
"   c #3F0F09",
".  c #3E1F1D",
"X  c #343E0D",
"o  c #393A1E",
"O  c #2D2522",
"+  c #372623",
"@  c #312725",
"#  c #362C29",
"$  c #392E2B",
"%  c #3C3825",
"&  c #3B322D",
"*  c #3E3431",
"=  c #420A0B",
"-  c #470D09",
";  c #4C100F",
":  c #4C1C1A",
">  c #5C1113",
",  c #581F18",
"<  c #641414",
"1  c #64131A",
"2  c #6D1718",
"3  c #75181D",
"4  c #5A1720",
"5  c #611722",
"6  c #6D1622",
"7  c #631C24",
"8  c #6B1A25",
"9  c #731523",
"0  c #731A26",
"q  c #413632",
"w  c #443936",
"e  c #463C39",
"r  c #493E3B",
"t  c #64212A",
"y  c #732028",
"u  c #7E222E",
"i  c #7E2333",
"p  c #35410E",
"a  c #3A460E",
"s  c #3D4C08",
"d  c #3D5703",
"f  c #3E4C13",
"g  c #435E02",
"h  c #445316",
"j  c #4B5B19",
"k  c #4C6505",
"l  c #516806",
"z  c #536B09",
"x  c #5C740D",
"c  c #4F6019",
"v  c #52641C",
"b  c #596E19",
"n  c #5D7711",
"m  c #637A0D",
"M  c #697F13",
"N  c #697E18",
"B  c #4B4C2B",
"V  c #4F4B35",
"C  c #4C413E",
"Z  c #51433F",
"A  c #755934",
"S  c #5F7423",
"D  c #363E44",
"F  c #3B4249",
"G  c #424045",
"H  c #4E4341",
"J  c #524643",
"K  c #544945",
"L  c #5B434A",
"P  c #564B49",
"I  c #584D4A",
"U  c #5C534E",
"Y  c #444B53",
"T  c #514750",
"R  c #495354",
"E  c #4C5658",
"W  c #664D55",
"Q  c #694F58",
"!  c #605953",
"~  c #6B515B",
"^  c #555C64",
"/  c #585D60",
"(  c #5D676A",
")  c #5F6670",
"_  c #61696D",
"`  c #79746E",
"'  c #606772",
"]  c #636D72",
"[  c #6A6B73",
"{  c #716F7C",
"}  c #677175",
"|  c #6B757A",
" . c #6D797C",
".. c #72767F",
"X. c #851E1F",
"o. c #801E2D",
"O. c #8A2224",
"+. c #81252F",
"@. c #912525",
"#. c #942329",
"$. c #852435",
"%. c #8B2535",
"&. c #8D2936",
"*. c #8B2639",
"=. c #8E2A3A",
"-. c #942637",
";. c #932937",
":. c #932738",
">. c #942A3B",
",. c #9A2C3D",
"<. c #9C313B",
"1. c #A0242C",
"2. c #A52C33",
"3. c #A32C3E",
"4. c #AA2C3F",
"5. c #A1313D",
"6. c #AB323B",
"7. c #9E2C41",
"8. c #A42E41",
"9. c #AA2E41",
"0. c #B62E42",
"q. c #A43144",
"w. c #AC3144",
"e. c #AE3549",
"r. c #B23244",
"t. c #B33944",
"y. c #B43549",
"u. c #BB364B",
"i. c #BC384B",
"p. c #C23A4E",
"a. c #C53951",
"s. c #C63C50",
"d. c #846843",
"f. c #8E704E",
"g. c #887056",
"h. c #997B57",
"j. c #9B7C5B",
"k. c #B15363",
"l. c #9A7F64",
"z. c #6C830F",
"x. c #758C18",
"c. c #9C825E",
"v. c #9F8461",
"b. c #978169",
"n. c #9C856A",
"m. c #9A8D75",
"M. c #9D927C",
"N. c #A38665",
"B. c #A2896B",
"V. c #A58D73",
"C. c #A69176",
"Z. c #AC957C",
"A. c #AC987D",
"S. c #B1987A",
"D. c #AC9C84",
"F. c #B4A48D",
"G. c #BCA58D",
"H. c #B8A88F",
"J. c #AFA99B",
"K. c #B6A691",
"L. c #BAA691",
"P. c #B4A991",
"I. c #BBAA95",
"U. c #B2AA9D",
"Y. c #BBAD99",
"T. c #BFB099",
"R. c #929DA3",
"E. c #B8B2A5",
"W. c #BCB6AA",
"Q. c #C3AB95",
"!. c #C4AE9A",
"~. c #C2B19C",
"^. c #C9B29C",
"/. c #C5B5A2",
"(. c #C8B6A2",
"). c #C7B8A5",
"_. c #CBB9A5",
"`. c #C1B0A8",
"'. c #C4BAAC",
"]. c #CCBCAA",
"[. c #D1BEAE",
"{. c #C4BDB2",
"}. c #CFC6A7",
"|. c #D4C3B4",
" X c #D8C6B6",
".X c #DAC9BA",
"XX c #E3D9BE",
"oX c #DDD8C5",
/* pixels */
"C H J H H J H r * C J I H P H G J J & w w r r r w Z w r r & e C ",
"H H C H J J r H C C * $ H # $ w w & & & & q Z w & r r w r w e C ",
"H H H J K K P H m c w x.# H |.|.[._.}.& w # w r r r Z r q n B w ",
"w H J J K C H r h j k oX}.'.].].].)./.~.T.XXP w C r Z o j w C C ",
"Z J r J I e v p z J  Xn./.h.v.c.v.l.v.l.Y.g.|.` $ k k p N q J C ",
"J J K J J B % x.w |.|.n.c.  t 4 = 5 5 = l.j.].].O X # h x * r C ",
"r J J J * k j k ].|.c.  8 4 =.i > $.i 8 7 - N.]._.x.$ d $ C C J ",
"K J K H s w ! ~.).N., 8 *.$.$.$.> *.k.$.$.8 - N.(.(.x w w J H L ",
"r r # M $ & ! /.^.j.8 *.*.*.o.*.> %.*.*.*.$.6 l.!.T.V d & * H J ",
"q g O # & & Y. XA 8 %.$.=.:.$.:.1 *.:.=.%.%.$.; l. XM.H S @ # $ ",
"# + # q q & ~.B.d.T ^ ( ) D ' ' D ) ) F ^ ^ Y G b.n.m.H C w w $ ",
"q $ q q w & F.D.f.0 :.:.>.,.%.*.2 >.>.>.>.>.%.y n.L.J.C J * # $ ",
"# q q q q # F.K.j.u =.>.,.>.-.,.< ,.:.>.,.*.>.1 B.F.J.C C * & & ",
"q q q q q w L.K.j.i ,.,.:.7.,.,.2 ,.7.8.,.>.,.u V.H.U.# # r & & ",
"q q q w q w G.I.j.$.;.,.-.3.8.,.2 7.7.>.7.,.,.< V.G.U.g l x & & ",
"q q w w q & L.I.j.&.3.-.,.,.8.{ ( [ 9.,.5.,.,.+.C.G.Y.v x.$ & & ",
"q w w w * e I.I.j.L Q ~ W ~ } 7.R.q.[ ~ Q ~ W L Z.Q.E.n X g @ $ ",
"& & & & w * I.T.j.6 6 6 0 0 [ q.} q.( 9 9 0 6 1 C.Q.E.J Z J q $ ",
"w r C w Z C ~.~.j.:.7.w.9.w.r._ ..] 5.y.3.9.3.3 A.Q.W.r r Z q $ ",
"w q w w C C ~.T.h.>.8.w.9.y.9.e.o.5.4.y.9.w.8.<.A.Q.W.r q r r e ",
"q q & w w w ~.).j.,.q.4.e.4.t.y.X.4.9.y.9.r.4.;.D.!.'.e r r r q ",
"# q q q & & ~._.j.3.y.w.y.4.y.i.O.r.y.0.w.y.4.,.Z.^.W.r r r # q ",
"& & % & & & ~.).c.,.y.y.t.4.i.i.< 6.p.u.w.9.w.<.Z.^.'.e r w q $ ",
"# # # S & * ).).h.( D  . .E ....E | | R } ] E / Z.^.{.q r w q J ",
"r J & s x.@ ).'.j.w.y.w.p.6.p.p.: y.p.p.y.r.r.5.D.^.{.r e # P C ",
"H r * O f h )._.h.4.y.i.u.0.p.p.. s.p.p.i.w.w.5.Z.^.{.r r # r J ",
"e C * O k l '.|.h.o.t.t.#.u.2.1.+ a.r.i.#.@.6.O.S.|.M.w w e q & ",
"w e C C B & !.S.j.K.K.P.K.K.K.P.K.G.H.H.H.H.F.F.A.Q.n.w w N k q ",
"G H H K e e $ * `..X X X.X.X.X.X X X X|.|.[.].)._.g X h z x C q ",
"C H H U H e s % e C H H H H C K J a z z.X & * $ & r z & X r * # ",
"H H H H J H b v r e r G K K # $ $ H w $ h & & r r C & q & & r e ",
"H H C H H C e w C H H H H P P C K I e & w w w q e $ r e e & e H "
};
