/* XPM */
static char *collectible1721723014[] = {
/* columns rows colors chars-per-pixel */
"32 32 148 2 ",
"   c #333E0D",
".  c #2C231F",
"X  c #393A1E",
"o  c #2D2522",
"O  c #302725",
"+  c #332926",
"@  c #3B2B25",
"#  c #362C29",
"$  c #392E2B",
"%  c #3A3426",
"&  c #3B3C20",
"*  c #3B312D",
"=  c #3D382B",
"-  c #3E3431",
";  c #41332E",
":  c #413633",
">  c #443936",
",  c #483A37",
"<  c #463C39",
"1  c #493E3B",
"2  c #35410E",
"3  c #3A460E",
"4  c #3E4D0A",
"5  c #3A5204",
"6  c #394610",
"7  c #3E4C13",
"8  c #445E03",
"9  c #4E5608",
"0  c #4B5D0C",
"q  c #404E14",
"w  c #445316",
"e  c #4B5B19",
"r  c #476104",
"t  c #4B6405",
"y  c #506506",
"u  c #516907",
"i  c #536B09",
"p  c #5D740D",
"a  c #4F6019",
"s  c #596F12",
"d  c #52641C",
"f  c #596D1F",
"g  c #5D7711",
"h  c #667E0D",
"j  c #617512",
"k  c #697F13",
"l  c #697E18",
"z  c #4B4C2B",
"x  c #4C5424",
"c  c #4F4B35",
"v  c #4C413E",
"b  c #51433F",
"n  c #5F7423",
"m  c #4E4341",
"M  c #524643",
"N  c #544945",
"B  c #564B49",
"V  c #594D4A",
"C  c #5C534E",
"Z  c #5E5550",
"A  c #605953",
"S  c #655E58",
"D  c #766F69",
"F  c #78736C",
"G  c #7D7872",
"H  c #BC3B00",
"J  c #BC4400",
"K  c #BA5000",
"L  c #BC4D1E",
"P  c #AF6326",
"I  c #CA4704",
"U  c #C24D00",
"Y  c #CB4B03",
"T  c #C34408",
"R  c #CD4508",
"E  c #D24604",
"W  c #D44A04",
"Q  c #D94C03",
"!  c #D04308",
"~  c #D74B0B",
"^  c #D55301",
"/  c #DC5303",
"(  c #D65A00",
")  c #DD5A04",
"_  c #DB550B",
"`  c #DE5C08",
"'  c #CC4D14",
"]  c #E15403",
"[  c #E35B05",
"{  c #E95E05",
"}  c #E35B0A",
"|  c #DA6200",
" . c #C77003",
".. c #D5691A",
"X. c #E36403",
"o. c #EB6603",
"O. c #E36B01",
"+. c #EA6B03",
"@. c #E56A08",
"#. c #F46E03",
"$. c #E67600",
"%. c #E87300",
"&. c #EC7D03",
"*. c #F47304",
"=. c #F57B03",
"-. c #F97D03",
";. c #F3740A",
":. c #E27E17",
">. c #EC7F13",
",. c #C44E21",
"<. c #6A820F",
"1. c #718A15",
"2. c #768E1A",
"3. c #798F1B",
"4. c #BD892B",
"5. c #DF860E",
"6. c #ED8503",
"7. c #F68203",
"8. c #F88403",
"9. c #F48D00",
"0. c #F88B04",
"q. c #ED9300",
"w. c #F69303",
"e. c #FA9503",
"r. c #F59A04",
"t. c #FA9C02",
"y. c #F69909",
"u. c #FC9B0B",
"i. c #E3811C",
"p. c #EA9217",
"a. c #EF9E12",
"s. c #EE9E1D",
"d. c #F5A302",
"f. c #FBA303",
"g. c #FCAC02",
"h. c #FDA30A",
"j. c #FBA90A",
"k. c #FDB402",
"l. c #F0BA00",
"z. c #FDB902",
"x. c #FDBB09",
"c. c #EFA319",
"v. c #FEA612",
"b. c #FEAB14",
"n. c #F8A61E",
"m. c #F4BA1C",
"M. c #E79E27",
"N. c #EFC401",
/* pixels */
"v m m m M M m 1 - v M V m B m v m N - - > 1 1 1 > b : 1 1 * < v ",
"m m m m M M < m m v - $ m $ * > - - = * * : M : * 1 1 , 1 > < m ",
"m m m M N N B m h a - 2.# v < > * > - - = # > 1 1 1 b 1 - j z : ",
"> m M M N v m 1 w e t p - v v v > - < < v v B > v 1 M X e > 1 m ",
"b M v M V < d 2 i M j # M > v 1 < 1 : > , A G F $ t t 2 l : M m ",
"M M M M M z = 1.< r x * * ; 4.s.M.m M 1 - S F 1.o   + q p - 1 m ",
"1 M M M - t d t $ + . 7.8.t.t.t.r.e.e.t.; t : y 7 3.# 8 $ 1 1 M ",
"M N N v 4 > C F D >.7.w.t.t.y.w.e.e.t.t.t.c.V v 7 % p > , M M B ",
"1 1 $ k $ * Z Z =.-.u.t.b.J / Q / / t.t.f.d.m.V x 7 c 8 * - m M ",
"; 8 o # - * O :.-.h.j.I / / Q / / ] Q %.g.z.z.9 - w N m n o # # ",
"$ + $ : : - =.-.f.5._ / / ^ Q Q / ] ] @.9.z.z.x.m m N m m : > $ ",
"; $ * : - P =.r.n._ ^ ;.=.=.8./ Q / @.O.@.k.z.k.! v v v M : # * ",
"$ : ; : : &.t.r.Y ^ +.*.=.7.0.O.e.k.k.O.o.b.k.k.^ < m v 1 : - * ",
"* : : : @ t.w.K ~ W *.=.-.7.9.w.g.k.k.x.X.O.k.k.O.' <.# # 1 $ * ",
": : : > y.e.w.T R E *.-.-.7.w.g.g.k.k.k.X.X.k.k.%.Q 6 8 t p $ * ",
": : , > w.0.w.R E W *.-.7.t.d.g.g.k.k.v.[ $.g.g.[ *.t d 1.$ % : ",
": > > < 9.0.q.E E W ;.-.h.d.d.g.k.k.k.} [ g.g.k.{ } 1 g   8 O * ",
"* * $ - -.-.6.I E W W f.h.g.g.g.g.v.[ [ [ g.g.g.o.{ v v b b : $ ",
"> 1 1 > =.-.7.H E E ` | h.f.f.7.} [ ] / h.g.g.r.#...1 1 1 b : $ ",
"> ; , , >.7.7. .E ` ) ` | ) / [ / ` ] | g.g.k.*.#., 1 1 : 1 v > ",
": : - > : 7.8.9.Y ) ) ) ) / ) ) / / ( g.g.k.w.*.;.< 1 1 1 1 1 : ",
"# : * : : ~ h.f.f.U / / ) / / / / h.g.g.k.l.7.=.> * v 1 1 1 $ * ",
"* * * : - $ f.f.f.f.d.&.( ^ ;.f.f.g.g.k.N.t.w.i.: 1 > < 1 , : * ",
"# % # f % : : h.d.f.t.f.f.t.t.f.g.f.g.t.w.r.a.> > > > : 1 > - M ",
"m M $ 5 2.O $ L O.t.t.t.t.t.t.f.h.u.7.7.8.p.< 0 - > < 1 < # B m ",
"m 1 - o 7 w 6 - ,.~ ] ) O.+.o.#.*.E =.7.@ % # :   > > 1 1 # < m ",
"> m - o r u i 7 O w ~ _ [ { @.#.#.*.> > > > : : # < : , > < : * ",
"- 1 m v c # <.a < : < - > + ; : : , : < : > > : , : > - : l y : ",
"m m m B < m $ - < v < < v > - F D : 1 # 6 > , 1 < 8   w i g 1 : ",
"m m m C m - 5 & < m m m m m m N M 3 i <.  $ : # - 1 i % 2 1 - # ",
"m m m m m m s d v - 1 v N N + $ # m > $ w * * 1 1 m - : % $ < 1 ",
"m m < m m m < < v m m m m B B v B V 1 ; > > < - < # < 1 < - < m "
};
