/* XPM */
static char *c9a6f239748342d6fad5b72cb441ad03O3avBkBX1sZjXP6b[] = {
/* columns rows colors chars-per-pixel */
"32 32 185 2 ",
"   c #333D0D",
".  c #393A1E",
"X  c #2D2522",
"o  c #312725",
"O  c #332927",
"+  c #362C29",
"@  c #392E2B",
"#  c #3C3825",
"$  c #3B312D",
"%  c #3E3431",
"&  c #413633",
"*  c #443936",
"=  c #483A37",
"-  c #463C39",
";  c #493E3B",
":  c #35410E",
">  c #3D4C08",
",  c #3D5703",
"<  c #394611",
"1  c #3E4C13",
"2  c #435E02",
"3  c #445316",
"4  c #4B5B19",
"5  c #476104",
"6  c #4B6405",
"7  c #506706",
"8  c #536B0A",
"9  c #5D740D",
"0  c #4F6019",
"q  c #52641C",
"w  c #596E19",
"e  c #5D7711",
"r  c #60770E",
"t  c #657D0C",
"y  c #617512",
"u  c #697F13",
"i  c #697E18",
"p  c #4B4C2B",
"a  c #4F4B35",
"s  c #4C413E",
"d  c #51433F",
"f  c #5F7423",
"g  c #132840",
"h  c #12314D",
"j  c #063057",
"k  c #0B3757",
"l  c #113652",
"z  c #083261",
"x  c #0D3B64",
"c  c #0B3D6B",
"v  c #143766",
"b  c #123964",
"n  c #3D454C",
"m  c #0C416F",
"M  c #1F4264",
"N  c #15426E",
"B  c #134171",
"V  c #134875",
"C  c #124F7A",
"Z  c #14557E",
"A  c #18527F",
"S  c #385368",
"D  c #264A73",
"F  c #355A7B",
"G  c #3B5C7A",
"H  c #4E4341",
"J  c #524643",
"K  c #544946",
"L  c #564B49",
"P  c #584D4A",
"I  c #5B514F",
"U  c #474F55",
"Y  c #475255",
"T  c #475159",
"R  c #4A535B",
"E  c #52565B",
"W  c #605953",
"Q  c #6E7A5B",
"!  c #545B63",
"~  c #535C6D",
"^  c #585F6F",
"/  c #4E5F72",
"(  c #545E71",
")  c #5B626B",
"_  c #5C6468",
"`  c #466173",
"'  c #4F6075",
"]  c #516274",
"[  c #5B6575",
"{  c #5D6870",
"}  c #5A6A7B",
"|  c #63666C",
" . c #60686F",
".. c #79756D",
"X. c #757D6F",
"o. c #646B73",
"O. c #696D76",
"+. c #646D7B",
"@. c #6C6F7B",
"#. c #64707A",
"$. c #6C727C",
"%. c #737D76",
"&. c #7D7872",
"*. c #72737C",
"=. c #68810F",
"-. c #718A15",
";. c #768E1A",
":. c #798F1B",
">. c #7A8668",
",. c #1B4F89",
"<. c #165584",
"1. c #1B5584",
"2. c #175986",
"3. c #1A5985",
"4. c #1B538A",
"5. c #175B8A",
"6. c #1B5B8C",
"7. c #1E5D91",
"8. c #254E89",
"9. c #255886",
"0. c #21548D",
"q. c #20588E",
"w. c #355E85",
"e. c #265796",
"r. c #2C5594",
"t. c #225E93",
"y. c #315691",
"u. c #1E6195",
"i. c #2B628E",
"p. c #226197",
"a. c #2D6295",
"s. c #25649B",
"d. c #29659D",
"f. c #2A699F",
"g. c #2966A1",
"h. c #2D69A4",
"j. c #2E6CAA",
"k. c #366AA7",
"l. c #326DAB",
"z. c #2E70AC",
"x. c #3F72A5",
"c. c #3271AE",
"v. c #3A71AE",
"b. c #366FB0",
"n. c #3C6CB0",
"m. c #3572B1",
"M. c #3B74B4",
"N. c #3D77B9",
"B. c #3D79BC",
"V. c #406A9C",
"C. c #646F82",
"Z. c #657284",
"A. c #6B7483",
"S. c #6B768C",
"D. c #737681",
"F. c #757B83",
"G. c #787B85",
"H. c #757C8B",
"J. c #7B7E89",
"K. c #6D7990",
"L. c #4D6FAA",
"P. c #4370AA",
"I. c #4375B5",
"U. c #477EBE",
"Y. c #427DC2",
"T. c #7B818B",
"R. c #7D8492",
"E. c #568BCB",
"W. c #81858F",
"Q. c #808794",
"!. c #838996",
"~. c #848C9A",
"^. c #8A8F9D",
"/. c #8E9593",
"(. c #8A909E",
"). c #8C929C",
"_. c #91949F",
"`. c #8E95A2",
"'. c #9197A3",
"]. c #929AA7",
"[. c #959CAA",
"{. c #969DAA",
"}. c #9AA2AE",
"|. c #9DA4B3",
" X c #A5ABB8",
/* pixels */
"s H H H H H H ; * ; J P H K H s H J % & * ; ; ; * d * ; ; @ - s ",
"H H H H K J ; H H ; * + H @ $ * * % $ $ $ & J & $ ; - * - * * H ",
"H H H H K K L H t 4 % ;.+ s ; - $ * % % * + * ; ; ; d ; & r p * ",
"* H J K K s H ; 3 4 6 9 * - F. X(. X; = s - P * ; ; J . 4 * s s ",
"s J s J P * q : 8 J y O _ |.'.`.~.~.|.[.- W &...@ 6 6 : u & J s ",
"J J J K K p # -.- 5 /.^.(.(.) ) +.#.R.R.R.`...-.o   O 3 9 % s s ",
"; K K s % 6 0 6 ~._.~.).) ^ b j x z $.#.@.[.}.}.1 :.+ 2 @ s s H ",
"J K K H > * P ).).~.!.! g B c C Z m c b $.o.~.~.[.+.9 * * J H L ",
"s s + u $ $ *.G.D.R D N h 2.1.3.3.2.<.1.B x A.A.R.R.a 2 $ & H J ",
"$ , X + $ $ | D.T B i.5.l 5.1.<.5.3.<.1.5.3.9.] H.H.J H f X + + ",
"@ o @ & & $ *.D.T 1.9.5.k 5.6.6.5.6.6.C 6.5.i.' [.[.K H H & * + ",
"& $ $ & * @ *.O.T 1.1.6.x 6.7.7.6.6.6.6.7.6.<.] `.Q.s s J & + $ ",
"@ & % & & @ *.@.T 1.7.t.V t.u.6.7.7.A q.t.6.1.' !.R.H s s & $ $ ",
"$ % & & $ * $.$.T F G ` Z.A.$.$.$.$.! O.o.) | ] !.Q.=.+ + ; @ $ ",
"& & & * * * @.$.T o.+.+.#.} S M N 9.a.t.t.t.p.' !.Q.< 2 6 9 @ $ ",
"& & * * & $ $.$.T s.s.t.4.s.d.p.p.p.d.t.7.s.s.' ) R.6 q -.@ $ % ",
"& * * * % * T.G.T t.p.s.4.f.d.g.d.g.s.7.d.s.7.' '.).; e   2 o $ ",
"$ % @ % & % $.!.T d.f.d.4.h.d.d.d.h.d.f.` ).w./ '.T.s s d d & $ ",
"* - - * J ; D.T.T h.h.d.,.h.g.h.d.g.g.h.T n S ' '.R.; ; ; s & + ",
"* % * * s s $.J.T s.g.j.0.j.l.h.j.h.l.h.) a.+.' ^.R.; ; % ; s * ",
"& & % * * ; T.T.T l.h.l.0.l.g.l.c.j.c.t.z.h.h.' !.Q.; ; ; ; ; & ",
"+ & & & & $ o.F.T l.h.c.0.l.m.m.c.l.c.k.c.j.j.' _ !.s ; ; ; @ % ",
"$ $ $ $ $ $ X.*.T R ] G F V.x.k.v.l.l.m.m.j.h.' !.!.* * s * % $ ",
"+ @ + w $ & !.'.Y { { o.R o._ o.|  .{ ) U E _ ( ].'.* & s * % J ",
"s J $ , ;.o D.W.T l.m.M.e.N.m.B.B.B.M.n.M.b.m.' `.!.* ; - + P H ",
"s ; % X 1 3 %.J.T m.m.B.8.U.M.B.B.B.N.N.m.v.m.' ~.!.* ; s + - H ",
"* H & X 2 7 >.%.T b.m.B.v E.B.M.Y.Y.B.I.N.I.m.' !.Q.& * * * & @ ",
"* - s s a $ >.Q T v.M.r.v L.r.r.I.U.n.y.y.P.M.] !.R.& % * i 8 & ",
"s H H K - - | | +.Z.A.S.S.K.S.S.S.Z.C.} [ [ ( ~ R.R.  3 8 9 s & ",
"H H H I H * > # }.|.|.|.|.|.|.}.}.[.].].'.`.(.(.[ ; 8 $ : ; % + ",
"H H H H H H w q ; * - ; J K + @ + s * @ 3 $ $ ; ; s % & # $ - ; ",
"H H ; H H s * * s H H H J L L s K P - $ * * * & * @ ; ; - $ - H "
};
