/* XPM */
static char *a25dd7f0fa344bea8bfaa5aad5683d439iw25KBmTIPdayPL[] = {
/* columns rows colors chars-per-pixel */
"32 32 119 2 ",
"   c #333E0D",
".  c #2C231F",
"X  c #312D1E",
"o  c #393A1E",
"O  c #2D2522",
"+  c #302725",
"@  c #332926",
"#  c #362C29",
"$  c #392E2B",
"%  c #353222",
"&  c #3A3425",
"*  c #3B3C20",
"=  c #3B312D",
"-  c #363A29",
";  c #3D382B",
":  c #3E3431",
">  c #413633",
",  c #443936",
"<  c #483A37",
"1  c #463C39",
"2  c #493E3A",
"3  c #35410E",
"4  c #3A460E",
"5  c #3E4D0A",
"6  c #3A5204",
"7  c #3F5B02",
"8  c #394511",
"9  c #3D4A12",
"0  c #415705",
"q  c #435D03",
"w  c #495D06",
"e  c #4B5D0C",
"r  c #404E14",
"t  c #445215",
"y  c #495917",
"u  c #46531A",
"i  c #4C531F",
"p  c #4C5D19",
"a  c #476104",
"s  c #4B6505",
"d  c #4C600D",
"f  c #506506",
"g  c #516807",
"h  c #52650C",
"j  c #536C09",
"k  c #57700B",
"l  c #5B730C",
"z  c #5F790F",
"x  c #4F6019",
"c  c #536811",
"v  c #5A6F11",
"b  c #51631C",
"n  c #58641F",
"m  c #5B6C1D",
"M  c #5D7413",
"N  c #60770E",
"B  c #667E0D",
"V  c #617512",
"C  c #697E14",
"Z  c #697F1A",
"A  c #4B4C2B",
"S  c #4C5424",
"D  c #52582A",
"F  c #4F4B35",
"G  c #4C413E",
"H  c #50433F",
"J  c #55493F",
"K  c #535933",
"L  c #5A6624",
"P  c #5C6C29",
"I  c #5F7423",
"U  c #4E4341",
"Y  c #4B4E42",
"T  c #4A4A48",
"R  c #504542",
"E  c #544643",
"W  c #514644",
"Q  c #554746",
"!  c #514843",
"~  c #534845",
"^  c #564845",
"/  c #554C47",
"(  c #584A47",
")  c #554A48",
"_  c #574C4A",
"`  c #594C49",
"'  c #5B4D4A",
"]  c #5A514B",
"[  c #5A514D",
"{  c #5D554D",
"}  c #5E5550",
"|  c #5F5852",
" . c #605953",
".. c #615A54",
"X. c #655E58",
"o. c #69625D",
"O. c #6A625D",
"+. c #6C6660",
"@. c #6D6F6C",
"#. c #716A64",
"$. c #726C66",
"%. c #766F69",
"&. c #74726D",
"*. c #78726C",
"=. c #78736D",
"-. c #79746E",
";. c #7D7872",
":. c #797B78",
">. c #807B75",
",. c #837E78",
"<. c #6A820F",
"1. c #6F8716",
"2. c #708814",
"3. c #738B14",
"4. c #768F1A",
"5. c #798F1B",
"6. c #7B9317",
"7. c #86817B",
"8. c #88847E",
/* pixels */
"G U U U U U U 2 , 2 W ` U ^ U G U R : > , 2 2 2 , H , 2 2 $ 1 G ",
"U U U U ^ W 2 U U 2 , # U $ = , , : = = = > R > = 2 1 1 1 1 1 U ",
"U U U U ~ ~ ) U B p : 4.# G 2 1 = , : : , # , 2 2 2 H 2 > N A , ",
", U R ^ ^ G U 2 t y s l , 1 2 G , > 2 < G 1 _ , 2 2 R o y , G G ",
"G R G R ` 1 b 3 j W V @ R , G 2 1 2 > , 1  .;.-.$ s s 3 C > R G ",
"R W E Q ~ A ; 2.1 a S = = , 1 2 2 R U G : X.-.2.+   @ t l : G G ",
"2 Q ^ G : s x s $ @ . = 1 # E = j , 2 2 , s > f 9 5.# q $ G G U ",
"E Q ^ U 5 , { =.%.o.U & = = > > 1.0 = j # ^ _ G 5 & k , , R U ) ",
"G G # C = =  .} ] ~ , #., # # 8 # 9 $ Z # Q ) ` S r F q = > U R ",
"= 7 O # = = + / ! , = ..~ # O > 1 2 U G 2 , ` k : t W U I O # # ",
"$ + $ > > = > = $ + > O @ 2 R 1 G H > , , > ( ~ U U ^ U U > , # ",
"> = = > , $ 1 > : 1 , # : > G , , , , > 7.= , G G G G G W > # = ",
"$ > : > > $ < , 2 , , w > , , , : > 8.,.$._ : R 2 2 U G G > = = ",
"= : > > = , , , 2 : @ n > > , , , : +.o.} , 2 q 1 > <.# # 2 $ = ",
"> > > , , 1 = U U G s j = > > 2 2 , ! / , t @ i h k 8 q s l $ = ",
"> > , 1 > = U U U y M 6.$ $ > , , , @ # O > G ` J 1 s b 2.$ = : ",
"> , , , : 1 2 2 k $ : s = D G # $ 0 $ # # > , G G R 2 M   q + = ",
"= : $ : > : # : 4.g m O = G G 2 2 G t t k , 2 2 > E G G H H > = ",
", 1 1 , R 2 G G X g 2.> > 2 ~ G 2 2 ^ t = , , , , 2 2 2 2 G > # ",
", : , , G G G , 2.p # = , : G R 1 , , c % j , , , 1 2 2 : 2 G , ",
"> > : , , 1 :.Y z y t > > , , , , # G P 9 u &.@.1 1 2 2 2 2 2 > ",
"# > > > > = - b v L b : > > : 1 , # 2 1 8 $ K T , : G 2 2 2 $ : ",
"= = = = = = C >.8.*.] = = = > > > , 2 , 2 , d > , , , , G , : = ",
"# $ # m = > , #.o.| 1 , : 1 2 = , G : G 2 G 2., , , , > G , : R ",
"G W = 6 4.+ =  .[ ! @ , : > > R , , G , > 1 , w : , 1 2 1 # _ U ",
"G 2 : O 9 t 8 > > . @ = , > > > , , 2 > = = # >   , , 2 G # 1 U ",
"1 U > O q g g t @ t p # < = , > > , , , , , , , # 1 > , , , > $ ",
", 1 G G F = B e , > 1 , , # > , > , , , > , , > 2 > > : , Z j > ",
"G U U ~ 1 1 # > 1 2 2 1 G 1 > =.*.> 2 # 8 , 1 2 , q   t j l G > ",
"U U U [ U 1 5 * 2 G G U U U G ~ ! 4 j <.  = : # = 2 j = 3 2 : # ",
"U U U U U U v b 2 1 1 2 W ~ # $ # G 1 $ t = = 2 2 G : > & = 1 2 ",
"U U 2 U U G 1 1 G U U U W ) ) G ^ ` 1 = , , 1 > 1 $ 2 2 1 = 1 U "
};
