/* XPM */
static char *meat_bg_ok1721740778[] = {
/* columns rows colors chars-per-pixel */
"32 32 192 2 ",
"   c #260101",
".  c #2C0101",
"X  c #330506",
"o  c #343E0E",
"O  c #393A1E",
"+  c #2D2523",
"@  c #302725",
"#  c #322926",
"$  c #362C29",
"%  c #392E2B",
"&  c #3A3724",
"*  c #3B312D",
"=  c #3E3431",
"-  c #480308",
";  c #560202",
":  c #5A0001",
">  c #5A050C",
",  c #630104",
"<  c #6C0001",
"1  c #65010A",
"2  c #6A000B",
"3  c #710004",
"4  c #75010A",
"5  c #7B0608",
"6  c #7A000D",
"7  c #6E0010",
"8  c #690B16",
"9  c #720011",
"0  c #7D0112",
"q  c #7B0715",
"w  c #79191A",
"e  c #720023",
"r  c #413633",
"t  c #443936",
"y  c #483A37",
"u  c #463C39",
"i  c #493E3B",
"p  c #792427",
"a  c #37430E",
"s  c #3A5204",
"d  c #3C4A12",
"f  c #435E02",
"g  c #4B5D0C",
"h  c #404E14",
"j  c #445316",
"k  c #4B5B19",
"l  c #4B6405",
"z  c #506506",
"x  c #516907",
"c  c #536B09",
"v  c #5D740D",
"b  c #576B1A",
"n  c #647C0D",
"m  c #697E16",
"M  c #697E18",
"N  c #48482C",
"B  c #4F4B35",
"V  c #4C413E",
"C  c #52433A",
"Z  c #5F7423",
"A  c #4E4341",
"S  c #514643",
"D  c #544945",
"F  c #564B49",
"G  c #594D4A",
"H  c #5B514F",
"J  c #615953",
"K  c #655E58",
"L  c #776965",
"P  c #79756D",
"I  c #7D7872",
"U  c #840E09",
"Y  c #8A0F0A",
"T  c #87110A",
"R  c #8C120D",
"E  c #88180D",
"W  c #92140F",
"Q  c #820014",
"!  c #890512",
"~  c #850019",
"^  c #88011B",
"/  c #881212",
"(  c #891810",
")  c #961611",
"_  c #9A1612",
"`  c #941811",
"'  c #9C1914",
"]  c #A11B16",
"[  c #A71B17",
"{  c #A41D19",
"}  c #A91F1A",
"|  c #93231F",
" . c #A5221C",
".. c #AC211C",
"X. c #AE281F",
"o. c #B2211C",
"O. c #92002D",
"+. c #8D003C",
"@. c #8B3C3F",
"#. c #993431",
"$. c #AA2622",
"%. c #AB2924",
"&. c #AD2E29",
"*. c #A8322B",
"=. c #B3322D",
"-. c #BC322F",
";. c #B63A34",
":. c #B93934",
">. c #B93B37",
",. c #C72A25",
"<. c #C43B38",
"1. c #BE413D",
"2. c #C1443E",
"3. c #953943",
"4. c #9D3E51",
"5. c #9E3E5A",
"6. c #85026A",
"7. c #BB4946",
"8. c #A65657",
"9. c #AC5A5D",
"0. c #A6446B",
"q. c #AD5E61",
"w. c #A54477",
"e. c #AF6161",
"r. c #B16263",
"t. c #BB6472",
"y. c #C14541",
"u. c #C44A45",
"i. c #C64E4A",
"p. c #C94E4A",
"a. c #C6514D",
"s. c #CA534E",
"d. c #D5544D",
"f. c #CB5652",
"g. c #C75952",
"h. c #CD5A56",
"j. c #CE5C59",
"k. c #D35953",
"l. c #D95853",
"z. c #D15E5B",
"x. c #D1665B",
"c. c #D3625D",
"v. c #E96058",
"b. c #D56561",
"n. c #D66A65",
"m. c #D96C68",
"M. c #DC716B",
"N. c #C16771",
"B. c #C46C7B",
"V. c #C77074",
"C. c #DD7671",
"Z. c #DD7972",
"A. c #E27A75",
"S. c #E47D79",
"D. c #F37A72",
"F. c #6C830F",
"G. c #758D19",
"H. c #8E817F",
"J. c #ED8177",
"K. c #E3827D",
"L. c #EB897D",
"P. c #9103A8",
"I. c #A84F8C",
"U. c #BE638F",
"Y. c #C97482",
"T. c #CC7A84",
"R. c #CF7D8B",
"E. c #C26992",
"W. c #C86BAB",
"Q. c #CC75BA",
"!. c #CF7EC1",
"~. c #D27DCA",
"^. c #D3848D",
"/. c #D58895",
"(. c #E68A83",
"). c #EB8E81",
"_. c #EE8A88",
"`. c #E89688",
"'. c #F8998C",
"]. c #E59C95",
"[. c #F39D92",
"{. c #EDA396",
"}. c #F5A69B",
"|. c #F4AE9E",
" X c #EAAEA4",
".X c #F6B6A7",
"XX c #F2B0A8",
"oX c #F5BFB3",
"OX c #F6C5B8",
"+X c #FFDAD5",
"@X c #FDE7DC",
"#X c #FEECEA",
/* pixels */
"V A A A S S A i = A A H A D A V A A = = t V V V r C t i i * t V ",
"A A A A S S i A A V = % A % * t t = * * * = V r * V i t y t i A ",
"A A A S D D D A F.k = G.# A V = * t = * = $ t i V i C V r v N t ",
"t A S S D V A i j k l v = V V V t * V V V V F t V i V O k t V V ",
"A S A A G -.-.i.;.k.XX# A u V A t V r t t J I P % l l a m r S A ",
"A S S 7.V.b.K.Z.C.M.b.j.c.<. Xi V V A V = K P G.@ o # h v = i A ",
"i D v.@X(.(.K.A.C.m.b.z.j.j.i.g.|.L i i t l t l d G.$ f % i V S ",
"S ,.#X@X(.K.S.Z.b.b.z.j.h.f.s.f.i..X|.c % D F V h * v t y S A F ",
"A ,.(.+X(.Z.n.b.b.b.j.h.f.f.s.p.u.u.|.2.X.S F G j h B f = r A S ",
"* +.-._.m.b.n.b.j.j.j.h.f.f.p.p.u.y.2.s.:.X.G c r j S A Z + $ $ ",
"% P.O.<.b.b.b.b.j.j.h.f.f.i.u.u.2.k.f.:.:.-...] S A D A A r t % ",
"= P.^./.oXOXOX`.j.h.h.f.p.p.i.7.z.>.:.;.=.=.%...[ V V V S r $ % ",
"% ~./././. X].j.j.h.f.a.a.i.u.y.c.k.f.i.{.[. .]  .] D V i r r * ",
"= ~.!.^.^.^.XXj.h.h.f.a.i.u.u.b.c.k.s.=.=.[. . .] ] ] | $ i % * ",
"r I.Q.T.R.T.R.p.g.f.A.Z.C.M.n.b.j.k.=.=.&.$...L.] ] ' _ ) v % * ",
"r t W.6.Y.Y.T.|.A.S.A.C.M.m.n.c.;.=.=.&.%...] ] ' ) _ _ ) W * r ",
"r r 0.W.E.Y.B.Y.}..XA.M.}.n.1.:.;.=.&.%.] ] ] ' ' ' ) ) W R # * ",
"% r $ I.E.t.B.V.V.o.k.l.d... .} {  .[ { ] ] ' ' _ L.` W W T / * ",
"y y i t w.U.t.t.^ ^ Q l.d.d.} } ..{ { { ] ' _ _ L.L.L.` E ( Y $ ",
"t r t u L 0.U.^ ^ ~ ~ '.'.c.}  .' { ' ' ' ` _ W ` ( R R R *.5 u ",
"r r * t t 4.5.e ^ Q ~ ! } ..`.g. .] ' ' _ A.L.) W Y R R Y T ; r ",
"% r r r = % 4.9 4 Q 0 0 { { { { ' _ ).L.L.W W W | R R T J.5 % r ",
"r * * * = * M 9 9 7 9 N.q Q ] ] ' _ _ _ D.` ( E R L.T T T < = * ",
"# % % b * = = L 7 9 8 2 Q 6 0 6 0 5 _ ) ) x.( *.L.J.U U < ; = A ",
"V S % s G.@ % J L 7 7 7 3.0 6 6 6 6 4 3 < 3 r.r.r.< 3 < ; - G V ",
"V i = + d j a t u 7 7 2 3.2 2 6 6 q #.q 4 w q.r.3 < , ; ; $ u S ",
"t A r + f x x j # j 1 3.2 1 1 1 > 2 9.9.8.q.< < : : ; ;   u r % ",
"t u V V B = n g u = u X > 2 1 1 , , @.8 p : , ; : ;   r r m z r ",
"A A A D u u % = u u V t V u = H.X X . . . . . . . C o j c v A r ",
"A A A H A u s & u V A A A A A D S a c F.a * = $ * i x * a i = $ ",
"A A A A A A b b u u u A D D $ % $ A i % j * * i i V = r & * u i ",
"A A V A A A u u A A A A A D F V D F i * t t t r t % i i u % u A "
};
