/* XPM */
static char *opened_door1721731042[] = {
/* columns rows colors chars-per-pixel */
"32 32 109 2 ",
"   c black",
".  c #343E0D",
"X  c #393A1E",
"o  c #2D2522",
"O  c #312725",
"+  c #332926",
"@  c #362C29",
"#  c #392E2B",
"$  c #3B3525",
"%  c #3B3C20",
"&  c #3B322D",
"*  c #3D382B",
"=  c #3E3431",
"-  c #413632",
";  c #443936",
":  c #463C39",
">  c #493E3B",
",  c #35410E",
"<  c #3A460E",
"1  c #3D4C08",
"2  c #3A5204",
"3  c #3E4C13",
"4  c #435E02",
"5  c #445316",
"6  c #4B5B19",
"7  c #4C6505",
"8  c #516806",
"9  c #536B09",
"0  c #5C740D",
"q  c #4F6019",
"w  c #52641C",
"e  c #596D1F",
"r  c #5D7711",
"t  c #657D0C",
"y  c #697F13",
"u  c #697E18",
"i  c #4B4C2B",
"p  c #4F4B35",
"a  c #4C413E",
"s  c #51433F",
"d  c #755934",
"f  c #5F7423",
"g  c #4E4341",
"h  c #524643",
"j  c #544945",
"k  c #564B49",
"l  c #584D4A",
"z  c #5C534E",
"x  c #605953",
"c  c #79746E",
"v  c #846843",
"b  c #8E704E",
"n  c #887056",
"m  c #977957",
"M  c #9A7C56",
"N  c #9B7C5B",
"B  c #9A7F64",
"V  c #6C830F",
"C  c #728A15",
"Z  c #768E1A",
"A  c #798F1B",
"S  c #9C825E",
"D  c #9F8461",
"F  c #9C856A",
"G  c #9C8D73",
"H  c #968E7B",
"J  c #9D927C",
"K  c #A38665",
"L  c #A38B6D",
"P  c #A58D73",
"I  c #A69176",
"U  c #AC957C",
"Y  c #AC987D",
"T  c #B19977",
"R  c #B0967D",
"E  c #A99980",
"W  c #AE9F88",
"Q  c #B4A48D",
"!  c #BCA58D",
"~  c #B8A88F",
"^  c #AFA99B",
"/  c #B6A691",
"(  c #BAA691",
")  c #B4A991",
"_  c #BBAA95",
"`  c #BBAD99",
"'  c #BFB099",
"]  c #B7B1A3",
"[  c #B8B2A6",
"{  c #BCB6AA",
"}  c #BFB9AD",
"|  c #C3AB95",
" . c #C4AE9A",
".. c #C2B19C",
"X. c #C9B29C",
"o. c #C5B5A2",
"O. c #C8B6A2",
"+. c #C7B8A5",
"@. c #CBB9A5",
"#. c #C4BAAC",
"$. c #CCBCAA",
"%. c #D1BEAE",
"&. c #C4BDB2",
"*. c #CFC6A7",
"=. c #D4C3B4",
"-. c #D8C6B6",
";. c #DAC9BA",
":. c #E3D9BE",
">. c #DDD8C5",
/* pixels */
"a g h g g h g > ; a g l g j g g g g = = : > > > ; s ; > > # > a ",
"g g a g h h > g g : ; @ g @ # : ; = = # & = h - & > > ; > ; : a ",
"g g g h j j k g t q - Z @ a =.=.%.@.*.= ; @ ; > > > s > - 0 i - ",
"; g h h j a g > 5 6 7 >.$.$.*.#.$.#.+.' ' :.k ; a a s X 6 : > g ",
"a h a j l : w , 9 h -.F O.m D S B N K S _ n =.c @ 7 7 . u - h a ",
"h h h h h i * C ; =.=.F S               K N $.$.O . + 5 0 = > g ",
"> h h g = 7 w 7 $.=.K                       K $.$.A @ 4 # > > h ",
"h k j g 1 ; z  .+.K                           K o.o.0 ; : h g l ",
"> > @ y # & x o.X.N                           N  . .p 4 = = g h ",
"- 4 o @ & & ` -.d                               B -.H g f o + @ ",
"# O @ - - & ..L v                               B F G g g - : @ ",
"- # - - - # Q W b                               F ( ^ g h - @ # ",
"@ - - - - + Q ( N                               L W ^ a a - & & ",
"- - - ; - ; ~ / N                               P ~ ^ @ @ > # & ",
"- - - ; ; ; ! _ N                               P | ` 7 7 0 & & ",
"- - ; ; - # ! _ N                               P ! ] w C & & & ",
"- ; ; ; = : _ ' N                               U | [ r . 4 O # ",
"& & # * = = ` ' N                               I | { a s s ; # ",
"; > a ; h a ..' N                               U | { > > s - @ ",
"- - : ; a a ..' N                               U | } > - > > : ",
"- ; & ; ; : ..X.N                               U  .} > > > > - ",
"# - - - & & ..O.N                               R  .} > > > # - ",
"& - & & & & o.+.N                               Y X.#.: > ; - # ",
"+ @ @ e & - O.+.N                               R X.&.- a - = h ",
"a h # 2 Z o +.@.N                               E X.&.> > @ l a ",
"a > = o 3 5 +.@.M                               R X.&.> > @ : h ",
"; g = o 4 8 #.=.N                               Y -.J ; ; ; - & ",
"; : g a p & ..T N / / / ) ) ( ) ) ( ~ ) ) Q Q Q U ( G - - u 8 - ",
": g g k > ; @ = { -.-.;.;.;.;.;.-.-.=.=.=.%.$.$.@.4 . 5 9 r a - ",
"g g g z h : 1 % : a a g h g a j j < 9 V . & = @ & : 9 & . > = @ ",
"g g g g g g r w : : : g j j + # @ g ; & 5 & & > > g = - $ = : > ",
"g g a g g a : : g g g g g k k g j k : & ; ; ; - : # > : : # : g "
};
