/* XPM */
static char *sprite_idle_on_closed_door1721804395[] = {
/* columns rows colors chars-per-pixel */
"32 32 204 2 ",
"   c #050300",
".  c #0D0202",
"X  c #150100",
"o  c #1B0201",
"O  c #140009",
"+  c #240101",
"@  c #2A0201",
"#  c #270608",
"$  c #320200",
"%  c #390000",
"&  c #3B0B06",
"*  c #38150B",
"=  c #29021E",
"-  c #370C12",
";  c #3C1E1D",
":  c #333D0D",
">  c #332019",
",  c #393A1E",
"<  c #321122",
"1  c #2D2522",
"2  c #372623",
"3  c #312725",
"4  c #362C29",
"5  c #392E2B",
"6  c #3C3825",
"7  c #3B322D",
"8  c #3E3431",
"9  c #430C01",
"0  c #420C0C",
"q  c #510D00",
"w  c #411301",
"e  c #4B1303",
"r  c #47140B",
"t  c #44180E",
"y  c #581602",
"u  c #481817",
"i  c #6E1700",
"p  c #66181A",
"a  c #4D230B",
"s  c #40211C",
"d  c #5A2816",
"f  c #69270A",
"g  c #602C0D",
"h  c #7C2500",
"j  c #7C2C07",
"k  c #75260B",
"l  c #7E2A0C",
"z  c #6A2514",
"x  c #632A12",
"c  c #732915",
"v  c #603115",
"b  c #671622",
"n  c #6C1C25",
"m  c #771E2A",
"M  c #512620",
"N  c #4B3A20",
"B  c #413632",
"V  c #443936",
"C  c #463C39",
"Z  c #4A3E3B",
"A  c #663423",
"S  c #753D29",
"D  c #7B2534",
"F  c #35410E",
"G  c #3A460E",
"H  c #3D4C08",
"J  c #3D5703",
"K  c #3E4C13",
"L  c #435E02",
"P  c #445316",
"I  c #4B5B19",
"U  c #4C6505",
"Y  c #516806",
"T  c #536B09",
"R  c #5C740D",
"E  c #4F6019",
"W  c #52641C",
"Q  c #596E19",
"!  c #5D7711",
"~  c #637A0D",
"^  c #697E15",
"/  c #4B4C2B",
"(  c #4C4736",
")  c #4C413E",
"_  c #51433F",
"`  c #784937",
"'  c #755639",
"]  c #5F7423",
"[  c #343F41",
"{  c #563E45",
"}  c #4E4341",
"|  c #4F444E",
" . c #524643",
".. c #544945",
"X. c #564B49",
"o. c #584D4A",
"O. c #5C534E",
"+. c #4B5657",
"@. c #654E54",
"#. c #665557",
"$. c #7A6047",
"%. c #595E62",
"&. c #5E6C6C",
"*. c #79746E",
"=. c #6A7579",
"-. c #832B07",
";. c #933D18",
":. c #8A2224",
">. c #933A2C",
",. c #862B34",
"<. c #952839",
"1. c #972A3D",
"2. c #9C2D3A",
"3. c #A0242C",
"4. c #A32C3E",
"5. c #A4313C",
"6. c #97461B",
"7. c #A4481D",
"8. c #894729",
"9. c #8C4A2B",
"0. c #944624",
"q. c #9A4524",
"w. c #9C4A24",
"e. c #924B2F",
"r. c #9D4A2C",
"t. c #8E552F",
"y. c #90562E",
"u. c #884938",
"i. c #904D32",
"p. c #855137",
"a. c #9B583B",
"s. c #A24528",
"d. c #AB5D2F",
"f. c #B25D31",
"g. c #B95D33",
"h. c #97613D",
"j. c #B1622F",
"k. c #B26C2E",
"l. c #A96532",
"z. c #AD643D",
"x. c #BA6838",
"c. c #C06B3A",
"v. c #A72D40",
"b. c #AA3347",
"n. c #AE3245",
"m. c #B13244",
"M. c #B33449",
"N. c #B63948",
"B. c #C43B4F",
"V. c #C83B51",
"C. c #A55C49",
"Z. c #866A4E",
"A. c #8E704E",
"S. c #9A7C56",
"D. c #9B7C5B",
"F. c #A96748",
"G. c #B46443",
"H. c #B6654A",
"J. c #B76948",
"K. c #A56A58",
"L. c #B86F5E",
"P. c #956F62",
"I. c #997D67",
"U. c #977B69",
"Y. c #758C18",
"T. c #9E855D",
"R. c #9B8366",
"E. c #9B846C",
"W. c #9A8D75",
"Q. c #9D927C",
"!. c #A38665",
"~. c #A2896B",
"^. c #AC977E",
"/. c #B1987A",
"(. c #A99985",
"). c #B4A48D",
"_. c #BCA58D",
"`. c #B8A88F",
"'. c #AFA99B",
"]. c #B6A691",
"[. c #BCA690",
"{. c #BBAA95",
"}. c #B6AB98",
"|. c #BFB099",
" X c #B4AEA0",
".X c #B8B2A5",
"XX c #BCB6AA",
"oX c #C3AB95",
"OX c #C4AE9A",
"+X c #C2B19C",
"@X c #C9B29C",
"#X c #C5B5A2",
"$X c #C8B6A3",
"%X c #C7B8A5",
"&X c #C9B9A5",
"*X c #C4B6AA",
"=X c #CCBCAA",
"-X c #D1BEAD",
";X c #C4BDB2",
":X c #D5C3B4",
">X c #D8C6B6",
",X c #D9C9B9",
"<X c #E3D9BE",
"1X c #DDD8C5",
/* pixels */
") }  .} }  .} Z V Z } o.} ..} } { } 7 8 V Z Z Z V ) V Z Z 5 V _ ",
"} } ) } .. .C } } ) C 4 } 4 5 # * * 5 5 8 8  .B 7 Z V C Z C V  .",
"} } }  .....X.} ~ E 8 Y.4 ) ; r 9 e u 8 V 4 V Z Z Z _ Z 8 ! / B ",
"V }  . ...) } Z P I U 1X;X%X* + u.d t O OX<XX.V ) Z  ., I 8 { } ",
")  .Z  .o.C W F T  .>X!.$X- * e G.i.# e (.Z.-X*.5 U U : Y.8  .} ",
" . ... . ./ 6 Y.C :X:XE.T.@ w + 8.c * r $.I.=X-X3 : 3 P T 8 Z } ",
"Z  ... .B U I U -X=XR.9 b 0 y + 9.j * w X 9 !.=X=XY.4 L 5 ) Z  .",
"......} H V O.+X*X!.d # p % e @ 0.8.& y ` + & ~.#X%XR V V  .} X.",
"Z Z 4 ^ 7 7 #.#X+XS.# G.7.H.$ X C.% 9 C.6.f.p.Z.OXOX( U 4 8 }  .",
"B L 3 2 7 7 |.:X' n # 6.c.q.z.9 s.9.h.G.;.7.9.0 I.:XQ.} ] 1 4 4 ",
"5 2 5 B B 7 +X~.Z.| M 6.x.h ;.g.s.z.w.k i g.k o R.E.W.} } B V 4 ",
"B 5 7 B B 4 ).).A.n S g.x.y r.q.w.j -.0.% l.j + E.].}.)  .8 4 7 ",
"4 B B B B 7 ).].S.n ` k g D f 6.q.r.w.@ ,.g q.+ ~.).'.) ) 8 7 7 ",
"7 B B B B B ].`.D.o F.d.$ D X X X X X X <.>.6.d U.). X7 4 ) 7 7 ",
"B B B V B V [.{.D.X J.H.o # X   ) . . X D d 6.p.U._.}.L Y R 4 7 ",
"B B V V B 7 {.{.D.# K.A m @ L.p.  . H.t.,.+ ` ' U._.}.W Y.4 7 B ",
"B V V V 7 C {.{.T.  N { @.a.k.x.v 9.x.x.$ #.o > U.[..X! : L 3 5 ",
"7 8 5 7 B 8 |.|.D.X K.+ b z.k.7.g r.j.x.c p ` P.E.oX.X{ } _ B 8 ",
"V C ( V  .) +X+XD.o x.t.,.J.g.l + ` G.6.y.# H.' E.oXXXZ Z  .B 4 ",
"V B V C ) ) +X+XT.O a f ,.F.f.A p $ F.s.e.@ f + E.OXXXZ B Z Z V ",
"B B 7 V V C +X+XD.2.1.<.2.a.h + :.5.x ;.z.b.v.<./.OX;XZ Z Z Z B ",
"5 B B B B 4 +X&XD.2.M.M.b.J.l o :.4.g l.t.n.v.2.^.OXXXC Z Z 5 7 ",
"5 B 7 7 7 7 #X%XD.2.n.M.+ >.s.X p 4.p w.e.1.n.2.^.@X;XV Z V B 5 ",
"4 5 4 Q 7 B $X&XD.&.[ =.o @ @   +.=.o @ + %.+.%./.@X;XB ) V 8  .",
"}  .5 J Y.3 *X=XS.b.M.n.# c d v.u N.# y z 4.m.4.(.@X;XZ C 4 o. .",
"{ Z 7 1 K K %X&XS.v.M.N.# c o B.s V.m.* f 4.n.5.^.@X;XC Z 4 C _ ",
"8 } 8 1 U Y &X:XD.:.N.m.@ y o 3.> V.n.w f :.5.:.^.>XQ.V V V B 7 ",
"8 ) } } / 7 +X/.S.).`.'.- r (.).`.oX`.@ p (.].)./._.W.B V ^ Y B ",
"} } } X.C C 4 8 XX>X>X-Xq d *X,X>X:X:X- g @ =X=X&XL : P T Q ) B ",
"} } } O.} C H 6 ) } } < u > Z ....G T * t u = 4 7 Z T 7 : Z B 4 ",
"} } } } } } Q W C 8 Z Z ....4 4 4 } C 5 P 7 7 Z Z } 7 B 6 7 V Z ",
"[ } ) } } } 8 ) { } } }  .X...} ..o.Z 7 V V V B V 5 Z Z V 7 C } "
};
