/* XPM */
static char *sprite_left_on_closed_door1721810968[] = {
/* columns rows colors chars-per-pixel */
"32 32 200 2 ",
"   c #0E0000",
".  c #150000",
"X  c #1D0000",
"o  c #1C0009",
"O  c #230000",
"+  c #2C0002",
"@  c #24020E",
"#  c #2B020B",
"$  c #340101",
"%  c #390102",
"&  c #34030B",
"*  c #390809",
"=  c #290316",
"-  c #360416",
";  c #380211",
":  c #391618",
">  c #3A1C1C",
",  c #343D0D",
"<  c #393D19",
"1  c #3C1826",
"2  c #2D2522",
"3  c #372623",
"4  c #312725",
"5  c #362C29",
"6  c #392E2B",
"7  c #3C3728",
"8  c #3B322D",
"9  c #3E3431",
"0  c #450B07",
"q  c #4B0E04",
"w  c #4E1406",
"e  c #44140A",
"r  c #4B120C",
"t  c #531203",
"y  c #440B14",
"u  c #481715",
"i  c #411815",
"p  c #561D1B",
"a  c #611000",
"s  c #641413",
"d  c #5F231B",
"f  c #5C291B",
"g  c #752404",
"h  c #652513",
"j  c #6B2516",
"k  c #672A17",
"l  c #632B1D",
"z  c #702714",
"x  c #6E1521",
"c  c #6C1B26",
"v  c #6E1F2E",
"b  c #7A1C29",
"n  c #572A27",
"m  c #473F2D",
"M  c #413632",
"N  c #443936",
"B  c #463C39",
"V  c #4A3E3B",
"C  c #612B22",
"Z  c #79202B",
"A  c #35410E",
"S  c #3A460E",
"D  c #3D4C08",
"F  c #3E4C13",
"G  c #435E02",
"H  c #445316",
"J  c #4B5B19",
"K  c #4C6505",
"L  c #516806",
"P  c #546C09",
"I  c #5C740D",
"U  c #4F6019",
"Y  c #52641C",
"T  c #596E19",
"R  c #5D7711",
"E  c #697E15",
"W  c #4B4C2B",
"Q  c #4F4B35",
"!  c #4C413E",
"~  c #51433F",
"^  c #5C423D",
"/  c #7E4D3D",
"(  c #755934",
")  c #5F7423",
"_  c #4E4341",
"`  c #524643",
"'  c #544945",
"]  c #574249",
"[  c #564B49",
"{  c #584D4A",
"}  c #5C534E",
"|  c #514750",
" . c #4B5658",
".. c #61464F",
"X. c #734E4A",
"o. c #7A5247",
"O. c #684F57",
"+. c #525961",
"@. c #5E6C6C",
"#. c #737575",
"$. c #86242A",
"%. c #94282C",
"&. c #8C2637",
"*. c #932937",
"=. c #952839",
"-. c #9B2C3C",
";. c #A0242C",
":. c #A22C3D",
">. c #96451D",
",. c #99441E",
"<. c #8F4727",
"1. c #8E462E",
"2. c #8B492D",
"3. c #944725",
"4. c #994422",
"5. c #964529",
"6. c #894737",
"7. c #844932",
"8. c #894933",
"9. c #824A3C",
"0. c #8B493C",
"q. c #934A37",
"w. c #AE653E",
"e. c #BA6737",
"r. c #B5653B",
"t. c #B7673C",
"y. c #BA683B",
"u. c #90384B",
"i. c #A32E40",
"p. c #A92E41",
"a. c #A73043",
"s. c #A93246",
"d. c #B73747",
"f. c #B3354A",
"g. c #BB3B51",
"h. c #C33A4D",
"j. c #C83B51",
"k. c #844E40",
"l. c #8A4D5D",
"z. c #8E704E",
"x. c #9A7C56",
"c. c #9B7C5B",
"v. c #AE6749",
"b. c #B56544",
"n. c #BB6640",
"m. c #B56946",
"M. c #B2674C",
"N. c #B86B48",
"B. c #AD6752",
"V. c #A86952",
"C. c #A46C5E",
"Z. c #96566A",
"A. c #8D5479",
"S. c #94517A",
"D. c #9A7A69",
"F. c #A76C63",
"G. c #6C830F",
"H. c #758C18",
"J. c #A0815F",
"K. c #9D8666",
"L. c #9A8D75",
"P. c #9D927C",
"I. c #A38665",
"U. c #A48C6A",
"Y. c #A8887A",
"T. c #AC987D",
"R. c #B1987A",
"E. c #AC9C84",
"W. c #B49D8C",
"Q. c #AC9796",
"!. c #B4A48E",
"~. c #AFA79A",
"^. c #B6A591",
"/. c #BCA690",
"(. c #B5A991",
"). c #BAA993",
"_. c #BBAC99",
"`. c #BFB099",
"'. c #B8B2A6",
"]. c #BCB6AA",
"[. c #BFB9AD",
"{. c #C3AB95",
"}. c #C4AE9A",
"|. c #C2B19C",
" X c #C9B29C",
".X c #C9AEA5",
"XX c #C5B5A2",
"oX c #C7B5A7",
"OX c #C7B8A5",
"+X c #C9B9A5",
"@X c #C4BAAC",
"#X c #CDBCAB",
"$X c #D1BEAD",
"%X c #C4BDB2",
"&X c #CFC6A7",
"*X c #D4C3B3",
"=X c #D8C6B6",
"-X c #D9C9B9",
";X c #E3D9BE",
":X c #DDD8C5",
/* pixels */
"! _ ` _ _ ` _ V 9 _ _ } _ | _ ! _ _ 9 M B V V ! M ~ N V V 6 V ! ",
"_ _ ! _ ' ` B _ _ ! 9 5 _ 5 8 N N 9 8 8 8 M ~ M 7 ! V N V N B ! ",
"_ _ _ ` ' ' [ _ G.U 9 H.5 _ @X# # .X&X8 M 6 N V V V ~ V 9 R W N ",
"N _ ` ` ' ! _ V H J K :X@ 1 i w w r # |.}.;X{ N V V ` < J N ! ! ",
"~ ` ! ' { B Y A P ' =XD.X X.O e r q u & _.z.$X#.6 K K , E M ` ! ",
"` ` ` ` ` W 7 H.B *X*XD.O C.7.O i t r O K.c.#X#X2 A 4 H T M V V ",
"V ` ' ! 9 K U K #X#XK.* Z + C.n + r r i o 0 I.@X#XH.5 G 6 ! ` ` ",
"' ` ' _ D N } |.oXK.f c u.l.O X > O O : . @ p I.oXXXI N N ` _ ] ",
"V V 5 E 6 8 } XX|.C.v &.u C / X X.. O O / / f ; }.|.Q G 6 9 _ ` ",
"M G 2 5 8 8 `.=X( C &.& B.m.5.V.$ X $ t n.r.N.0.D.=XP._ ) 2 5 5 ",
"5 3 5 M N 9 }.U.z.| +.& 2.b.g ,.,.y.4.4.a 4.,.g % K.L._ _ M N 5 ",
"M 6 M M 9 6 W.W.z.Z =.@ % 5.r.,.y.e.y.,.5.m.>.n.q.; ~.! ` M 5 8 ",
"5 M M M M 5 !.^.z.Z &.O d $ 3.g ,.,.n.n.5.5.b.y.N.h $ ! ! M 9 8 ",
"M M M M 8 m ^.^.c.$.i.# h 0.% h 8.2.j 5.l Z.Z.k r.M./ 6 5 V 6 8 ",
"M M M N N N /.^.D.u.@ O B.6.O X O O O X X A.S./ N.z $ K L I 6 8 ",
"M M N N M - & F.C.X > 1 + y o   _ . X X . S.A.O 8.* Q.U H.6 8 9 ",
"M M N V 9 ] * C * ..O.O.O.* V.+ O v.y.e.M.$ o.^ Y./.'.R , G 4 6 ",
"8 8 8 8 9 9 }._.D.x x x $ 0.w.9.$ t.r.b.,.M.7.+ T.{.'.~ ` ~ M 6 ",
"B V B N ` ! |.`.J.*.:.s./ M.y.7.% y.e.t m.v.k b T.{.].V V ` M 6 ",
"N 8 B B ! ! |.`.c.*.i.+ g r.>.9.% y.e.,.g + :.-.T.{.].V M V V N ",
"M M M N N B |.OXc.-.:.9.3.3.5.9.% m.4.,.1.$ a.*.T.}.@XV V V V M ",
"5 M M M 9 6 |.OXc.:.d.k.4.m.k f.$.8.4.,.0.f.a.-.T.}.[.V V V 6 8 ",
"8 8 8 7 9 6 |.OXJ.-.f.& M.5.k.g.s & 8.5.<.f + i.E. X%XN V N M 6 ",
"5 6 5 T 7 9 OX].c.@.9 # $ & $ =  .#.$ B.2.C.O @ R. X%XM V N M ` ",
"V ` 8 D H.4 OX@Xc.p.d.- C t k * u f.h.* $ t j e E.}.%XV B 6 ] ` ",
"_ V 9 2 F F +X#Xx.:.d.f.f k l y i j.j.h.; j a q R. X%XV V 3 V ` ",
"N _ 9 2 G L OX*Xc.$.d.d.l h $ ;.3 j.d.d.%.%.& l $ -XP.N N B M 6 ",
"N B _ ! Q 7 }.R.c.!.^.W.l k & (.).).(.(.!.^.!.r t W.L.M N E L M ",
"_ _ _ ' ! B 5 9 '.-X.Xr z z # -X=X-X*X*X*X$X#X& z e # H L T ! M ",
"_ _ _ } _ B S W = n n n e : : ' _ S P G.A = 1 : r + @ 8 , V 8 6 ",
"_ _ _ _ _ _ T Y _ N B ! ` ' 4 6 6 _ B 6 H 8 8 V ! ! 9 9 7 8 V V ",
"_ _ _ _ _ ! N N ! _ _ _ ` [ [ _ ` { B 9 N N N M N 8 V B N 8 B _ "
};
