/* XPM */
static char *_eff3b7c51a54a4683489ed98899dc27OqNiKcMyaBmwTkTu[] = {
/* columns rows colors chars-per-pixel */
"32 32 187 2 ",
"   c #090000",
".  c #140001",
"X  c #1C0001",
"o  c #230000",
"O  c #2C0102",
"+  c #24020D",
"@  c #2C020C",
"#  c #28080A",
"$  c #340101",
"%  c #3A0101",
"&  c #34020C",
"*  c #230014",
"=  c #290314",
"-  c #230018",
";  c #310516",
":  c #300B15",
">  c #3F1A14",
",  c #381818",
"<  c #3B1B1A",
"1  c #333E0D",
"2  c #2C231F",
"3  c #393A1E",
"4  c #3A1323",
"5  c #3C1B23",
"6  c #2D2522",
"7  c #302725",
"8  c #342927",
"9  c #362C29",
"0  c #392E2B",
"q  c #3A3326",
"w  c #3B312D",
"e  c #3A392A",
"r  c #3D2F31",
"t  c #3E3431",
"y  c #4A0C01",
"u  c #480D0A",
"i  c #510D07",
"p  c #4D1204",
"a  c #43130B",
"s  c #49110C",
"d  c #521502",
"f  c #5E1401",
"g  c #471310",
"h  c #481411",
"j  c #441810",
"k  c #45141B",
"l  c #620E00",
"z  c #5B2619",
"x  c #5D291D",
"c  c #672308",
"v  c #6F260F",
"b  c #752302",
"n  c #722408",
"m  c #642515",
"M  c #6A2415",
"N  c #622813",
"B  c #6A2915",
"V  c #622719",
"C  c #6D2618",
"Z  c #612A1A",
"A  c #562720",
"S  c #592929",
"D  c #413633",
"F  c #443936",
"G  c #453639",
"H  c #463C39",
"J  c #4A3E3B",
"K  c #5E3E3B",
"L  c #612B21",
"P  c #35410E",
"I  c #3E4C0B",
"U  c #3D5703",
"Y  c #394611",
"T  c #3E4C13",
"R  c #445E03",
"E  c #404E14",
"W  c #445316",
"Q  c #485817",
"!  c #46521B",
"~  c #4C5C1A",
"^  c #4C6505",
"/  c #4A6109",
"(  c #506506",
")  c #516907",
"_  c #536C0A",
"`  c #57700B",
"'  c #5C740C",
"]  c #5F790F",
"[  c #4F6019",
"{  c #5A6F11",
"}  c #52631C",
"|  c #5B621A",
" . c #596D1F",
".. c #5D7711",
"X. c #60770E",
"o. c #657D0C",
"O. c #617512",
"+. c #697E14",
"@. c #6B7C1A",
"#. c #4B4C2B",
"$. c #4C5424",
"%. c #555827",
"&. c #4F4B35",
"*. c #4C413E",
"=. c #50433F",
"-. c #535933",
";. c #7D4B3A",
":. c #5A6624",
">. c #5F7423",
",. c #6A6336",
"<. c #533D41",
"1. c #4E4341",
"2. c #4B4E42",
"3. c #4A4A48",
"4. c #524543",
"5. c #544945",
"6. c #584A47",
"7. c #594248",
"8. c #564B49",
"9. c #594D4A",
"0. c #5C534E",
"q. c #5E5550",
"w. c #614F4F",
"e. c #7F4741",
"r. c #764B49",
"t. c #6D534C",
"y. c #7A5146",
"u. c #605953",
"i. c #655E58",
"p. c #73505A",
"a. c #6F6162",
"s. c #6D6F6C",
"d. c #716A64",
"f. c #766F69",
"g. c #70726E",
"h. c #78736C",
"j. c #7D7872",
"k. c #797B78",
"l. c #983F19",
"z. c #96431D",
"x. c #9A431C",
"c. c #8D4223",
"v. c #8C462B",
"b. c #8C482D",
"n. c #994521",
"m. c #934821",
"M. c #954429",
"N. c #874634",
"B. c #8D4531",
"V. c #854832",
"C. c #8A4A32",
"Z. c #80463E",
"A. c #8D463A",
"S. c #844B3B",
"D. c #8A493B",
"F. c #924932",
"G. c #904A39",
"H. c #B96636",
"J. c #B3643B",
"K. c #B9663B",
"L. c #B3683B",
"P. c #BE683C",
"I. c #824640",
"U. c #AB644D",
"Y. c #AD6C49",
"T. c #B46444",
"R. c #B96540",
"E. c #BA6A43",
"W. c #B5664A",
"Q. c #B36C4B",
"!. c #A66852",
"~. c #AB6A55",
"^. c #A26C5C",
"/. c #864F61",
"(. c #91586B",
"). c #885976",
"_. c #8A5779",
"`. c #83626F",
"'. c #807B75",
"]. c #897E7E",
"[. c #A26561",
"{. c #A16C60",
"}. c #68810F",
"|. c #718915",
" X c #738B14",
".X c #768E1A",
"XX c #798F1B",
/* pixels */
"*.1.1.1.1.1.1.J F J 4.9.1.5.1.*.1.4.t D F J J J F =.F J J 0 H *.",
"1.1.1.1.5.4.J 1.1.J F 9 1.0 w F F t w w w D 4.D w J H F H F F 1.",
"1.1.1.1.5.5.8.1.o.~ t .X9 *.4.+ @ J t t F 9 F J J J =.J D X.#.F ",
"F 1.4.5.5.*.1.J W Q ^ ' F @ s p p j 5 = *.H 8.F J J 4.3 Q F *.*.",
"*.4.*.4.9.F } P _ 4.O.8 @ h y p a o r.X 4.u.j.h.0 ^ ^ P +.D 4.*.",
"4.4.4.5.5.#.e |.H / $.w o a p > o V.{.o J i.h.|.7 1 8 W ' t *.*.",
"J 5.5.*.t ^ [ ^ 0 8 2 . > a s O A ^.O <.F ^ D ( T XX9 R 0 *.*.1.",
"4.5.5.1.I F 0.h.f.a.+ . < o o < . o p.,.9 5.8.*.I q ' F F 4.1.8.",
"*.*.9 +.w w u.q.& x ;.;.o o . t.o ;.A k 0 5.8.9.$.E &.R w D 1.4.",
"w U 6 9 w w 7 w.A.W.J.E.d O X $ ~.v.T.U.& F 9.` t W 4.1.>.6 9 9 ",
"0 7 0 D D w D % b z.n.l n.z.K.x.l.b T.b.& D 6.5.1.1.5.1.1.D F 9 ",
"D w w D F t & G.K.z.T.M.x.P.H.K.x.J.F.% + w F *.*.*.*.*.4.D 9 w ",
"0 D t D D $ M E.K.T.M.M.R.R.z.n.b c.$ z o 8.t 4.J J 1.*.*.D w w ",
"w t D D t ;.Q.J.B (./.Z b.v v.C.c $ D.m @ F J R H D }.9 9 J 0 w ",
"D D D F F $ B W.;._.).. X o o o X o N.~.o + <.%.| ` Y R ^ ' 0 w ",
"D D F F D <.% N.o ).`.. X X . =.  X # O 5 < X ^.[.& ; } |.0 w t ",
"D F F F t F J 4.K y.O U.H.H.Y.o o !.$ 9 9 D J O x & 7...1 R 7 w ",
"w t 0 t D t 9 t O V.Q.n.T.J.L.$ S.J.D.$ ' F J J F 4.*.*.=.=.D w ",
"F H H F 4.J *.*.q M T.T.l J.K.$ V.K.W.Z.w F F F F J J J J *.D 9 ",
"F t F F *.*.*.F |.~ O c x.H.R.$ S.z.J.n O _ F F F H J J t J *.F ",
"D D t F F H k.2.] Q O B.x.x.T.$ e.M.m.m.I.! g.s.H F J J J J J D ",
"9 D D D D w e } { :.} A.x.n.C.J J B T.n.S.r -.3.F t *.J J J 0 t ",
"w w w w w w +.'.].O z v.M.B.O D F D.M.W.$ F / D F F F F *.F t w ",
"9 0 9  .w D F d.+ o ^.b.U.$ J w = O $ O @ *.|.F F F F D *.F t 4.",
"*.4.w U .X7 w u.a V p $ @ G D 4.# N d x ; H F R t F F J H 9 8.1.",
"*.J t 6 T W Y D y f C & F D D D : Z N z w w 9 D 1 F F J *.9 H 1.",
"F 1.D 6 R ) ) $ L & %.9 H w F D D O m L F F G F 9 H D F F F D 0 ",
"F H *.*.&.w @.i s D H F F 9 D F D O m Z H F F D J D D t F +._ D ",
"*.1.1.5.H & u C O J J F *.F D h.h.O M M s <.H J F R 1 W _ ' *.D ",
"1.1.1.0.1.= O g > 4 * 4.1.1.*.5.4.< a a z S S - G J _ w P J t 9 ",
"1.1.1.1.1.1.{ } J F H J 4.5.9 0 9 *.F 0 W t t J J *.t D q w H J ",
"1.1.J 1.1.*.F F *.1.1.1.4.8.8.*.5.9.H w F F F D F 0 J J H w H 1."
};
