/* XPM */
static char *sprite_idle_ok1721739867[] = {
/* columns rows colors chars-per-pixel */
"32 32 190 2 ",
"   c #0E0101",
".  c #080701",
"X  c #150100",
"o  c #1C0201",
"O  c #160D02",
"+  c #1D0C03",
"@  c #140009",
"#  c #240101",
"$  c #2A0201",
"%  c #250509",
"&  c #270809",
"*  c #2C0B0D",
"=  c #320302",
"-  c #390000",
";  c #3F0805",
":  c #3A120A",
">  c #391B0E",
",  c #2C0318",
"<  c #2C1F1F",
"1  c #333E0D",
"2  c #2C231F",
"3  c #332019",
"4  c #393A1E",
"5  c #321122",
"6  c #2D2522",
"7  c #312725",
"8  c #332926",
"9  c #3D2D22",
"0  c #362C29",
"q  c #392E2B",
"w  c #3A3426",
"e  c #3A3A27",
"r  c #3B312D",
"t  c #3E3431",
"y  c #420D00",
"u  c #510D00",
"i  c #411301",
"p  c #4B1303",
"a  c #45120B",
"s  c #4A170C",
"d  c #44180E",
"f  c #561702",
"g  c #5B1503",
"h  c #471817",
"j  c #6E1700",
"k  c #631F1E",
"l  c #4D230B",
"z  c #5C2412",
"x  c #552D16",
"c  c #5F2318",
"v  c #5A2B1B",
"b  c #682209",
"n  c #602C0D",
"m  c #692D0F",
"M  c #7C2500",
"N  c #7C2C07",
"B  c #74250D",
"V  c #7A260A",
"C  c #702909",
"Z  c #7E2A0C",
"A  c #632A12",
"S  c #6B2A14",
"D  c #712213",
"F  c #742C16",
"G  c #603115",
"H  c #402A24",
"J  c #512620",
"K  c #4B3A20",
"L  c #413633",
"P  c #443936",
"I  c #483A37",
"U  c #4A3639",
"Y  c #463C39",
"T  c #493E3B",
"R  c #503E3D",
"E  c #603024",
"W  c #6C3822",
"Q  c #753D29",
"!  c #35410E",
"~  c #3A460E",
"^  c #3E4D0A",
"/  c #3D5703",
"(  c #394611",
")  c #3D4A12",
"_  c #415305",
"`  c #445E03",
"'  c #4D5C0C",
"]  c #444917",
"[  c #434F18",
"{  c #445316",
"}  c #46511A",
"|  c #4C5C19",
" . c #4B6405",
".. c #4A6109",
"X. c #516907",
"o. c #516509",
"O. c #536B0A",
"+. c #57700B",
"@. c #5C740C",
"#. c #4F6019",
"$. c #5A6F11",
"%. c #51631C",
"&. c #596D1F",
"*. c #5D7711",
"=. c #667E0D",
"-. c #606A12",
";. c #617512",
":. c #697E14",
">. c #697E18",
",. c #4B4C2B",
"<. c #4C5424",
"1. c #4F4B35",
"2. c #474038",
"3. c #4C413E",
"4. c #51433F",
"5. c #55493F",
"6. c #535933",
"7. c #784937",
"8. c #75523E",
"9. c #5A6624",
"0. c #5F7423",
"q. c #4E4341",
"w. c #4B4C45",
"e. c #524643",
"r. c #544945",
"t. c #564B49",
"y. c #594D4A",
"u. c #5B524D",
"i. c #5E5550",
"p. c #5F5852",
"a. c #605953",
"s. c #655E58",
"d. c #69625D",
"f. c #6D6F6C",
"g. c #756B65",
"h. c #766F69",
"j. c #74726D",
"k. c #78736C",
"l. c #7B7A75",
"z. c #832B07",
"x. c #933D18",
"c. c #983E23",
"v. c #93431D",
"b. c #99481A",
"n. c #A4481D",
"m. c #8B4720",
"M. c #8F422E",
"N. c #864A2B",
"B. c #8C4A2B",
"V. c #944624",
"C. c #9A4524",
"Z. c #9C4A24",
"A. c #924B2F",
"S. c #9D4A2C",
"D. c #8E552F",
"F. c #90562E",
"G. c #884938",
"H. c #904D32",
"J. c #885236",
"K. c #9C5038",
"L. c #9A5F3D",
"P. c #A24528",
"I. c #B65E2E",
"U. c #AD5B33",
"Y. c #B95D33",
"T. c #97613D",
"R. c #B1622F",
"E. c #B26C2E",
"W. c #A46730",
"Q. c #AD643D",
"!. c #B96737",
"~. c #BB693A",
"^. c #C06B3A",
"/. c #A55C49",
"(. c #A66047",
"). c #AE6A43",
"_. c #A6664A",
"`. c #AE684E",
"'. c #B46443",
"]. c #B6654A",
"[. c #B36848",
"{. c #B96A48",
"}. c #A56A58",
"|. c #B86F5E",
" X c #956F62",
".X c #68810F",
"XX c #738B14",
"oX c #768E1A",
"OX c #798F1B",
"+X c #88837E",
/* pixels */
"3.q.q.q.e.q.q.T P q.q.u.q.w.e.U q.q.t P P T T T P 4.P T I r T 3.",
"q.q.q.q.e.r.T q.q.Y t 0 q.q % : > q t q r t e.L r 2.T P T P P q.",
"q.q.q.e.r.r.t.q.=.#.t OX0 * d y p h r t P r P T T T 4.T t *.,.P ",
"P q.e.e.r.3.q.T { |  .@.P * $ G.A d @ P 2.Y t.P 4.T e.4 } P 3.3.",
"T e.3.e.y.Y %.! O.r.;.8 , > u ].H.# a t P a.l.k.0  . .! .XL e.3.",
"e.r.r.e.e.,.e XXT ` <.r $ y # B.D d s q t s.k.XX7 ! 8 [ *.P 3.3.",
"T e.r.q.t  .%.o.q 0 6 t y f o B.Z : i X P  .P o.) OX0 ` q 3.3.q.",
"e.t.e.q.^ P u.k.h.d.& k - p $ m.N.i f 7.# U t.T ^ w +.P U e.q.t.",
"R T q :.r r a.i.u.& '.n.].= o /.- ; (.V.R.J.R y.<.) 1.` r t q.r.",
"q ` 6 0 r r 7 r.e.% b.^.b.Q.y S.B.T.'.x.n.N.R +.t } r.q.0.6 8 0 ",
"q 7 0 L L r r r 0 J v.!.M x.Y.P.Q.Z.V j Y.B o e.q.q.r.q.q.L P 0 ",
"L r L L P r Y P q Q Y.~.g Z.Z.C.N z.V.- U.z.# T q.3.3.3.e.P 0 r ",
"q L L L L q T P L 7.C A q j v.C.S.Z.$ g.b V.# e.Y 2.q.2.T t t r ",
"r r L L r L P P X [.U.= r @ X X O   X s.m.Z.x _ Y P .X0 0 T r r ",
"L L P P P Y r q.X {.].o & X . 2.  X o P z v.J.] o.+.~ ` X.@.0 r ",
"L L P P L w 3.q.+ }.E -.$ |.7.. X `.D.H # G.8.r.r.T  .%.XX0 r L ",
"L P P P t Y 2.Y . K 7  .L.E.~.G M.^.~.= 0 X 3 U 3.e.T *.1 ` 7 q ",
"r t r t P t 0 P O _.# < ).E.n.n S.U.!.F ' 7. XU L 5.3.4.4.4.L r ",
"P Y T P q.3.3.3.O '.B.q '.I.Z $ 7.Q.b.F.$ ].7.L P T T T T 4.L 0 ",
"P r I P 4.2.3.P O l m 9 ).U.W U = `.Z.D.$ b $ t P T Y 2.L T 3.P ",
"L L r P P P l.w.*.[ ] L K.M $ P L S x.Q.~ } j.f.T P T T T 3.T L ",
"r L r L r r e #.$.9.%.q ].Z o P L z W.D.( q 6.w.P t 3.T T T r r ",
"r r r L r r :.l.+Xk.y.# c.P.X P L c Z.A.P P ' P P P P P T P r r ",
"8 r 8 &.r t P g.d.p.T o $ #   0 L o # # P T XXP P P P L 3.P t e.",
"3.r.0 / oX8 q p.u.e.8 # F v 9 e.L % g D r I P ` t P P T Y 8 y.q.",
"3.3.t 6 ) ) ) t P 2 8 o S o L L P r i m 0 r 0 P ! P P T q.0 U q.",
"P q.t 6 ` X.O.) 7 { | % g o P P L L i b P P L P 0 Y P P P P t t ",
"P Y q.q.1.t .X..P P U % s 8 P P L P # k L P P P U t P t t >.O.t ",
"q.q.q.w.Y Y 0 t Y T Y u x P t k.h.L = n % P U T Y ` ! { O.*.q.t ",
"q.q.q.u.q.Y ^ e T 3.5 h 3 T q.r.e.~ * s h , t 0 r Y O.r ! Y t 0 ",
"q.q.q.q.q.q.*.#.T Y T U e.t.8 q 0 q.Y r { r r T 2.e.t t w r Y T ",
"q.q.q.q.q.q.Y Y 3.q.q.q.e.t.t.3.t.y.T r P P P L P 0 2.Y Y t Y q."
};
