/* XPM */
static char *sprite_left1721737494[] = {
/* columns rows colors chars-per-pixel */
"32 32 173 2 ",
"   c #0E0000",
".  c #140000",
"X  c #1C0000",
"o  c #1C0008",
"O  c #230000",
"+  c #2C0102",
"@  c #24020E",
"#  c #2C020B",
"$  c #2C090E",
"%  c #340001",
"&  c #380000",
"*  c #300807",
"=  c #33020B",
"-  c #220116",
";  c #2A0215",
":  c #2E0B10",
">  c #350212",
",  c #310318",
"<  c #3B1817",
"1  c #361318",
"2  c #381B1C",
"3  c #343E0D",
"4  c #2C231F",
"5  c #393F13",
"6  c #393A1E",
"7  c #391426",
"8  c #3D1B25",
"9  c #2D2522",
"0  c #302725",
"q  c #332A26",
"w  c #362C29",
"e  c #392E2B",
"r  c #3A3425",
"t  c #3B322D",
"y  c #3A392A",
"u  c #3E3431",
"i  c #4A0E04",
"p  c #4D1305",
"a  c #45140A",
"s  c #4A120C",
"d  c #521203",
"f  c #5F1000",
"g  c #461515",
"h  c #411815",
"j  c #631000",
"k  c #5E231B",
"l  c #5C291C",
"z  c #722404",
"x  c #792301",
"c  c #722709",
"v  c #642513",
"b  c #6C2615",
"n  c #632B16",
"m  c #692A17",
"M  c #652718",
"N  c #622A1D",
"B  c #5F2722",
"V  c #572A21",
"C  c #52252D",
"Z  c #5D2E28",
"A  c #473F2D",
"S  c #413633",
"D  c #443936",
"F  c #483A37",
"G  c #473739",
"H  c #463C39",
"J  c #4A3D3B",
"K  c #35410E",
"L  c #3A460E",
"P  c #3E4D0A",
"I  c #3D5703",
"U  c #394610",
"Y  c #3E4C13",
"T  c #435E02",
"R  c #445315",
"E  c #485917",
"W  c #4C5D19",
"Q  c #476104",
"!  c #4B6405",
"~  c #516807",
"^  c #546C09",
"/  c #5D740D",
"(  c #5F790F",
")  c #4F6019",
"_  c #5A6F11",
"`  c #52641C",
"'  c #5B6C1D",
"]  c #5D7711",
"[  c #60770E",
"{  c #667E0D",
"}  c #617512",
"|  c #697E14",
" . c #697E18",
".. c #4B4C2B",
"X. c #4C5424",
"o. c #4F4B35",
"O. c #4C413E",
"+. c #51433F",
"@. c #5C423D",
"#. c #535933",
"$. c #7E4C3D",
"%. c #546221",
"&. c #5C6326",
"*. c #5F7423",
"=. c #4F3F40",
"-. c #4E4341",
";. c #4B4E42",
":. c #4A4A48",
">. c #524643",
",. c #544945",
"<. c #564449",
"1. c #5A4449",
"2. c #564B49",
"3. c #584D4A",
"4. c #5B524D",
"5. c #5E5550",
"6. c #5F5852",
"7. c #61424D",
"8. c #724E4A",
"9. c #7A5247",
"0. c #604C53",
"q. c #605953",
"w. c #655E58",
"e. c #72505A",
"r. c #6A635E",
"t. c #6D6F6C",
"y. c #726A65",
"u. c #78736C",
"i. c #7D7872",
"p. c #797B78",
"a. c #95451D",
"s. c #99441E",
"d. c #8E4727",
"f. c #8D462E",
"g. c #8B492D",
"h. c #994422",
"j. c #934822",
"k. c #984927",
"l. c #924628",
"z. c #954529",
"x. c #884737",
"c. c #854933",
"v. c #8A4832",
"b. c #844A3B",
"n. c #8A493C",
"m. c #924A37",
"M. c #AE653E",
"N. c #B96737",
"B. c #B4653B",
"V. c #B7673C",
"C. c #BA683B",
"Z. c #834E40",
"A. c #9E6B5A",
"S. c #AD6749",
"D. c #B56544",
"F. c #BB6640",
"G. c #B46946",
"H. c #B96943",
"J. c #B2674C",
"K. c #B36C4B",
"L. c #B8694A",
"P. c #AC6752",
"I. c #A76952",
"U. c #A46D5E",
"Y. c #8D5869",
"T. c #855872",
"R. c #855579",
"E. c #8F5279",
"W. c #6C830F",
"Q. c #718A14",
"!. c #768D1A",
"~. c #798F1B",
"^. c #88837E",
/* pixels */
"O.-.-.-.>.O.-.J D J -.3.-.,.-.J -.-.u u D H J J D O.D O.H t D O.",
"-.-.-.-.,.,.H -.>.J H w -.w t D H u t t u u >.S t O.J D H H J O.",
"-.-.-.>.,.,.2.-.{ W S !.w O.>.+ @ =.u u u r D O.O.H +.J u ( ..D ",
"D -.>.>.,.O.-.J R W Q / - 8 g p p s # G O.O.,.D O.J +.6 W S -.O.",
"+.>.J >.3.H ` U ^ ,.} D X 8.O a s i g = D q.i.u.e Q ! 5  .S ,.=.",
">.>.,.,.>...y Q.J Q X.G O U.c.O h d a O S w.u.Q.0 3 q R / u J O.",
"J >.2.O.S ! ) ! e q 4 t -.+ U.V + s p h o ! D ! Y ~.q T e O.O.-.",
",.>.>.-.P D 4.u.u.r.O.r 7.e.O . 2 O O < . @ 0.O.P r / D D >.-.2.",
"J J w | e t q.5.4.,.D y.g B $.O 8.. O O $.$.l > X.Y o.T u u -.,.",
"S T 9 w t t 0 2.>.D t = P.D.d.I.% X + d H.V.L.n.=.R -.-.*.9 w q ",
"w 0 e S S u S t e 0 S = g.D.x s.s.C.s.h.j h.s.z & -.,.-.O.D G e ",
"S e S S S t G S u H D @ % m.B.s.C.N.C.s.z.G.s.F.m.> >.=.,.S q t ",
"w S S S S w F F J D S + k % j.x s.s.F.F.z.z.G.V.H.v % J J S u t ",
"S S S S S D D D J t q = v n.& v v.g.b l.N Y.Y.m B.K.$.t q J t t ",
"S S S S S D e <.<.0.@ O P.x.O X O O O X . T.E.$.L.b % Q ~ / e t ",
"S S A D S > = U.U.X 2 8 + $ o   -.. X X . R.R.O x.& &.` Q.e t t ",
"S D D D u 1.= l * S u Q t % I.O O S.C.N.J.+ 9.@.1.>.H [ 3 T 0 t ",
"t t t t S u e D !.~ ' 9 % n.M.b.% V.N.D.s.J.c.+ S +.O.+.+.+.S t ",
"D J O.D >.O.O.O.0 ~ Q.u Z.J.V.c.% C.B.f D.S.M =.F J J H J O.S e ",
"D S D D O.O.O.D Q.W w + c V.s.x.& C.N.a.z + D D F H H O.S J O.D ",
"S A u S D H p.;.[ E R b.j.j.l.9.% G.s.s.f.+ t.t.H H J J J O.H S ",
"w S u u t t y ) / &.%.Z.k.D.m J J v.h.h.n.u #.,.D t O.J J J r t ",
"t t u t t t  .i.^.u.3.% K.z.n.J S * v.z.d.l + J D D D H O.S S e ",
"q e e ' t u D y.r.6.H @ % % + ; D O.& P.f.A.O @ D D D S O.D u >.",
"-.,.e I !.q t 6.4.,.0 , l d M # S S O.# % d M a S G H J G w 2.-.",
"-.H u 9 Y Y Y u D 9 0 u l n N : D D O.u = M f i K D D J O.w H -.",
"H -.u 9 I ~ ! Y q R W w N M + S A S D G G J = M % F G G D H u u ",
"u H -.=.o.e W.) G u H =.N m + D S D D D S D D g p J S u u  .~ u ",
"=.-.-.:.O.H w u H J <.s M c + u.u.u J q U D F % b a # R ^ ] O.S ",
"-.-.-.4.;.D P ..- C Z l a < 1 ,.,.L ^ W.U - 7 h s + @ t K H t e ",
"-.-.-.-.-.-._ ) =.H =.J ,.,.q e e -.G t R t t J O.O.t u r t J J ",
"-.-.=.-.-.=.H H J -.-.-.,.<.2.O.,.3.H t D D H u D t O.H H t H -."
};
