/* XPM */
static char *sprite_right_on_closed_door1721810994[] = {
/* columns rows colors chars-per-pixel */
"32 32 197 2 ",
"   c #0E0000",
".  c #150000",
"X  c #1D0000",
"o  c #1C0109",
"O  c #230000",
"+  c #2C0102",
"@  c #24000E",
"#  c #2B020C",
"$  c #340101",
"%  c #390102",
"&  c #34040B",
"*  c #230214",
"=  c #2C0415",
"-  c #380211",
";  c #380718",
":  c #39181A",
">  c #333D0D",
",  c #393A1E",
"<  c #3C1826",
"1  c #2D2522",
"2  c #372623",
"3  c #312725",
"4  c #362C29",
"5  c #392E2B",
"6  c #3C3728",
"7  c #3B312D",
"8  c #3E3431",
"9  c #4B0E04",
"0  c #470D09",
"q  c #4E1406",
"w  c #44140A",
"e  c #4B120D",
"r  c #531203",
"t  c #420914",
"y  c #471515",
"u  c #411815",
"i  c #611000",
"p  c #67161B",
"a  c #78141E",
"s  c #5F231B",
"d  c #5C291B",
"f  c #752404",
"g  c #652513",
"h  c #6C2516",
"j  c #682A17",
"k  c #6B2718",
"l  c #632B1D",
"z  c #702714",
"x  c #6C1622",
"c  c #681B24",
"v  c #711C2A",
"b  c #572A27",
"n  c #413632",
"m  c #443936",
"M  c #473738",
"N  c #463C39",
"B  c #4A3E3B",
"V  c #602A22",
"C  c #78222B",
"Z  c #35410E",
"A  c #3C4A08",
"S  c #3D5703",
"D  c #3E4C13",
"F  c #435E02",
"G  c #445316",
"H  c #4B5B19",
"J  c #4C6505",
"K  c #516806",
"L  c #536B0A",
"P  c #5C740D",
"I  c #4F6019",
"U  c #52641C",
"Y  c #596E19",
"T  c #5D7711",
"R  c #637A0D",
"E  c #697E15",
"W  c #4B4C2B",
"Q  c #4F4B35",
"!  c #4C413E",
"~  c #51433F",
"^  c #5D423D",
"/  c #7E4C3D",
"(  c #5F7423",
")  c #543D43",
"_  c #424045",
"`  c #4E4341",
"'  c #524643",
"]  c #544945",
"[  c #564B49",
"{  c #584D4A",
"}  c #5C534E",
"|  c #485055",
" . c #734F4A",
".. c #7A5247",
"X. c #694E58",
"o. c #675458",
"O. c #575D63",
"+. c #79746E",
"@. c #646F71",
"#. c #6F787D",
"$. c #862524",
"%. c #932428",
"&. c #882637",
"*. c #922737",
"=. c #952A3B",
"-. c #9A2D3C",
";. c #9C313B",
":. c #A0242C",
">. c #A52C33",
",. c #A42C3E",
"<. c #A1313D",
"1. c #AB323B",
"2. c #96451D",
"3. c #99441E",
"4. c #8F4727",
"5. c #8E462E",
"6. c #8B492D",
"7. c #944725",
"8. c #994422",
"9. c #964529",
"0. c #894737",
"q. c #844932",
"w. c #8A4933",
"e. c #824A3C",
"r. c #8B493C",
"t. c #934A37",
"y. c #BA6737",
"u. c #B5653C",
"i. c #B7673C",
"p. c #BA683B",
"a. c #903B52",
"s. c #A92E40",
"d. c #AD3144",
"f. c #AE3348",
"g. c #B33244",
"h. c #B3354A",
"j. c #B6384A",
"k. c #C23A4E",
"l. c #C53C50",
"z. c #844E40",
"x. c #936E58",
"c. c #9A7B5D",
"v. c #AE6749",
"b. c #B56544",
"n. c #BB6640",
"m. c #B2674C",
"M. c #B76B48",
"N. c #AD6752",
"B. c #A86952",
"V. c #A46C5E",
"C. c #96576A",
"Z. c #8B5479",
"A. c #93527A",
"S. c #9C7D65",
"D. c #A76B62",
"F. c #758C18",
"G. c #9B8366",
"H. c #9C856A",
"J. c #9A8D75",
"K. c #A38769",
"L. c #A48974",
"P. c #AB977D",
"I. c #AD987D",
"U. c #B0967D",
"Y. c #A99980",
"T. c #B29D8C",
"R. c #B29E96",
"E. c #B4A48D",
"W. c #BCA68E",
"Q. c #AFA99B",
"!. c #B5A991",
"~. c #BCAB94",
"^. c #BFB099",
"/. c #B4AEA0",
"(. c #BCB6AA",
"). c #BFB9AD",
"_. c #C1A792",
"`. c #C3AC95",
"'. c #C4AD9B",
"]. c #C2B19C",
"[. c #C9B19C",
"{. c #C5ABA7",
"}. c #C5B5A2",
"|. c #C9B7A3",
" X c #C7B8A5",
".X c #C9B9A5",
"XX c #C4BAAC",
"oX c #CCBCAA",
"OX c #D1BEAD",
"+X c #C4BDB2",
"@X c #CBB8B0",
"#X c #CFC6A7",
"$X c #D5C4B4",
"%X c #D8C6B6",
"&X c #DAC9BA",
"*X c #E3D9BE",
"=X c #DDD8C5",
/* pixels */
"! ` ' ` ` ' ` B 8 ` ` { _ [ ` ! ` ` 8 n N B B B m ~ m B B 5 N ! ",
"` ` ! ` ' ' B ` ` ! m 4 ! 5 7 m m 8 7 7 7 8 ' n 7 B B N B m B ! ",
"` ` ` ' ] ] [ ` R I 8 F.4 ! oX# # '.#X7 m 4 m B B B ~ B n T W n ",
"m ` ' ' ] ! ` B G H J =XoX= e q q u < = ^.*X{ m ! B ~ , H m B ` ",
"B ' ! ] { N U Z L ] %XK.& y 9 q e O  .X R.x.OX+.4 J J > E n ' ) ",
"' ' ] ] ' W 6 F.m $X$XG.O 9 r : O q.V.O c.G.@XoX3 > 4 G P 8 ! ! ",
"B ' ] ! 8 J I J oXOXK.o u w e + b V.+ v s 0 K.oX.XF.4 F 5 ! ! ` ",
"] [ ] ` A m } ]..XS.@ . : O + : X X C.a.C v 0 K. X XP m m ` ` [ ",
"B B 4 E 5 7 o.}.- d / / O O X  .O e.b y &.&.x c.`.'.Q S 8 8 ` ' ",
"n F 1 4 5 7 ^.{.r.M.u.n.r $ X $ B.4.M.N.& &.&.e S.%XJ.` ( 3 4 4 ",
"5 2 2 n n n ].% f 3.7.i 8.3.p.3.3.f b.6.& O.| _ G.H.J.` ` n m 5 ",
"7 5 n n n 8 - t.p.2.M.9.3.p.y.p.3.u.5.+ * s.&.v H.!.Q.` ] 8 4 5 ",
"5 n n n n $ k M.p.b.9.9.n.n.3.8.f 2.$ g + *.=.p K.E.Q.! ! 8 7 7 ",
"7 n n n n / M.b.j C.C.l 5.h 6.w.g % r.g # -.-.C L.W.Q.5 4 B 7 7 ",
"n n m m m $ z M./ A.A.. X O O O O O 0.N.O @ a.c L.W./.F K P 5 7 ",
"m n m m n ) % w.O Z.A.. X X . !   o t # < : O D.D.& ; U F.5 6 7 ",
"n m m m 8 m ~.E.^ ..$ m.y.y.v.O O B.& o.X.X.X.& V ; R.T > F 3 7 ",
"7 7 7 8 8 8 '.~.+ q.m.3.b.i.u.$ e.u.r.% x v x p I._.(.! ! ~ n 5 ",
"m B B m ] B ].^.c.k v.b.r y.p.% q.p.m./ ,.d.,.a I.`.(.B B ' n 5 ",
"m 8 N m ! ! ].].c.=.+ f 3.y.n.% e.2.b.f + d.s.-.I.`.(.! n B B N ",
"n n 7 m m B ].}.c.-.+ 5.8.3.M.$ e.5.7.7.e.f.1.*.I.'.).B B B B n ",
"4 n n n 7 7 ].|.c.>.h.r.8.8.w.h.$.k M.7.z.h.d.;.I.'.).B B B 5 7 ",
"7 7 7 7 7 7 ]. Xc.+ d 4.9.5.- j.p z.9.M.$ s.d.;.I.[.XXm B m n 5 ",
"4 5 4 ( 7 n |..X@ O V.5.N.% #.#.= + % $ # @.| O.U.[.+Xn ! m 8 ' ",
"! ' 7 A F.3 .XXXw j r $ & g.k.k.+ g r d - d.d.<.Y.[.+XB N 4 { ` ",
"! B 8 1 D D |.oX9 i k & j.g.k.l.# l j d j.d.g.<.I.[.+XB B 4 N ` ",
"m ` 8 1 F K .X$ V & h.j.%.j.>.:.2 $ k l %.%.1.$.I.%XP.n m M n 7 ",
"m N ` B Q 7 ~.q w E.!.!.!.!.W.W.!.& k l T.!.E.R.I.W.J.8 m E K n ",
"` ` ` ] B & w h & %X%X&X&X&X%X&X&X# z j e {.oXoXXXJ > G L P ` 8 ",
"` ` ` } ` * + e : < * ` ' ` ! ] ' : : w d V b * m N L 5 > B 8 4 ",
"` ` ` ` ` ` Y U ! 8 B B ] [ 4 4 5 B m 5 G n n B B ` 8 8 6 5 N B ",
"_ ` ! ` ` ! N m ) ` ` ` ` [ { ! ] { B 6 m m m n N 4 B B m 8 N ` "
};
