/* XPM */
static char *_547919d75d8493bd5730f0eef0ad422CvkdOBGJXzKk4Jup[] = {
/* columns rows colors chars-per-pixel */
"32 32 49 1 ",
"  c #6E4830",
". c #774E33",
"X c #6F5133",
"o c #795033",
"O c #7F5536",
"+ c #7C5A37",
"@ c #7E5C38",
"# c #4A6538",
"$ c #576238",
"% c #516C3B",
"& c #536E3C",
"* c #5F723D",
"= c #5A753E",
"- c #6B653A",
"; c #6E6439",
": c #766038",
"> c #77643A",
", c #7A623A",
"< c #7F6D3D",
"1 c #66723D",
"2 c #66793F",
"3 c #677A40",
"4 c #637F41",
"5 c #6F7C41",
"6 c #7F7940",
"7 c #787F43",
"8 c #805636",
"9 c #875B39",
"0 c #82683D",
"q c #806E3D",
"w c #877F43",
"e c #678342",
"r c #6C8142",
"t c #698644",
"y c #6F8444",
"u c #6E8A45",
"i c #738644",
"p c #748845",
"a c #728F47",
"s c #7F9247",
"d c #7B9748",
"f c #7C9749",
"g c #7D994A",
"h c #898342",
"j c #828C46",
"k c #928A45",
"l c #8E9A49",
"z c #87A44C",
"x c #92AE4F",
/* pixels */
"45ea45%=%=%=%&ta45%=%=%=%=%=%&ta",
"z5+az589O9O9O9Oaz5O9O9O9O9O9O9@#",
"-2hu;.,99999999#1o999999999.qwha",
"4eeipr<tx89999 p4699999999of3tat",
"444=:*%>l999999l99k9999k999xe&t#",
"44..9.99999999999.gxO9.gxO..997a",
"4.99.9999999999999xl999xl9999aat",
"zu999k9999999999999999999999.aa#",
"adu9.gxO999999999999999999999a.t",
"aaq99xl99999999999999999999999.a",
"azg999999999999999999999k9999ata",
"z9999999999999999999999.gxO9.a7t",
"z99999999999999999999999xl999aat",
"zuy9O9O999999999999999999999O97a",
"assk999k999k999999999999999k777#",
"46.gxO.gxO.gxO999999999999.gxOXa",
"a99xl99xl99xl9999999999999Ota9Ot",
"g9999999999999999999999999.$g9O$",
"aO99999k999k9999999k999k999#-9ha",
"469999.gxO.gxO9999.gxO.gxO aataa",
"a999999xl9Ota999999xl99xl9Ot45ta",
"g999999999.$g9999999999999.$z1Oa",
"aO9k999k999#aO9999999999999#a99#",
"46.gjO.gxO a46999999999999 a46 a",
"a99xl99xl99xl9999999999999Ota9Ot",
"g9999999999999999999999999.$g9.$",
"aO9k0w,99999999k99999999999#aO9#",
"46.g4tatxO9999.gxO99999999 a46 a",
"a99x%=%=l99999Ota9999999999xl9Ot",
"g999O9O9999999O$g9999999999999.$",
"-9,90w,90w,90wha-9,90w,90w,90wha",
"atat4tat4tat4taaatat4tat4tat4taa"
};
