/* XPM */
static char *mr_cd_11722085381[] = {
/* columns rows colors chars-per-pixel */
"64 32 214 2 ",
"   c #020200",
".  c #0C0101",
"X  c #140100",
"o  c #1C0000",
"O  c #18000C",
"+  c #001106",
"@  c #180015",
"#  c #240000",
"$  c #2C0002",
"%  c #24000E",
"&  c #3C0A06",
"*  c #381B07",
"=  c #381B18",
"-  c #343E0D",
";  c #2C231F",
":  c #382A17",
">  c #2D2522",
",  c #302725",
"<  c #3A2220",
"1  c #332926",
"2  c #362C29",
"3  c #392E2B",
"4  c #3A3825",
"5  c #3B312D",
"6  c #3E3431",
"7  c #460A06",
"8  c #570C02",
"9  c #471509",
"0  c #541405",
"q  c #5D1100",
"w  c #441C16",
"e  c #591414",
"r  c #661900",
"t  c #661417",
"y  c #75181D",
"u  c #582713",
"i  c #512E13",
"p  c #682608",
"a  c #792704",
"s  c #672914",
"d  c #6A311A",
"f  c #5A1720",
"g  c #6D1622",
"h  c #621823",
"j  c #6B1A25",
"k  c #731926",
"l  c #503325",
"z  c #413633",
"x  c #4A3735",
"c  c #443936",
"v  c #463C39",
"b  c #493E3B",
"n  c #662624",
"m  c #7E2333",
"M  c #37430E",
"N  c #3D4C08",
"B  c #3D5703",
"V  c #394511",
"C  c #3D4A13",
"Z  c #435D02",
"A  c #475B08",
"S  c #445215",
"D  c #485718",
"F  c #4C5D19",
"G  c #476104",
"H  c #4B6405",
"J  c #516806",
"K  c #536C09",
"L  c #5C740C",
"P  c #4F6019",
"I  c #51641C",
"U  c #596C18",
"Y  c #5D7413",
"T  c #647C0D",
"R  c #667B16",
"E  c #697E14",
"W  c #4B4C2B",
"Q  c #52592D",
"!  c #4F4B34",
"~  c #4C413E",
"^  c #50433F",
"/  c #784F32",
"(  c #5C6D25",
")  c #363E44",
"_  c #4D3E41",
"`  c #3B4249",
"'  c #474744",
"]  c #4E4341",
"[  c #524643",
"{  c #544945",
"}  c #5B434A",
"|  c #564B49",
" . c #584D4A",
".. c #5B524D",
"X. c #4B4952",
"o. c #4A5456",
"O. c #5F5751",
"+. c #6B524D",
"@. c #674E56",
"#. c #605953",
"$. c #695259",
"%. c #69625D",
"&. c #565C63",
"*. c #755D63",
"=. c #5D676A",
"-. c #5F6670",
";. c #736964",
":. c #76726B",
">. c #78736D",
",. c #626A72",
"<. c #6A6B73",
"1. c #6B767A",
"2. c #74757C",
"3. c #851E1F",
"4. c #903E0E",
"5. c #801E2D",
"6. c #862327",
"7. c #932428",
"8. c #852435",
"9. c #8B2535",
"0. c #8D2936",
"q. c #8B2639",
"w. c #8E2A3A",
"e. c #942637",
"r. c #932738",
"t. c #942A3B",
"y. c #9A2C3D",
"u. c #9C313B",
"i. c #A0242C",
"p. c #A52C33",
"a. c #A32C3E",
"s. c #AA2C3F",
"d. c #A4313C",
"f. c #99431D",
"g. c #8B4727",
"h. c #9A4526",
"j. c #8B4437",
"k. c #934833",
"l. c #8B5338",
"z. c #A34B29",
"x. c #B05F30",
"c. c #B56A29",
"v. c #AB6631",
"b. c #B56433",
"n. c #B86739",
"m. c #BA653C",
"M. c #C2753D",
"N. c #9E2C41",
"B. c #A42E41",
"V. c #AA2E41",
"C. c #B62E42",
"Z. c #A43144",
"A. c #AC3144",
"S. c #AE3549",
"D. c #B23244",
"F. c #B43549",
"G. c #BB364B",
"H. c #BA394A",
"J. c #C23A4E",
"K. c #C53A50",
"L. c #854C44",
"P. c #B65F43",
"I. c #896D4D",
"U. c #9B7859",
"Y. c #9B7C5B",
"T. c #AB6A46",
"R. c #B76546",
"E. c #AB6E54",
"W. c #B15363",
"Q. c #9A7F64",
"!. c #827D77",
"~. c #C16A42",
"^. c #6C830F",
"/. c #718914",
"(. c #758D17",
"). c #758E1A",
"_. c #798F1B",
"`. c #9C825E",
"'. c #9D8466",
"]. c #8F897D",
"[. c #9A8D75",
"{. c #A38868",
"}. c #A58D73",
"|. c #AA947B",
" X c #AC987D",
".X c #B1987A",
"XX c #AC9C84",
"oX c #B4A48D",
"OX c #BCA58D",
"+X c #B8A88F",
"@X c #B6A691",
"#X c #B4A991",
"$X c #BBAA95",
"%X c #B9AA97",
"&X c #B7AD9A",
"*X c #929DA3",
"=X c #B4AEA0",
"-X c #BBB5A9",
";X c #C3AB95",
":X c #C4AE9A",
">X c #C2B19C",
",X c #C9B29C",
"<X c #C5B5A2",
"1X c #C6B7A6",
"2X c #CBB9A5",
"3X c #CCBCAA",
"4X c #D1BEAE",
"5X c #C4BDB2",
"6X c #CFC6A7",
"7X c #D4C3B4",
"8X c #D8C6B6",
"9X c #DAC9BA",
"0X c #E3D9BE",
"qX c #DDD8C5",
/* pixels */
"~ ] ] ] ] [ ] b c b [ ..' { ] ~ ] [ 6 c v b b b z ^ v b b 3 v ~ ] ] ~ [ ] [ ] b 6 _ ] ..' [ ] ~ ] ] 6 6 v v b v c [ c b b z c ~ ",
"] ] ] [ { { v ] ] ~ c 2 ] 2 5 c z 6 6 2 5 6 { 6 ~   . *.b b v ] ] ] ] [ { [ v ] ] ' c 2 ] 2 5 v c 6 5 5 5 z [ z 5 ~ ~ c c c v ^ ",
"] ] ] ] { [ | ] T P 6 ).2 ~ b c 5 c 6 6 c 3 c . * 0 0 9 = Q W v ~ ] ] ~ { { | ] T P 6 _.1 ] 7X7X4X2X6X6 v 3 v v b b ^ b z L W z ",
"c ~ [ { { ~ [ b S F G L c v ~ ~ c z v x b v O 9 0 0 9 X n o _ b v _ [ { { ~ ] b D F G qX3X3X3X3X3X1X1X>X&X0X| v ^ v ^ 4 F c ~ ~ ",
"~ [ b {  .c I M K ] T 1 [ v ~ b v b 6 c v #.o 0 7 * X g.E.o [ ~ ~ [ b [  .v I M K [ 8X'.1XU.`.'.'.Y.Q.Q.$XI.4X>.3 G H M E z [ ] ",
"[ [ { { { W 5 /.b Z Q 5 5 c v b b ] ] ] 5 @ # 0 8 # / g.E.6 b ~ [ [ } [ [ W 4 /.v 7X7X'.`.& n f 9 h h 7 Q.Q.3X3X, - 1 S L z b ~ ",
"b } { ~ z H P J 5 1 ; 5 v 2 ^ 5 K c ~ v O .   w o 9 9 =   _ ~ ] ~ [ [ ] z H I H 6X3X{.& j h w.m e 8.m g j 7 {.3X3X_.2 Z 3 b ~ [ ",
"[ [ { [ N z ..>.:.%.~ 4 5 5 c z /.Z 5 K o / E.0 X $ 7 * o . ] | { { | ] N z O.>X2X{.e j 8.8.8.8.e q.W.8.8.j 7 {.1X<XL c x [ ] | ",
"~ ~ 2 E 5 5 O.O. .{ c ;.c 2 2 V 2 C 3 @ j.R.v.c.g.T.T.$ v.l.b ^ b b 3 E 3 5 #.<X,XU.k q.q.q.5.q.e 9.q.q.q.8.g Q.:X&X! G 6 6 ] { ",
"5 B ; 2 5 5 , | { v 5 #.{ 2 > z v v ] @ k.R.M.4.r h.f.n.x.~.$ 2 5 Z > 2 5 5 &X8X/ n 9.8.q.t.9.q.t w.t.q.9.q.9.9 Q.8X].] ( , 1 2 ",
"3 , 3 z 6 6 6 5 2 , z ; , ~ ^ v ] ] z c 8 f.b.~.r h.n.b.R.i z 2 3 , 3 z 6 6 >X{.I.X.&.=.-.) ,.,.) -.,.` &.&.X.` '.'.[.] ~ z v 2 ",
"z 5 5 z c 5 v c 5 c v 2 5 z ~ c c c c z k.~.b.m.a n.x.z.h.o 1 5 z 2 z z c 5 oXXXI.k t.q.t.t.9.q.t t.t.r.t.t.8.k '.oX&X_ { z 1 5 ",
"3 z z z z 3 c x b v x A z c c c z z ].!.i E.M.h.q n.b.R.n c z 5 2 z z z z 2 oX+XU.6.w.t.y.t.r.N.t y.9.y.y.q.t.t {.oX=X~ ~ 6 5 5 ",
"5 z z z 6 c c c v 6 1 I z c c c c 5 ;.#.$ w.m.c.n.l.# o % b 2 5 z z z z 5 z +X#XY.m y.y.r.N.e.B.y y.N.N.y.t.y.m }.oX&X2 2 ~ 5 5 ",
"z z z z c v 5 ] ~ ~ H K z z z ~ b c { | ~ A o g.T.o : X X L 3 z z z z c c v OX$XY.8.e.y.e.a.B.e.y y.B.t.N.y.y.t }.OX&XZ J L 3 5 ",
"z z z c 6 5 ~ ] ~ F T (.3 2 c z c c 1 1 > 6 X u o : * X U.l.L.$ z z x c z 5 $X$XY.0.a.e.y.y.B.2.=.<.V.y.a.y.r.8.}.OX-XI /.3 4 5 ",
"z W c v z v b b L 2 6 H 5 Q ~ 2 5 B 2 1 2 z o b.n.R.R.p X X L.e z c c v z v $X$XU.} $.$.@.$.<.N.*XZ.<.$.@.$.@.} |.;X-XL - Z 1 3 ",
"5 5 3 6 z 5 2 6 (.J U > 6 ~ ~ v b ~ N S L c % m.z.~.b.R.u ] z 3 5 5 5 5 z 5 :X>XY.g g g k k <.Z.,.B.=.k k k g t |.;X-X] b [ z 5 ",
"v x v c [ b ~ ^ , J /.z 6 ~ { ~ b ~ { S 5 v % k.~.c.c.R.T.^ z 3 v v ~ z { ~ >X&XY.r.a.Z.A.S.D.,.2.,.a.D.a.A.a.y |.;X-Xb b ~ z 3 ",
"c z v v ~ ~ b c /.P 2 5 c 6 ! ] v c c U 4 K z # s P.z.4.~.% b v z z c c ~ ~ >X>XY.y.B.A.V.S.B.D.5.Z.a.H.s.A.a.u.|.;X-X~ z b ~ x ",
"z z 6 c c v 2.! L D S z c c x v v 2 b ( V D :.l o g.h.g.a X b 6 z z 5 c c v >X>XY.y.d.a.S.A.S.F.6.s.A.F.A.A.Z.e..X:X-Xb b b b z ",
"3 6 6 6 z 3 4 I U ( P 5 6 z 6 c z 2 b v V 2 Q   u & h.h.g.. 3 6 3 z z z 6 5 >X2XY.a.F.D.S.s.H.H.6.s.F.D.A.D.D.u. X:X5Xb b b 5 5 ",
"5 5 6 6 6 5 /.2.].:...6 5 5 z z z x v c b v Q   X U./ / . z 6 5 5 5 5 5 5 5 >X1XY.y.S.F.F.A.H.H.t s.J.H.A.d.A.y. X,X5Xc ~ z 6 5 ",
"1 5 2 U 5 z c ;.%.O.v c 6 v v 5 c ] 6 [ x b   * u 8 0 w _ c 6 ] 2 5 3 U 4 6 2X1XY.=.` 1.1.o.2.2.o.2.1.X.1.,.o.#..X,X5Xz b c 6 [ ",
"~ { 3 B ).> 3 #...{ 1 z 5 z z [ c c b c z v   d 0 s 9 ] v 2 | ] ~ { 5 B ).1 1X1XY.Z.F.A.J.s.J.J.w F.J.J.H.s.D.d.XX,X5Xb v 1  .] ",
"~ b 6 > C S V 6 c ; 1 5 c z c z c c v 6 5 4 + 9 d 9 . b b 2 v [ ~ b 6 > C C 2X3XU.a.F.H.C.H.J.K.w J.J.J.G.A.A.d.|.,X5X_ ~ 1 v [ ",
"c ' 6 > Z K K S 1 D P 2 x 5 c z 6 c c c c c . t s i . c v c z 5 c ] 6 > Z J 1X7XY.7.S.D.7.F.p.i.< K.D.J.7.7.d.6. X8X[.x v v z 5 ",
"6 v _ ] ! 3 ^.A c 6 v c v 1 z c z c c v z ~ w p 0 l X z c R J z c v ~ ~ ! 4 >X.XY.#X#X#X#X$X@XOX$X$X+X#X+X+XoXoX XOX[.z z R J z ",
"] ] ] | v v 3 6 b b b c ] c z >.>.z b 1 V X 0 a p X = >.K Y ] 6 _ ] ] { b b 2 6 1X8X8X9X9X9X9X9X8X8X7X7X7X3X3X3X3XZ - S K Y ~ z ",
"] ] ] ..' v N 4 b ~ _ ] ] ] ~ { { V K ^.M 5 z . X : * . = x 6 2 ' ] ] ..] v N 4 v ' _ _ [ ] ] { [ V K ^.- 5 6 2 5 v K 5 - b 6 1 ",
"] ] ] ] ] ] U I ~ c v b { [ 1 3 2 ~ c 5 S 5 5 b b @.*.*.+.3 b b ] ] ] ] ] ] Y I b c b ] { { 1 3 2 ] c 5 D 5 5 b b ] 6 6 4 2 b b ",
"' _ b ] ] ] v v ~ ' ] ] { X. .~ {  .b 5 c c v z v 3 ~ v v 3 b _ _ ] ' ] ] ] v c b ] ] ] ] | | ~ {  .v 5 c c v 6 c 5 b v b 5 b ] "
};
