/* XPM */
static char *mr_cd_41722085382[] = {
/* columns rows colors chars-per-pixel */
"64 32 211 2 ",
"   c #0E0000",
".  c #150000",
"X  c #1D0000",
"o  c #1C0109",
"O  c #230000",
"+  c #2C0102",
"@  c #24000E",
"#  c #2B020C",
"$  c #340101",
"%  c #390102",
"&  c #34040B",
"*  c #280314",
"=  c #380211",
"-  c #380718",
";  c #39181A",
":  c #333E0D",
">  c #2C231F",
",  c #312D1E",
"<  c #393A1E",
"1  c #3C1826",
"2  c #2D2522",
"3  c #302725",
"4  c #3A2220",
"5  c #332926",
"6  c #362C29",
"7  c #392E2B",
"8  c #3A3525",
"9  c #3A3827",
"0  c #3B312D",
"q  c #3E3431",
"w  c #490D06",
"e  c #4E1406",
"r  c #44140A",
"t  c #4B120D",
"y  c #531203",
"u  c #420914",
"i  c #471515",
"p  c #411815",
"a  c #611000",
"s  c #67161B",
"d  c #78141E",
"f  c #5F231B",
"g  c #5C291B",
"h  c #752404",
"j  c #652513",
"k  c #6C2516",
"l  c #692917",
"z  c #632B1D",
"x  c #702714",
"c  c #6C1622",
"v  c #681B24",
"b  c #711C2A",
"n  c #572A27",
"m  c #413633",
"M  c #443936",
"N  c #483937",
"B  c #463C39",
"V  c #493E3B",
"C  c #602A22",
"Z  c #78222B",
"A  c #35410E",
"S  c #3A460E",
"D  c #3D4C0A",
"F  c #3D5703",
"G  c #394511",
"H  c #3D4A12",
"J  c #435E03",
"K  c #475B08",
"L  c #404E14",
"P  c #445215",
"I  c #49561A",
"U  c #4B5C19",
"Y  c #4B6505",
"T  c #4A6109",
"R  c #516806",
"E  c #516509",
"W  c #536B09",
"Q  c #5B750D",
"!  c #5C740C",
"~  c #4F6019",
"^  c #5A6F11",
"/  c #52641C",
"(  c #586A1B",
")  c #5D7512",
"_  c #637B0D",
"`  c #617512",
"'  c #697E14",
"]  c #697E19",
"[  c #4B4C2B",
"{  c #4C5424",
"}  c #53592F",
"|  c #4F4B35",
" . c #4C413E",
".. c #51433F",
"X. c #59463E",
"o. c #7E4C3D",
"O. c #5B6927",
"+. c #5F7423",
"@. c #543D43",
"#. c #4E4341",
"$. c #484845",
"%. c #524643",
"&. c #544945",
"*. c #584A47",
"=. c #564B49",
"-. c #594D4A",
";. c #5B524D",
":. c #485055",
">. c #5E5651",
",. c #734F4A",
"<. c #7A5247",
"1. c #694E58",
"2. c #605953",
"3. c #69565A",
"4. c #69625D",
"5. c #575D63",
"6. c #6D6B66",
"7. c #736C66",
"8. c #74726D",
"9. c #79736D",
"0. c #646F71",
"q. c #6F787D",
"w. c #7B7A75",
"e. c #862524",
"r. c #932428",
"t. c #882637",
"y. c #922737",
"u. c #952A3B",
"i. c #9A2D3C",
"p. c #9C313B",
"a. c #A0242C",
"s. c #A52C33",
"d. c #A42C3E",
"f. c #A4313C",
"g. c #96451D",
"h. c #99441E",
"j. c #8F472B",
"k. c #8B492D",
"l. c #964624",
"z. c #964529",
"x. c #864934",
"c. c #8A4933",
"v. c #824A3C",
"b. c #8B493C",
"n. c #934A37",
"m. c #BA6737",
"M. c #B5653C",
"N. c #B7673C",
"B. c #BA683B",
"V. c #903B52",
"C. c #A92E40",
"Z. c #AD3144",
"A. c #AE3348",
"S. c #B33244",
"D. c #B3354A",
"F. c #B6384A",
"G. c #C23A4E",
"H. c #C53C50",
"J. c #844E40",
"K. c #936E58",
"L. c #9A7B5D",
"P. c #AE6749",
"I. c #B56544",
"U. c #BB6640",
"Y. c #B2674C",
"T. c #B76A48",
"R. c #AD6752",
"E. c #A66B59",
"W. c #96576A",
"Q. c #8B5479",
"!. c #93527A",
"~. c #9C7D65",
"^. c #A76B62",
"/. c #6A820F",
"(. c #728A14",
"). c #758E1A",
"_. c #798F1B",
"`. c #9C8468",
"'. c #87837D",
"]. c #9A8D75",
"[. c #9D927C",
"{. c #A38769",
"}. c #A48974",
"|. c #AB977D",
" X c #AD987D",
".X c #AE9B86",
"XX c #B29E96",
"oX c #B4A48D",
"OX c #BCA68E",
"+X c #B5A991",
"@X c #BCAB94",
"#X c #B7AD9A",
"$X c #B8A998",
"%X c #B4AEA0",
"&X c #BDB7AB",
"*X c #C3AB95",
"=X c #C4AD9B",
"-X c #C2B19C",
";X c #C9B19C",
":X c #C5ABA7",
">X c #C5B5A2",
",X c #C6B8A6",
"<X c #C9B9A5",
"1X c #CCBCAA",
"2X c #C6BCB1",
"3X c #CFC6A7",
"4X c #D5C4B4",
"5X c #D8C6B6",
"6X c #DAC9BA",
"7X c #E3D9BE",
"8X c #DDD8C5",
/* pixels */
" .#.#.#.#.#.#.V m #.$.;.#.&.#. .%.%.q q B V  . .9 ..M V B 0 B #. .#.#.#.%.%.#.V q #.$.=.#.&.#.#.#.%.q q B  .B  .M ..M V V 0 B ..",
"#.#.#.%.=.%.V #.#.V M 6 #.6 0 m m q q 7 0 q %.q q V V B  .V M #.#.#.#.#.%.%.B #.#. .B 6 #.7 0 m m q 0 0 0 0 ..M 0 B B B M B N  .",
"#.#.#.#.%.&.=.#._ ~ q ).6  .V B 0 m q q M 7 m  .V V ..B q ) [ M #.#.#.%.&.&.=.#._ ~ q ).6 #.2X# # =X3Xq B 7 M B  . ...V m ` [ m ",
"M V %.*.&.#.%.V P U Y Q M B  . .M m B M  .B -.M V  ...< I q @.#.m #.#.&.&.#.#.V P U T 8X1X# t y e i 1 * @X7X-.m  .B ..< U m #. .",
" .%. .%.-.M / A W %.` 5 %.B  .V M V q B  .>.w.8.7 Y Y A /.m %.V  .%. .&.=.B / A W %.5X{.& i w e r + ,.. XXK.4X9.6 Y E : ' m %.#.",
"#.%.%.%.*.[ 9 (. .Y { 0 0 M B V  .#.#.#.0 4.9.(.3 : 5 P ) m V #.%.%...&.&.[ 0 (.B 4X4X~.O w y ; O x.^.X ~.L.1X1X2 : 6 P Q q V #.",
"V *.&.@.q Y ~ Y 7 5 > 0 B 6 X.0 R M B  .m Y q E H _.6 J 7  .V #. .%.*. .q Y ~ R 1X3X`.o p r t + n E.+ Z f u {.1X1X_.6 J 7 V  .%.",
"&.*.&.#.D m ;.9.8.4. .9 0 0 m q (.J 0 W 7 &.=.@.L 8 ! m M %.%.*.%.*.=.#.D m ;.-X<X~.@ . ; + + ; . O W.V.Z b w {.>X>XQ M M %.#.*.",
" . .6 ' 0 0 2.;.;.&.M 7.m 6 5 G 5 D 0 ] 6 &.=.=.{ P | J 0 m  .X.V V 6 ' 0 0 2.>X= C o.o.+ O . ,.O v.n i t.t.s ~.=X@X| F q q #.%.",
"0 J > 6 0 0 5 =.&.M 0 2.*.6 2 q B B #. .V M -.Q q P #.#.+.2 6 6 0 J 2 6 7 0 @X:Xb.T.M.U.y $ O $ E.j.I.R.& t.t.u `.5X].#.+.2 6 6 ",
"6 3 7 m m 0 m 0 6 3 9 2 5 V %.B  ...m m m m =.%.#.#.*.#.#.m M 6 7 3 7 m m m -X% h h.l.a h.l.B.h.g.h I.k.& 5.:.$.`.`.].#.#.m B 6 ",
"m 0 q m m 0 B m 0 B B 7 m M  .m B M m m '.q M  .V #. . .&.m 6 6 m 0 0 m M q = n.U.g.T.z.h.B.m.m.h.M.n.$ @ C.t.v `.oX#X#.%.q 6 0 ",
"6 m m m m 7 M N V N M K m m M M 0 m '.'.7.=.q  .V @.#. . .m m 0 6 m m m m $ l T.B.I.z.z.U.U.h.l.h g.$ j O y.u.s `.oX+X . .q q 0 ",
"0 m m m q M M M N q 5 ( m m M M B 0 6.4.>.M  .T B q /.5 5  .8 7 m m m m 0 v.Y.U.l W.W.z j.k k.c.j % b.j & u.C.Z }.oX%X6 6  .6 0 ",
"m m m m m B 0 #. . .R R 0 m m  . .m %.=. .F 3 I W W G J R ! 6 0 m m m N B $ x T.o.!.!.. X O O O X O x.R.+ @ J.v }.OX%XT R ! 0 0 ",
"m m M M q 0 #.#. .U ) _.0 0 m m B m 5 6 2 q  .-.&.B T / (.7 0 m m m m M m @.% c.O Q.!.. X X .  .  o u & 1 ; # ^.^.& - / (.0 0 0 ",
"m M M M m M  .B Q 6 q Y 0 }  .6 7 J 6 6 6 m B  ..... .Q : Y 5 0 q M M B 0 B @XoXX.<.$ P.m.m.P.O O E.% 3.1.1.1.& C - XX) : J 5 0 ",
"0 m 6 m m m 6 m ).R ( 2 0  . .B V V P L Q m V V m X. . . ...m 0 0 0 0 0 m 0 =X-X+ x.Y.h.I.M.U.$ v.M.b.% c b c s  X*X&X . ...q 7 ",
"M M M M ..V  ..., R (.m m  .&. .V  .*.P 0 M B M  .M  .B V ..m 6 M B  .M &. .-X-XL.k P.I.y m.M.% x.M.Y.<.d.Z.d.d  X*X&XB V  .m 6 ",
"M m M  ... . .m (.~ 5 0 m q  .&.B M m W 8 W M M M M M  .m B  .M M m M M  . .-X#XL.u.+ h h.m.U.% v.g.M.h + Z.d.i. X*X,X .m  . .B ",
"m m q m M M w.$._ I P m m M M M M 6 V O.S I 8.0.B B  .V V  .V q m m m m M B ;X>XL.i.$ j.h.h.U.% v.z.l.l.v.A.f.u. X;X&XV V V V m ",
"7 m m q m 8 9 / ^ O.~ 0 m m q B M 6 V N S 7 } $.M 0  .B B  .7 q 6 m m m 0 0 -X>XL.d.D.b.l.l.c.F.e.l T.z.J.D.Z.p.|.*X2XV V V 0 0 ",
"0 0 0 q q 0 /.w.'.9.-.q 0 0 m m m B V N V M E M M B m B  .m q 0 0 0 0 0 0 0 >X<XL.+ g j.z.k.& F.s b.z.T.$ C.Z.p. X;X&XB  .m q 0 ",
"6 0 6 ( 0 m m 7.4.2.B M m B V 0 M  .m V V V ).M m B B m  .M q %.7 7 8 ( 0 m >X>X@ O E.j.R.% q.q.* # $ $ # 0.:.5. X;X2Xm  .M q %.",
" .#.0 F ).3 8 >.>.$.6 M m m m ..M m  .M m N M K m M M  .B 6 =.#. .%.7 F ).5 ,X,Xr j y $ & S.G.G.# j y g - S.S.f..X;X2X .M 6 =. .",
" . .q 2 H P G q m > 5 0 m m m m M M B m 0 0 7 m A m m V  .6 B #. .V 0 2 H H <X,Xw a k = F.S.G.H.# z l g F.Z.Z.d.|.;X2XB  .6 V  .",
"q #.q 2 T Y W H 5 P ~ 7 B 0 B m m M M M M M m M 6 B m B B m m 0 B #.q 2 J R ,X& z & D.D.r.D.s.a.4 $ j z r.r.f.e. X5X[.N M m m 0 ",
"q B  .#.| 0 /.T B m V m M 6 m m m M M M m M M m V m m m m ] E m q V #.@.| 0 $Xy i oX+X+X+XOXOX$X+X& k z oXoXoXoX|.OX].m m ] W m ",
"$.#.#.&.V B 0 q B V V M @.q q 9.9.m V 6 S M M V M J : P R Q  .m @.#.#.&.V # w x $ 6X5X6X6X6X6X5X5X# x l t :X1X,X1XJ A P W Q  .m ",
"#.#.$.=.$.B D 9 B  .#.#.#.$.#.&...S W /.: 0 m 6 0 V W 0 A V q 6 #.#.#.;.#.* + t ; 1 * #.%.#.#.&.&.; r ; g n n * M B W 0 A V q 6 ",
"#.#.#.#.#.#.^ /  .M V V &.&.6 6 7  .m 7 P 0 0 V V  .m m 8 0 B B $.#.#.#.#.$.) / V M B @.%.&.6 7 7  .m 8 I q m V V #.0 q 8 0 V V ",
"#.#.@.$.#.@.q B  .#.#.#.#.=.=.#.*.-.V q M M B m B 7 V B V 0 B #.#.#.B #.#.#.B B  .#.$.#.#.=.=. .&.-.V 0 M M M m B 7  .B B 0 B #."
};
