/* XPM */
static char *mr_cd_21722079351[] = {
/* columns rows colors chars-per-pixel */
"64 32 223 2 ",
"   c #050101",
".  c #060504",
"X  c #0D0001",
"o  c #140000",
"O  c #1C0001",
"+  c #1E0B0E",
"@  c #1E0014",
"#  c #230001",
"$  c #220406",
"%  c #2B0000",
"&  c #3B0B05",
"*  c #371303",
"=  c #2D1315",
"-  c #3C1916",
";  c #343E0D",
":  c #2C231F",
">  c #37271B",
",  c #393A1E",
"<  c #321523",
"1  c #2D2522",
"2  c #302725",
"3  c #3A2220",
"4  c #332926",
"5  c #362C29",
"6  c #392E2B",
"7  c #3A3725",
"8  c #3B312D",
"9  c #3E2932",
"0  c #3E3431",
"q  c #470C06",
"w  c #540B00",
"e  c #4C1302",
"r  c #491608",
"t  c #551604",
"y  c #441C19",
"u  c #5B1515",
"i  c #661417",
"p  c #75181D",
"a  c #4E2A14",
"s  c #5A2A17",
"d  c #44321A",
"f  c #6B2606",
"g  c #79280E",
"h  c #672816",
"j  c #4F1923",
"k  c #6D1622",
"l  c #621823",
"z  c #6B1A25",
"x  c #731926",
"c  c #5A2D27",
"v  c #413633",
"b  c #443936",
"n  c #483A37",
"m  c #463C39",
"M  c #493E3B",
"N  c #652A26",
"B  c #78212B",
"V  c #7E2333",
"C  c #37430E",
"Z  c #3E4D0A",
"A  c #3D5703",
"S  c #394511",
"D  c #3D4A12",
"F  c #435E02",
"G  c #475B08",
"H  c #404E14",
"J  c #445215",
"K  c #49561A",
"L  c #4B5C19",
"P  c #4B6405",
"I  c #4A6109",
"U  c #516806",
"Y  c #516509",
"T  c #546C09",
"R  c #5B740D",
"E  c #5B750D",
"W  c #4F6019",
"Q  c #586B16",
"!  c #52641C",
"~  c #5D7512",
"^  c #637B0D",
"/  c #667A17",
"(  c #697E14",
")  c #4A4A2B",
"_  c #4C5424",
"`  c #53592F",
"'  c #4E4A34",
"]  c #4C413E",
"[  c #51433F",
"{  c #59473D",
"}  c #7D4C38",
"|  c #785533",
" . c #5C6D25",
".. c #363E44",
"X. c #3B4249",
"o. c #4E4341",
"O. c #484845",
"+. c #524643",
"@. c #544945",
"#. c #5A4549",
"$. c #564B49",
"%. c #594E4A",
"&. c #5B524D",
"*. c #4B4952",
"=. c #4A5456",
"-. c #5E5651",
";. c #775A44",
":. c #674E56",
">. c #615953",
",. c #69545A",
"<. c #69625D",
"1. c #565C63",
"2. c #5D676A",
"3. c #5F6670",
"4. c #65696A",
"5. c #756B65",
"6. c #74726D",
"7. c #79736D",
"8. c #626A72",
"9. c #6A6B73",
"0. c #716F7C",
"q. c #697377",
"w. c #6D797C",
"e. c #787878",
"r. c #851E1F",
"t. c #801E2D",
"y. c #862327",
"u. c #932428",
"i. c #953F22",
"p. c #852435",
"a. c #8B2535",
"s. c #8D2936",
"d. c #8B2639",
"f. c #8E2A3A",
"g. c #942637",
"h. c #932738",
"j. c #942A3B",
"k. c #9B2C3D",
"l. c #9C313B",
"z. c #A0242C",
"x. c #A52C33",
"c. c #A32C3E",
"v. c #AA2C3F",
"b. c #A4313C",
"n. c #8E441F",
"m. c #99451C",
"M. c #A9421F",
"N. c #88462B",
"B. c #954524",
"V. c #994828",
"C. c #854C34",
"Z. c #994A36",
"A. c #8C5335",
"S. c #B45F38",
"D. c #B16A34",
"F. c #B96739",
"G. c #C05F3E",
"H. c #C26436",
"J. c #9E2C41",
"K. c #A42E41",
"L. c #AA2E41",
"P. c #B62E42",
"I. c #A43144",
"U. c #AC3144",
"Y. c #AE3549",
"T. c #B23244",
"R. c #B43549",
"E. c #BB364B",
"W. c #BA394A",
"Q. c #C23A4E",
"!. c #C53A50",
"~. c #885149",
"^. c #8D6D4F",
"/. c #997B57",
"(. c #9B7C5B",
"). c #AA6548",
"_. c #B76847",
"`. c #A27453",
"'. c #B15363",
"]. c #816F63",
"[. c #9A7F64",
"{. c #C26843",
"}. c #6B820F",
"|. c #728A14",
" X c #758D17",
".X c #758E1A",
"XX c #798F1B",
"oX c #9C825E",
"OX c #9D8466",
"+X c #87837D",
"@X c #9A8D75",
"#X c #9D927C",
"$X c #A28768",
"%X c #A58D73",
"&X c #AA947B",
"*X c #AC987D",
"=X c #B1987A",
"-X c #A69584",
";X c #B5A48E",
":X c #BCA58D",
">X c #B8A88F",
",X c #B6A691",
"<X c #B4A991",
"1X c #BAAA94",
"2X c #B8A997",
"3X c #B7AD9A",
"4X c #929DA3",
"5X c #B4AEA0",
"6X c #BBB5A9",
"7X c #C3AC97",
"8X c #C2B19C",
"9X c #C9B29C",
"0X c #C6B6A5",
"qX c #CBB9A5",
"wX c #CCBCAA",
"eX c #D1BEAE",
"rX c #C4BDB2",
"tX c #CFC6A7",
"yX c #D4C3B3",
"uX c #D8C6B6",
"iX c #DAC9BA",
"pX c #E3D9BE",
"aX c #DDD8C5",
/* pixels */
"] o.o.o.+.+.o.m b M +.%.] @.o.] +.+.0 0 m m b ] v [ n ] m 8 M o.] o.o.o.+.+.o.M v M +.%.o.%.o.] o.o.0 0 b M ] ] v [ M M M 8 b ] ",
"o.o.o.+.@.+.m o.o.] b 5 O.5 8 b v 0 8 8 8 v +.v 8 ] b n m m m o.o.o.[ +.+.+.m o.O.] b 5 O.4 8 m b 0 8 8 8 0 [ v 8 ] m b M b m ] ",
"o.o.o.o.@.@.@.+.^ L 0 .X5 ] m b 6 b 0 0 b 6 b ] ] ] [ ] 0 ~ ) b o.9 < < @.O.$.o.^ L 0 .X5 ] yXyXeXqXtX0 b 8 b M ] M [ M v ~ ) b ",
"b ] +.@.@.] o.] K L P E b ] ] ] b v m m ] m $.v M ] ] , K b M M = e e * y j o.M J L I aXwXwXwXwXwXqX0X8X1XpX$.b m ] [ , L b M o.",
"] +.M @.%.n ! C T +.^ 4 [ b ] ] b M 0 b ] >.e.7.4 P P C }.v +.- r e e # s { o , T +.uX$X0X/.$XoX[.oX[.[.3X].eX7.5 P P C ( v +.o.",
"+.+.+.+.@.) 8 |.] I _ 8 8 b M m ] o.o.o.0 >.7.|.: C 4 J ~ 0 + e t e y N ).`.  / n yXyXOXoX& z j q l l q (.(.wXyX2 ; 4 J E v M M ",
"M +.@.] v P W P 6 4 : 8 m 5 { 8 Y b ] M v U v Y D XX5 F 5   o e t r # A.} O W Y wXeXOX& z l f.V u p.V k z q $XwXwXXX5 F 5 ] o.+.",
"+.#.$.+.Z v &.7.6.<.] 7 8 8 v 0 |.F 8 T 5 @.%.M H 7 R v 0   o # r * - - X 0 &.8X0X$Xs z a.p.p.p.u p.'.p.p.z q $X0X0XE b b +.o.#.",
"[ M 5 ( 8 8 >.>.&.@.b 5.0 5 4 S 4 D 8 / 5 $.$.%._ D ' Z o } /.A.a # # w % O O.1X9X(.z d.d.d.t.d.u p.p.p.d.p.k [.7X3X] I 6 0 O.@.",
"6 F : 5 6 6 2 @.@.b 0 -.@.5 1 b m m o.] M b &.T 0 D   . o H.D.F.S._._.# _.).o -X| z a.p.h.f.p.f.i f.f.J.a.d.p.r [.uX@Xo. .1 5 5 ",
"6 2 6 v v v v 8 5 2 0 : 2 ] +.b ] ' b b b 0 $.+.+.] +.+.h M.G.V.f f B.S.H.F.}   ^.*.1.2.8...8.3...3.2.X.1.1.*.X.OXOX@Xo.] b n 6 ",
"v 8 8 v b 6 m v 0 b b 8 0 v ] b b b b 0 +X8 b o.O.] o.] % m.H.m.r.i.B.D.G.V.# ].^.x h.f.j.j.a.h.k j.j.j.j.j.a.x OX1X3X] @.v 4 6 ",
"5 v v v v 6 n b M b b G v v b m 0 v +X+X5.%.v +.m ] ] ] h F.D.S.m.F._.m.Z.~.5.:X/.B f.j.k.j.g.J.i k.g.j.k.h.j.i $X;X3X] ] 8 8 8 ",
"8 v v v 8 b b b n v 4 ! v v v b n 8 <.<.-.b m F m v }.5 C.H.F.t h F.D.B.% v ,X,X/.p.k.k.g.J.g.k.i c.J.J.k.j.j.V %X;X3X5 4 ] 8 8 ",
"v v v v b m 6 o.o.M U T 8 v b ] ] v @.$.b J 2 K Y E S F ~._.H.N.# O O O @ m ,X1X(.s.h.k.g.c.K.k.p J.c.h.K.j.j.i %X:X5XP U E 7 8 ",
"v v b n v 8 o.o.o.L ~ XX8 7 v v n v 4 5 : v ] &.[ m P ! |.h Z.).`.X o X O 0 1X1X(.s.k.h.k.k.K.0.2.9.L.k.I.k.g.p.%X:X5X! |.5 6 v ",
"v v b b 0 m m M E 5 0 P 0 ` ] 4 5 A 5 4 5 b b ] M { M ^ ; F o X - { % t w % 7X3X(.#.:.,.:.:.q.J.4XI.9.,.:.,.:.#.&X7X6X~ ; F 4 6 ",
"8 8 7 8 v 0 5 0  XU Q 1 8 ] ] ] ] ] J J E b m ] b @.[ M M +.# # e w f {._.~.$ 3X(.k k k x x 9.I.8.I.8.k k x k i &X7X6XM M +.v v ",
"M n ] b +.M [ ] > U |.v 0 ] @.] ] ] @.D 8 b M b m m M M M +.% h % N.f w B.w } $ (.j.c.K.U.U.T.4.w.8.c.T.v.U.c.p &X7X6XM M [ v 5 ",
"b v b n ] ] ] b |.W 5 8 b 0 ] +.b b b T , T b b n m m M v % Z.m.V.g % Z.V.B.B.h (.k.K.Y.K.R.K.R.r.b.v.R.K.U.v.l.&X7X6Xn v m M n ",
"v v 0 b b M e.' ^ K H v b v b b b 5 m  .C K 6.4.n m m M m # N.V.B.h a % V.i.V.n.o k.v.c.Y.v.R.R.y.P.L.E.U.U.U.h.*X9X0XM M M M v ",
"5 0 v 0 v 6 7 ! Q  .W 8 v b 0 b b 5 M n S 6 ` O.b 8 ] M m N Z.m.V.O . c B.V.V.C.;.c.R.U.R.v.W.R.y.L.R.U.U.R.I.l.*X9X6Xm M M 5 v ",
"8 8 8 8 0 8 }.e.+X7.&.8 8 8 v v b n M b M b W b b m M   ~.m.F.| O t f e % $ 8X0X(.k.R.R.W.L.E.E.i P.E.E.U.b.U.J.-X9XrXb M b v 6 ",
"5 8 5  .6 0 v 6.<.>.m b 0 m M 8 b ] 8 [ M ]  Xb b m o a t O O   o w w a O 0 qX0X(.2...w.w.=.w.w.=.q.q.=.q.8.=.-.=X9XrXb M b 0 +.",
"] o.8 A .X1 8 >.&.@.4 b v v v +.b v ] b v M n G v b O h g h > # u h h Z .X1 qXwX(.U.R.Y.E.P.Q.Q.y R.Q.Q.W.U.T.b.-X9XrXM n 5 $.o.",
"] ] 0 1 D J C v v : 4 8 v v v v b b M v 6 6 4 v C v # * f $ O h f % v 1 D J 0XwX/.v.T.W.R.R.Q.Q.y !.Q.Q.E.v.T.b.=X9XrXn ] 5 n o.",
"0 o.0 1 I U T J 2 K W 6 n 6 b v 8 n v b b b b b 5 b # s # h f t e ] 0 1 F U 0XyX(.y.T.Y.u.T.x.z.3 !.T.W.u.u.b.y.*XuX#Xn b m v 0 ",
"0 m ] o.' 8 ^ I b v m v b 5 v b v v b n v b b b M b t h O O t h r m ] ] ' 8 8X=X(.;X,X,X>X1X1X>X1X1X>X<X>X>X;X;X*X:X@Xv b / Y 0 ",
"O.o.o.#.m m 5 0 ] m M b o.b 0 7.7.v m 6 S b b m # r f f r T ] e s o.o.$.] m 5 0 6XiXuXiXiXiXuXiXuXuXuXyXyXeXwXqXwXF C J T E ] v ",
"o.o.O.&.O.m Z 7 ] ] ] o.o.o.o.@.@.Z T }.; 6 v 6 8 [ X o s d   5 ] o.o.&.O.b A 7 m o.] o.@.] o.@.@.C T }.; 8 0 5 8 m T 8 C m 0 5 ",
"o.o.o.o.o.o.Q ! ] 0 ] m +.$.5 5 5 ] m 8 J 8 8 m ] ] v v 7 8 m m o.o.o.o.o.+.Q ! M m M ] @.@.5 6 6 ] b 6 K 8 8 m m o.0 v 7 6 m M ",
"o.o.M o.o.o.m m ] ] O.o.o.$.$.o.@.$.m 8 b n m v b 6 m M b 8 m O.o.o.] o.o.] m b M o.o.o.o.$.$.] @.%.m 8 b b m v b 6 m m m 8 M o."
};
