/* XPM */
static char *mr_cd_01722079350[] = {
/* columns rows colors chars-per-pixel */
"64 32 224 2 ",
"   c #0C0000",
".  c #0C0800",
"X  c #130100",
"o  c #1B0000",
"O  c #19010A",
"+  c #230000",
"@  c #2C0000",
"#  c #29020B",
"$  c #3D0B06",
"%  c #3C1303",
"&  c #310F13",
"*  c #3B1C17",
"=  c #333D0D",
"-  c #292419",
";  c #37271C",
":  c #393218",
">  c #2D2522",
",  c #312725",
"<  c #3A2220",
"1  c #342927",
"2  c #362C29",
"3  c #392E2B",
"4  c #3B3727",
"5  c #3B312D",
"6  c #3E3431",
"7  c #450C02",
"8  c #490C05",
"9  c #580E03",
"0  c #481606",
"q  c #4B140C",
"w  c #521303",
"e  c #5C1201",
"r  c #581B0D",
"t  c #4A1A16",
"y  c #591715",
"u  c #681500",
"i  c #661417",
"p  c #75181D",
"a  c #462113",
"s  c #5B2817",
"d  c #5D2C1A",
"f  c #4C3010",
"g  c #5A3219",
"h  c #682607",
"j  c #762809",
"k  c #672815",
"l  c #64321A",
"z  c #4E1921",
"x  c #6D1622",
"c  c #621823",
"v  c #6B1A25",
"b  c #731926",
"n  c #413633",
"m  c #443936",
"M  c #463B39",
"N  c #493E3B",
"B  c #64212A",
"V  c #78212B",
"C  c #7E2333",
"Z  c #35410E",
"A  c #3A460F",
"S  c #3D4C0A",
"D  c #3D5703",
"F  c #3D4912",
"G  c #435E02",
"H  c #4A5A0A",
"J  c #464E19",
"K  c #445316",
"L  c #4C5914",
"P  c #4B5C19",
"I  c #515B1C",
"U  c #4C6505",
"Y  c #4C6109",
"T  c #516806",
"R  c #546B0A",
"E  c #5B750D",
"W  c #5C740D",
"Q  c #4F6019",
"!  c #51641C",
"~  c #596C18",
"^  c #5D7711",
"/  c #62790D",
"(  c #667B16",
")  c #697E14",
"_  c #4B4C2B",
"`  c #4C5424",
"'  c #4C4934",
"]  c #4C413E",
"[  c #51433F",
"{  c #5B4039",
"}  c #764E33",
"|  c #784C38",
" . c #5A6624",
".. c #5F7423",
"X. c #717F24",
"o. c #363E44",
"O. c #3B4249",
"+. c #4E4341",
"@. c #484845",
"#. c #524643",
"$. c #544946",
"%. c #5B434A",
"&. c #564B49",
"*. c #584D4A",
"=. c #5C534D",
"-. c #514D51",
";. c #4A5456",
":. c #745746",
">. c #674E56",
",. c #615954",
"<. c #6B515B",
"1. c #69625D",
"2. c #565C63",
"3. c #5D676A",
"4. c #5F6670",
"5. c #66696B",
"6. c #736D6E",
"7. c #79736D",
"8. c #626A72",
"9. c #6A6B73",
"0. c #6B767A",
"q. c #787878",
"w. c #851E1F",
"e. c #993E1B",
"r. c #801E2D",
"t. c #862327",
"y. c #932428",
"u. c #852435",
"i. c #8B2535",
"p. c #8D2936",
"a. c #8B2639",
"s. c #8E2A3A",
"d. c #942637",
"f. c #932738",
"g. c #942A3B",
"h. c #9A2C3D",
"j. c #9D3731",
"k. c #A0242C",
"l. c #A52C33",
"z. c #A32C3E",
"x. c #AA2C3F",
"c. c #A4313C",
"v. c #964616",
"b. c #93451E",
"n. c #9B431C",
"m. c #A0441D",
"M. c #87492B",
"N. c #974826",
"B. c #854937",
"V. c #82523D",
"C. c #B95D35",
"Z. c #BC632E",
"A. c #AC603C",
"S. c #B96736",
"D. c #B3643C",
"F. c #BC653A",
"G. c #C56C3B",
"H. c #9E2C41",
"J. c #A42E41",
"K. c #AA2E41",
"L. c #B62E42",
"P. c #A43144",
"I. c #AC3144",
"U. c #AE3549",
"Y. c #B23244",
"T. c #B43549",
"R. c #BB364B",
"E. c #BA394A",
"W. c #C23A4E",
"Q. c #C53A50",
"!. c #825343",
"~. c #896D4D",
"^. c #9E6B5C",
"/. c #997B57",
"(. c #9B7C5B",
"). c #A86843",
"_. c #B26543",
"`. c #B86946",
"'. c #AB6E57",
"]. c #B07158",
"[. c #B15363",
"{. c #9A7F64",
"}. c #807B75",
"|. c #6A820F",
" X c #6C8017",
".X c #728A14",
"XX c #778E1A",
"oX c #9C825E",
"OX c #9D8466",
"+X c #9A8D75",
"@X c #938B7D",
"#X c #A38868",
"$X c #A58D73",
"%X c #AA947B",
"&X c #AC987D",
"*X c #B1987A",
"=X c #AC9C84",
"-X c #B4A48D",
";X c #BCA58D",
":X c #B8A88F",
">X c #B6A691",
",X c #B4A991",
"<X c #BBAA95",
"1X c #B9AA97",
"2X c #B7AD9A",
"3X c #929DA3",
"4X c #B4AEA0",
"5X c #BBB5A9",
"6X c #C3AB95",
"7X c #C4AE9A",
"8X c #C2B19C",
"9X c #C9B29C",
"0X c #C5B5A2",
"qX c #C6B7A6",
"wX c #CBB9A5",
"eX c #CCBCAA",
"rX c #D1BEAE",
"tX c #C4BDB2",
"yX c #CFC6A7",
"uX c #D4C3B4",
"iX c #D8C6B6",
"pX c #DAC9BA",
"aX c #E3D9BE",
"sX c #DDD8C5",
/* pixels */
"] +.+.+.#.+.+.N m N #.*.@.$.+.] #.#.6 6 m M ] M n [ m ] N 3 M ] +.+.+.+.#.+.+.N 6 N +.*.+.&.+.+.+.+.6 6 m M M M m #.M ] N 5 M #.",
"+.+.+.#.$.#.M +.+.N m 2 +.2 5 M n 6 5 5 6 n #.n 5 ] M m N m M +.+.+.+.+.$.#.M +.+.@.M 2 @.2 5 m m 6 4 5 6 n #.m n N M M m M m N ",
"] +.+.+.$.$.&.#./ Q 6 XX2 ] M n X     3 m 2 m M M ' [ ] m ^ _ M ] +.+.+.$.$.*.+.|.Q 6 XX2 N uXuXrXwXyX6 m 3 m N M N [ N n / _ m ",
"m ] #.$.&.N +.N K P U E m M O q 8 w w * X 6 *.m ] ] [ : J m N ] M ] +.%.$.] +.] K K Y sXeXeXeXeXeXqX0X0X2XaX*.M N N #.: J n ] ] ",
"] #.N #.*.m ! Z E +.^ 1 #.O t r w t X l o   }.7.3 U U Z ) m $.] ] #.N #.&.m ! Z R &.iXOXqX/.OXOX{.{.{.{.<X~.eX7.2 U U =  Xm #.+.",
"#.#.#.%.$._ 4 .Xm U ` 3 5 o y 9 w + k ].o X 7..X, = , K ^ 6 N N #.#.#.$.$._ 4 .Xm uXuXOXoX8 c z 8 c c 8 {.{.rXeX, Z 1 K ^ n ] ] ",
"N $.$.] n U ! U 5 1 > 5 X ; 8 q % f } B.6 U M Y F XX2 G 2 N N #.N $.#.+.6 U ! T eXyXOX% v c H.V y u.C x c 8 #XeXeXXX2 G 3 ] ] +.",
"$.$.$.#.S n =.7.6.1.] o X a o o %   :.L , &.*.N S 4 ^ m M #.#.&.$.$.&.+.S m =.8XwX#Xy v u.u.u.u.y a.[.u.u.v 8 #X0X0XW m m #.+.$.",
"+.N 2 ) 5 5 ,.=.=.# g | V.X X X X + !.| q o &.*.` F ' U 5 n ] #.N N 2 ) 3 6 ,.0X9X(.b p.a.a.r.a.y u.a.a.a.u.x OX7X7Xm U , 5 @.+.",
"3 G - 2 5 4 , $.o B.F.F.D.e + o + ).N.`.).!.&.R 6 K +.+...> 2 2 5 G , 2 3 5 2XuX} B i.u.p.a.u.s.i f.f.a.i.i.i.q OXuX=X+...> 2 2 ",
"3 , 3 n 6 6 n 5 0 u N.v.e b.v.F.G.e.h v.M.s #.$.@.+.$.+.+.n m 2 3 , 2 n n 6 8X#X~.-.2.3.4.o.4.4.o.4.4.O.2.2.;.o.{.OX+X+.+.m m 2 ",
"n 5 6 n m 3 o f C.D.v.`.N.N.G.Z.G.N.j D.$ r n N ] ] ] ] #.m 2 3 n 3 n n m 3 -X=X~.b f.f.H.g.i.f.i f.g.g.g.g.u.b OX>X2X+.#.n 2 5 ",
"3 n 5 n m 2 k b.e.C.`.N.e.F.F.m.v.j j u k d 6 [ M N +.] ] 6 6 5 2 n n n n 3 -X>X/.b p.h.h.g.d.H.i h.a.h.h.a.g.i OX-X,X+.] 6 6 5 ",
"5 n n n 3 o ).D.N.h < I l B.k N.N.h M.k h 0 6 G M n |.3 1 ] 3 6 5 n n n n n :X:X(.u.h.H.f.H.d.z.p h.H.J.h.f.h.C $X-X4X2 2 M 5 5 ",
"n n n m m 6 h D.F.B.Y Y X X X o o o X M._.].& . H R A D R E 5 5 n n n m m m ;X<X(.i.f.h.f.z.H.h.p H.H.f.P.h.g.i $X;X4XU T E 2 5 ",
"n m m m 6 5   f ].X ! X.              3 o o ' - '.].^.:.# 2 3 n n n m m n 3 <X<X(.p.z.f.h.h.J.0.3.9.K.h.h.h.h.u.$X;X2X! .X5 5 n ",
"n m m m n M ] M X { :.@ `.Z.G.D.l o M.| 2 n M N o o g } = G , 3 n m m M 4 ] 8X<X(.%.<.<.>.<.9.H.3XP.9.<.>.<.>.%.%X6X5X^ = G , 3 ",
"5 5 3 n n 5 2 n  XX M.F.e.`.S.F._.B.A.`.o n N N n { ] ] #.] n 5 5 5 5 5 6 n <X<X(.x x x b b 9.P.8.J.3.b x b x i %X6X5X] N #.n 3 ",
"m M M m [ ] [ ] - H j D._.e _.Z.S.M.D.Z.| + N m m ] N M M [ n 3 m M ] m #.] 8X8X(.f.h.I.I.I.Y.8.q.8.J.Y.z.I.z.p %X6X5XN N #.n 3 ",
"m n M M [ M ] m .XQ > X j v.G.F._.!.M.v.j k m m M M M ] n M ] m m n m m ] ] 7X2X(.d.J.I.I.U.J.Y.w.P.K.T.K.U.x.h.&X6X5XN n N N m ",
"6 m 6 m m m q.' / P J o N.N.n.A.M.B.N.N.n.`.# 5.m M M N N ] M 6 n n 5 m n M 8XqX(.h.c.x.U.J.T.T.t.K.K.T.I.U.z.f.&X9XtXN N N N n ",
"3 6 6 6 n 3 4 ! R  .P 3 B.N.j.M.+ 3 @ j n.v.+ @.m 6 ] ] M N 3 6 3 n n n 6 5 8XwX(.z.Y.U.T.x.T.R.t.K.T.I.I.Y.I.z.&X7X5XM N N 3 5 ",
"5 4 6 6 6 4  X}.@X5.o d n.N.N.o n n + `.`.].L m m M m m ] m 6 6 3 6 5 4 5 5 9XqXoXh.U.T.R.U.R.R.i x.W.R.I.c.U.j.&X9XtXm N m n 3 ",
"2 3 2 ~ 5 6 6 6.,.X @ (.v.).+ 3 m o o + + @ XXm m m m n ] m 6 +.2 3 2 ~ 4 6 qXqX/.3.O.0.0.;.0.q.;.0.0.-.9.8.;.2.*X9XtXn N m n #.",
"+.#.6 S .X, 3 ,.X 0 k 8 @ o n [ m X q k l $ M H 6 m m N m 2 *.+.+.#.5 S XX2 qXeX/.K.T.U.R.Y.W.W.t R.W.W.R.x.K.c.=X9XtXN M 2 %.+.",
"] M 6 > K K A n X 8 e h o n n n m o % e d o 2 m = m m M ] 2 M +.] N 6 > F F wXqX/.J.T.E.R.L.Q.Q.; W.W.W.E.Y.Y.c.&X9XtXN N 2 m #.",
"M @.6 > G T T F 0 r + 1 M 3 m n n m n 7 d + n m 2 M m m m m n 6 m +.6 > U T qXuX(.y.Y.T.y.T.l.y.; Q.Y.W.y.y.c.t.%XiX+Xn m m n 5 ",
"6 6 ] ] ' 5 / @ k 0 m m m 2 n m n n n 9 k @ m m N 6 m 6 m ( T 6 m M ] ] ' 4 8X*X/.,X>X>X,X,X<X>X<X;X:X,X,X:X-X-X&X6X+Xn m ( R n ",
"@.+.+.&.M M $ k e + M M +.m 6 7.7.n m w j 8 + M M G = K R ^ +.6 N +.+.&.M M 2 n qXiXiXiXpXpXiXpXiXiXuXuXuXrXeXeXeXG = K R ^ ] n ",
"+.+.+.=.@.6 + q 0 a * X +.+.+.$.#.A X t t 7 s d z O R 5 Z M 6 2 +.+.@.=.@.m D 4 N ] +.+.+.+.] $.#.A R  XZ 5 6 2 5 M R 5 = N 6 2 ",
"+.+.+.+.#.@.~ P ] 6 M m #.-.1 2 2 ] m n J n n N ] +.6 6 4 5 M N +.+.+.+.+.+.~ ! @.n M +.&.$.2 3 2 +.m 3 K 5 5 M N +.6 6 4 3 m N ",
"+.+.M +.#.+.M m ] ] @.+.#.&.&.] $.*.M 5 m M m n M 2 M M m 5 M +.+.+.] +.+.] M m N +.+.+.+.&.&.] $.*.N 5 m m M n M 2 N N m 6 M +."
};
