/* XPM */
static char *mr_cd_31722085381[] = {
/* columns rows colors chars-per-pixel */
"64 32 216 2 ",
"   c #060000",
".  c #0C0101",
"X  c #140000",
"o  c #1B0001",
"O  c #1B000A",
"+  c #240000",
"@  c #2B0000",
"#  c #24010C",
"$  c #390808",
"%  c #3D1507",
"&  c #381A17",
"*  c #333E0D",
"=  c #2C231F",
"-  c #35271F",
";  c #393A1E",
":  c #2D2422",
">  c #302725",
",  c #382320",
"<  c #332926",
"1  c #362C29",
"2  c #382E2B",
"3  c #3A3725",
"4  c #3B312D",
"5  c #3E3431",
"6  c #470C05",
"7  c #540D00",
"8  c #4A1305",
"9  c #461907",
"0  c #44140A",
"q  c #4A140A",
"w  c #531402",
"e  c #5D1203",
"r  c #521E09",
"t  c #481812",
"y  c #5C1113",
"u  c #781E02",
"i  c #661418",
"p  c #58250E",
"a  c #5B2817",
"s  c #672809",
"d  c #732404",
"f  c #77270A",
"g  c #652616",
"h  c #732912",
"j  c #653519",
"k  c #5A1720",
"l  c #6C1623",
"z  c #641924",
"x  c #731825",
"c  c #592B22",
"v  c #553020",
"b  c #413633",
"n  c #443936",
"m  c #483A37",
"M  c #463C39",
"N  c #493E3B",
"B  c #6A3120",
"V  c #7E2333",
"C  c #35410E",
"Z  c #3A460E",
"A  c #3D4C09",
"S  c #3D5803",
"D  c #394511",
"F  c #3D4A12",
"G  c #435E03",
"H  c #475B08",
"J  c #404E14",
"K  c #445215",
"L  c #49561A",
"P  c #4C5D1A",
"I  c #4C6405",
"U  c #4B6308",
"Y  c #516806",
"T  c #516509",
"R  c #536B09",
"E  c #5B750D",
"W  c #5C740C",
"Q  c #4F6019",
"!  c #596B17",
"~  c #52641C",
"^  c #5D7512",
"/  c #637B0D",
"(  c #617512",
")  c #697E14",
"_  c #697E19",
"`  c #4B4C2B",
"'  c #4C5424",
"]  c #53592F",
"[  c #494337",
"{  c #4F4B35",
"}  c #4C413E",
"|  c #51433F",
" . c #55493F",
".. c #7B4A33",
"X. c #79553C",
"o. c #5B6927",
"O. c #5F7423",
"+. c #343F41",
"@. c #3D444A",
"#. c #4E4341",
"$. c #484845",
"%. c #524643",
"&. c #544945",
"*. c #5A4649",
"=. c #564B49",
"-. c #594D4A",
";. c #5B524D",
":. c #444B53",
">. c #4A5455",
",. c #5E5651",
"<. c #7D5343",
"1. c #674D56",
"2. c #615953",
"3. c #685859",
"4. c #69625D",
"5. c #575D64",
"6. c #5D676C",
"7. c #6A6A67",
"8. c #746B66",
"9. c #74726D",
"0. c #79736D",
"q. c #666D73",
"w. c #697578",
"e. c #7B7A75",
"r. c #8C3E1E",
"t. c #872327",
"y. c #912427",
"u. c #9B382E",
"i. c #852536",
"p. c #8B2536",
"a. c #8B2639",
"s. c #912737",
"d. c #942A3B",
"f. c #9A2B3C",
"g. c #A0242C",
"h. c #A52D3E",
"j. c #A92C3B",
"k. c #A4313C",
"l. c #8C481B",
"z. c #94461A",
"x. c #8B482D",
"c. c #9B4523",
"v. c #974827",
"b. c #834C31",
"n. c #85493A",
"m. c #914C36",
"M. c #845136",
"N. c #A04D2B",
"B. c #BA5D34",
"V. c #B2672E",
"C. c #AD6237",
"Z. c #B46535",
"A. c #B96837",
"S. c #BC653D",
"D. c #C46336",
"F. c #9D2C41",
"G. c #9F3345",
"H. c #A12E41",
"J. c #A92E41",
"K. c #AD3144",
"L. c #AC3246",
"P. c #B33244",
"I. c #B43549",
"U. c #BB364B",
"Y. c #B63948",
"T. c #887056",
"R. c #9A7C56",
"E. c #9B7C5B",
"W. c #A66843",
"Q. c #B56848",
"!. c #AF714C",
"~. c #A66852",
"^. c #A77354",
"/. c #B15363",
"(. c #997C65",
"). c #B46C60",
"_. c #6A820F",
"`. c #6F8715",
"'. c #728A14",
"]. c #768E1A",
"[. c #798F1B",
"{. c #7B9317",
"}. c #9C815E",
"|. c #A0825E",
" X c #9C8468",
".X c #87837D",
"XX c #9A8D75",
"oX c #A38869",
"OX c #A58D73",
"+X c #AA947B",
"@X c #AC987D",
"#X c #B1987A",
"$X c #8C949A",
"%X c #AA9A83",
"&X c #B3A38C",
"*X c #BCA58D",
"=X c #BAA691",
"-X c #B5A991",
";X c #B7AA97",
":X c #B7AD9A",
">X c #B4AEA0",
",X c #BBB5A9",
"<X c #C3AB95",
"1X c #C4AE9A",
"2X c #C2B19C",
"3X c #C9B19C",
"4X c #C5B6A6",
"5X c #CBB9A5",
"6X c #CCBBAA",
"7X c #D1BEAE",
"8X c #C4BDB2",
"9X c #CFC6A7",
"0X c #D4C4B5",
"qX c #D8C6B6",
"wX c #DAC9BA",
"eX c #E3D9BE",
/* pixels */
"} #.#.#.%.#.#.N n } $.;.} &.#.} #.%.5 5 M N N N n } n m N 2 M } #.#.#.#.#.#.#.N n N #.-.#.&.#.#.$.%.5 5 M m } N n } n N N 4 M } ",
"#.#.#.%.&.%.N } #.N n < #.2 4 n b 5 4 4 4 b %.b 4 } } m N M M #.#.#.#.#.=.%.N #.#.[ M 1 $.1 2 n b 5 4 2 4 5  .5 4 } M M m M M } ",
"#.#.#.#.&.&.=.#./ P 5 ].< } N M 4 n 4 5 n 1 n [ N N | m 5 ( ` b } #.#.#.&.%.=.#._.P b '.< #.0X0X7X5X9X5 b 2 n N } N | N b ^ ` b ",
"n } %.&.&.} #.N L P I E n M } } n b N m } M =.n N [  .; L n } #.n #.#.*.&.#.#.N K + 8 p q t 6X6X6X5X4X2X2XeX=.M N } | ; L b #.#.",
"} %.N &.-.n ~ Z E #.( < %.M } } n N 5 M M 2.e.0.2 U I C _.5 %.} } %.} %.-.M ~ C @ % w w 9 o o }.(.}.(.(.:XT.7X0.2 I U * _.b %.#.",
"%.%.%.&.&.` 4 '.M I ' 4 4 n M m } #.#.} 5 3.0.'.: * < K ^ 5 N #.%.%.%.&.%.` 5 `.t w 7 q X j a k 0 z k 6 |.(.6X6X> * < K ^ 5 N } ",
"N %.&.} b U Q I 2 < = 4 n 2  .4 Y n } N n I b T F {.2 G 2 #.N #.N &.&.} 5 U Q & 9 8 t o ~.x.X V y i.V l z 6 oX6X6X[.1 G 2 } } %.",
"%.*.=.%.A b ;.0.9.4.} 3 4 4 b b `.G 4 R 1 =.-.N K 2 W 5 n %.%.=.&.&.&.#.A 5   = t 6 0 + o @ O i.y a./.i.i.l q oX4X4XW n n %.#.=.",
"} } 1 ) 4 4 2.;.;.&.n 8.b 2 < D < F 4 `.1 %.-.-.' F { H 4 b }  .N N 2 ) 2 X .   X o o q 8 8 X a.y i.a.i.p.p.z (.<X1X{ S 5 5 #.%.",
"4 S = 2 4 4 < =.%.n 5 ,.&.1 : 5 M M #.} } 5 -.R 5 K %.#.O.> < 1 2 H = 1 1 p x.Z.Q.l.....9 + X.+ i s.a.F.i.p.i.q (.0XXX#.O.> < 2 ",
"2 > 2 b 5 5 b 4 2 > 5 = < m %.M [  .5 M n b %.&.#.#.%.#.} b n 2 4 > 2 b o x.A.D.c.u c.z.Z.C.Z.b.+ 6.5.@.5.5.:.$. X XXX#.#.n M 2 ",
"b 4 4 b n 2 n n 5 n M 2 5 b } n n n n 5 $X< n N } } #.} %.n 1 2 b 4 4 + p v.c.z.r.e f d c.v.z.+ i F.d.d.d.d.p.x  X-X:X} &.5 < 2 ",
"2 b 4 b b 2 n m N n n H b b M n 5 b .X.X8.-.b %.} } #.} } b 4 4 2 b + m.Q.A.S.Q.r.u d A.D.B.b.@ i f.a.F.f.a.d.i oX&X>X} } 5 4 4 ",
"4 b b b 5 n n n m 5 < ~ b n b n n 4 4.4.,.M m G M 5 _.< < } 4 4 4 4 M.A.A.v.x.@ e d c.S.z.Q.b.+ i f.F.F.f.d.f.V OX&X>X< < } 4 4 ",
"b b b b n M 4 #.#.} Y R 4 b b } } n  .-.n K > L U E D G Y W 2 4 b b a A.B.s *X;X% p W.!.C.E.b.b.+ + h.d.F.f.f.i OX*X>XI I E 2 4 ",
"b b n m 5 4 } #.} P ^ {.4 4 b b M 5 > 2 = 5 } ;.%.M I ~ '.2 4 b b n + b.Q.X.. ;X  . = - $.8.m Q.(.~.b.+ h.f.s.i.OX*X>X! '.2 4 5 ",
"b n n m b M } M E 2 4 U 4 ] } 1 2 G 2 < < b M } | | N ^ * I > 2 b b n n + } 8.  . a C.A.Q.Q.X F.$Xa <.# 1.3.1.*.+X<X,X^ * G > 2 ",
"4 b 4 4 b 4 2 4 ].Y ! : 4 } } M N N K K E n N N b  .} } } } b 2 4 5 2 5 b X X b.+ h A.V.S.A.^.u.q.G.6.x l x x i +X<X,X| N %.b 2 ",
"n n [ n | N } | - Y '.b n [ &.} N N =.F 4 n m n M m N N N } b 2 n N N n %.} q A.W.j l.A.D.D.D.o q.q.J.I.h.L.j.x +X<X,XN N %.n 1 ",
"n b n m } } } n '.P < 4 n 5 } %.M n n ! ; R n n M M m } b } [ m n b n n } } B 7 h j @ m.B.c.N.v.i H.J.I.h.L.j.f.+X<X,XN b N N m ",
"5 n 5 5 n M e.$.^ P J b b b N n n 1 } o.Z L 9.7.M M N N N } N 5 b b 4 n b s Z.u c.f + f.n.x.r.u.Q.o K.I.K.L.K.s.%X1X4XN N N N b ",
"2 b 5 5 b 4 3 ~ W o.~ 4 b b 5 n n 2 N n D 2 ] $.n 5 } M N N 2 5 2 b 5 + o x.Z.v.x.+ I.I.I.+ h Q.N.@ I.K.K.I.k.f.@X1X,XN N N 1 b ",
"4 4 5 5 5 2 _.e..X0.;.5 4 5 b b b n N b N n Q n n n n n } n 5 4 4 O & M.Q.Q.).;XR.d.L.I.U.L.m.C.x.b.o U.K.k.K.k.%X3X8Xm N n b 2 ",
"< 4 2 ! 4 5 n 8.4.,.M n b n N 2 n } 5 | N } '.n n n M b N n 5 %.1 q g w 7 c @ 4XR.q.@.w.w.>.g @ @ % X >.q.q.>.5.#X3X8Xb N b 5 %.",
"} $.4 S ].> 2 2.;.%.1 n b b b %.n b } M b n m H 5 n n N M < =.#.} e e s c , 4X5XE.J.I.K.U.P.@ 8 g 6 t U.I.K.j.k.%X3X8XN N 1 -.#.",
"} } 5 : F K Z b b = < 4 b b b b n n m b 4 4 2 b C n n N } 1 M #.o e h o J K 5X5XR.h.I.U.P.U.U.t g 7 g X Y.K.P.k.#X3X8Xn N 1 n #.",
"n #.b : G Y Y K > L Q 1 n 4 n b b M n n n n n b 1 M b n n n b + e & O = G Y 4X0XE.t.I.I.y.U.g.g.- 6 w 0 + y.k.t.@X0X@Xn n n n 4 ",
"5 M } } { 4 ) H n 5 } b n 1 b n b b n n b n b n N b n 5 n _ T 9 d X } N { 4 2X#XE.&X-X;X-X=X=X=X-XO r s g %X&X*X@X=XXX5 b _ T b ",
"$.#.#.=.M M 2 5 [ M M n #.5 5 0.0.b N 2 Z b n N n H * K R ^ $ f s t o &.M M 2 5 4XwX7XwXwXwXwXwX0X0Xo s s q X 6X5XG * K R ^ } b ",
"#.#.#.;.:.M A 3 M } #.#.$.#.#.%. .Z R _.* 4 5 2 4 N Y 4 C N 5 # @ 0 v O %.M S 3 M } #.#.#.#.} =.&.Z O % 0 X o > 4 N R 4 * N 5 1 ",
"#.#.#.#.#.#.! ~ } n N N *.=.1 2 1 } n 4 K 5 4 N N #.5 b 3 4 M N #.#.#.#.#.#.! ~ N M M N &.&.< 1 1 $.M 2 K 5 5 N N #.5 5 3 2 n N ",
"} #.M #.#.} M M } #.#.#.#.=.=.#.&.=.N 4 n n n b n 2 [ M n 4 N #.#.#.#.#.#.} M n } #.#.%.$.=.=.#.&.-.M 5 n n n 5 n 2 N N n 5 N #."
};
