/* XPM */
static char *m_l_21722079345[] = {
/* columns rows colors chars-per-pixel */
"64 32 192 2 ",
"   c #050101",
".  c #060504",
"X  c #0D0001",
"o  c #140000",
"O  c #1C0001",
"+  c #1F0612",
"@  c #230001",
"#  c #220406",
"$  c #2B0000",
"%  c #2E1A0F",
"&  c #371303",
"*  c #391212",
"=  c #3E1D16",
"-  c #333E0D",
";  c #2C231F",
":  c #3A2215",
">  c #312D1E",
",  c #363B18",
"<  c #2E1121",
"1  c #2D2422",
"2  c #302725",
"3  c #332926",
"4  c #3B2C25",
"5  c #362C29",
"6  c #392E2B",
"7  c #353222",
"8  c #3A3425",
"9  c #3B3C20",
"0  c #3B312D",
"q  c #363A29",
"w  c #3D382B",
"e  c #3D2D30",
"r  c #3E3431",
"t  c #4A0D02",
"y  c #520700",
"u  c #520C00",
"i  c #5B0C00",
"p  c #4C1302",
"a  c #481807",
"s  c #4A1409",
"d  c #521300",
"f  c #5A1500",
"g  c #561E05",
"h  c #52130B",
"j  c #401C18",
"k  c #4E2A14",
"l  c #592714",
"z  c #5D2E1B",
"x  c #44321A",
"c  c #672304",
"v  c #6F2400",
"b  c #6C2409",
"n  c #692808",
"m  c #6A2C0D",
"M  c #7E2A00",
"N  c #652416",
"B  c #6A2612",
"V  c #642914",
"C  c #612C1A",
"Z  c #6C2A19",
"A  c #772715",
"S  c #431B26",
"D  c #5F2726",
"F  c #543228",
"G  c #412D35",
"H  c #413633",
"J  c #443936",
"K  c #483A37",
"L  c #463C39",
"P  c #493E3A",
"I  c #663322",
"U  c #35410E",
"Y  c #3A460E",
"T  c #3E4C0A",
"R  c #3D5703",
"E  c #394511",
"W  c #3D4A12",
"Q  c #415705",
"!  c #445D03",
"~  c #495D06",
"^  c #4B5D0C",
"/  c #404E14",
"(  c #435214",
")  c #4A5A17",
"_  c #49521A",
"`  c #4C5D19",
"'  c #476104",
"]  c #4B6405",
"[  c #4C600D",
"{  c #506506",
"}  c #506807",
"|  c #52650C",
" . c #536C09",
".. c #57700B",
"X. c #5B730C",
"o. c #5F790F",
"O. c #4F6019",
"+. c #536811",
"@. c #5A6F11",
"#. c #51631C",
"$. c #58641F",
"%. c #5B6B1C",
"&. c #5D7213",
"*. c #60770E",
"=. c #667E0C",
"-. c #637413",
";. c #697E15",
":. c #697F1A",
">. c #464B22",
",. c #4B4D2B",
"<. c #4D5524",
"1. c #52582A",
"2. c #4F4B35",
"3. c #4C413D",
"4. c #50443F",
"5. c #5C443A",
"6. c #55493F",
"7. c #535933",
"8. c #7D4A2D",
"9. c #6C4534",
"0. c #794933",
"q. c #7F4E3A",
"w. c #7A5131",
"e. c #5B6927",
"r. c #5F7423",
"t. c #4E4341",
"y. c #4B4D44",
"u. c #524643",
"i. c #544945",
"p. c #584A47",
"a. c #564B49",
"s. c #5A4D4A",
"d. c #5B524C",
"f. c #5E5650",
"g. c #5F5852",
"h. c #615953",
"j. c #655E58",
"k. c #69625D",
"l. c #6D6F6C",
"z. c #726B65",
"x. c #766F69",
"c. c #74726D",
"v. c #78736C",
"b. c #7D7872",
"n. c #797B78",
"m. c #993F1D",
"M. c #953F22",
"N. c #9C431C",
"B. c #98461C",
"V. c #A9421F",
"C. c #88462B",
"Z. c #954524",
"A. c #9C4523",
"S. c #9B4D27",
"D. c #964629",
"F. c #934A2E",
"G. c #9B492A",
"H. c #97512F",
"J. c #854C34",
"K. c #9B4932",
"L. c #984B3B",
"P. c #81553A",
"I. c #A24B2D",
"U. c #B15D2F",
"Y. c #B45F38",
"T. c #B76535",
"R. c #B16A34",
"E. c #BD6935",
"W. c #B3633A",
"Q. c #BC6B3C",
"!. c #C3633D",
"~. c #8D4642",
"^. c #835848",
"/. c #875451",
"(. c #9A6A54",
"). c #AB644C",
"_. c #B66043",
"`. c #BE6443",
"'. c #B56B46",
"]. c #B46E4D",
"[. c #A2754E",
"{. c #A17258",
"}. c #807B75",
"|. c #C26843",
" X c #6A820F",
".X c #6F8716",
"XX c #728A14",
"oX c #758E19",
"OX c #798F1B",
"+X c #7B9317",
"@X c #86817B",
"#X c #88847E",
/* pixels */
"3.t.t.t.u.t.t.P J P y.s.t.i.t.t.u.u.r r L P P P J 3.J P K 0 L 3.3.t.t.t.u.t.t.P r 3.y.s.t.i.t.3.t.t.r r L K P P J 3.K L K e L t.",
"t.t.t.u.i.u.P t.t.P L 5 t.5 6 J H 0 0 0 0 H u.w 0 3.P K K L L t.t.t.t.t.i.u.P t.t.3.J 5 t.5 0 J J r 0 0 0 H 6.r w 3.P L P J J t.",
"t.t.t.t.i.i.a.u.=.O.r oX5 3.P L 6 J r 0 H 6 L 3.P P 4.K < : 4 J t.t.t.u.i.u.a.t. XO.H oX5 3.L L 0 L r r H 6 L L P P u.P r &.,.J ",
"J P u.p.a.P t.P _ ) ' X.J L 3.3.L H P L 3.L a.H 3.P S j & p p < J t.u.i.p.3.t.P ( ` ' X.J L 3.3.H H L L 3.L a.L P P u., _ J 3.3.",
"t.u.P i.s.K #.U ..i.&.3 u.L 3.P J P r L L g.b.v.5 X 9.z @ p d a * i.P u.a.J #.U ..u.-.3 4.L 3.P L P H J L h.b.v.6 ' ] U .Xr u.t.",
"t.u.u.u.i.,.w XXL ' <.0 0 J L L 3.t.t.t.r j.b..X2   (.).I = t g a # i.i.i.,.w XXL ' <.0 0 L K P P t.t.3.r j.v.XX2 - 5 ( &.r 3.3.",
"P i.p.3.H ] O.{ 0 3 ; 0 K 5 u.0 } J 3.L H ] r | W OXO q.F.@ h p p X   L r ] #.] 0 3 1 0 K 6 u.0 } L P P J ' J ] W OX6 ! 6 3.3.t.",
"i.i.i.u.Y H d.v.x.k.t.8 w 0 H H .X! 0 ..5 a.s.P / 0 ) o * : & s @ o X L T J d.v.c.k.3.8 0 8 H H XXQ w  .5 a.a.t./ 8 ..L H u.t.a.",
"3.3.4 ;.0 0 h.d.d.i.H z.H 5 5 E 3 W 0 :.5 i.a.s.>.- O $ t @ @ k P.{.q.o 5 6 g.f.d.i.J z.J 5 5 E 5 W 6 :.5 i.a.s._ / 2.! r r t.u.",
"0 ! ; 3 0 0 2 i.u.L r g.i.5 1 H L P t.3.P J s...3 X W.].@ ]._.W.T.T.Q.o .   2 a.y.L 0 g.i.5 ; H L L t.3.P J s...r ( u.t.r.1 5 5 ",
"5 3 6 H H 0 H 0 5 2 H 1 3 P u.J 3.3.H J J H a.u.  0.T.!.Y.B.v v A.|.V.V H r r r 4 1 H ; 2 K 4.L 3.t.J J J r p.u.t.u.i.t.t.H L 5 ",
"w 0 0 H L 0 L H w J J 6 H H 3.J J J J H @X0 J t.e O A.|.Y.Z.m.M B.`.N.$ J 6 J J r L L 5 H J 3.J J J J r @Xr J 3.t.P 3.t.u.H 5 6 ",
"5 H H H H 6 L J P K L ~ H J J J r H #X@Xz.a.H u.P G ~.L.Z.`._.I.Y.U.E.N H 6 J J P L J ! H H L H r H #X@Xz.s.H 3.L 3.3.3.P H r 0 ",
"0 H H H 0 J L L K 0 2 $.H H H J L w k.k.f.L P ! P H ;.@ Z.R.'.V f E.E.8.r J J J K 0 2 e.H H J J J r k.k.d.J 3.' L r  X5 5 P 6 0 ",
"H H H H L L 0 t.3.3.]  .H H J L 3.H 6.a.L ( 2 _ | X.E # O O O @ C.`.`./.J J 6 t.t.3.} } r H H P P L y.p.L ( 3 _ | ..E ' } X.0 0 ",
"H H J L r 6 t.t.t.) &.+X6 6 H J J H 3 5 ; H 3.s.6.J ! + X o X [.R.H.N L r r t.t.t.) &.+X6 0 H J J H 3 5 1 H 3.d.6.L ] #.XX5 0 H ",
"H J L K 0 J P P ..0 r ' 0 1.3.3 6 Q 0 3 5 H L 3.t.t.$ u f $ 5.% X o J J r L P P ..6 r ' 0 1.3.5 6 Q 0 3 5 H L 4.4.4.3.o.- ! 3 0 ",
"0 0 6 w H r 6 H oX{ %.1 w 3.3.P P 3.W ( X.J K 3.H # ~.).].v y s @ @ 6 w H 0 5 H oX} %.1 w 3.3.L K 3.( ( X.H K 3.H 4.3.3.3.4.H 6 ",
"L K K J u.P 3.3.> { XXH H P u.3.P P p.( 0 J K L # J.y D.i v C.$ Z $ K L u.3.3.4.> } XXr H P p.3.3.3.p./ 0 L L L K K 3.K P 3.r 5 ",
"H H L L 4.P P L XX` 5 6 J H t.u.P L H +.> ..H J V Z.A.K.K.$ A S.N.L.@ L 3.3.3.H XX` 5 6 L r 3.u.J J J | 7  .H H K K L 3.H 3.3.L ",
"H H r J L L n.6.o.) / H H L L J L 3 3.e.T _ l.o Z.S.m.G.@ k Z D.D.C.# H H K n.y.*.( ( H J J L J J 5 3.e.W _ c.l.L P K P P 3.K H ",
"5 H r r H 6 q O.@.e.#.w H H r J L 5 P L E 6 7.L w.F.A.M.F X O S.N.K.D H H 0 q #.&.e.#.w H H 0 J J 5 K L E 6 7.y.L 0 3.L K 3.5 w ",
"w 0 0 r w 0 ;.n.#Xv.s.0 6 0 H H H L P J P L [ J J L @ $ t n g O w.Q.B.^.X K ;.}.#Xc.d.r 0 0 H H r L 3.J 3.J ] L H L L L P H r 0 ",
"5 6 5 %.0 r H z.k.g.P L H L P 6 J 3.r 3.K 3.XXJ J J L O l i y o   O @ u j o L z.k.h.J L w J 3.0 J 3.0 3.L 3.XXL H L L H 3.L r u.",
"3.u.r R oX2 0 h.d.u.3 J H H H u.H H 3.J H L J ~ w H J P L N B h @ : C A z O 0 g.f.i.3 r r r J 4.H J 3.J H L L ~ r L J P P 5 a.t.",
"3.P r 1 W ( E H H ; 3 w H H H H J J K H 0 0 5 H - L J P P 4 $ b m O # c t O E H r ; 3 0 L r H H J J J H 0 0 5 H - J H P 3.5 J t.",
"r t.r 1 ! } } ( 3 _ ` 5 P 6 J H H J J J J J J H 5 J H L J L H t f b Z @ z @ } ( 5 ) <.5 3.6 J H H J J J H L L H 3 L H K J J H e ",
"r L t.P 2.r =.^ J H L J J 5 H J H J J J H J J H P H H H L :.{ s B h o O V d -.~ r r 3.L J 3 H J H H J J H J H H P H H H r .X| r ",
"t.t.t.y.L L 6 r L L L r t.L r c.x.H K 5 Y J L P L ! - ( } &.3.l a 3.3.s c m a @ L P P r 3.L r v.x.H K 5 E J L L J ! - (  .&.t.r ",
"t.t.t.d.t.L T q 3.3.t.t.t.t.t.i.u.T } .XU 0 r 5 0 P } 0 U P r 5 4.  x l o X ( 9 P t.t.t.t.t.3.i.i.T  . XU 0 r 5 0 3.} 0 U P r 5 ",
"t.t.t.t.t.y.e.#.3.r P t.i.i.2 5 5 3.J 6 ( 0 0 3.P u.r H 8 0 L P 4.4.t.t.t.t.&.#.t.r L t.i.i.5 5 5 3.L 0 _ 0 w K 3.3.0 H q 6 L P ",
"t.t.t.t.t.t.r L 3.t.t.t.i.a.a.t.p.a.3.0 J J L r J 6 P L P 0 L t.3.4.P t.t.t.J L P t.t.t.t.s.a.3.p.s.P 0 J J J H L 5 3.P L 6 P t."
};
