/* XPM */
static char *m_l_11722079345[] = {
/* columns rows colors chars-per-pixel */
"64 32 179 2 ",
"   c #020200",
".  c #0C0101",
"X  c #140100",
"o  c #1C0000",
"O  c #15000B",
"+  c #1F000D",
"@  c #001106",
"#  c #160014",
"$  c #1B0018",
"%  c #240000",
"&  c #2C0002",
"*  c #24000E",
"=  c #380000",
"-  c #2F1A05",
";  c #3D1B08",
":  c #331915",
">  c #3A1C19",
",  c #39250C",
"<  c #333E0D",
"1  c #2C231F",
"2  c #382A17",
"3  c #393A1E",
"4  c #371921",
"5  c #2D2522",
"6  c #312625",
"7  c #332926",
"8  c #362C29",
"9  c #392E2B",
"0  c #3A3425",
"q  c #383725",
"w  c #3B312D",
"e  c #3E3431",
"r  c #490900",
"t  c #540B00",
"y  c #5A0D03",
"u  c #451507",
"i  c #4F1402",
"p  c #45140B",
"a  c #40190D",
"s  c #541405",
"d  c #5D1100",
"f  c #431C12",
"g  c #411F1D",
"h  c #521313",
"j  c #661900",
"k  c #57290B",
"l  c #5C2413",
"z  c #532B13",
"x  c #463517",
"c  c #682608",
"v  c #792704",
"b  c #692610",
"n  c #632D1A",
"m  c #733016",
"M  c #503325",
"N  c #413633",
"B  c #443936",
"V  c #483A37",
"C  c #463C39",
"Z  c #493E3A",
"A  c #503132",
"S  c #672922",
"D  c #35410E",
"F  c #3A460E",
"G  c #3E4D0B",
"H  c #3C5503",
"J  c #394511",
"K  c #3D4A12",
"L  c #415705",
"P  c #435D03",
"I  c #404E14",
"U  c #435215",
"Y  c #485917",
"T  c #46531A",
"R  c #4C531F",
"E  c #4C5D1A",
"W  c #476104",
"Q  c #4B6505",
"!  c #4C600D",
"~  c #516807",
"^  c #52650C",
"/  c #536B09",
"(  c #57700B",
")  c #5B730C",
"_  c #5F790F",
"`  c #4F6019",
"'  c #52641C",
"]  c #58641F",
"[  c #5B6B1C",
"{  c #5D7413",
"}  c #667E0D",
"|  c #617512",
" . c #697F1A",
".. c #4A4A2B",
"X. c #4B5223",
"o. c #52582A",
"O. c #4F4B35",
"+. c #4C413E",
"@. c #50433F",
"#. c #55493F",
"$. c #535933",
"%. c #79452D",
"&. c #774C32",
"*. c #775438",
"=. c #5A6624",
"-. c #586329",
";. c #5C6C29",
":. c #5F7423",
">. c #6D7432",
",. c #4E3F41",
"<. c #4E4341",
"1. c #4B4E42",
"2. c #4A4A48",
"3. c #524643",
"4. c #544945",
"5. c #584A47",
"6. c #564548",
"7. c #564B49",
"8. c #5A4D4A",
"9. c #5A524C",
"0. c #5D5650",
"q. c #5F5852",
"w. c #605953",
"e. c #655E58",
"r. c #765B5F",
"t. c #69625C",
"y. c #745D66",
"u. c #6B6661",
"i. c #6D6F6C",
"p. c #726C66",
"a. c #766F69",
"s. c #7E696C",
"d. c #72726D",
"f. c #78736C",
"g. c #7D677A",
"h. c #7D7872",
"j. c #797B78",
"k. c #903E0E",
"l. c #9B421D",
"z. c #8B4826",
"x. c #8C4529",
"c. c #974624",
"v. c #9B4325",
"b. c #9C472B",
"n. c #8B4437",
"m. c #934833",
"M. c #8B5338",
"N. c #A34B29",
"B. c #B05F30",
"V. c #AE662C",
"C. c #B56A29",
"Z. c #AA6634",
"A. c #B56433",
"S. c #BB6A35",
"D. c #B96638",
"F. c #BA653C",
"G. c #B5683D",
"H. c #C2753D",
"J. c #844840",
"K. c #855048",
"L. c #9F725D",
"P. c #AB6A46",
"I. c #B66444",
"U. c #BB6443",
"Y. c #B4674A",
"T. c #B4764D",
"R. c #A96B55",
"E. c #B06955",
"W. c #A37458",
"Q. c #837E78",
"!. c #C16F44",
"~. c #6A820F",
"^. c #6F8716",
"/. c #728B14",
"(. c #768E1A",
"). c #798F1B",
"_. c #7B9317",
"`. c #86817B",
"'. c #88847E",
/* pixels */
"+.<.<.<.<.<.<.+.e +.2.9.<.4.<.+.<.3.e N C V +.+.e +.C V Z w C <.<.<.<.<.3.+.<.+.B C <.9.<.1.<.<.<.<.e e C V +.+.B +.B +.V w C +.",
"<.<.<.3.4.4.+.+.<.+.e 8 <.9 w B N w w w w N 3.w 0 +.Z Z C V B <.<.<.+.<.y..   4.<.+.C 8 ,.9 w B B e w w w e @.e w +.+.C B C C +.",
"<.<.<.<.3.4.4.+.} ` e (.8 +.Z C 9 C e w B 9 B +.Z +.@.V e _ ..B <.<.6.> p i s u . ` e ).8 <.Z V 9 B e e e 9 B +.+.C @.V e ) ..B ",
"B +.3.5.5.+.<.+.U Y W _ N C +.+.C N Z C +.C 7.B +.+.@.3 R B Z <.e <.O S X p i i u O Q ) B V Z +.B e Z C +.+.4.B +.+.@.3 E B +.+.",
"+.<.Z 3.8.C ' F ( <.| 8 3.C +.+.B +.e B Z w.h.h.8 W ~ D ~.e 3.+.+.<.o E.x.X ; t s o | 7 3.C +.Z V C N C C q.h.f.9 Q Q D ^.e <.<.",
"3.3.3.5.4...e /.Z Q X.0 w C C C +.<.<.+.e e.d./.6 D 7 U { e +.+.3.3.3.E.x.&.o y t % # w w C V Z <.<.<.@.w e.f./.6 < 7 U { e Z <.",
"Z 4.5.+.e Q ` Q w 7 1 w C 8 #.w / B Z Z B Q e Q G ).9 H w +.+.<.Z 7.6.  : a p X f . . X C 8 3.w / C Z Z N W B Q K ).8 L 9 +.Z 3.",
"6.6.4.<.G N 9.f.a.t.+.0 w w N e ^.L w / 9 4.8.<.G 0 { B V <.<.7.3.6.. o ; r & X k R.&.o w w B e ^.H w / 9 7.8.+.G 0 ) C B 3.<.7.",
"+.+.9 } w w w.9.9.4.B p.N 9 7 J 7 K w ~.8 6.7.7.X.K O.W 9 N +.#.Z C M.Z.% P.Y.z.V.Z.Y.n.# 9 7 J 8 K 9  .9 6.4.8.X.I O.P e e <.3.",
"9 L 5 8 9 w 7 5.<.Z w q.4.8 5 e Z C +.+.C C 7.( e U 3.<.:.6 8 7 w & I.A.G.l.v.j k.S.U.m.$ 9 5 e C C <.+.Z B 8.( e U 3.<.:.5 8 8 ",
"9 6 9 N B w N 9 9 6 e 5 7 Z 3.Z +.+.N C B e 7.6.<.<.6.+.<.B B 9 9 6 k U.S.D.c.j !.A.l.d 6 Z <.B +.<.e B e B 7.4.<.<.4.<.+.N C 8 ",
"N w w N C 9 C N e B C 9 e N +.N B B B N `.e B <.+.<.<.Z 3.N 8 w N 0 o c.N.A.F.v D.A.!.n.N N <.B B B B B `.w B +.<.+.+.<.3.N 8 9 ",
"9 N w N N 9 C B Z V C P N N C B e N '.`.p.8.N +.C Z <.+.+.N N 9 8 B e S Y.B.G.d v.F.T.l B B B B e B '.Q.p.7.B <.C +.+.+.+.B w w ",
"w N N N w B C B V w 7 ] N N N B C w t.t.0.C V W C B ~.9 7 +.0 9 w N B + o & M.S.C.G.n.& e B B B B e t.t.0.V Z P C e ~.9 8 Z 9 w ",
"N N N B C C w <.+.+.Q / w N N +.Z B 4.4.B L 6 R Q ( J H Q ) 9 w B N N X . , o P.z.o Q / e e B V +.B 4.4.C L 6 R ! ) F W ~ ) 9 w ",
"N N B V e w <.<.<.Y { _.w w B N B B 6 9 5 B +.9.4.+.Q ' (.9 w N & J.M.W.X - g % l X { _.9 9 B B N B 6 9 1 N +.9.#.C W ' /.9 w e ",
"N B B C N C Z Z ( 8 e W w o.+.8 8 H 8 8 8 B C Z @.@.Z _ < P 6 9 h K.X X c I.U.S.A.o e Q w o.+.8 9 H w 7 8 N B +.@.@.Z _ < P 7 w ",
"w 0 9 N N w 9 w (.~ [ 5 e <.+.+.Z +.U U ) B Z Z N 3.+.+.@.@.N 9 e e 9 n P.D.I.N.D.* [ 5 w +.+.Z +.+.U U ) B Z +.N #.+.+.+.@.N w ",
"V C V B 3.Z +.@.2 ~ /.e e +.1.+.+.Z 4.U w B C C C C Z Z Z @.N 9 B C C P.G.C.C.Y.b.* /.N B Z 4.Z Z Z 4.I w N C B V V Z Z Z @.N 8 ",
"B N C B +.+.+.N ^.` 7 w C e +.3.C C N / 2 / B B C B Z Z N Z Z C B N o H.l.N.I.b o E 7 9 B N Z 3.Z V B / 0 / N C C V V +.N Z Z C ",
"e B e B B B j.#.} T U B B B V B B 8 Z ;.K T i.i.B Z Z Z Z +.C e N N X v c.b.x.o M Y I N B B C B B 7 +.;.J T d.i.C Z Z V Z Z Z N ",
"8 e e e N w 0 ` { =.` w e N e V C 9 V C K 9 $.2.B e +.Z C C w e 8 N   l.c.b.= z   =.' e e B w C B 8 Z V J 9 o.2.C w +.Z Z Z w w ",
"w w e w e w ~.j.'.d.7.e w w B N N C Z B Z N ! B B B B Z +.B e e w w w . *.%.W.X   u.7.e 0 N N N e Z Z N Z B ! B N C C B +.N N 8 ",
"w 0 8 [ w e B p.t.0.+.V e V V 9 B +.e +.Z +.(.B B B C e +.B e <.8 9 8 -.g s t l a   Z C w C +.9 C +.e +.Z +./.C N C C N Z C e 3.",
"+.<.e H (.5 w w.9.4.7 B w B N 3.N N +.B w V C W e B B Z C 8 7.<.<.3.8 H ^.> b d n   8 C e e N 3.B N +.C N C V P N C C Z C 8 7.+.",
"+.C e 5 K U F w N 1 7 w B e N N B B V N w w 9 N D B B Z ,.8 C <.<.C e 5 3 O ; m p @ 7 e B e N N B B V w w w 9 N < N B Z Z 8 Z <.",
"B 2.e 5 P ~ / U 7 Y ' 9 V 9 B B N B B B N C B N 8 V B B C C e e B ,.e 1 P . x n c . E 9 C 9 B N N B B C B B C N 8 C N C B C B 9 ",
"e e <.<.O.9 ^.Y B e Z N B 8 N B N B B B N C N N C e B e e ~.~ e B ,.<.,.O.X M s c > 3.e B 9 N N N N N C N N B N V N B e N  .^ e ",
"<.2.<.7.,.e 8 e Z Z C B <.B e f.a.N V 9 F N C Z V P < U / { +.e Z <.<.4.g.> o c v s X B +.V e f.f.N V 0 F B C Z B P < U / ) +.N ",
",.<.<.0.2.C H q Z Z <.<.2.<.<.4.@.G ~ ^.< w e 9 e Z / 9 D Z e 7 <.<.A 4 X : > . . <.<.<.<.<.<.4.3.F / ~.D w e 7 w Z / w D Z w 8 ",
"<.<.<.<.<.<.[ ' C e C <.3.6.7 9 9 +.B w U w w Z C <.e e 0 w Z +.<.<.<.r.s.s.>.' C C C <.3.4.7 9 9 +.C 9 U w w +.+.+.e e 0 w Z C ",
"<.<.C <.<.<.e C <.<.<.<.<.7.7.<.4.8.C e B C V e V 9 Z Z C w C +.<.<.+.<.+.+.C C <.<.<.<.<.7.7.<.4.8.Z w B C B e B 9 Z Z Z w C <."
};
