/* XPM */
static char *ml_od_11722079348[] = {
/* columns rows colors chars-per-pixel */
"64 32 203 2 ",
"   c #000000",
".  c #0C0101",
"X  c #140100",
"o  c #1C0000",
"O  c #15000B",
"+  c #1F000D",
"@  c #001106",
"#  c #160014",
"$  c #1B0018",
"%  c #240000",
"&  c #2C0002",
"*  c #24000E",
"=  c #380000",
"-  c #2F1A05",
";  c #3D1B08",
":  c #361A17",
">  c #39250C",
",  c #333E0D",
"<  c #3F2610",
"1  c #393A1E",
"2  c #371921",
"3  c #2D2522",
"4  c #312625",
"5  c #332926",
"6  c #362C29",
"7  c #392E2B",
"8  c #3A3724",
"9  c #3A3426",
"0  c #3B322D",
"q  c #3E3431",
"w  c #490900",
"e  c #540B00",
"r  c #5A0D03",
"t  c #4F1402",
"y  c #45140B",
"u  c #40190D",
"i  c #541405",
"p  c #5D1100",
"a  c #431C12",
"s  c #411F1D",
"d  c #521313",
"f  c #661900",
"g  c #57290B",
"h  c #582713",
"j  c #463517",
"k  c #682608",
"l  c #792704",
"z  c #672914",
"x  c #61311D",
"c  c #733016",
"v  c #503325",
"b  c #413633",
"n  c #443936",
"m  c #483A37",
"M  c #463C39",
"N  c #493E3A",
"B  c #503132",
"V  c #672922",
"C  c #35410E",
"Z  c #3A460E",
"A  c #3E4D0A",
"S  c #3C5503",
"D  c #394511",
"F  c #3D4B12",
"G  c #415705",
"H  c #435E03",
"J  c #404E14",
"K  c #435215",
"L  c #49551B",
"P  c #4C5C1A",
"I  c #4B6505",
"U  c #4C600D",
"Y  c #516509",
"T  c #536B09",
"R  c #57700B",
"E  c #5C740C",
"W  c #4F6019",
"Q  c #586C17",
"!  c #52641C",
"~  c #5D7512",
"^  c #657D0C",
"/  c #697F13",
"(  c #697E19",
")  c #4A4A2B",
"_  c #495022",
"`  c #53592F",
"'  c #4F4B35",
"]  c #4C413E",
"[  c #50433F",
"{  c #55493F",
"}  c #79452D",
"|  c #7E502E",
" . c #774C32",
".. c #765736",
"X. c #5A6727",
"o. c #5F7423",
"O. c #727F26",
"+. c #6D7432",
"@. c #4E3F41",
"#. c #4E4341",
"$. c #4A4A48",
"%. c #524643",
"&. c #544945",
"*. c #574848",
"=. c #564B49",
"-. c #594E4A",
";. c #5A514D",
":. c #5D5650",
">. c #765B5F",
",. c #68605B",
"<. c #745D66",
"1. c #6B6965",
"2. c #7A6A6A",
"3. c #70726E",
"4. c #79736D",
"5. c #7D677A",
"6. c #7D7872",
"7. c #903E0E",
"8. c #97451D",
"9. c #9B421D",
"0. c #8B4826",
"q. c #8C4529",
"w. c #9B4325",
"e. c #994627",
"r. c #8B4437",
"t. c #934833",
"y. c #8B5338",
"u. c #A34B29",
"i. c #B05F30",
"p. c #AE662C",
"a. c #B56A29",
"s. c #AA6634",
"d. c #B56433",
"f. c #BA6737",
"g. c #BA653C",
"h. c #B5683D",
"j. c #C2753D",
"k. c #854C44",
"l. c #B65F43",
"z. c #866C4D",
"x. c #8E704E",
"c. c #9B7859",
"v. c #9B7C5B",
"b. c #AB6A46",
"n. c #B66444",
"m. c #BB6443",
"M. c #B4674A",
"N. c #A96B55",
"B. c #AD7153",
"V. c #9A7F64",
"C. c #837E78",
"Z. c #C16A42",
"A. c #6A820F",
"S. c #728B14",
"D. c #768E1A",
"F. c #798F1B",
"G. c #9C825E",
"H. c #A0825E",
"J. c #9F8461",
"K. c #978169",
"L. c #9C856A",
"P. c #87837D",
"I. c #9A8D75",
"U. c #9D927C",
"Y. c #A38665",
"T. c #A2896B",
"R. c #A58D73",
"E. c #A69176",
"W. c #AC957C",
"Q. c #AC987D",
"!. c #B1987A",
"~. c #AC9C84",
"^. c #B4A48D",
"/. c #BCA58D",
"(. c #B8A88F",
"). c #AFA99B",
"_. c #B6A691",
"`. c #BAA691",
"'. c #B4A991",
"]. c #BBAA95",
"[. c #B2AA9D",
"{. c #BBAD99",
"}. c #BFB099",
"|. c #B4AEA0",
" X c #B8B2A5",
".X c #BCB6AA",
"XX c #BFB9AD",
"oX c #C3AB95",
"OX c #C4AE9A",
"+X c #C2B19C",
"@X c #C9B29C",
"#X c #C5B5A2",
"$X c #C7B8A5",
"%X c #CBB9A5",
"&X c #C4BAAC",
"*X c #CCBCAA",
"=X c #D1BEAE",
"-X c #C4BDB2",
";X c #CFC6A7",
":X c #D4C3B4",
">X c #D8C6B6",
",X c #DAC9BA",
"<X c #DDD8C5",
/* pixels */
"] #.#.#.#.#.#.] q ] %.;.] &.#.] #.#.q q N N ] N q ] n ] N 7 m #.#.#.#.#.%.#.#.N n N #.;.#.&.#.] #.#.q q n ] ] ] q ] n n m 0 N ] ",
"#.#.#.%.&.%.] ] #.] n 6 #.6 0 n n q q 7 q q %.q 0 ] ] n N N m #.#.#.@.%.<.. . &.#.] M 5 #.7 7 n n q 0 0 0 q ] n 9 ] N N ] n m ] ",
"] #.#.#.&.&.*.#.^ W q D.6 ;X%X:X=X>X0 0 b 6 m M ] n ] M q ~ ) n #.#.$.: y t t ; . W q D.5 #.N N 0 b q q q 6 n ] ] N [ N n ~ ) q ",
"n ] %.*.*.#.#.] K P <X}.}.#X$X*X*X;X*X*X<XN *.M ] ] { 1 P q #.] q #.o V X y i t y O I E M n N ] n q ] n ] ] =.n ] ] ] 1 P q #.#.",
"] %.] %.*.n ! C T *Xx.{.J.J.v.K.G.J.v.%XT.>X6.4.7 I I C A.n %.] [ %.o N.q.X ; w i o ~ 5 &.n ] N N N q n N :.6.4.7 I I C A.q %.#.",
"%.%.%.*.*._ 9 S.:X*XK.H.              G.L.:X:XS.4 , 6 K ~ q ] ] %.%.%.N.q. .% r e % # 9 9 n m N ] #.#.] q ,.4.S.3 , 6 J ~ q N #.",
"N *.*.#.q I P *X*XY.                      J.*X*XA F.7 S 6 ] ] %.N *.*.. : a ; o a . . O N 6 %.0 T M N N n I q I F F.6 H 7 #.N #.",
"%.*.&.#.A n #X#XY.                          Y.$X+X9 R M m #.#.*.%.%.. X ; w & X g N. .% 0 0 b b A.H q T 6 &.*.#.J 9 E n n %.%.=.",
"] ] 6 / 0 7 {.OXJ.                          v.@X#XF ' I 0 b #.%.N n | s.& b.b.0.p.p.M.t.# 0 5 D 6 F 0 A.5 *.&.=._ J ' H b q #.%.",
"0 S 3 6 0 U.>XV.                              ..:X{.#.#.o.3 6 6 b & m.d.h.9.w.f 7.h.m.t.$ 6 3 b m N %.] ] n ;.T q K %.#.o.3 6 6 ",
"9 4 6 b q I.L.V.                              z.T.+X*.#.#.b n 6 7 4 g m.d.g.w.f Z.d.w.r 4 m ] n #.#.0 n b n -.*.#.#.&.#.#.b n 6 ",
"b 7 q b n )./.T.                              x.~.^.N #.%.b 6 7 b 0 o e.u.i.g.l g.d.Z.q.b b [ n m b n b P.0 b ] N #.] ] %.b 6 0 ",
"7 b 0 b b ).^.T.                              v.^.`.#.N ] q q 7 7 b 0 V M.g.h.f e.g.B.h b n n n q q ~.3.4.-.9 ] N N #.N N b 0 0 ",
"0 b b b b [./.T.                              v._._./ 0 6 N 9 q 0 b q + o % y.f.a.h.r.& b n n n n q 1.:.;.n ] I N q A.5 7 N 9 0 ",
"b b b n n |./.R.                              v.]._.Z H Y E 7 q m q m O X > o b.0.o T T b b b ] N M $.*.n K 4 L P E D I I E 7 q ",
"b b n m b  X/.E.                              v.].'.I W S.7 9 b & r.y.v.X - < o h X ~ F.7 7 b b m q 5 6 3 b ] -.{ N I ! S.7 7 q ",
"b n m m q  X`.W.                              v.].{.] E , H 4 7 d k.X X z n.m.g.d.o q I 0 ` ] 6 0 S 7 5 6 b n ] [ [ ] E , H 4 9 ",
"0 0 9 b q .XoXQ.                              v.{.}.] ] [ %.b 0 0 b 7 x b.f.Z.8.f.* Q 3 0 ] N N N N K K E n ] ] b { ] ] [ [ b 0 ",
"n m N n %..XoXW.                              v.{.+X] ] N [ b 9 m m n b.d.a.a.M.t.* S.q n N #.] ] ] =.K 7 n n n n N N N N [ b 6 ",
"n b n n ] .XoXW.                              v.+XOXn n b ] m n n q + j.8.u.l.c % W 6 0 n q #.#.n n n W 9 T n n m m n ] b N @.n ",
"b b 0 n n XXOXW.                              v.$X+Xm N M #.N q b b X l q.u.q.X v L K b b n m M n 5 ] X.J L 3.3.m m N N N N N b ",
"7 b b b b &XOXQ.                              v.$X+X] ] N N 7 q 6 b . 8.w.e.= h   X.! 9 b b q m n 6 ] n Z 7 ` $.q q #.N N N 9 0 ",
"0 0 9 q q &X@XQ.                              v.$X+Xn n ] n q 0 0 0 7 . ..} v.X . 1.;.0 9 0 b n b N n n N n U n M M m m N n b 7 ",
"6 7 6 X.7 -X@X!.                              v.$X%Xn q ] n q #.6 6 6 X.s r e h ;   N m b m N 7 n [ 0 ] N N S.n q n m b N n q %.",
"] %.0 S D.-X@XQ.                              v.$X%Xn N M 5 =.#.#.%.7 S O.y z p x   6 n q b b %.n b ] n q m M I q M M M m 6 *.#.",
"] N q 3 F -X@XQ.                              v.$X%Xn N @.6 N #.#.N q 3 F . : c y @ 6 0 n q b b n n M q q 0 6 q , M N N N 6 ] #.",
"M #.q 3 H U.>XQ.                              v.:X$Xb n n n q q m #.q 3 H . j z k . W 7 m 9 n b q n n n n n q n 5 N q m M M q q ",
"q M N #.' I.`.Q.^.^.(._.'.]._.'.]._._.'.'._.^.c.!.+Xb b M A.Y q q M #.@.' X v i k : #.n n 6 b n b n n n q n M q N q b q q A.U q ",
"#.#.#.$.M @.6 *X*X*X:X*X:X:X>X>X,X,X,X,X,X,X,X.Xm H , K T ~ #.q N #.#.*.5.: o k l i O n #.M q 4.4.b m 6 D n N N N S C K T ~ #.q ",
"#.#.#.;.$.q S 9 N ] @.#.#.#.] &.%.Z T A.C 0 q 6 0 N T 9 C N q 6 #.#.B : X : : . . #.] #.#.#.#.&.%.Z R A.C 7 q 5 0 N T 7 C N q 6 ",
"#.#.#.#.$.#.Q W N M M N #.*.6 7 6 ] n 7 K 0 q ] ] ] 0 b 9 0 N n #.#.@.<.C.2.+.! N q N #.#.&.5 7 7 #.n 9 K 0 9 ] ] ] q q 9 7 N N ",
"#.#.@.#.#.@.M M #.#.#.#.$.&.=.] &.;.N b n n n q n 7 ] m N 0 N ] #.#.N @.m ] N m #.#.#.#.#.=.*.#.&.=.m q n N n q n 7 N N N 0 M #."
};
