/* XPM */
static char *ml_od_01722079348[] = {
/* columns rows colors chars-per-pixel */
"64 32 206 2 ",
"   c black",
".  c #0C0000",
"X  c #0C0800",
"o  c #130000",
"O  c #1B0000",
"+  c #130008",
"@  c #1B010A",
"#  c #230000",
"$  c #2C0000",
"%  c #29020A",
"&  c #3C0704",
"*  c #2E1E0F",
"=  c #3D1100",
"-  c #3A190A",
";  c #26011A",
":  c #3E0D10",
">  c #391A14",
",  c #3A210D",
"<  c #333D0D",
"1  c #393F0F",
"2  c #2A231A",
"3  c #38271C",
"4  c #373B19",
"5  c #2D2522",
"6  c #312725",
"7  c #332A25",
"8  c #362C29",
"9  c #392E2B",
"0  c #3A3426",
"q  c #3B312D",
"w  c #3B3A28",
"e  c #3E3431",
"r  c #450C00",
"t  c #4D0C00",
"y  c #580E03",
"u  c #461507",
"i  c #4C1801",
"p  c #4B150B",
"a  c #521303",
"s  c #5C1201",
"d  c #581B0D",
"f  c #491A15",
"g  c #551C15",
"h  c #640E00",
"j  c #6B1C00",
"k  c #462113",
"l  c #5B2817",
"z  c #5D2C1A",
"x  c #4C3010",
"c  c #5A3219",
"v  c #6B2302",
"b  c #67280A",
"n  c #762809",
"m  c #662717",
"M  c #652A14",
"N  c #6E2812",
"B  c #64321A",
"V  c #421A22",
"C  c #572B20",
"Z  c #41332F",
"A  c #413633",
"S  c #443936",
"D  c #483A37",
"F  c #463C39",
"G  c #493E3B",
"H  c #35410E",
"J  c #3A460E",
"K  c #3D4C0A",
"L  c #394610",
"P  c #3E4C13",
"I  c #435E02",
"U  c #485A0A",
"Y  c #404E14",
"T  c #445315",
"R  c #4B5C19",
"E  c #4B6505",
"W  c #4B6208",
"Q  c #506506",
"!  c #516807",
"~  c #546B0A",
"^  c #5C740D",
"/  c #5F790F",
"(  c #4F6019",
")  c #5A6F11",
"_  c #52641C",
"`  c #596A1D",
"'  c #5D7711",
"]  c #667E0C",
"[  c #697E14",
"{  c #697E18",
"}  c #4B4C2B",
"|  c #4E552B",
" . c #444233",
".. c #4F4B35",
"X. c #4C413E",
"o. c #51433F",
"O. c #72462F",
"+. c #784C38",
"@. c #7A5537",
"#. c #5F7423",
"$. c #4E4341",
"%. c #4B4C45",
"&. c #524643",
"*. c #544945",
"=. c #564B49",
"-. c #584D4A",
";. c #5B524D",
":. c #5F5751",
">. c #745746",
",. c #605953",
"<. c #655E58",
"1. c #6A635E",
"2. c #6D6F6C",
"3. c #736D67",
"4. c #70726E",
"5. c #79736D",
"6. c #7C7974",
"7. c #993E1B",
"8. c #9D3D27",
"9. c #8C431A",
"0. c #954516",
"q. c #9A4617",
"w. c #93451E",
"e. c #9B431C",
"r. c #A0441D",
"t. c #884527",
"y. c #834B2B",
"u. c #8B4A2D",
"i. c #934624",
"p. c #9C4A23",
"a. c #984827",
"s. c #93462B",
"d. c #824937",
"f. c #874937",
"g. c #82523D",
"h. c #BF5F2D",
"j. c #B65C3A",
"k. c #BC632E",
"l. c #AC603C",
"z. c #B96736",
"x. c #B3643C",
"c. c #BC653A",
"v. c #C36A3D",
"b. c #CB7037",
"n. c #825343",
"m. c #866C4D",
"M. c #8E704E",
"N. c #9E6B5C",
"B. c #997B57",
"V. c #9B7C5B",
"C. c #A66646",
"Z. c #AA6942",
"A. c #B26543",
"S. c #B76945",
"D. c #BA6A42",
"F. c #B8694A",
"G. c #AB6E57",
"H. c #B07158",
"J. c #9A7F64",
"K. c #6A820F",
"L. c #718A15",
"P. c #758E1A",
"I. c #798F1B",
"U. c #9C825E",
"Y. c #A0825E",
"T. c #9F8461",
"R. c #978169",
"E. c #9C856A",
"W. c #9A8D75",
"Q. c #938B7D",
"!. c #A38665",
"~. c #A2896B",
"^. c #A69176",
"/. c #AC957C",
"(. c #AC987D",
"). c #B1987A",
"_. c #AC9C84",
"`. c #B4A48D",
"'. c #BCA58D",
"]. c #AFA99B",
"[. c #B6A691",
"{. c #BAA691",
"}. c #B4A991",
"|. c #BBAA95",
" X c #BBAD99",
".X c #BFB099",
"XX c #B4AEA0",
"oX c #BBB5A9",
"OX c #BCB6AA",
"+X c #C3AB95",
"@X c #C4AE9A",
"#X c #C2B19C",
"$X c #C9B29C",
"%X c #C5B5A2",
"&X c #C8B6A2",
"*X c #C7B8A5",
"=X c #CBB9A5",
"-X c #C3B7AA",
";X c #CCBCAA",
":X c #D1BEAE",
">X c #C4BDB2",
",X c #CFC6A7",
"<X c #D4C3B4",
"1X c #D8C6B6",
"2X c #DAC9BA",
"3X c #DDD8C5",
/* pixels */
"X.$.$.$.&.$.$.G A X.*.-.$.*.%.X.%.&.e A D G X. .S o.S G G 9 G $.X.$.$.$.&.$.$.G e X.%.-.$.*.&.X.$.$.e S G G G G A &.S G D 9 G $.",
"$.$.$.&.*.&.G $.$.G A 8 $.8 q S A e q 9 q A &.e e G G S S F F X.$.$.$.$.=.&.G $.$.X.F 7 $.8 0 S S e q 8 e e $.A 0 X.G D G S S $.",
"X.$.$.$.*.*.*.&.] ( e P.8 ,X=X:X<X<Xe e A 8 S G G G o.G e ' } S $.$.$.$.&.*.*.&.] R e P.7 . . + 9 A e e A 8 S  .G G &.G S ) } S ",
"S X.&.*.*.X.$.G T R 3X.X@X%X*X;X;X;X;X;X3XG -.S G G &.4 R S X.$.S $.$.&.=.X.$.G T R U . > u a t p @ G S X.G -.D G G &.4 R S X.X.",
"X.&.G *.=.D _ H ~ :XM. XT.T.V.R.U.T.B.&X!.1X6.5.9 E W H { S &.X.X.&.G &.=.D _ L ~ *.. O z O f a d f + S G :.6.5.9 E Q H { e &.X.",
"&.&.*.*.*.} Z L.<X;XJ.Y.              U.E.<X<XL.6 1 7 T ^ e G X.&.*.&.*.&.} q L.S W + O H.m # a y g O &.e <.5.L.5 < 7 Y ^ e G $.",
"G *.*.X.A E ( =X;X!.                      T.;X;XP I.8 I 8 X.X.&.G *.*.X.e W ( Q 9 8 5 0 g.O.x = p r , + A E e E P I.8 I 9 X.X.&.",
"*.*.=.o.J A %X%X!.                          !.*X#X0 ^ A S &.$.=.*.*.*.$.K F ;.5.3.1.$.3 9 >.o - % O k . O -.-.X.P 0 ) S F &.$.*.",
"G G 8 [ 9 e @X@XV.                          V.$X%XY ..I q A X.&.G G 8 [ e 9 :.:.-.*.O u d.n.# o o . O g.+.z % -.| K ..I q e $.&.",
"e I 2 8 q Q.1XJ.                              @.<X X&.$.#.6 8 8 Z I 5 8 q q 6 =.%.S >.C.D.p.Z.# O # a j.z.c.f.O e T *.$.#.5 8 8 ",
"9 6 9 A A W.E.J.                              m.~.#X&.$.$.A S 9 9 6 9 Z A e e q 9 5 M s.e.v w.v.k.e.i.s 7.p.j i G X.*.$.$.A S 8 ",
"A 9 e A S ].`.~.                              M._.`.$.X.&.A 8 9 A 9 q A A 9 G A e A d & j.n a.v.k.v.p.u.S.0.x.j.c o X.X.&.A 8 q ",
"9 A A Z A ].`.~.                              V.[.`.$.G G A q 9 9 Z Z A A 9 G A G S z N v n n q.r.c.c.7.w.D.j.r.w.M G X.X.A q q ",
"q A A A e XX'.~.                              V.[.{.K.9 8 X.0 e q A Z A q S F A G 9 r b N +.v t.s.N u.B *.Z b e.x.Z.O 8 8 G 0 q ",
"A A A S S XX'.^.                              V.|.[.L I E ^ 0 q A A A S S G 8 X.X * G.A.y.O O O O . O + S T +.D.x.b < I ! ^ 9 e ",
"A A S S S XX'.^.                              V.|.|.W _ P.9 9 e A S S ; +.N.H.G.2  .O O 9 . . . . . . . q A O G.x . E _ L.8 9 e ",
"A S S G q oX'./.                              V. X|.G ' < I 6 9 e S S F O.c O O ~ 9 A U +.u.O B l.b.k.F.$ >.G O X.o.G / < I 6 9 ",
"q q 9 e A oX{.(.                              V. X.XX.o.o.o.A q e e 9 e e e 8 e I.Q ` O S.l.g.A.c.z.S.7.x.u.# D A &.X.X.o.o.A q ",
"D S G S &.OX+X(.                              V..X#XG G G o.A 9 S S G S %.G $.X.3 ! O @.h.c.y.z.k.S.h A.x.N 9 S D G G G G o.A 9 ",
"S A D D o.OX+X(.                              V..X.XD G A G X.S S A D S o.X.$.e L.R m v 0.u.g.A.z.z.0.n O U S F D G G G A G G S ",
"A A e A S OX$X(.                              V.%X#XG G G G G e A A e S F S 6.%.' % F.e.p.a.f.y.x.e.p.s.O T 4.4.G S G G G G G A ",
"0 A A e Z -X@X(.                              V.%X$XX.G G G 8 e 8 A Z A e q w _ ) # w.q.n $ e # y.8.a.f.1 e | %.S e X.G G G 0 q ",
"q q q e e >X$X/.                              V.*X%XA S $.S e e q q q q e 8 { 6._.3.H.A.F.# 9 Z O i.p.w.l O U S S S S S G S A 9 ",
"8 9 8 ` 9 >X$X).                              V.*X%XG S G S e $.8 9 8 ` 8 e e 2.:.,.$ # # O O 9 S # Z.9.N.# + A F S S S G F e &.",
"$.&.e K P.OX&X_.                              V.=X&XG G F 8 =.$.$.&.q K P.6 q :.:.*.: z m p . &.A Z O $ a M u + e F F G D 8 =.$.",
"G G e 5 P <X%X/.                              B.;X&Xe G G 8 F $.$.G e 5 P P P e A 2 # z s = O S A A G O b s r X < S A G G 8 G $.",
"F %.e 5 I W.1X(.                              V.1X*XA S S S e q F $.e 5 I ! ! P 7 T # z r 8 S S A D S S A # d i 6 S S F F F A 9 ",
"e e $.X...W.{.(.`.`.`.{.}.{.[.}.|.{.}.}.}.}.`.V.). XS S F { ! e e G $.G ..q K.W S A $ M s 7 A S A A S S A A u N # e S e S { Q A ",
"$.$.$.%.G F 8 *X;X;X:X:X<X<X1X1X2X2X2X2X2X2X2X%XS I H T ~ ^ $.e G $.$.*.X.F 9 e G % t n a e e 5.5.A G 8 L A O s N r H P Q ) $.e ",
"$.$.$.;.%.F K w G X.$.$.$.$.$.*.%.J ~ K.< q e 8 q G ~ q H G e 8 $.$.$.;.%.e @ V C g : f k . $.*.*.J ~ K.+ > k u p O ! q 1 G e 8 ",
"$.$.$.$.$.$.` _ X.F F G $.*.8 9 9 X.S 9 T q q G X.X.q q 0 0 G F $.$.$.$.$.%.` _ G F X.X.*.&.7 9 8 X.D q Y q 9 G G $.q e 0 9 G G ",
"$.$.F $.$.$.F S X.$.$.$.%.=.=.X.*.=.G e S S G A S 9 X.G D q G $.$.$.G $.$.$.F G G $.$.&.&.=.*.$.*.-.G q S A F e F 8 G G G q F $."
};
