/* XPM */
static char *ml_od_31722085379[] = {
/* columns rows colors chars-per-pixel */
"64 32 202 2 ",
"   c #000000",
".  c #0C0101",
"X  c #140000",
"o  c #1B0001",
"O  c #1C000B",
"+  c #240000",
"@  c #2B0000",
"#  c #27010E",
"$  c #320000",
"%  c #3B1103",
"&  c #3E180A",
"*  c #331516",
"=  c #381A17",
"-  c #333D0D",
";  c #2C231F",
":  c #312D1E",
">  c #3A3A1E",
",  c #2D2522",
"<  c #312725",
"1  c #332926",
"2  c #362C29",
"3  c #392E2B",
"4  c #3A3525",
"5  c #3A3827",
"6  c #3B322D",
"7  c #3E3431",
"8  c #440C00",
"9  c #540D00",
"0  c #4A1305",
"q  c #461907",
"w  c #44140A",
"e  c #491509",
"r  c #531402",
"t  c #5D1203",
"y  c #521E09",
"u  c #491412",
"i  c #481B12",
"p  c #631000",
"a  c #781E02",
"s  c #58250E",
"d  c #5A2513",
"f  c #5C2B1A",
"g  c #672809",
"h  c #732404",
"j  c #77270A",
"k  c #672616",
"l  c #612914",
"z  c #732912",
"x  c #653519",
"c  c #592B22",
"v  c #553020",
"b  c #413633",
"n  c #443936",
"m  c #483A37",
"M  c #463C39",
"N  c #493E3B",
"B  c #35410E",
"V  c #3A460E",
"C  c #3D4C09",
"Z  c #3D5703",
"A  c #394511",
"S  c #3D4A12",
"D  c #435E03",
"F  c #475B08",
"G  c #404E14",
"H  c #445215",
"J  c #495917",
"K  c #49531D",
"L  c #4B5C19",
"P  c #4B6405",
"I  c #4A6109",
"U  c #516807",
"Y  c #516509",
"T  c #546C09",
"R  c #5B740D",
"E  c #5B750D",
"W  c #4F6019",
"Q  c #5A6F11",
"!  c #566618",
"~  c #51641C",
"^  c #5A6C1E",
"/  c #5D7413",
"(  c #60770E",
")  c #617512",
"_  c #697E14",
"`  c #697E19",
"'  c #4B4C2B",
"]  c #4C5424",
"[  c #53592F",
"{  c #494337",
"}  c #4F4B34",
"|  c #4C413E",
" . c #51433F",
".. c #55493F",
"X. c #7B4A33",
"o. c #79553C",
"O. c #5B6927",
"+. c #5F7323",
"@. c #4E4341",
"#. c #4B4C45",
"$. c #524643",
"%. c #544945",
"&. c #584A47",
"*. c #564B49",
"=. c #594D4A",
"-. c #5B524D",
";. c #5E5651",
":. c #7D5343",
">. c #615953",
",. c #655E58",
"<. c #69625D",
"1. c #6D6966",
"2. c #726B65",
"3. c #776C67",
"4. c #74726D",
"5. c #78736C",
"6. c #7B7A75",
"7. c #903D1D",
"8. c #993E21",
"9. c #8C481B",
"0. c #954716",
"q. c #94461B",
"w. c #8F462C",
"e. c #89492D",
"r. c #954523",
"t. c #9B4523",
"y. c #974928",
"u. c #86502E",
"i. c #834C31",
"p. c #85493A",
"a. c #914C36",
"s. c #81513D",
"d. c #A04D2B",
"f. c #BA5D34",
"g. c #B2672E",
"h. c #AF6333",
"j. c #AB623B",
"k. c #B46535",
"l. c #B46836",
"z. c #BB6837",
"x. c #BC653D",
"c. c #C0622F",
"v. c #C76439",
"b. c #887056",
"n. c #9A7C56",
"m. c #9B7C5B",
"M. c #A66843",
"N. c #B36745",
"B. c #B56C45",
"V. c #B4644D",
"C. c #B96949",
"Z. c #AF714C",
"A. c #A66852",
"S. c #A77354",
"D. c #997C65",
"F. c #827D77",
"G. c #B46C60",
"H. c #C06E46",
"J. c #6B820F",
"K. c #728A14",
"L. c #758D17",
"P. c #758E1A",
"I. c #798E1B",
"U. c #9C815E",
"Y. c #A0825E",
"T. c #9C8468",
"R. c #87837D",
"E. c #9A8D75",
"W. c #9D927C",
"Q. c #A38869",
"!. c #A58D73",
"~. c #A69176",
"^. c #AC957C",
"/. c #AC987D",
"(. c #B1987A",
"). c #AA9A83",
"_. c #B3A38C",
"`. c #BCA58D",
"'. c #AFA99B",
"]. c #BAA691",
"[. c #B5A991",
"{. c #B9AA95",
"}. c #B6AA99",
"|. c #BFB099",
" X c #B4AEA0",
".X c #BBB5A9",
"XX c #BCB6AA",
"oX c #C3AB95",
"OX c #C4AE9A",
"+X c #C2B19C",
"@X c #C9B19C",
"#X c #C6B5A3",
"$X c #CBB9A5",
"%X c #C5B7A8",
"&X c #CCBBAA",
"*X c #D1BEAE",
"=X c #C4BDB2",
"-X c #CFC6A7",
";X c #D4C4B5",
":X c #D8C6B6",
">X c #DAC9BA",
",X c #E3D9BE",
/* pixels */
"| @.@.@.@.@.@.N 7 @.#.=.@.%.@.@.@.@.7 b n N | M n | n m N 3 N | @.@.@.@.$.@.@.N 7 @.@.=.@.#.@.| @.@.7 b M N N N n | b N N 6 M | ",
"@.@.@.$.&.@.{ @.@.@.n 2 @.2 3 n n 7 6 6 6 b @.7 7 | M N M N M @.@.@.| @.&.$.N @.@.{ n 2 @.3 6 n n 7 6 6 6 7 $.b 6 N N N m M M @.",
"@.@.@.@.%.%.&.@.( W 7 P.2 -X$X*X;X;X7 6 n 3 n { M |  .N 7 ( ' b @.@.@.$.%.$.%.@.J.L b I.3 N N M 6 n 6 7 n 2 n N N N  .m n R ' n ",
"n N $.&.&.| | | H L ,X|.+X#X&X&X&X&Xu q y 0 + n | |  .> ] b | @.b @.@.%.&.@.@.N H L P R n M N @.n 7 N m | { *.n | N $.> K n @.N ",
"| $.N %.&.m ~ B T ;Xb.}.U.T.m.T.T.o o & r r % + 2 P P B _ n $.| | $.| $.*.N W A T $.) < %.m | N M N b n M >.6.5.3 P P - _ n $.N ",
"@.$.$.%.&.' 6 K.*X&Xm.Y.          f x o e r 9 y < - 1 H R 7 N | $.$.$.$.$.' 6 K.M P ] 6 4 n m N N @.@.@.7 ,.5.K.1 - 2 H R 7 | @.",
"N &.%.| 7 I W &X&XQ.              X w.A.+ i 0 q = P.1 D 3 N N $.| $.%.@.7 P W P 3 1 ; 6 N 2 $.6 T n N N b P n P S P.3 D 6 | N $.",
"%.&.%.@.C b #X#XQ.                O + + o w 8 i ;   R n m $.$.*.$.*.%.@.C n ;.5.4.<.@.4 6 6 b 7 K.Z 7 T 2 &.*.| C 4 R n 7 $.@.*.",
"| N 2 _ 6 3 |.+Xm.                X 0 r e o X X   . . D 6 7 @.%.N N 2 _ 6 6 ;.;.-.%.b 2.b 3 2 A 2 S 3 ` 2 %.&.-.] S } D 7 7 @.$.",
"6 D , 2 7 W.;XD.                + o.+ w X.i.7.H.k.e.d N +., 2 2 6 D , 3 6 6 < *.%.n 6 >.%.2 , b M M @.| N n =.T 7 H $.@.+., 2 2 ",
"3 < 3 7 7 E.T.D.              + X.k.h.l.q.t.a t.v.x.w.o @.n n 3 3 1 3 b n 6 b 6 3 < b ; < N ..N | @.7 M n 7 %.%.@.@.$.@.@.b M 2 ",
"b 6 7 7 n '.].T.                + q.r.r.h h t j 0.r.y.s + 7 2 3 b 3 6 b b 6 n n 7 M n 2 7 b | n n n n 7 R.7 n | @.@.@.| $.b 2 3 ",
"2 b 6 b b '.`.!.                + i.f.v.z.h h r.N.v.x.N.a.+ 7 4 2 b b b b 2 m n N n n F b b n n 7 b R.R.3.=.7 | M | | | | b 6 6 ",
"6 b b b 6  X`.Q.                + i.B.0.x.t.j s + w.r.z.v.s.3 6 6 b b b 6 m n n | 6 < ^ b n b n n 7 <.<.;.n { I M 7 J.2 2 N 3 6 ",
"b b b b m  X].~.            + + e.i.S.M.Z.M.s % }.[.s c.k.d 3 b b b b b n m 6 @.| | P T 6 b b | | n %.%.n H < K Y R A D U R 6 6 ",
"b b n m b  X`.~.        + i.A.D.B.{ 1.%.; ; . . {.X o.N.u.+ 3 b b b m n b 6 | | @.J / I.6 3 b b b b < 2 , b | =...M P ~ K.6 6 6 ",
"b n n M b  XoX~.        # :.f     o C.Z.N.k.f . . 3.N o - D 1 3 b n n M 7 n { | R 3 7 P 6 [ | 2 6 D 3 1 2 7 n | |  .N R - D < 6 ",
"6 6 3 b b .XoX/.                  S.c.x.g.l.z + i.X o @.N  .b 3 6 6 6 7 7 7 2 b P.P ^ , 6 | | m { | G G Q n | | b $.| |  . .b 6 ",
"m m { n $.XXoX^.                + z.v.c.z.9.x M.k.w m N N  .b 3 n N M n %.N | | : P K.7 b | %.| | | &.G 6 n n M m | n N N  .b 2 ",
"n b n n  .XXoX/.              l y.d.t.k.y.$ l z 9 x | | b N N N n 6 n M | | | n K.L 4 6 n 6 | $.n n b ! 4 T b b m m | { b N N M ",
"b b 7 n b XX@X/.            o Z.8.r.w.p.  + j t.a k.g N N | N 7 b b 7 n n m 6.#.( J G b n n n n n 2 | O.S H 4.4.n M N N N N N b ",
"2 b b b b %XOX/.            @ y.C.j +       + e.d.k.9.+ + N 3 7 3 b b b 6 6 5 W R O.~ b 6 b 7 M n 2 m N A 3 [ #.n 7 | N N N 3 7 ",
"6 6 6 6 6 =X@X).          o p.r.j.a.          m.}.G.V.V.i.= o 3 6 6 6 6 6 6 _ F.R.4.=.6 6 6 n b b m | n N n I n n m n n N n b 6 ",
"1 6 2 ^ 3 =X@X(.          X q $ @ k           m.#X@ c 0 r k u $.1 6 2 ^ 3 b n 2.<.>.M m b m N 6 n { 6 | N | L.m n n n b | n 7 @.",
"| $.6 Z P.=X@X).          i 8 k 0 @           m.$X$Xn f g p t | | $.6 Z P.< 3 ;.-.#.< n 6 n b  .b n | n b N m F b n M N M 2 *.@.",
"| N 7 , S =X@X/.        X k 9 d i             n.&X#X7 M o z t o | | 7 , A H S 7 7 , 2 6 b 7 b b n b N 7 6 4 2 b - n b M N 3 M @.",
"M @.7 , P E.:X/.      + q 9 w                 m.;X%Xn M n O = p + | n ; D P T S 2 K L 6 m 3 n b b n n M n n b n 2 M n m M b n 3 ",
"7 M N @.} E.]./._._.).l g e O }.].{.[.[.[.[._.n.(.+Xn 7 n ` X g q n | | } 7 J.I M 7 N 7 M 2 b n b b n n 7 n n b N 7 n 7 n ` Y b ",
"@.@.@.#.N M 1 %X&XX w g g o ;X;X>X>X>X>X>X>X>X.Xn D - H T o i h a * @.*.N M 2 7 M N N 7 | M b 4.5.b m 2 A n n N n D B H T / | 7 ",
"@.@.@.-.#.M C 4 M X o & & O @.$.$.V T J.- 6 7 2 6 N T 4 O v w + # @.@.-.@.M C 5 M @.@.@.@.| | %.%.A T J.B 6 b 2 6 M T 6 - N 7 2 ",
"@.@.@.@.@.@.~ O.| n N M $.*.1 3 2 @.n 3 H 7 7 | | | 7 b 4 6 N N @.@.@.@.@.#./ ~ N M N | %.%.2 3 2 | n 6 H 6 6 N | | 6 b 4 6 M N ",
"@.@.M @.@.@.M M | @.@.@.$.*.*.@.%.=.M 7 n n n 7 n 3 | n N 3 M @.@.@.N @.@.@.M n N @.@.@.@.=.%.| &.=.| 6 n n n b n 3 | M M 6 M @."
};
