/* XPM */
static char *ml_od_21722085378[] = {
/* columns rows colors chars-per-pixel */
"64 32 203 2 ",
"   c #000000",
".  c #060504",
"X  c #0D0001",
"o  c #140000",
"O  c #1C0001",
"+  c #1F0612",
"@  c #230001",
"#  c #220406",
"$  c #2B0000",
"%  c #2E1A0F",
"&  c #371303",
"*  c #2D0D1B",
"=  c #391212",
"-  c #3E1D16",
";  c #333E0D",
":  c #2C231F",
">  c #372618",
",  c #363B18",
"<  c #2D2422",
"1  c #302725",
"2  c #332926",
"3  c #3B2C25",
"4  c #362C29",
"5  c #392E2B",
"6  c #3A3425",
"7  c #3A3926",
"8  c #3B322D",
"9  c #3E3431",
"0  c #4A0D02",
"q  c #520700",
"w  c #520C00",
"e  c #5B0C00",
"r  c #4C1302",
"t  c #481707",
"y  c #521300",
"u  c #5A1500",
"i  c #561E05",
"p  c #52130B",
"a  c #401C18",
"s  c #4E2A14",
"d  c #5A2A17",
"f  c #44321A",
"g  c #672304",
"h  c #6F2400",
"j  c #6C2409",
"k  c #6A2A0A",
"l  c #7E2A00",
"z  c #6A2612",
"x  c #692717",
"c  c #642914",
"v  c #612C1A",
"b  c #772715",
"n  c #431B26",
"m  c #5A2D27",
"M  c #413633",
"N  c #443936",
"B  c #493A37",
"V  c #463C39",
"C  c #493E3A",
"Z  c #663322",
"A  c #35410E",
"S  c #3A460E",
"D  c #3D4C0A",
"F  c #3D5703",
"G  c #394611",
"H  c #3D4A12",
"J  c #435D03",
"K  c #475B08",
"L  c #404E14",
"P  c #445215",
"I  c #4B5A17",
"U  c #495219",
"Y  c #4C5D19",
"T  c #4B6405",
"R  c #4A6109",
"E  c #506807",
"W  c #516509",
"Q  c #536B09",
"!  c #5B730C",
"~  c #5B750D",
"^  c #4F6019",
"/  c #5A6F11",
"(  c #51641C",
")  c #58691B",
"_  c #5D7413",
"`  c #637B0D",
"'  c #647413",
"]  c #697E14",
"[  c #697E19",
"{  c #4B4D2B",
"}  c #4C5424",
"|  c #53592F",
" . c #4F4B35",
".. c #4C413E",
"X. c #50433F",
"o. c #59473D",
"O. c #754831",
"+. c #7D4C38",
"@. c #785533",
"#. c #5B6927",
"$. c #5F7423",
"%. c #4E4341",
"&. c #4B4C45",
"*. c #524643",
"=. c #544945",
"-. c #584A47",
";. c #564B49",
":. c #594D4A",
">. c #5B524D",
",. c #5E5651",
"<. c #775A44",
"1. c #615953",
"2. c #655E58",
"3. c #69625D",
"4. c #6D6B66",
"5. c #726B65",
"6. c #7A6B66",
"7. c #74726D",
"8. c #79736D",
"9. c #7C7974",
"0. c #953F22",
"q. c #8E441F",
"w. c #9C431C",
"e. c #98461C",
"r. c #A9421F",
"t. c #88462B",
"y. c #954524",
"u. c #9C4523",
"i. c #98492A",
"p. c #97512F",
"a. c #854C34",
"s. c #994A36",
"d. c #81553A",
"f. c #A24B2D",
"g. c #B15D2F",
"h. c #B45F38",
"j. c #BA6735",
"k. c #B16A34",
"l. c #B3633A",
"z. c #BC6B3C",
"x. c #C3633D",
"c. c #885149",
"v. c #8D6B4F",
"b. c #8E704E",
"n. c #997B57",
"m. c #9B7C5B",
"M. c #AB644C",
"N. c #B96443",
"B. c #B46E4D",
"V. c #A27453",
"C. c #816F63",
"Z. c #9A7F64",
"A. c #C26843",
"S. c #6A820F",
"D. c #728A14",
"F. c #768E1A",
"G. c #798F1B",
"H. c #9C825E",
"J. c #A0825E",
"K. c #9F8461",
"L. c #978169",
"P. c #9C856A",
"I. c #87837D",
"U. c #9A8D75",
"Y. c #9D927C",
"T. c #A38665",
"R. c #A1886C",
"E. c #A69176",
"W. c #AC957C",
"Q. c #AC987D",
"!. c #B1987A",
"~. c #A69584",
"^. c #B5A48E",
"/. c #BCA58D",
"(. c #B8A88F",
"). c #AFA99B",
"_. c #B6A691",
"`. c #BAA691",
"'. c #B4A991",
"]. c #BAAA94",
"[. c #B7AB9A",
"{. c #BFB099",
"}. c #B4AEA0",
"|. c #B8B2A5",
" X c #BCB6AA",
".X c #BFB9AD",
"XX c #C3AB95",
"oX c #C4AE9A",
"OX c #C2B19C",
"+X c #C9B29C",
"@X c #C6B5A2",
"#X c #C8B6A2",
"$X c #C7B8A5",
"%X c #CBB9A5",
"&X c #C3B7AA",
"*X c #CCBCAA",
"=X c #D1BEAE",
"-X c #C4BDB2",
";X c #CFC6A7",
":X c #D4C3B3",
">X c #D8C6B6",
",X c #DAC9BA",
"<X c #DDD8C5",
/* pixels */
"..%.%.%.%.%.%...9 ..*.>...&.%...%.*.8 9 ..B ....9 ..B ..C 8 B ....%.%.%.*.%.%...9 ..&.:.%.&.%...%.%.9 M B C C C N ..B C C 5 V %.",
"%.%.%.*.=.*.....%...N 4 %.4 8 V N 9 8 8 8 9 *.9 6 ..V N C C B ..%.%.%.%.-.*.V %.....N 4 %.4 8 N N 9 8 8 8 M %.N 8 ..V C C N V %.",
"%.%.%.%.=.=.-.%.` ^ 9 F.2 ;X%X=X:X:X9 8 N 2 N ..C C ....* > 8 9 %.%.%...=.=.;.%.S.^ 9 G.4 %.C B 8 N 9 8 M 4 N C C C X.C 9 _ { M ",
"N C *.-.-.......P Y <X{.OX@X*X*X*X=X*X*X<X..;.N C C n - & r r * N %.%.-.-...%.V P Y T ~ N V C ..N M V C ..V :.V ..C X., Y N ....",
"..*.C -.-.N ( A Q =Xb.[.H.K.m.L.H.K.n.#XR.>X9.8.4 X O.d O r p t = =...*.:.N ^ G Q *._ 2 =.N ..C N C M V V ,.9.8.5 R T A ] M *...",
"*.*.*.-.*.{ 8 D.:X*XZ.J.              H.L.:X:XD.< . V.M.Z - 0 i t + *.-.=.{ 7 D.B T } 8 8 B B C C %.%...9 2.8.D.1 ; 4 L _ 9 C %.",
"C ;.*...9 R Y *X*XT.                      T.*X*XL G.O +.a.$ p w r X X C 9 R ^ T 8 2 : 8 B 4 *.8 Q N C V N T N T D G.4 J 5 C C *.",
"*.;.-.%.D N @X#XT.                          T.$XOX5 Y o = - & t @ o . 9 D N ,.8.7.3...7 8 5 N 9 D.J 9 Q 4 =.;...D 8 _ N N *.*.;.",
"....4 ] 5 9 {.oXm.                          m.+X[.; O $ 0 @ O s d.V.+.o 4 8 ,.,.>.=.N 4.M 6 1 G 4 H 8 S.2 =.=.>.} H  .R 5 9 %.*.",
"8 F < 4 5 U.>XZ.                              @.~.o l.B.@ B.N.l.k.j.z.o .   1 :.*.N 8 1.=.4 < M V V %.....N >.Q 9 P *.%.$.< 4 4 ",
"3 1 5 M 9 Y.P.Z.                              v.. O.l.x.h.e.h h y.A.r.c M 9 9 8 5 < M : 2 ..*.V ..%.M N N 9 >.*.%.%.-.%.%.M N 5 ",
"M 8 9 9 N ).`.P.                              b.C.# u.A.h.y.w.l w.A.w.$ M 8 N N 9 V B 4 9 M ..N N N N 9 I.9 9 ....%.....=.9 4 5 ",
"4 M 8 M M )./.R.                              m._.6.s.0.y.N.N.u.h.g.z.v M 3 B N ..N N K M N B N 9 M ~.9.5.>.9 ..V ........9 8 8 ",
"8 M M N 8 }./.R.                              m._._.] + y.k.N.z u j.j.+.5 N V N B 8 1 ) 9 N M M N 9 4.,.,.B B R V 9 S.4 4 ..8 8 ",
"M M M N N }./.E.                              m.[.`.G + O O O @ t.A.N.c.B N 5 ..%...T Q 8 M M ..%.V %.;.V P 1 U Q / S J E ! 6 8 ",
"M M N N M |./.E.                              m.].[.R O o o X V.k.p.z N M 8 *.%.%.I _ G.8 5 N M 9 9 1 4 < 9 ..>.o.V T ( D.4 8 9 ",
"M N B B 8 |./.W.                              m.[.].$ w u @ o.% X o N N 9 V V ..! 5 8 T 8 } ..4 5 K 4 2 4 9 N ....X...~ ; R < 8 ",
"8 8 8 8 M  XXXQ.                              m.].+ c.N.B.h w r @ @ 5 M 9 9 4 9 F.Q ) : 8 ....C V %.H P / N ....N *.........8 8 ",
"B C ..N X. XXXQ.                              m.# a.q y.e h t.$ x $ C N =.......: Q D.M N ..=.......:.P 5 N N N B B ........M 5 ",
"N 8 N N .. XXXQ.                              m.x y.u.f.s.$ b i.u.s.@ N ....%.N D.^ 2 8 N M ..=.N N N ^ 6 Q N N B B B ..8 ....B ",
"M M M N N .X+XQ.                              o q.i.w.i.@ s z i.i.t.# M N N 9.&.~ I H M M N B N N 2 ..#.H P 7.7.V V C C ....B 9 ",
"4 M M M M &XoXQ.                              <.+.i.u.y.m X O i.w.i.m M M 8 7 ^ ! #.( 9 M M 8 V N 4 C V G 5 | &.N 9 ..C C B 8 7 ",
"8 8 8 8 8 -X+XW.                              m.$X@X@ $ r k i O @.z.w.c.X V S.9.I.7.>.8 8 8 M M 9 N ..M C N R M N N N N C N 9 8 ",
"4 6 4 ) 8 -X+XW.                              m.$X#XN # s e q o X o @ w a o N 5.3.,...B 8 C C 8 ....6 ..C ..F.B N N V M ..V 9 %.",
"..*.8 F F.-X+X~.                              m.%X$XN C B v x p @ > v b v @ 8 1.>.&.4 N 9 M M X.M N ..N 9 B N R 9 V V C V 4 ;.%.",
"..C 9 < H -X+XQ.                              n.%X$XN C C 5 $ j k O O g & @ S M 9 < 1 8 M M M M N N V 9 6 8 4 M ; M N C C 4 V *.",
"9 %.9 < J Y.>XQ.                              m.:X&XN N N N M 0 u j x @ d @ E P 4 I } 4 C 8 N M M N N N V N M N 4 V M V M N M 8 ",
"9 V .... .U.`.Q.^.^.(.'.'.'.].'.`.`.'.'.(._.^.m.!.oXM M N [ W r z p O O c y ' K 9 9 ..V N 4 M N M N N V 9 N N 9 C 9 M M N [ W M ",
"%.&.%.;.V V 5 *X*X*X:X=X:X:X>X:X,X,X,X,X,X,X,X XC J ; P Q _ ..d t ....t g k t # V V ..9 ..B M 7.7.M C 4 G M B ..B J ; P Q _ ..M ",
"%.%.%.>.&.V D 7 V ..%.%.%.%.%.=.*.S Q S.A 8 9 1 8 C Q 6 A C 9 4 ... f d o o I 7 ..%.....%.%...=.=.S Q S.A 8 9 4 8 V Q 8 ; C 8 4 ",
"%.%.%.%.%.%.#.( ..N V V *.=.4 4 4 %.9 5 P 9 8 ......8 M 6 8 V V ..X.%.%.%.%.! ( ..9 ..V =.=.1 8 4 ..N 8 P 8 8 ......9 M 6 8 C C ",
"%.%.V %.%.%.9 V ..%.%.%.%.:.;.%.;.:...9 N N V 9 N 3 ..V V 8 V %...X.V %.%...V N ..%.%.%.=.=.-...-.:.C 8 N N B 9 N 5 C V V 8 V %."
};
